<svg width="24" height="24" viewBox="0 0 24 24" fill="none" xmlns="http://www.w3.org/2000/svg">
<path d="M11.9304 2.53938L11.6816 2.10564L11.9304 2.53938ZM12.0696 2.53938L12.3184 2.10564L12.0696 2.53938ZM11.6816 2.10564C11.3059 2.32109 9.6465 3.32565 8.07605 5.12681C6.5028 6.93117 5 9.55825 5 13.0003H6C6 9.86945 7.36269 7.4666 8.82978 5.78399C10.2997 4.09818 11.8554 3.15873 12.1791 2.97312L11.6816 2.10564ZM19 13.0003C19 9.55825 17.4972 6.93118 15.924 5.12681C14.3535 3.32566 12.6941 2.32109 12.3184 2.10564L11.8209 2.97312C12.1446 3.15873 13.7003 4.09818 15.1702 5.784C16.6373 7.4666 18 9.86945 18 13.0003H19ZM18 13.0003C18 16.314 15.3137 19.0003 12 19.0003V20.0003C15.866 20.0003 19 16.8663 19 13.0003H18ZM12 19.0003C8.68629 19.0003 6 16.314 6 13.0003H5C5 16.8663 8.13401 20.0003 12 20.0003V19.0003ZM12.1791 2.97312C12.0688 3.03638 11.9312 3.03638 11.8209 2.97312L12.3184 2.10564C12.1206 1.99221 11.8794 1.99221 11.6816 2.10564L12.1791 2.97312Z" fill="#7E869E" fill-opacity="0.25"/>
<path d="M15.4999 13.9739L14.9999 13.9751L14.9999 13.9775L15.4999 13.9739ZM8.5 13.9999L8 13.9999L8.5 13.9999ZM12.085 6.56461L11.7757 6.95744L12.085 6.56461ZM11.6056 6.17174C11.0241 6.62968 7.99995 9.23677 7.99994 13.9998L8.99994 13.9998C8.99995 9.69187 11.7357 7.34213 12.2243 6.9574L11.6056 6.17174ZM15.9999 13.9727C15.9884 9.22698 12.9749 6.62899 12.3943 6.17178L11.7757 6.95744C12.2634 7.34153 14.9895 9.68309 14.9999 13.9751L15.9999 13.9727ZM14.9999 13.9775C15 13.9849 15 13.9922 15 13.9996H16C16 13.9898 16 13.9801 15.9999 13.9704L14.9999 13.9775ZM15 13.9996C15 15.6564 13.6569 16.9996 12 16.9996V17.9996C14.2091 17.9996 16 16.2087 16 13.9996H15ZM12 16.9996C10.3432 16.9996 9.00014 15.6566 9 13.9998L8 13.9999C8.00019 16.2089 9.79098 17.9996 12 17.9996V16.9996ZM7.99994 13.9998C7.99994 14.2597 8.20784 14.4998 8.49997 14.4998V13.4998C8.79207 13.4998 8.99994 13.7399 8.99994 13.9998L7.99994 13.9998ZM9 13.9998C8.99998 13.7288 8.78117 13.4998 8.49997 13.4998V14.4998C8.2188 14.4998 8.00002 14.2709 8 13.9999L9 13.9998ZM12.2243 6.9574C12.0929 7.06081 11.9066 7.06051 11.7757 6.95744L12.3943 6.17178C12.1627 5.98941 11.8376 5.98902 11.6056 6.17174L12.2243 6.9574Z" fill="#222222"/>
<path d="M12 22V14" stroke="#222222"/>
<circle cx="12" cy="14" r="1" fill="#222222"/>
</svg>
