<svg width="24" height="24" viewBox="0 0 24 24" fill="none" xmlns="http://www.w3.org/2000/svg">
<path d="M18.5 12C18.5 15.5899 15.5899 18.5 12 18.5C8.41015 18.5 5.5 15.5899 5.5 12C5.5 6.36645 11.2303 2.93685 11.9302 2.53894C11.9741 2.51402 12.0259 2.51402 12.0698 2.53894C12.7697 2.93685 18.5 6.36645 18.5 12Z" stroke="#222222" stroke-width="2" stroke-linejoin="round"/>
<path d="M15.4991 11.9216L14.4993 11.9419L14.4994 11.9435L15.4991 11.9216ZM8.5 12.0002L9.5 12.0001L8.5 12.0002ZM12.0859 6.56395L12.6902 5.76719L12.0859 6.56395ZM11.3098 5.76721C11.0097 5.99483 10.0865 6.72917 9.22927 7.78452C8.38803 8.82021 7.49995 10.3 7.49994 12.0001L9.49994 12.0001C9.49995 10.9805 10.0502 9.94602 10.7817 9.04547C11.4972 8.16458 12.2811 7.54072 12.5184 7.36073L11.3098 5.76721ZM16.4989 11.9013C16.465 10.2274 15.5798 8.77335 14.7456 7.75377C13.8957 6.71509 12.9876 5.99277 12.6902 5.76719L11.4816 7.36071C11.7163 7.53876 12.4876 8.15245 13.1977 9.02029C13.9234 9.90722 14.4788 10.9301 14.4993 11.9419L16.4989 11.9013ZM14.4994 11.9435C14.4998 11.9622 14.5 11.981 14.5 11.9999H16.5C16.5 11.9664 16.4996 11.933 16.4989 11.8996L14.4994 11.9435ZM14.5 11.9999C14.5 13.3806 13.3807 14.4999 12 14.4999V16.4999C14.4853 16.4999 16.5 14.4852 16.5 11.9999H14.5ZM12 14.4999C10.6194 14.4999 9.50012 13.3807 9.5 12.0001L7.5 12.0003C7.50021 14.4854 9.51485 16.4999 12 16.4999V14.4999ZM7.49994 12.0001C7.49993 12.5502 7.9454 13.0002 8.49997 13.0002V11.0002C9.05451 11.0002 9.49994 11.4501 9.49994 12.0001L7.49994 12.0001ZM9.5 12.0001C9.49995 11.458 9.06236 11.0002 8.49997 11.0002V13.0002C7.93761 13.0002 7.50005 12.5423 7.5 12.0003L9.5 12.0001ZM12.5184 7.36073C12.2124 7.5928 11.7881 7.59315 11.4816 7.36071L12.6902 5.76719C12.2816 5.45729 11.7179 5.45768 11.3098 5.76721L12.5184 7.36073Z" fill="#222222"/>
<path d="M12 21V12" stroke="#222222" stroke-width="2"/>
</svg>
