<svg width="24" height="24" viewBox="0 0 24 24" fill="none" xmlns="http://www.w3.org/2000/svg">
<path d="M14 7H20M17 4V10" stroke="#33363F" stroke-width="2" stroke-linecap="round" stroke-linejoin="round"/>
<path d="M8 5L8.75872 4.34858C8.56874 4.12731 8.29163 4 8 4C7.70837 4 7.43126 4.12731 7.24128 4.34858L8 5ZM8 5C7.24128 4.34858 7.24113 4.34876 7.24095 4.34897C7.24086 4.34907 7.24067 4.3493 7.2405 4.3495C7.24016 4.34989 7.23974 4.35038 7.23925 4.35095C7.23827 4.3521 7.23698 4.3536 7.2354 4.35546C7.23224 4.35917 7.22789 4.36429 7.22238 4.37079C7.21137 4.3838 7.19575 4.40234 7.17583 4.42623C7.13599 4.47401 7.07892 4.54318 7.00708 4.63218C6.86344 4.81009 6.66045 5.06759 6.41791 5.39194C5.93355 6.03965 5.28758 6.95908 4.64039 8.04787C3.36725 10.1897 2 13.1332 2 16H4C4 13.6903 5.13275 11.1338 6.35961 9.06978C6.96242 8.05563 7.56645 7.19565 8.01959 6.58968C8.2458 6.28719 8.43344 6.04928 8.56324 5.88851C8.62811 5.80815 8.67846 5.74715 8.71186 5.7071C8.72856 5.68707 8.74102 5.67228 8.74893 5.66294C8.75289 5.65826 8.75571 5.65495 8.75735 5.65302C8.75817 5.65206 8.7587 5.65144 8.75893 5.65117C8.75904 5.65104 8.75908 5.65099 8.75905 5.65104C8.75903 5.65106 8.75895 5.65115 8.75894 5.65116C8.75884 5.65128 8.75872 5.65142 8 5ZM14 16C14 13.1332 12.6327 10.1897 11.3596 8.04787C10.7124 6.95908 10.0665 6.03965 9.58209 5.39194C9.33955 5.06759 9.13656 4.81009 8.99292 4.63218C8.92108 4.54318 8.86401 4.47401 8.82417 4.42623C8.80425 4.40234 8.78863 4.3838 8.77762 4.37079C8.77211 4.36429 8.76776 4.35917 8.7646 4.35546C8.76302 4.3536 8.76173 4.3521 8.76075 4.35095C8.76026 4.35038 8.75984 4.34989 8.7595 4.3495C8.75933 4.3493 8.75914 4.34907 8.75905 4.34897C8.75887 4.34876 8.75872 4.34858 8 5C7.24128 5.65142 7.24116 5.65128 7.24106 5.65116C7.24105 5.65115 7.24097 5.65106 7.24095 5.65104C7.24092 5.65099 7.24096 5.65104 7.24107 5.65117C7.2413 5.65144 7.24183 5.65206 7.24265 5.65302C7.24429 5.65495 7.24711 5.65826 7.25107 5.66294C7.25898 5.67228 7.27144 5.68707 7.28814 5.7071C7.32154 5.74715 7.37189 5.80815 7.43676 5.88851C7.56656 6.04928 7.7542 6.28719 7.98041 6.58968C8.43355 7.19565 9.03758 8.05563 9.64039 9.06978C10.8673 11.1338 12 13.6903 12 16H14ZM12 16C12 18.2091 10.2091 20 8 20V22C11.3137 22 14 19.3137 14 16H12ZM8 20C5.79086 20 4 18.2091 4 16H2C2 19.3137 4.68629 22 8 22V20Z" fill="#33363F"/>
</svg>
