<svg width="24" height="24" viewBox="0 0 24 24" fill="none" xmlns="http://www.w3.org/2000/svg">
<path d="M12 4L12.7587 3.34858C12.5687 3.12731 12.2916 3 12 3C11.7084 3 11.4313 3.12731 11.2413 3.34858L12 4ZM12 4C11.2413 3.34858 11.2411 3.34876 11.2409 3.34897C11.2409 3.34907 11.2407 3.3493 11.2405 3.3495C11.2402 3.34989 11.2397 3.35038 11.2393 3.35095C11.2383 3.3521 11.237 3.3536 11.2354 3.35546C11.2322 3.35917 11.2279 3.36429 11.2224 3.37079C11.2114 3.3838 11.1958 3.40234 11.1758 3.42623C11.136 3.47401 11.0789 3.54318 11.0071 3.63218C10.8634 3.81009 10.6605 4.06759 10.4179 4.39194C9.93355 5.03965 9.28758 5.95908 8.64039 7.04787C7.36725 9.18974 6 12.1332 6 15H8C8 12.6903 9.13275 10.1338 10.3596 8.06978C10.9624 7.05563 11.5665 6.19565 12.0196 5.58968C12.2458 5.28719 12.4334 5.04928 12.5632 4.88851C12.6281 4.80815 12.6785 4.74715 12.7119 4.7071C12.7286 4.68707 12.741 4.67228 12.7489 4.66294C12.7529 4.65826 12.7557 4.65495 12.7573 4.65302C12.7582 4.65206 12.7587 4.65144 12.7589 4.65117C12.759 4.65104 12.7591 4.65099 12.759 4.65104C12.759 4.65106 12.7589 4.65115 12.7589 4.65116C12.7588 4.65128 12.7587 4.65142 12 4ZM18 15C18 12.1332 16.6327 9.18974 15.3596 7.04787C14.7124 5.95908 14.0665 5.03965 13.5821 4.39194C13.3395 4.06759 13.1366 3.81009 12.9929 3.63218C12.9211 3.54318 12.864 3.47401 12.8242 3.42623C12.8042 3.40234 12.7886 3.3838 12.7776 3.37079C12.7721 3.36429 12.7678 3.35917 12.7646 3.35546C12.763 3.3536 12.7617 3.3521 12.7607 3.35095C12.7603 3.35038 12.7598 3.34989 12.7595 3.3495C12.7593 3.3493 12.7591 3.34907 12.7591 3.34897C12.7589 3.34876 12.7587 3.34858 12 4C11.2413 4.65142 11.2412 4.65128 11.2411 4.65116C11.2411 4.65115 11.241 4.65106 11.241 4.65104C11.2409 4.65099 11.241 4.65104 11.2411 4.65117C11.2413 4.65144 11.2418 4.65206 11.2427 4.65302C11.2443 4.65495 11.2471 4.65826 11.2511 4.66294C11.259 4.67228 11.2714 4.68707 11.2881 4.7071C11.3215 4.74715 11.3719 4.80815 11.4368 4.88851C11.5666 5.04928 11.7542 5.28719 11.9804 5.58968C12.4335 6.19565 13.0376 7.05563 13.6404 8.06978C14.8673 10.1338 16 12.6903 16 15H18ZM16 15C16 17.2091 14.2091 19 12 19V21C15.3137 21 18 18.3137 18 15H16ZM12 19C9.79086 19 8 17.2091 8 15H6C6 18.3137 8.68629 21 12 21V19Z" fill="#33363F"/>
</svg>
