<svg width="24" height="24" viewBox="0 0 24 24" fill="none" xmlns="http://www.w3.org/2000/svg">
<path d="M8 8H16C17.1046 8 18 8.89543 18 10V16C18 17.1046 17.1046 18 16 18H8C6.89543 18 6 17.1046 6 16V10C6 8.89543 6.89543 8 8 8Z" stroke="#222222" stroke-width="2" stroke-linecap="round" stroke-linejoin="round"/>
<path d="M6 11L5.05381 10.6846C4.04342 10.3478 3 11.0999 3 12.1649V12.1649C3 12.6866 3.26074 13.1738 3.69484 13.4632L6 15" stroke="#222222" stroke-width="2" stroke-linecap="round" stroke-linejoin="round"/>
<path d="M18 11L18.9462 10.6846C19.9566 10.3478 21 11.0999 21 12.1649V12.1649C21 12.6866 20.7393 13.1738 20.3052 13.4632L18 15" stroke="#222222" stroke-width="2" stroke-linecap="round" stroke-linejoin="round"/>
<path d="M12 11L12 15" stroke="#222222" stroke-width="2" stroke-linecap="round" stroke-linejoin="round"/>
<path d="M14 13L10 13" stroke="#222222" stroke-width="2" stroke-linecap="round" stroke-linejoin="round"/>
</svg>
