<svg viewBox="0 0 24 24" fill="none" xmlns="http://www.w3.org/2000/svg">
<path d="M16 12C15.4477 12 15 12.4477 15 13C15 13.5523 15.4477 14 16 14V12ZM14.4323 13.5677L13.7252 12.8606L14.4323 13.5677ZM10.8069 13.8069L10.0998 14.514L10.8069 13.8069ZM10.1931 13.1931L9.48601 13.9002L10.1931 13.1931ZM10.4322 9.56781L9.72512 8.8607L10.4322 9.56781ZM20 8C20 10.2091 18.2091 12 16 12V14C19.3137 14 22 11.3137 22 8H20ZM16 4C18.2091 4 20 5.79086 20 8H22C22 4.68629 19.3137 2 16 2V4ZM12 8C12 5.79086 13.7908 4 16 4V2C12.6863 2 9.99998 4.68629 9.99998 8H12ZM10.9002 10.514L11.1393 10.2749L9.72512 8.8607L9.48601 9.09981L10.9002 10.514ZM11.514 13.0998L10.9002 12.486L9.48601 13.9002L10.0998 14.514L11.514 13.0998ZM13.7252 12.8606L13.4861 13.0998L14.9003 14.514L15.1394 14.2748L13.7252 12.8606ZM15.1394 14.2748C15.2974 14.1169 15.5849 14 16 14V12C15.2616 12 14.3829 12.2029 13.7252 12.8606L15.1394 14.2748ZM10.0998 14.514C11.4254 15.8396 13.5747 15.8396 14.9003 14.514L13.4861 13.0998C12.9415 13.6443 12.0586 13.6443 11.514 13.0998L10.0998 14.514ZM9.48601 9.09981C8.16043 10.4254 8.16042 12.5746 9.48601 13.9002L10.9002 12.486C10.3557 11.9414 10.3557 11.0586 10.9002 10.514L9.48601 9.09981ZM9.99998 8C9.99998 8.41517 9.88308 8.70275 9.72512 8.8607L11.1393 10.2749C11.7971 9.61716 12 8.73842 12 8H9.99998Z" fill="#222222"/>
<path d="M6.5 15.5L9.5 12.5L11.5 14.5L8.5 17.5L6.30128 18.8192C6.12422 18.9255 5.89757 18.8976 5.75156 18.7516L5.24844 18.2484C5.10243 18.1024 5.07453 17.8758 5.18077 17.6987L6.5 15.5Z" stroke="#222222" stroke-width="2" stroke-linecap="round" stroke-linejoin="round"/>
</svg>
