<svg width="24" height="24" viewBox="0 0 24 24" fill="none" xmlns="http://www.w3.org/2000/svg">
<path d="M5 12H19V16C19 17.8856 19 18.8284 18.4142 19.4142C17.8284 20 16.8856 20 15 20H9C7.11438 20 6.17157 20 5.58579 19.4142C5 18.8284 5 17.8856 5 16V12Z" fill="#222222"/>
<path fill-rule="evenodd" clip-rule="evenodd" d="M2.8153 7.8153L5 9.99999V11H6.2H17.8H19V9.99999L21.1847 7.8153C21.615 7.38499 21.5644 6.67332 21.0776 6.30819L18.566 4.4245C18.2268 4.17011 17.7641 4.15727 17.4113 4.39245L15 5.99999H9L6.58869 4.39245C6.23591 4.15727 5.77317 4.17011 5.43399 4.4245L2.92241 6.30819C2.43557 6.67332 2.38499 7.38499 2.8153 7.8153ZM8.6 7.19999H15.4L17.35 9.79999H6.65L8.6 7.19999Z" fill="#7E869E" fill-opacity="0.25"/>
</svg>
