<svg width="24" height="24" viewBox="0 0 24 24" fill="none" xmlns="http://www.w3.org/2000/svg">
<path fill-rule="evenodd" clip-rule="evenodd" d="M12 22C17.5228 22 22 17.5228 22 12C22 6.47715 17.5228 2 12 2C6.47715 2 2 6.47715 2 12C2 17.5228 6.47715 22 12 22ZM12 8C11.4477 8 11 7.55228 11 7V4C11 3.44772 11.4477 3 12 3C12.5523 3 13 3.44772 13 4V7C13 7.55228 12.5523 8 12 8ZM12 21C11.4477 21 11 20.5523 11 20V18C11 17.4477 11.4477 17 12 17C12.5523 17 13 17.4477 13 18V20C13 20.5523 12.5523 21 12 21ZM18 11C17.4477 11 17 11.4477 17 12C17 12.5523 17.4477 13 18 13H20C20.5523 13 21 12.5523 21 12C21 11.4477 20.5523 11 20 11H18ZM3 12C3 11.4477 3.44772 11 4 11H7C7.55228 11 8 11.4477 8 12C8 12.5523 7.55228 13 7 13H4C3.44772 13 3 12.5523 3 12ZM16.2323 6.35336C15.8418 6.74388 15.8418 7.37705 16.2323 7.76757C16.6229 8.1581 17.256 8.1581 17.6465 7.76757L18.3537 7.06046C18.7442 6.66994 18.7442 6.03678 18.3537 5.64625C17.9631 5.25573 17.33 5.25573 16.9394 5.64625L16.2323 6.35336ZM5.63609 18.3638C5.24557 17.9733 5.24557 17.3401 5.63609 16.9496L7.05031 15.5354C7.44083 15.1449 8.07399 15.1449 8.46452 15.5354C8.85504 15.9259 8.85504 16.5591 8.46452 16.9496L7.05031 18.3638C6.65978 18.7543 6.02662 18.7543 5.63609 18.3638ZM16.9498 15.5358C16.5592 15.1453 15.9261 15.1453 15.5356 15.5358C15.145 15.9264 15.145 16.5595 15.5356 16.95L16.9498 18.3643C17.3403 18.7548 17.9735 18.7548 18.364 18.3643C18.7545 17.9737 18.7545 17.3406 18.364 16.95L16.9498 15.5358ZM5.63606 5.63634C6.02659 5.24581 6.65975 5.24581 7.05028 5.63634L9.1716 7.75766C9.56212 8.14818 9.56212 8.78135 9.1716 9.17187C8.78107 9.56239 8.14791 9.56239 7.75738 9.17187L5.63606 7.05055C5.24554 6.66003 5.24554 6.02686 5.63606 5.63634Z" fill="#222222"/>
</svg>
