<svg width="24" height="24" viewBox="0 0 24 24" fill="none" xmlns="http://www.w3.org/2000/svg">
<path d="M5.46 6.72C5.79994 6.26675 6.33344 6 6.9 6H17.1C17.6666 6 18.2001 6.26675 18.54 6.72L20.64 9.52C20.8737 9.83157 21 10.2105 21 10.6V17.2C21 18.1941 20.1941 19 19.2 19H4.8C3.80589 19 3 18.1941 3 17.2V10.6C3 10.2105 3.12632 9.83157 3.36 9.52L5.46 6.72Z" stroke="#33363F" stroke-width="2"/>
<path d="M3 10H7.38197C7.76074 10 8.107 10.214 8.27639 10.5528L8.72361 11.4472C8.893 11.786 9.23926 12 9.61803 12H14.382C14.7607 12 15.107 11.786 15.2764 11.4472L15.7236 10.5528C15.893 10.214 16.2393 10 16.618 10H21V17C21 18.1046 20.1046 19 19 19H5C3.89543 19 3 18.1046 3 17V10Z" fill="#33363F"/>
</svg>
