<svg width="24" height="24" viewBox="0 0 24 24" fill="none" xmlns="http://www.w3.org/2000/svg">
<path d="M5.46 6.72C5.79994 6.26675 6.33344 6 6.9 6H17.1C17.6666 6 18.2001 6.26675 18.54 6.72L20.64 9.52C20.8737 9.83157 21 10.2105 21 10.6V17.2C21 18.1941 20.1941 19 19.2 19H4.8C3.80589 19 3 18.1941 3 17.2V10.6C3 10.2105 3.12632 9.83157 3.36 9.52L5.46 6.72Z" stroke="#33363F" stroke-width="2"/>
<path d="M21 11H16.618C16.2393 11 15.893 11.214 15.7236 11.5528L15.2764 12.4472C15.107 12.786 14.7607 13 14.382 13H9.61803C9.23926 13 8.893 12.786 8.72361 12.4472L8.27639 11.5528C8.107 11.214 7.76074 11 7.38197 11H3" stroke="#33363F" stroke-width="2"/>
</svg>
