<svg width="24" height="24" viewBox="0 0 24 24" fill="none" xmlns="http://www.w3.org/2000/svg">
<path d="M21 19V5C21 3.89543 20.1046 3 19 3H5C3.89543 3 3 3.89543 3 5V19C3 20.1046 3.89543 21 5 21H19C20.1046 21 21 20.1046 21 19Z" stroke="#33363F" stroke-width="2"/>
<path d="M8.5 9.5L12 7M12 7L15.5 9.5M12 7L12 13" stroke="#33363F" stroke-width="2"/>
<path d="M3 13H6.55848C7.2542 13 7.60206 13 7.86395 13.1888C8.12584 13.3775 8.23584 13.7075 8.45585 14.3675L8.54415 14.6325C8.76416 15.2925 8.87416 15.6225 9.13605 15.8112C9.39794 16 9.7458 16 10.4415 16H13.5585C14.2542 16 14.6021 16 14.864 15.8112C15.1258 15.6225 15.2358 15.2925 15.4558 14.6325L15.5442 14.3675C15.7642 13.7075 15.8742 13.3775 16.136 13.1888C16.3979 13 16.7458 13 17.4415 13H21V17C21 18.8856 21 19.8284 20.4142 20.4142C19.8284 21 18.8856 21 17 21H7C5.11438 21 4.17157 21 3.58579 20.4142C3 19.8284 3 18.8856 3 17V13Z" fill="#33363F"/>
</svg>
