<svg width="24" height="24" viewBox="0 0 24 24" fill="none" xmlns="http://www.w3.org/2000/svg">
<path d="M21 12H18.0704C17.5464 12 17.2844 12 17.0633 12.1183C16.8422 12.2367 16.6969 12.4546 16.4063 12.8906L15.5937 14.1094C15.3031 14.5454 15.1578 14.7633 14.9367 14.8817C14.7156 15 14.4536 15 13.9296 15H10.0704C9.5464 15 9.28442 15 9.06333 14.8817C8.84223 14.7633 8.69691 14.5454 8.40627 14.1094L7.59373 12.8906C7.30309 12.4546 7.15777 12.2367 6.93667 12.1183C6.71558 12 6.4536 12 5.92963 12H3" stroke="#33363F" stroke-width="2"/>
<path d="M5 9L3.29289 10.7071C3.10536 10.8946 3 11.149 3 11.4142V17C3 18.1046 3.89543 19 5 19H19C20.1046 19 21 18.1046 21 17V11.4142C21 11.149 20.8946 10.8946 20.7071 10.7071L19 9" stroke="#33363F" stroke-width="2" stroke-linecap="round"/>
<path d="M8.5 7L12 10M12 10L15.5 7M12 10L12 3" stroke="#33363F" stroke-width="2"/>
<path d="M3 12H6.55848C7.2542 12 7.60206 12 7.86395 12.1888C8.12584 12.3775 8.23584 12.7075 8.45585 13.3675L8.54415 13.6325C8.76416 14.2925 8.87416 14.6225 9.13605 14.8112C9.39794 15 9.7458 15 10.4415 15H13.5585C14.2542 15 14.6021 15 14.864 14.8112C15.1258 14.6225 15.2358 14.2925 15.4558 13.6325L15.5442 13.3675C15.7642 12.7075 15.8742 12.3775 16.136 12.1888C16.3979 12 16.7458 12 17.4415 12H21V15C21 16.8856 21 17.8284 20.4142 18.4142C19.8284 19 18.8856 19 17 19H7C5.11438 19 4.17157 19 3.58579 18.4142C3 17.8284 3 16.8856 3 15V12Z" fill="#33363F"/>
</svg>
