<svg width="24" height="24" viewBox="0 0 24 24" fill="none" xmlns="http://www.w3.org/2000/svg">
<rect x="4" y="6" width="16" height="12" rx="2" stroke="#222222" stroke-width="1.2"/>
<path d="M4 9L11.1056 12.5528C11.6686 12.8343 12.3314 12.8343 12.8944 12.5528L20 9" stroke="#222222" stroke-width="1.2"/>
<path d="M5.85449 6.59961H18.1455C18.8381 6.59961 19.4004 7.16187 19.4004 7.85449C19.4003 8.26995 19.1942 8.65388 18.8584 8.88574L18.707 8.97559L12.626 12.0166C12.2811 12.1889 11.8826 12.2104 11.5244 12.0811L11.374 12.0166L5.29297 8.97559C4.8684 8.76315 4.59976 8.32924 4.59961 7.85449C4.59961 7.16187 5.16187 6.59961 5.85449 6.59961Z" fill="#7E869E" fill-opacity="0.25" stroke="#222222" stroke-width="1.2"/>
</svg>
