<svg width="24" height="24" viewBox="0 0 24 24" fill="none" xmlns="http://www.w3.org/2000/svg">
<path fill-rule="evenodd" clip-rule="evenodd" d="M18.2103 5.19087C17.7865 5.26625 17.2074 5.45789 16.3634 5.73923L9.87243 7.90289C9.05037 8.17692 8.45221 8.37646 8.01774 8.54598C7.56629 8.72212 7.36821 8.8387 7.28525 8.91842C6.67103 9.50865 6.67103 10.4913 7.28525 11.0815C7.36821 11.1613 7.56629 11.2778 8.01774 11.454C8.45221 11.6235 9.05037 11.823 9.87243 12.0971C9.88549 12.1014 9.89838 12.1057 9.9111 12.11C10.2031 12.2072 10.4046 12.2743 10.5877 12.3711C11.0314 12.6058 11.3942 12.9686 11.6289 13.4124C11.7257 13.5954 11.7928 13.7969 11.8901 14.0889C11.8943 14.1016 11.8986 14.1145 11.9029 14.1276C12.177 14.9496 12.3765 15.5478 12.546 15.9823C12.7222 16.4337 12.8387 16.6318 12.9185 16.7148C13.5087 17.329 14.4914 17.329 15.0816 16.7148C15.1613 16.6318 15.2779 16.4337 15.454 15.9823C15.6235 15.5478 15.8231 14.9496 16.0971 14.1276L18.2608 7.6366C18.5421 6.79257 18.7338 6.21349 18.8091 5.78975C18.8852 5.36239 18.8102 5.2653 18.7724 5.22757C18.7347 5.18983 18.6376 5.11485 18.2103 5.19087ZM18.0351 4.20633C18.5449 4.11564 19.0803 4.12118 19.4796 4.52046C19.8788 4.91974 19.8844 5.45511 19.7937 5.96489C19.7039 6.46966 19.4875 7.11879 19.2231 7.91194L19.2095 7.95283L17.0458 14.4438L17.0409 14.4586C16.7728 15.2629 16.5654 15.885 16.3856 16.3458C16.2114 16.7924 16.0355 17.1653 15.8026 17.4076C14.8189 18.4314 13.1812 18.4314 12.1974 17.4076C11.9645 17.1653 11.7887 16.7924 11.6144 16.3457C11.4347 15.885 11.2273 15.2629 10.9592 14.4587L10.9543 14.4438C10.8392 14.0987 10.7982 13.9807 10.7449 13.8799C10.6041 13.6136 10.3864 13.3959 10.1201 13.2551C10.0193 13.2018 9.90135 13.1608 9.5562 13.0458L9.54131 13.0408C8.73712 12.7727 8.11501 12.5654 7.65426 12.3856C7.20765 12.2113 6.83471 12.0355 6.59236 11.8026C5.56866 10.8189 5.56866 9.1811 6.59236 8.19737C6.83471 7.96448 7.20765 7.78863 7.65426 7.61438C8.11502 7.4346 8.73715 7.22723 9.54136 6.95916L9.5562 6.95421L16.0472 4.79055L16.088 4.77693C16.8812 4.51252 17.5303 4.29612 18.0351 4.20633Z" fill="#222222"/>
</svg>
