<svg viewBox="0 0 24 24" fill="none" xmlns="http://www.w3.org/2000/svg">
<ellipse cx="6" cy="6" rx="6" ry="6" transform="matrix(4.37114e-08 -1 -1 -4.37114e-08 20 18)" fill="#7E869E" fill-opacity="0.25"/>
<path d="M20.2998 12C20.2998 8.52061 17.4794 5.7002 14 5.7002C10.5206 5.70019 7.7002 8.52061 7.7002 12C7.7002 15.4794 10.5206 18.2998 14 18.2998C17.4794 18.2998 20.2998 15.4794 20.2998 12Z" stroke="#7E869E" stroke-opacity="0.25" stroke-width="0.6"/>
<path d="M8 18.9282C9.21615 19.6303 10.5957 20 12 20C13.4043 20 14.7838 19.6303 16 18.9282C17.2162 18.2261 18.2261 17.2162 18.9282 16C19.6303 14.7838 20 13.4043 20 12C20 10.5957 19.6303 9.21615 18.9282 8C18.2261 6.78385 17.2162 5.77394 16 5.0718C14.7838 4.36965 13.4043 4 12 4C10.5957 4 9.21615 4.36965 8 5.0718" stroke="#222222" stroke-width="1.2"/>
<path d="M2 12L1.53148 11.6252L1.23163 12L1.53148 12.3748L2 12ZM11 12.6C11.3314 12.6 11.6 12.3314 11.6 12C11.6 11.6686 11.3314 11.4 11 11.4V12.6ZM5.53148 6.62518L1.53148 11.6252L2.46852 12.3748L6.46852 7.37482L5.53148 6.62518ZM1.53148 12.3748L5.53148 17.3748L6.46852 16.6252L2.46852 11.6252L1.53148 12.3748ZM2 12.6H11V11.4H2V12.6Z" fill="#222222"/>
</svg>
