<svg viewBox="0 0 24 24" fill="none" xmlns="http://www.w3.org/2000/svg">
<rect width="24" height="24" fill="white"/>
<path d="M7 3.5H17C17.9569 3.5 18.6244 3.50066 19.1279 3.56836C19.6171 3.63413 19.876 3.75494 20.0605 3.93945C20.2451 4.12396 20.3659 4.38289 20.4316 4.87207C20.4993 5.37563 20.5 6.04308 20.5 7V17C20.5 17.9569 20.4993 18.6244 20.4316 19.1279C20.3659 19.6171 20.2451 19.876 20.0605 20.0605C19.876 20.2451 19.6171 20.3659 19.1279 20.4316C18.6244 20.4993 17.9569 20.5 17 20.5H7C6.04308 20.5 5.37563 20.4993 4.87207 20.4316C4.38289 20.3659 4.12396 20.2451 3.93945 20.0605C3.75494 19.876 3.63413 19.6171 3.56836 19.1279C3.50066 18.6244 3.5 17.9569 3.5 17V7C3.5 6.04308 3.50066 5.37563 3.56836 4.87207C3.63413 4.38289 3.75494 4.12396 3.93945 3.93945C4.12396 3.75494 4.38289 3.63413 4.87207 3.56836C5.37563 3.50066 6.04308 3.5 7 3.5Z" fill="#2A4157" fill-opacity="0.24" stroke="#222222"/>
<path d="M12 8L12 16" stroke="#222222" stroke-linejoin="round"/>
<path d="M16 12L8 12" stroke="#222222" stroke-linejoin="round"/>
</svg>
