<?xml version="1.0" encoding="UTF-8" standalone="no"?>
<!-- Created with Inkscape (http://www.inkscape.org/) -->

<svg
   width="52mm"
   height="16mm"
   viewBox="0 0 51.999952 15.999976"
   version="1.1"
   id="svg1"
   xml:space="preserve"
   inkscape:version="1.4.2 (f4327f4, 2025-05-13)"
   sodipodi:docname="E5vösDÖ-white.svg"
   xmlns:inkscape="http://www.inkscape.org/namespaces/inkscape"
   xmlns:sodipodi="http://sodipodi.sourceforge.net/DTD/sodipodi-0.dtd"
   xmlns="http://www.w3.org/2000/svg"
   xmlns:svg="http://www.w3.org/2000/svg"><sodipodi:namedview
     id="namedview1"
     pagecolor="#2d2d2d"
     bordercolor="#000000"
     borderopacity="0.25"
     inkscape:showpageshadow="2"
     inkscape:pageopacity="0.0"
     inkscape:pagecheckerboard="0"
     inkscape:deskcolor="#d1d1d1"
     inkscape:document-units="mm"
     inkscape:zoom="2.8756734"
     inkscape:cx="137.18526"
     inkscape:cy="125.70969"
     inkscape:window-width="1920"
     inkscape:window-height="1009"
     inkscape:window-x="-8"
     inkscape:window-y="-8"
     inkscape:window-maximized="1"
     inkscape:current-layer="g2" /><defs
     id="defs1" /><g
     inkscape:label="Layer 1"
     inkscape:groupmode="layer"
     id="layer1"><g
       id="g2"
       transform="translate(0.19825752,0.92142765)"><g
         id="g3"
         transform="translate(-11.522744,-20.752652)"><g
           style="fill:none"
           id="g1"
           transform="matrix(0.12424246,0,0,0.12424246,13.050278,23.172124)"><path
             fill-rule="evenodd"
             clip-rule="evenodd"
             d="M 39.5657,0.0463889 C 34.6037,0.0987723 27.7004,0.479512 24.4042,0.882824 23.8421,0.951604 22.7305,1.08576 21.9341,1.18116 17.8056,1.67497 14.396,2.74521 14.396,3.54715 14.396,6.14909 38.2335,8.02213 55.2382,6.7564 61.819,6.26642 64.8572,5.88951 67.674,5.21342 74.2805,3.62786 70.7906,1.79592 59.0286,0.675206 55.209,0.311288 45.5841,-0.0673221 42.121,0.0101884 41.6994,0.0197712 40.5495,0.0359548 39.5657,0.0463889 Z M 12.4403,4.47366 C 5.51141,11.1773 1.37778,19.3636 0.0816047,28.9486 c -0.1311722,0.9693 -0.0953979,8.7742 0.0445053,9.7527 1.12135,7.8384 4.0065,14.512 8.85646,20.485 0.66182,0.8151 2.76273,3.1336 3.12923,3.4535 0.1086,0.0945 0.6573,0.5926 1.2195,1.1064 3.5761,3.2689 8.6471,6.4622 12.7339,8.0183 8.8528,3.3711 17.0769,4.0853 25.8937,2.2483 5.3157,-1.1077 10.9177,-3.468 15.2777,-6.437 5.1213,-3.4878 9.144,-7.6693 12.4305,-12.9224 2.3722,-3.7912 4.1445,-8.3032 5.1281,-13.0557 l 0.3877,-1.8732 -0.0266,-6.2612 -0.0268,-6.2609 -0.4042,-1.8298 C 83.7543,20.9764 82.3027,17.2417 80.1053,13.4873 79.2906,12.0949 77.6778,9.67391 77.2379,9.18266 77.1725,9.10983 76.9766,8.86367 76.8026,8.63582 75.7443,7.24978 71.982,3.31036 71.7165,3.31036 c -0.0502,0 -0.0818,0.90351 -0.0818,2.34896 V 8.0085 l 0.8045,0.86624 c 0.4425,0.47657 0.9504,1.05641 1.1286,1.28876 0.1782,0.2321 0.3914,0.4912 0.4738,0.5755 2.2781,2.3343 5.6338,8.9183 6.8063,13.3545 0.4399,1.6641 0.4891,1.8805 0.7076,3.1089 1.7902,10.0692 -0.7008,20.4757 -6.8321,28.5421 -1.1179,1.4708 -1.1102,1.4612 -2.0001,2.4652 C 61.2691,71.1298 42.2643,75.1352 26.1504,68.0251 24.864,67.4576 22.4522,66.2117 22.1471,65.9572 22.0768,65.8986 21.8851,65.783 21.7212,65.7004 17.3293,63.4871 11.0517,57.1005 8.15955,51.9037 7.95087,51.5289 7.69683,51.0764 7.59483,50.8982 7.25689,50.3081 6.12574,47.8476 5.86894,47.1442 5.7301,46.7637 5.56379,46.3374 5.49927,46.1968 5.19881,45.542 4.57489,43.3852 4.13857,41.4923 1.83774,31.5145 4.42796,19.6815 10.6691,11.6577 10.8694,11.4 11.1987,10.9784 11.4005,10.7207 11.6024,10.4631 12.2336,9.72779 12.803,9.08683 l 1.0351,-1.16564 0.0021,-2.3479 C 13.8415,4.28201 13.8172,3.2254 13.7865,3.2254 13.7559,3.22518 13.1501,3.78693 12.4403,4.47366 Z M 15.12,10.9841 c 0.0937,0.1129 0.2574,0.2975 0.3641,0.4104 0.4263,0.4521 1.1731,3.0252 1.6829,5.7997 0.1248,0.6792 0.2425,1.2604 0.2615,1.2912 0.1177,0.1923 0.8358,4.9793 1.0072,6.7154 0.4761,4.8233 0.5694,6.4374 0.5688,9.8379 -0.0011,5.4091 -0.6484,12.3777 -1.5432,16.6095 -0.089,0.4216 -0.2428,1.2073 -0.3414,1.7461 -0.1959,1.0704 -0.8726,3.9728 -1.0783,4.6251 -0.1239,0.3928 -0.477,0.8262 -0.6733,0.8262 -0.1242,0 -0.4178,0.3273 -0.3524,0.3926 0.0775,0.0778 0.9776,0.0499 1.1471,-0.0355 0.0822,-0.0413 0.3986,-0.1403 0.7031,-0.2202 0.7674,-0.2008 3.3758,-1.0387 4.3014,-1.382 5.225,-1.9373 6.8159,-2.6241 9.2021,-3.9731 6.6152,-3.7396 10.8047,-8.0468 12.1362,-12.4775 0.2372,-0.7898 0.198,-0.783 0.9406,-0.165 1.9145,1.5938 3.4526,2.6658 4.9777,3.469 0.4684,0.2468 0.8901,0.4768 0.9369,0.5109 0.0469,0.0342 0.6026,0.2608 1.2351,0.5036 0.6324,0.2427 1.3223,0.5166 1.5332,0.6083 0.2108,0.092 0.7857,0.2788 1.2776,0.4153 0.4919,0.1365 1.1627,0.3273 1.4906,0.4239 1.2157,0.3586 2.9378,0.743 5.5365,1.2355 7.2619,1.3769 11.7397,-0.1499 14.3819,-4.9034 1.425,-2.5636 1.8404,-6.9159 0.9384,-9.8277 -1.7559,-5.6678 -6.0107,-8.4753 -12.8436,-8.4751 -1.8681,3e-4 -5.6866,0.5064 -7.4578,0.989 -5.491,1.4959 -7.6909,2.6815 -11.8332,6.3788 -1.1454,1.0224 -1.0658,1.0124 -1.3631,0.1704 -1.7046,-4.8285 -7.876,-10.9774 -15.2545,-15.1987 -0.445,-0.2547 -1.0008,-0.5839 -1.235,-0.7319 -0.6029,-0.381 -2.441,-1.4282 -4.557,-2.5966 -0.5387,-0.2975 -1.1328,-0.6293 -1.3202,-0.737 -0.1874,-0.108 -1.1648,-0.6271 -2.172,-1.1542 -1.697,-0.8875 -2.1501,-1.103 -2.5979,-1.2355 l -0.1704,-0.0504 z m 7.1078,7.8267 c 1.709,0.6736 6.9423,3.2846 8.4974,4.2397 6.1376,3.7691 8.7528,7.9021 8.7449,13.8195 -0.0109,8.003 -4.6779,12.6085 -15.3233,15.121 -0.5143,0.1214 -1.276,0.3164 -1.6927,0.4335 -0.9531,0.2677 -0.9359,0.2969 -0.6397,-1.0745 0.3527,-1.632 0.9909,-5.6557 1.1823,-7.4529 0.5877,-5.522 0.5509,-12.7902 -0.0911,-17.9297 -0.2266,-1.8149 -1.0377,-6.5244 -1.2357,-7.1762 -0.058,-0.1908 0.0325,-0.1876 0.5579,0.0196 z m 32.991,2.0905 c -0.1018,0.0713 -0.7619,0.4182 -1.4667,0.7708 l -1.2817,0.6412 0.5404,0.7915 c 0.2973,0.4355 0.6312,0.9531 0.7421,1.1503 0.2473,0.4399 0.1455,0.4585 2.1241,-0.3844 1.8805,-0.8006 1.7692,-0.7301 1.6146,-1.0214 -0.1519,-0.286 -1.8786,-2.0807 -2.0002,-2.079 -0.0481,7e-4 -0.1708,0.0596 -0.2726,0.131 z m -6.2922,3.2218 c -1.2896,0.6665 -2.2614,1.3628 -2.2173,1.5887 0.1124,0.5767 0.4714,1.7457 0.5351,1.743 0.0398,-0.0017 0.4173,-0.167 0.839,-0.3674 0.4216,-0.2003 1.0864,-0.5019 1.4771,-0.6703 0.3908,-0.1684 0.7294,-0.3554 0.7524,-0.4152 0.0362,-0.0946 -0.4911,-1.4412 -0.7692,-1.964 l -0.0975,-0.1833 z m 11.521,4.0661 c 5.3078,0.7383 8.3222,3.9563 8.3312,8.8937 0.0106,5.8423 -4.8144,9.2247 -11.4963,8.0588 -0.2811,-0.049 -0.9519,-0.1522 -1.4906,-0.2295 -2.9448,-0.4221 -6.4275,-1.7992 -8.7639,-3.4654 -4.5335,-3.2334 -4.6315,-5.9518 -0.3371,-9.3667 2.7717,-2.204 5.3683,-3.2286 9.9527,-3.9277 0.49,-0.0746 3.1901,-0.0486 3.804,0.0368 z m 0.1301,4.7661 c -0.2278,0.2123 -0.2302,0.2644 -0.0234,0.5195 0.319,0.3936 1.5406,0.2075 1.5406,-0.2346 0,-0.2634 -0.3628,-0.4587 -0.8517,-0.4587 -0.3644,0 -0.5237,0.0415 -0.6655,0.1738 z"
             fill="#ffffff"
             id="path1" /></g><text
           xml:space="preserve"
           style="font-style:normal;font-variant:normal;font-weight:normal;font-stretch:normal;font-size:7.93749px;font-family:Outfit;-inkscape-font-specification:Outfit;text-align:start;writing-mode:lr-tb;direction:ltr;text-anchor:start;fill:#ffffff;fill-opacity:1;stroke-width:0.264583"
           x="26.268862"
           y="31.498335"
           id="text1"><tspan
             sodipodi:role="line"
             id="tspan1"
             style="font-style:normal;font-variant:normal;font-weight:bold;font-stretch:normal;font-size:7.93749px;font-family:Outfit;-inkscape-font-specification:'Outfit Bold';fill:#ffffff;fill-opacity:1;stroke-width:0.264583"
             x="26.268862"
             y="31.498335">E5vös DÖ</tspan></text></g></g></g></svg>
