<svg width="24" height="24" viewBox="0 0 24 24" fill="none" xmlns="http://www.w3.org/2000/svg">
<path d="M4 8L3.29289 8.70711L2.58579 8L3.29289 7.29289L4 8ZM11 18C10.4477 18 10 17.5523 10 17C10 16.4477 10.4477 16 11 16L11 18ZM7.29289 12.7071L3.29289 8.70711L4.70711 7.29289L8.70711 11.2929L7.29289 12.7071ZM3.29289 7.29289L7.29289 3.29289L8.70711 4.70711L4.70711 8.70711L3.29289 7.29289ZM4 7L15.5 7L15.5 9L4 9L4 7ZM15.5 18L11 18L11 16L15.5 16L15.5 18ZM21 12.5C21 15.5376 18.5376 18 15.5 18L15.5 16C17.433 16 19 14.433 19 12.5L21 12.5ZM15.5 7C18.5376 7 21 9.46243 21 12.5L19 12.5C19 10.567 17.433 9 15.5 9L15.5 7Z" fill="#33363F"/>
<circle cx="9" cy="17" r="2" stroke="#33363F" stroke-width="2"/>
</svg>
