<svg viewBox="0 0 24 24" fill="none" xmlns="http://www.w3.org/2000/svg">
<path d="M10.4435 5.9026C8.66322 4.36263 5.79541 4.4857 4.21151 6.52717L3.90216 6.92589C2.25692 9.04643 2.49447 12.0704 4.45065 13.908L11.4033 20.4393C11.6428 20.6643 11.7625 20.7767 11.9037 20.8045C11.9673 20.8169 12.0327 20.8169 12.0963 20.8045C12.2374 20.7767 12.3572 20.6643 12.5967 20.4393L19.5493 13.908C21.5055 12.0704 21.743 9.04642 20.0978 6.92589L19.7884 6.52717C18.2482 4.54204 15.494 4.37089 13.7063 5.77889" stroke="#222222" stroke-linecap="round"/>
<path d="M10.4435 5.9026L9.40778 7.21537C8.75184 8.04678 8.42387 8.46249 8.50535 8.90717C8.58682 9.35185 9.04087 9.62427 9.94896 10.1691L11.2014 10.9206C12.0457 11.4272 12.4679 11.6805 12.5618 12.0983C12.6558 12.5161 12.3827 12.9257 11.8365 13.745L11 14.9998" stroke="#2A4157" stroke-opacity="0.24" stroke-linecap="round"/>
</svg>
