<svg width="24" height="24" viewBox="0 0 24 24" fill="none" xmlns="http://www.w3.org/2000/svg">
<path fill-rule="evenodd" clip-rule="evenodd" d="M10.0558 4.23108L8 7.99996L12.5 12.5L11.5 15L15 12L11 7.99996L12.3513 6.31317C12.4237 6.25666 12.4844 6.18004 12.525 6.08329C13.8648 2.8933 18.1316 2.30244 20.2879 5.00831L20.6761 5.49552C22.532 7.82443 22.215 11.2038 19.9584 13.1469L12.5681 19.5108L12.5681 19.5108C12.3387 19.7083 12.224 19.8071 12.0914 19.8317C12.031 19.843 11.969 19.843 11.9086 19.8317C11.7759 19.8071 11.6612 19.7083 11.4319 19.5108L11.4319 19.5108L4.04157 13.1469C1.785 11.2038 1.46802 7.82443 3.32386 5.49553L3.71211 5.00832C5.34547 2.95861 8.18991 2.80061 10.0558 4.23108Z" fill="#222222"/>
</svg>
