<svg width="24" height="24" viewBox="0 0 24 24" fill="none" xmlns="http://www.w3.org/2000/svg">
<path d="M6 4.5V13.5C6 13.7357 6 13.8536 6.07322 13.9268C6.14645 14 6.2643 14 6.5 14H16.7929C17.3066 14 17.5635 14 17.6274 13.8457C17.6913 13.6913 17.5097 13.5097 17.1464 13.1464L13.2828 9.28284C13.1495 9.14951 13.0828 9.08284 13.0828 9C13.0828 8.91716 13.1495 8.85049 13.2828 8.71716L17.1464 4.85355C17.5097 4.49029 17.6913 4.30866 17.6274 4.15433C17.5635 4 17.3066 4 16.7929 4H6.5C6.2643 4 6.14645 4 6.07322 4.07322C6 4.14645 6 4.2643 6 4.5Z" fill="#2A4157" fill-opacity="0.24"/>
<rect x="6" y="3" width="1" height="17" rx="0.5" fill="#222222"/>
</svg>
