<svg width="24" height="24" viewBox="0 0 24 24" fill="none" xmlns="http://www.w3.org/2000/svg">
<path d="M6.5 13.5V6C6.5 5.7643 6.5 5.64645 6.57322 5.57322C6.64645 5.5 6.7643 5.5 7 5.5H9.88197C10.1827 5.5 10.333 5.5 10.4538 5.57467C10.5747 5.64935 10.6419 5.78383 10.7764 6.05279L11.2236 6.94721C11.3581 7.21617 11.4253 7.35065 11.5462 7.42533C11.667 7.5 11.8173 7.5 12.118 7.5H17C17.2357 7.5 17.3536 7.5 17.4268 7.57322C17.5 7.64645 17.5 7.7643 17.5 8V15C17.5 15.2357 17.5 15.3536 17.4268 15.4268C17.3536 15.5 17.2357 15.5 17 15.5H12.118C11.8173 15.5 11.667 15.5 11.5462 15.4253C11.4253 15.3507 11.3581 15.2162 11.2236 14.9472L10.7764 14.0528C10.6419 13.7838 10.5747 13.6493 10.4538 13.5747C10.333 13.5 10.1827 13.5 9.88197 13.5H6.5ZM6.5 13.5V19.5" stroke="#222222" stroke-linecap="round"/>
</svg>
