<svg width="24" height="24" viewBox="0 0 24 24" fill="none" xmlns="http://www.w3.org/2000/svg">
<path d="M5 5.5H9.92969C10.3685 5.50002 10.7816 5.69208 11.0645 6.01953L11.1777 6.16797L11.9902 7.38672C12.4539 8.0822 13.2344 8.49998 14.0703 8.5H19C19.8284 8.5 20.5 9.17157 20.5 10V18C20.5 18.8284 19.8284 19.5 19 19.5H5C4.17157 19.5 3.5 18.8284 3.5 18V7C3.5 6.22334 4.09028 5.58461 4.84668 5.50781L5 5.5Z" fill="#7E869E" fill-opacity="0.25" stroke="#33363F"/>
<circle cx="12" cy="14" r="4" fill="#33363F"/>
<path d="M10 14H14M14 14L12 12M14 14L12 16" stroke="white"/>
</svg>
