<svg viewBox="0 0 24 24" fill="none" xmlns="http://www.w3.org/2000/svg">
<path d="M10.2002 4.59961H11.501C11.9388 4.59961 12.1506 4.60243 12.2969 4.62207L12.4268 4.64844C12.5455 4.68039 12.6595 4.72753 12.7656 4.78906L12.8691 4.85547C12.9371 4.90336 13.0011 4.96142 13.0947 5.06348L13.499 5.53516L15.0391 7.38379C15.1531 7.52058 15.3219 7.59961 15.5 7.59961H17.7998C18.3696 7.59961 18.7611 7.60024 19.0645 7.625C19.2864 7.64314 19.4318 7.67263 19.5391 7.71094L19.6357 7.75293C19.866 7.87032 20.0589 8.0485 20.1934 8.26758L20.2471 8.36426C20.3058 8.47949 20.3508 8.63915 20.375 8.93555C20.3998 9.23891 20.4004 9.63043 20.4004 10.2002V12.7998C20.4004 13.3696 20.3998 13.7611 20.375 14.0645C20.3569 14.2864 20.3274 14.4318 20.2891 14.5391L20.2471 14.6357C20.1297 14.866 19.9515 15.0589 19.7324 15.1934L19.6357 15.2471C19.5205 15.3058 19.3609 15.3508 19.0645 15.375C18.7611 15.3998 18.3696 15.4004 17.7998 15.4004H10.2002C9.63043 15.4004 9.23891 15.3998 8.93555 15.375C8.71358 15.3569 8.56818 15.3274 8.46094 15.2891L8.36426 15.2471C8.13399 15.1297 7.9411 14.9515 7.80664 14.7324L7.75293 14.6357C7.69422 14.5205 7.64922 14.3609 7.625 14.0645C7.60024 13.7611 7.59961 13.3696 7.59961 12.7998V7.2002C7.59961 6.63043 7.60024 6.23891 7.625 5.93555C7.64314 5.71358 7.67263 5.56818 7.71094 5.46094L7.75293 5.36426C7.87032 5.13399 8.0485 4.9411 8.26758 4.80664L8.36426 4.75293C8.47949 4.69422 8.63915 4.64922 8.93555 4.625C9.23891 4.60024 9.63043 4.59961 10.2002 4.59961Z" stroke="#222222" stroke-width="1.2" stroke-linejoin="round"/>
<path d="M17 15V16.8C17 17.9201 17 18.4802 16.782 18.908C16.5903 19.2843 16.2843 19.5903 15.908 19.782C15.4802 20 14.9201 20 13.8 20H6.2C5.07989 20 4.51984 20 4.09202 19.782C3.71569 19.5903 3.40973 19.2843 3.21799 18.908C3 18.4802 3 17.9201 3 16.8V11.2C3 10.0799 3 9.51984 3.21799 9.09202C3.40973 8.71569 3.71569 8.40973 4.09202 8.21799C4.51984 8 5.07989 8 6.2 8H8" stroke="#7E869E" stroke-opacity="0.25" stroke-width="1.2" stroke-linejoin="round"/>
</svg>
