<svg width="24" height="24" viewBox="0 0 24 24" fill="none" xmlns="http://www.w3.org/2000/svg">
<path fill-rule="evenodd" clip-rule="evenodd" d="M14 3.83854L14 3.8V3H7.4C6.55992 3 6.13988 3 5.81901 3.16349C5.53677 3.3073 5.3073 3.53677 5.16349 3.81901C5 4.13988 5 4.55992 5 5.4V7.00078C5.1168 6.99998 5.23832 6.99999 5.36391 7H5.36391L5.4 7H8.20471L8.26397 6.99992C8.49595 6.99944 8.75877 6.99891 9.01652 7.06079C9.241 7.11468 9.4556 7.20357 9.65244 7.32419C9.87845 7.46269 10.0639 7.64891 10.2276 7.81328L10.2276 7.81329L10.2695 7.85525L12.1448 9.73054C12.2547 9.84046 12.3141 9.8995 12.3603 9.94174C12.3804 9.96006 12.3915 9.96908 12.3959 9.97256C12.4118 9.98183 12.4288 9.98888 12.4465 9.99351C12.4522 9.99421 12.4664 9.99566 12.4935 9.9969C12.5561 9.99976 12.6398 10 12.7953 10H18.6L18.6361 10C18.7617 9.99999 18.8832 9.99998 19 10.0008V8H18.2L18.1615 8C17.6343 8.00002 17.1795 8.00003 16.805 7.96943C16.4096 7.93713 16.0164 7.86581 15.638 7.67302C15.0735 7.3854 14.6146 6.92646 14.327 6.36197C14.1342 5.98359 14.0629 5.59037 14.0306 5.19503C14 4.82046 14 4.36569 14 3.83854ZM18.9086 12.0004C18.816 12.0001 18.7138 12 18.6 12H12.7953L12.736 12.0001H12.736C12.504 12.0006 12.2412 12.0011 11.9835 11.9392C11.759 11.8853 11.5444 11.7964 11.3476 11.6758C11.1215 11.5373 10.9361 11.3511 10.7724 11.1867L10.7305 11.1448L8.85525 9.26946C8.74532 9.15954 8.68595 9.1005 8.63966 9.05826C8.61959 9.03995 8.60852 9.03093 8.60405 9.02744C8.58823 9.01817 8.57121 9.01112 8.55347 9.00649C8.54784 9.00579 8.53364 9.00434 8.50649 9.0031C8.4439 9.00024 8.36017 9 8.20471 9H5.4C5.24744 9 5.11556 9.0001 5 9.00092V10.6C5 11.4401 5 11.8601 5.16349 12.181C5.3073 12.4632 5.53677 12.6927 5.81901 12.8365C6.13988 13 6.55992 13 7.4 13H16.6C17.4401 13 17.8601 13 18.181 12.8365C18.4632 12.6927 18.6927 12.4632 18.8365 12.181C18.8653 12.1245 18.889 12.0649 18.9086 12.0004ZM16 3.8V3.08982C16.0372 3.10674 16.0733 3.12595 16.1083 3.14736C16.2092 3.2092 16.2957 3.29568 16.4686 3.46862L16.4686 3.46863L18.5314 5.53137C18.7043 5.70432 18.7908 5.7908 18.8526 5.89172C18.874 5.92665 18.8933 5.96282 18.9102 6H18.2C17.6234 6 17.2512 5.99922 16.9678 5.97607C16.6962 5.95388 16.5955 5.9162 16.546 5.89101C16.3578 5.79513 16.2049 5.64215 16.109 5.45399C16.0838 5.40455 16.0461 5.30383 16.0239 5.03216C16.0008 4.74883 16 4.37655 16 3.8Z" fill="#222222"/>
<path d="M3 11.4C3 10.5599 3 10.1399 3.16349 9.81901C3.3073 9.53677 3.53677 9.3073 3.81901 9.16349C4.13988 9 4.55992 9 5.4 9H8.20471C8.49822 9 8.64497 9 8.78308 9.03316C8.90552 9.06255 9.02258 9.11104 9.12994 9.17683C9.25104 9.25104 9.35481 9.35481 9.56236 9.56236L11.4376 11.4376C11.6452 11.6452 11.749 11.749 11.8701 11.8232C11.9774 11.889 12.0945 11.9374 12.2169 11.9668C12.355 12 12.5018 12 12.7953 12H18.6C19.4401 12 19.8601 12 20.181 12.1635C20.4632 12.3073 20.6927 12.5368 20.8365 12.819C21 13.1399 21 13.5599 21 14.4V19.6C21 20.4401 21 20.8601 20.8365 21.181C20.6927 21.4632 20.4632 21.6927 20.181 21.8365C19.8601 22 19.4401 22 18.6 22H5.4C4.55992 22 4.13988 22 3.81901 21.8365C3.53677 21.6927 3.3073 21.4632 3.16349 21.181C3 20.8601 3 20.4401 3 19.6V11.4Z" fill="#222222"/>
</svg>
