<svg width="24" height="24" viewBox="0 0 24 24" fill="none" xmlns="http://www.w3.org/2000/svg">
<path d="M13 5C13 4.44772 13.4477 4 14 4H19C19.5523 4 20 4.44772 20 5V20C20 20.5523 19.5523 21 19 21H14C13.4477 21 13 20.5523 13 20V5Z" stroke="#222222" stroke-width="2"/>
<path d="M15 18C15 17.4477 15.4477 17 16 17H17C17.5523 17 18 17.4477 18 18C18 18.5523 17.5523 19 17 19H16C15.4477 19 15 18.5523 15 18Z" fill="#222222"/>
<path d="M15 8C15 7.44772 15.4477 7 16 7H17C17.5523 7 18 7.44772 18 8C18 8.55228 17.5523 9 17 9H16C15.4477 9 15 8.55228 15 8Z" fill="#222222"/>
<path d="M15 11C15 10.4477 15.4477 10 16 10H17C17.5523 10 18 10.4477 18 11C18 11.5523 17.5523 12 17 12H16C15.4477 12 15 11.5523 15 11Z" fill="#222222"/>
<path d="M14 14.5C14 14.2239 14.2239 14 14.5 14H20.5C20.7761 14 21 14.2239 21 14.5V15.5C21 15.7761 20.7761 16 20.5 16H14.5C14.2239 16 14 15.7761 14 15.5V14.5Z" fill="#222222"/>
<path d="M15 4H9C8.44772 4 8 4.44772 8 5V20C8 20.5523 8.44772 21 9 21H15" stroke="#222222" stroke-width="2"/>
<path d="M10 18C10 17.4477 10.4477 17 11 17H12C12.5523 17 13 17.4477 13 18C13 18.5523 12.5523 19 12 19H11C10.4477 19 10 18.5523 10 18Z" fill="#222222"/>
<path d="M10 8C10 7.44772 10.4477 7 11 7H12C12.5523 7 13 7.44772 13 8C13 8.55228 12.5523 9 12 9H11C10.4477 9 10 8.55228 10 8Z" fill="#222222"/>
<path d="M10 11C10 10.4477 10.4477 10 11 10H12C12.5523 10 13 10.4477 13 11C13 11.5523 12.5523 12 12 12H11C10.4477 12 10 11.5523 10 11Z" fill="#222222"/>
<path d="M8 14.5C8 14.2239 8.22386 14 8.5 14H14.5C14.7761 14 15 14.2239 15 14.5V15.5C15 15.7761 14.7761 16 14.5 16H8.5C8.22386 16 8 15.7761 8 15.5V14.5Z" fill="#222222"/>
<path d="M10 4H4C3.44772 4 3 4.44772 3 5V20C3 20.5523 3.44772 21 4 21H10" stroke="#222222" stroke-width="2"/>
<path d="M5 18C5 17.4477 5.44772 17 6 17H7C7.55228 17 8 17.4477 8 18C8 18.5523 7.55228 19 7 19H6C5.44772 19 5 18.5523 5 18Z" fill="#222222"/>
<path d="M5 8C5 7.44772 5.44772 7 6 7H7C7.55228 7 8 7.44772 8 8C8 8.55228 7.55228 9 7 9H6C5.44772 9 5 8.55228 5 8Z" fill="#222222"/>
<path d="M5 11C5 10.4477 5.44772 10 6 10H7C7.55228 10 8 10.4477 8 11C8 11.5523 7.55228 12 7 12H6C5.44772 12 5 11.5523 5 11Z" fill="#222222"/>
<path d="M3 14.5C3 14.2239 3.22386 14 3.5 14H9.5C9.77614 14 10 14.2239 10 14.5V15.5C10 15.7761 9.77614 16 9.5 16H3.5C3.22386 16 3 15.7761 3 15.5V14.5Z" fill="#222222"/>
</svg>
