<svg viewBox="0 0 24 24" fill="none" xmlns="http://www.w3.org/2000/svg">
<path d="M11.2002 3.5H12.501C12.9349 3.5 13.1545 3.50222 13.3115 3.52344L13.4531 3.55176C13.5801 3.58595 13.702 3.63639 13.8154 3.70215L13.9268 3.77344C14.0014 3.82596 14.0709 3.88949 14.168 3.99512L14.5752 4.47168L16.1162 6.32031C16.2112 6.43413 16.3517 6.5 16.5 6.5H18.7998C19.3681 6.5 19.7648 6.50019 20.0732 6.52539C20.3002 6.54395 20.4546 6.57473 20.5732 6.61719L20.6807 6.66309C20.9276 6.78891 21.1342 6.98088 21.2783 7.21582L21.3369 7.31934C21.4039 7.45091 21.4499 7.62471 21.4746 7.92676C21.4998 8.23518 21.5 8.63189 21.5 9.2002V11.7998C21.5 12.3681 21.4998 12.7648 21.4746 13.0732C21.4561 13.3002 21.4253 13.4546 21.3828 13.5732L21.3369 13.6807C21.2111 13.9276 21.0191 14.1342 20.7842 14.2783L20.6807 14.3369C20.5491 14.4039 20.3753 14.4499 20.0732 14.4746C19.7648 14.4998 19.3681 14.5 18.7998 14.5H11.2002C10.6319 14.5 10.2352 14.4998 9.92676 14.4746C9.69984 14.4561 9.54536 14.4253 9.42676 14.3828L9.31934 14.3369C9.07239 14.2111 8.8658 14.0191 8.72168 13.7842L8.66309 13.6807C8.59613 13.5491 8.55009 13.3753 8.52539 13.0732C8.50019 12.7648 8.5 12.3681 8.5 11.7998V6.2002C8.5 5.63189 8.50019 5.23518 8.52539 4.92676C8.54395 4.69984 8.57473 4.54536 8.61719 4.42676L8.66309 4.31934C8.78891 4.07239 8.98088 3.8658 9.21582 3.72168L9.31934 3.66309C9.45091 3.59613 9.62471 3.55009 9.92676 3.52539C10.2352 3.50019 10.6319 3.5 11.2002 3.5Z" stroke="#222222" stroke-linejoin="round"/>
<path d="M6 7H5C3.89543 7 3 7.89543 3 9V10" stroke="#222222" stroke-miterlimit="1.41421"/>
<path d="M6 20H5C3.89543 20 3 19.1046 3 18V17" stroke="#222222" stroke-miterlimit="1.41421"/>
<path d="M13 20H14C15.1046 20 16 19.1046 16 18V17" stroke="#222222" stroke-miterlimit="1.41421"/>
<path d="M11 20H8" stroke="#222222" stroke-miterlimit="1.41421"/>
<path d="M3 12L3 15" stroke="#222222" stroke-miterlimit="1.41421"/>
</svg>
