<svg width="24" height="24" viewBox="0 0 24 24" fill="none" xmlns="http://www.w3.org/2000/svg">
<path d="M4.5 6.89957C4.5 6.05949 4.5 5.63945 4.66349 5.31859C4.8073 5.03634 5.03677 4.80687 5.31901 4.66306C5.63988 4.49957 6.05992 4.49957 6.9 4.49957H9.47237C9.84808 4.49957 10.0359 4.49957 10.2065 4.55136C10.3574 4.59721 10.4978 4.67237 10.6197 4.77255C10.7574 4.88571 10.8616 5.04202 11.07 5.35465L11.93 6.6449C12.1384 6.95752 12.2426 7.11384 12.3803 7.227C12.5022 7.32718 12.6426 7.40234 12.7935 7.44819C12.9641 7.49997 13.1519 7.49997 13.5276 7.49997H17.1C17.9401 7.49997 18.3601 7.49997 18.681 7.66346C18.9632 7.80727 19.1927 8.03674 19.3365 8.31899C19.5 8.63986 19.5 9.05989 19.5 9.89997V16.1C19.5 16.9401 19.5 17.3601 19.3365 17.681C19.1927 17.9632 18.9632 18.1927 18.681 18.3365C18.3601 18.5 17.9401 18.5 17.1 18.5H6.9C6.05992 18.5 5.63988 18.5 5.31901 18.3365C5.03677 18.1927 4.8073 17.9632 4.66349 17.681C4.5 17.3601 4.5 16.9401 4.5 16.1V6.89957Z" stroke="#222222"/>
</svg>
