<svg viewBox="0 0 24 24" fill="none" xmlns="http://www.w3.org/2000/svg">
<path d="M18.5 11V7.5C18.5 5.61438 18.5 4.67157 17.9142 4.08579C17.3284 3.5 16.3856 3.5 14.5 3.5H9.5C7.61438 3.5 6.67157 3.5 6.08579 4.08579C5.5 4.67157 5.5 5.61438 5.5 7.5V8" stroke="#7E869E" stroke-opacity="0.25" stroke-width="1.2"/>
<path d="M6.2002 7.59961H8.6748C9.06254 7.59961 9.25014 7.60243 9.38086 7.61816L9.49805 7.63867C9.60511 7.66438 9.70875 7.70308 9.80664 7.75293L9.90332 7.80664C9.96673 7.84553 10.0277 7.8926 10.1182 7.97559L10.5127 8.36133L12.5762 10.4238C12.6887 10.5363 12.8409 10.5996 13 10.5996H17.7998C18.3696 10.5996 18.7611 10.6002 19.0645 10.625C19.2864 10.6431 19.4318 10.6726 19.5391 10.7109L19.6357 10.7529C19.866 10.8703 20.0589 11.0485 20.1934 11.2676L20.2471 11.3643C20.3058 11.4795 20.3508 11.6391 20.375 11.9355C20.3998 12.2389 20.4004 12.6304 20.4004 13.2002V17.7998C20.4004 18.3696 20.3998 18.7611 20.375 19.0645C20.3569 19.2864 20.3274 19.4318 20.2891 19.5391L20.2471 19.6357C20.1297 19.866 19.9515 20.0589 19.7324 20.1934L19.6357 20.2471C19.5205 20.3058 19.3609 20.3508 19.0645 20.375C18.7611 20.3998 18.3696 20.4004 17.7998 20.4004H6.2002C5.63043 20.4004 5.23891 20.3998 4.93555 20.375C4.71358 20.3569 4.56818 20.3274 4.46094 20.2891L4.36426 20.2471C4.13399 20.1297 3.9411 19.9515 3.80664 19.7324L3.75293 19.6357C3.69422 19.5205 3.64922 19.3609 3.625 19.0645C3.60024 18.7611 3.59961 18.3696 3.59961 17.7998V10.2002C3.59961 9.63043 3.60024 9.23891 3.625 8.93555C3.64314 8.71358 3.67263 8.56818 3.71094 8.46094L3.75293 8.36426C3.87032 8.13399 4.0485 7.9411 4.26758 7.80664L4.36426 7.75293C4.47949 7.69422 4.63915 7.64922 4.93555 7.625C5.23891 7.60024 5.63043 7.59961 6.2002 7.59961Z" stroke="#222222" stroke-width="1.2" stroke-linejoin="round"/>
</svg>
