<svg width="24" height="24" viewBox="0 0 24 24" fill="none" xmlns="http://www.w3.org/2000/svg">
<path d="M3 8C3 7.06812 3 6.60218 3.15224 6.23463C3.35523 5.74458 3.74458 5.35523 4.23463 5.15224C4.60218 5 5.06812 5 6 5H8.34315C9.16065 5 9.5694 5 9.93694 5.15224C10.3045 5.30448 10.5935 5.59351 11.1716 6.17157L13 8H3Z" fill="#222222"/>
<path fill-rule="evenodd" clip-rule="evenodd" d="M17.8 8H3V16.8C3 17.9201 3 18.4802 3.21799 18.908C3.40973 19.2843 3.71569 19.5903 4.09202 19.782C4.51984 20 5.0799 20 6.2 20H17.8C18.9201 20 19.4802 20 19.908 19.782C20.2843 19.5903 20.5903 19.2843 20.782 18.908C21 18.4802 21 17.9201 21 16.8V11.2C21 10.0799 21 9.51984 20.782 9.09202C20.5903 8.71569 20.2843 8.40973 19.908 8.21799C19.4802 8 18.9201 8 17.8 8ZM11.5 12C10.6716 12 10 12.6716 10 13.5C10 14.3284 10.6716 15 11.5 15C12.3284 15 13 14.3284 13 13.5C13 12.6716 12.3284 12 11.5 12ZM8 13.5C8 11.567 9.567 10 11.5 10C13.433 10 15 11.567 15 13.5C15 14.2475 14.7657 14.9403 14.3664 15.5089C14.6648 15.4689 14.9778 15.5636 15.2071 15.7929L16.7071 17.2929C17.0976 17.6834 17.0976 18.3166 16.7071 18.7071C16.3166 19.0976 15.6834 19.0976 15.2929 18.7071L13.7929 17.2071C13.5636 16.9778 13.4689 16.6648 13.5089 16.3664C12.9403 16.7657 12.2475 17 11.5 17C9.567 17 8 15.433 8 13.5Z" fill="#222222"/>
</svg>
