<svg viewBox="0 0 24 24" fill="none" xmlns="http://www.w3.org/2000/svg">
<path fill-rule="evenodd" clip-rule="evenodd" d="M6 7C6 5.11438 6 4.17157 6.58579 3.58579C7.17157 3 8.11438 3 10 3H14C15.8856 3 16.8284 3 17.4142 3.58579C18 4.17157 18 5.11438 18 7V11H14.8284C14.4306 11 14.0491 10.842 13.7678 10.5607L11.9393 8.73223C11.4705 8.26339 10.8346 8 10.1716 8H6V7ZM6 9C5.06812 9 4.60218 9 4.23463 9.15224C3.74458 9.35523 3.35523 9.74458 3.15224 10.2346C3 10.6022 3 11.0681 3 12V17.8C3 18.9201 3 19.4802 3.21799 19.908C3.40973 20.2843 3.71569 20.5903 4.09202 20.782C4.51984 21 5.0799 21 6.2 21H17.8C18.9201 21 19.4802 21 19.908 20.782C20.2843 20.5903 20.5903 20.2843 20.782 19.908C21 19.4802 21 18.9201 21 17.8V15.2C21 14.0799 21 13.5198 20.782 13.092C20.5903 12.7157 20.2843 12.4097 19.908 12.218C19.5064 12.0134 18.9883 12.0008 18 12.0001V12H14.8284C14.1654 12 13.5295 11.7366 13.0607 11.2678L11.2322 9.43934C10.9509 9.15804 10.5694 9 10.1716 9H6Z" fill="#222222"/>
</svg>
