<svg viewBox="0 0 24 24" fill="none" xmlns="http://www.w3.org/2000/svg">
<path d="M14.5 3.5H6.5V7.5H9.5L11.5 11.5H17.5V6.5L14.5 3.5Z" fill="#2A4157" fill-opacity="0.24"/>
<path d="M17.5 11V7.16274C17.5 6.91815 17.5 6.79586 17.4724 6.68077C17.4479 6.57873 17.4075 6.48119 17.3526 6.39172C17.2908 6.2908 17.2043 6.20432 17.0314 6.03137L14.9686 3.96863C14.7957 3.79568 14.7092 3.7092 14.6083 3.64736C14.5188 3.59253 14.4213 3.55213 14.3192 3.52763C14.2041 3.5 14.0818 3.5 13.8373 3.5H8.9C8.05992 3.5 7.63988 3.5 7.31901 3.66349C7.03677 3.8073 6.8073 4.03677 6.66349 4.31901C6.5 4.63988 6.5 5.05992 6.5 5.9V8" stroke="#33363F"/>
<path d="M13.5 3.5L13.5 5.9C13.5 6.46005 13.5 6.74008 13.609 6.95399C13.7049 7.14215 13.8578 7.29513 14.046 7.39101C14.2599 7.5 14.5399 7.5 15.1 7.5L17.5 7.5" stroke="#33363F"/>
<path d="M3 10H17C18.8856 10 19.8284 10 20.4142 10.5858C21 11.1716 21 12.1144 21 14V17C21 18.8856 21 19.8284 20.4142 20.4142C19.8284 21 18.8856 21 17 21H7C5.11438 21 4.17157 21 3.58579 20.4142C3 19.8284 3 18.8856 3 17V10Z" fill="#33363F"/>
<path d="M3 10C3 9.06812 3 8.60218 3.15224 8.23463C3.35523 7.74458 3.74458 7.35523 4.23463 7.15224C4.60218 7 5.06812 7 6 7H8.34315C9.16065 7 9.5694 7 9.93694 7.15224C10.3045 7.30448 10.5935 7.59351 11.1716 8.17157L13 10H3Z" fill="#33363F"/>
</svg>
