<svg viewBox="0 0 24 24" fill="none" xmlns="http://www.w3.org/2000/svg">
<path fill-rule="evenodd" clip-rule="evenodd" d="M7 4H4C3.44772 4 3 4.44772 3 5V14H7V12H6C5.44772 12 5 11.5523 5 11C5 10.4477 5.44772 10 6 10H7V9H6C5.44772 9 5 8.55228 5 8C5 7.44772 5.44772 7 6 7H7V4ZM3 20V16H7V17H6C5.44772 17 5 17.4477 5 18C5 18.5523 5.44772 19 6 19H7V21H4C3.44772 21 3 20.5523 3 20Z" fill="#222222"/>
<path fill-rule="evenodd" clip-rule="evenodd" d="M12 4H9C8.44772 4 8 4.44772 8 5V14H12V12H11C10.4477 12 10 11.5523 10 11C10 10.4477 10.4477 10 11 10H12V9H11C10.4477 9 10 8.55228 10 8C10 7.44772 10.4477 7 11 7H12V4ZM8 20V16H12V17H11C10.4477 17 10 17.4477 10 18C10 18.5523 10.4477 19 11 19H12V21H9C8.44772 21 8 20.5523 8 20Z" fill="#222222"/>
<path fill-rule="evenodd" clip-rule="evenodd" d="M19 4H14C13.4477 4 13 4.44772 13 5V14H20V5C20 4.44772 19.5523 4 19 4ZM13 20V16H20V20C20 20.5523 19.5523 21 19 21H14C13.4477 21 13 20.5523 13 20ZM15 8C15 7.44772 15.4477 7 16 7H17C17.5523 7 18 7.44772 18 8C18 8.55228 17.5523 9 17 9H16C15.4477 9 15 8.55228 15 8ZM15 18C15 17.4477 15.4477 17 16 17H17C17.5523 17 18 17.4477 18 18C18 18.5523 17.5523 19 17 19H16C15.4477 19 15 18.5523 15 18ZM16 10C15.4477 10 15 10.4477 15 11C15 11.5523 15.4477 12 16 12H17C17.5523 12 18 11.5523 18 11C18 10.4477 17.5523 10 17 10H16Z" fill="#222222"/>
</svg>
