<svg width="24" height="24" viewBox="0 0 24 24" fill="none" xmlns="http://www.w3.org/2000/svg">
<path fill-rule="evenodd" clip-rule="evenodd" d="M7 7.2C7 6.0799 7 5.51984 7.21799 5.09202C7.40973 4.71569 7.71569 4.40973 8.09202 4.21799C8.51984 4 9.0799 4 10.2 4H11.5012C12.0521 4 12.3276 4 12.5829 4.06868C12.809 4.12953 13.0228 4.22963 13.2143 4.36443C13.4305 4.51656 13.6068 4.72818 13.9595 5.15141L15.5 7H17.8C18.9201 7 19.4802 7 19.908 7.21799C20.2843 7.40973 20.5903 7.71569 20.782 8.09202C21 8.51984 21 9.0799 21 10.2V12.8C21 13.9201 21 14.4802 20.782 14.908C20.5903 15.2843 20.2843 15.5903 19.908 15.782C19.4802 16 18.9201 16 17.8 16H17H8C7.44772 16 7 15.5523 7 15V8V7.2ZM5 8.01919C4.60779 8.04314 4.32953 8.09697 4.09202 8.21799C3.71569 8.40973 3.40973 8.71569 3.21799 9.09202C3 9.51984 3 10.0799 3 11.2V13.6C3 15.8402 3 16.9603 3.43597 17.816C3.81947 18.5686 4.43139 19.1805 5.18404 19.564C6.03969 20 7.15979 20 9.4 20H13.8C14.9201 20 15.4802 20 15.908 19.782C16.2843 19.5903 16.5903 19.2843 16.782 18.908C16.903 18.6705 16.9569 18.3922 16.9808 18H8C6.34315 18 5 16.6569 5 15V8.01919Z" fill="#222222"/>
</svg>
