<svg width="24" height="24" viewBox="0 0 24 24" fill="none" xmlns="http://www.w3.org/2000/svg">
<path d="M11.2002 3.59961H12.501C12.9388 3.59961 13.1506 3.60243 13.2969 3.62207L13.4268 3.64844C13.5455 3.68039 13.6595 3.72753 13.7656 3.78906L13.8691 3.85547C13.9371 3.90336 14.0011 3.96142 14.0947 4.06348L14.499 4.53516L16.0391 6.38379C16.1531 6.52058 16.3219 6.59961 16.5 6.59961H18.7998C19.3696 6.59961 19.7611 6.60024 20.0645 6.625C20.2864 6.64314 20.4318 6.67263 20.5391 6.71094L20.6357 6.75293C20.866 6.87032 21.0589 7.0485 21.1934 7.26758L21.2471 7.36426C21.3058 7.47949 21.3508 7.63915 21.375 7.93555C21.3998 8.23891 21.4004 8.63043 21.4004 9.2002V11.7998C21.4004 12.3696 21.3998 12.7611 21.375 13.0645C21.3569 13.2864 21.3274 13.4318 21.2891 13.5391L21.2471 13.6357C21.1297 13.866 20.9515 14.0589 20.7324 14.1934L20.6357 14.2471C20.5205 14.3058 20.3609 14.3508 20.0645 14.375C19.7611 14.3998 19.3696 14.4004 18.7998 14.4004H11.2002C10.6304 14.4004 10.2389 14.3998 9.93555 14.375C9.71358 14.3569 9.56818 14.3274 9.46094 14.2891L9.36426 14.2471C9.13399 14.1297 8.9411 13.9515 8.80664 13.7324L8.75293 13.6357C8.69422 13.5205 8.64922 13.3609 8.625 13.0645C8.60024 12.7611 8.59961 12.3696 8.59961 11.7998V6.2002C8.59961 5.63043 8.60024 5.23891 8.625 4.93555C8.64314 4.71358 8.67263 4.56818 8.71094 4.46094L8.75293 4.36426C8.87032 4.13399 9.0485 3.9411 9.26758 3.80664L9.36426 3.75293C9.47949 3.69422 9.63915 3.64922 9.93555 3.625C10.2389 3.60024 10.6304 3.59961 11.2002 3.59961Z" stroke="#222222" stroke-width="1.2" stroke-linejoin="round"/>
<path d="M6 7H5C3.89543 7 3 7.89543 3 9V10" stroke="#7E869E" stroke-opacity="0.25" stroke-width="1.2" stroke-miterlimit="1.41421"/>
<path d="M6 20H5C3.89543 20 3 19.1046 3 18V17" stroke="#7E869E" stroke-opacity="0.25" stroke-width="1.2" stroke-miterlimit="1.41421"/>
<path d="M13 20H14C15.1046 20 16 19.1046 16 18V17" stroke="#7E869E" stroke-opacity="0.25" stroke-width="1.2" stroke-miterlimit="1.41421"/>
<path d="M11 20H8" stroke="#7E869E" stroke-opacity="0.25" stroke-width="1.2" stroke-miterlimit="1.41421"/>
<path d="M3 12L3 15" stroke="#7E869E" stroke-opacity="0.25" stroke-width="1.2" stroke-miterlimit="1.41421"/>
</svg>
