<svg viewBox="0 0 24 24" fill="none" xmlns="http://www.w3.org/2000/svg">
<path d="M9.2002 5.5H10.501C10.9349 5.5 11.1545 5.50222 11.3115 5.52344L11.4531 5.55176C11.5801 5.58595 11.702 5.63639 11.8154 5.70215L11.9268 5.77344C12.0014 5.82596 12.0709 5.88949 12.168 5.99512L12.5752 6.47168L14.1162 8.32031C14.2112 8.43413 14.3517 8.5 14.5 8.5H16.7998C17.3681 8.5 17.7648 8.50019 18.0732 8.52539C18.3002 8.54395 18.4546 8.57473 18.5732 8.61719L18.6807 8.66309C18.9276 8.78891 19.1342 8.98088 19.2783 9.21582L19.3369 9.31934C19.4039 9.45091 19.4499 9.62471 19.4746 9.92676C19.4998 10.2352 19.5 10.6319 19.5 11.2002V13.7998C19.5 14.3681 19.4998 14.7648 19.4746 15.0732C19.4561 15.3002 19.4253 15.4546 19.3828 15.5732L19.3369 15.6807C19.2111 15.9276 19.0191 16.1342 18.7842 16.2783L18.6807 16.3369C18.5491 16.4039 18.3753 16.4499 18.0732 16.4746C17.7648 16.4998 17.3681 16.5 16.7998 16.5H9.2002C8.63189 16.5 8.23518 16.4998 7.92676 16.4746C7.69984 16.4561 7.54536 16.4253 7.42676 16.3828L7.31934 16.3369C7.07239 16.2111 6.8658 16.0191 6.72168 15.7842L6.66309 15.6807C6.59613 15.5491 6.55009 15.3753 6.52539 15.0732C6.50019 14.7648 6.5 14.3681 6.5 13.7998V8.2002C6.5 7.63189 6.50019 7.23518 6.52539 6.92676C6.54395 6.69984 6.57473 6.54536 6.61719 6.42676L6.66309 6.31934C6.78891 6.07239 6.98088 5.8658 7.21582 5.72168L7.31934 5.66309C7.45091 5.59613 7.62471 5.55009 7.92676 5.52539C8.23518 5.50019 8.63189 5.5 9.2002 5.5Z" stroke="#222222" stroke-linejoin="round"/>
<path d="M17 16V17.6C17 18.4401 17 18.8601 16.8365 19.181C16.6927 19.4632 16.4632 19.6927 16.181 19.8365C15.8601 20 15.4401 20 14.6 20H5.4C4.55992 20 4.13988 20 3.81901 19.8365C3.53677 19.6927 3.3073 19.4632 3.16349 19.181C3 18.8601 3 18.4401 3 17.6V10.4C3 9.55992 3 9.13988 3.16349 8.81901C3.3073 8.53677 3.53677 8.3073 3.81901 8.16349C4.13988 8 4.55992 8 5.4 8H7" stroke="#222222" stroke-linejoin="round"/>
</svg>
