<svg width="24" height="24" viewBox="0 0 24 24" fill="none" xmlns="http://www.w3.org/2000/svg">
<path d="M5.5 3V6.9C5.5 7.46005 5.5 7.74008 5.60899 7.95399C5.70487 8.14215 5.85785 8.29513 6.04601 8.39101C6.25992 8.5 6.53995 8.5 7.1 8.5H11.5M5.5 5V16.9C5.5 17.4601 5.5 17.7401 5.60899 17.954C5.70487 18.1422 5.85785 18.2951 6.04601 18.391C6.25992 18.5 6.53995 18.5 7.1 18.5H11.5" stroke="#2A4157" stroke-opacity="0.24"/>
<path d="M11.5 7.1C11.5 6.53995 11.5 6.25992 11.609 6.04601C11.7049 5.85785 11.8578 5.70487 12.046 5.60899C12.2599 5.5 12.5399 5.5 13.1 5.5H13.3371C13.5817 5.5 13.7041 5.5 13.8192 5.52764C13.9212 5.55215 14.0188 5.59258 14.1083 5.64743C14.2092 5.70931 14.2957 5.79582 14.4687 5.96886L14.5313 6.03147C14.7042 6.20453 14.7907 6.29106 14.8917 6.35294C14.9812 6.4078 15.0788 6.44822 15.1809 6.47273C15.296 6.50037 15.4183 6.50035 15.663 6.50033L16.8998 6.50018C17.4599 6.50012 17.74 6.50009 17.9539 6.60907C18.1421 6.70494 18.2951 6.85792 18.391 7.04609C18.5 7.26002 18.5 7.54007 18.5 8.10018V9.9C18.5 10.4601 18.5 10.7401 18.391 10.954C18.2951 11.1422 18.1422 11.2951 17.954 11.391C17.7401 11.5 17.4601 11.5 16.9 11.5H13.1C12.5399 11.5 12.2599 11.5 12.046 11.391C11.8578 11.2951 11.7049 11.1422 11.609 10.954C11.5 10.7401 11.5 10.4601 11.5 9.9V7.1Z" stroke="#222222"/>
<path d="M11.5 17.1C11.5 16.5399 11.5 16.2599 11.609 16.046C11.7049 15.8578 11.8578 15.7049 12.046 15.609C12.2599 15.5 12.5399 15.5 13.1 15.5H13.3371C13.5817 15.5 13.7041 15.5 13.8192 15.5276C13.9212 15.5522 14.0188 15.5926 14.1083 15.6474C14.2092 15.7093 14.2957 15.7958 14.4687 15.9689L14.5313 16.0315C14.7042 16.2045 14.7907 16.2911 14.8917 16.3529C14.9812 16.4078 15.0788 16.4482 15.1809 16.4727C15.296 16.5004 15.4183 16.5004 15.663 16.5003L16.8998 16.5002C17.4599 16.5001 17.74 16.5001 17.9539 16.6091C18.1421 16.7049 18.2951 16.8579 18.391 17.0461C18.5 17.26 18.5 17.5401 18.5 18.1002V19.9C18.5 20.4601 18.5 20.7401 18.391 20.954C18.2951 21.1422 18.1422 21.2951 17.954 21.391C17.7401 21.5 17.4601 21.5 16.9 21.5H13.1C12.5399 21.5 12.2599 21.5 12.046 21.391C11.8578 21.2951 11.7049 21.1422 11.609 20.954C11.5 20.7401 11.5 20.4601 11.5 19.9V17.1Z" stroke="#222222"/>
</svg>
