<svg width="24" height="24" viewBox="0 0 24 24" fill="none" xmlns="http://www.w3.org/2000/svg">
<path d="M14.5 18.5004H5.9C5.05992 18.5004 4.63988 18.5004 4.31901 18.3369C4.03677 18.1931 3.8073 17.9636 3.66349 17.6814C3.5 17.3605 3.5 16.9405 3.5 16.1004V6.9C3.5 6.05992 3.5 5.63988 3.66349 5.31901C3.8073 5.03677 4.03677 4.8073 4.31901 4.66349C4.63988 4.5 5.05992 4.5 5.9 4.5H8.47237C8.84808 4.5 9.03594 4.5 9.20646 4.55179C9.35741 4.59763 9.49785 4.6728 9.61972 4.77298C9.75739 4.88614 9.86159 5.04245 10.07 5.35507L10.93 6.64533C11.1384 6.95795 11.2426 7.11426 11.3803 7.22742C11.5022 7.3276 11.6426 7.40277 11.7935 7.44861C11.9641 7.5004 12.1519 7.5004 12.5276 7.5004H16.1C16.9401 7.5004 17.3601 7.5004 17.681 7.66389C17.9632 7.8077 18.1927 8.03717 18.3365 8.31942C18.5 8.64028 18.5 9.06032 18.5 9.9004V10.5" stroke="#2A4157" stroke-opacity="0.24" stroke-linecap="round"/>
<path fill-rule="evenodd" clip-rule="evenodd" d="M5.45298 11.6411L5.45298 11.6411L3.70199 16.894C3.46498 17.605 3.34648 17.9605 3.41754 18.2435C3.47974 18.4912 3.63435 18.7057 3.84968 18.8431C4.09567 19 4.4704 19 5.21988 19H16.2702C16.8922 19 17.2032 19 17.4679 18.8959C17.7016 18.804 17.9084 18.6549 18.0695 18.4622C18.252 18.2441 18.3503 17.949 18.547 17.3589L19.947 13.1589C20.3025 12.0924 20.4803 11.5592 20.3737 11.1347C20.2804 10.7631 20.0485 10.4414 19.7255 10.2353C19.3565 10 18.7944 10 17.6702 10H7.72982C7.10779 10 6.79677 10 6.53213 10.1041C6.29844 10.196 6.09156 10.3451 5.93047 10.5377C5.74804 10.7559 5.64969 11.0509 5.45298 11.6411ZM8.5 14C8.22386 14 8 14.2239 8 14.5C8 14.7761 8.22386 15 8.5 15H15.5C15.7761 15 16 14.7761 16 14.5C16 14.2239 15.7761 14 15.5 14H8.5Z" fill="#222222"/>
</svg>
