<svg viewBox="0 0 24 24" fill="none" xmlns="http://www.w3.org/2000/svg">
<path d="M8 5C8 4.44772 8.44772 4 9 4H10.5858C10.851 4 11.1054 4.10536 11.2929 4.29289L11.7071 4.70711C11.8946 4.89464 12.149 5 12.4142 5H15C15.5523 5 16 5.44772 16 6V10C16 10.5523 15.5523 11 15 11H9C8.44772 11 8 10.5523 8 10V5Z" fill="#222222"/>
<path d="M14 14C14 13.4477 14.4477 13 15 13H16.5858C16.851 13 17.1054 13.1054 17.2929 13.2929L17.7071 13.7071C17.8946 13.8946 18.149 14 18.4142 14H21C21.5523 14 22 14.4477 22 15V19C22 19.5523 21.5523 20 21 20H15C14.4477 20 14 19.5523 14 19V14Z" fill="#222222"/>
<path d="M2 14C2 13.4477 2.44772 13 3 13H4.58579C4.851 13 5.10536 13.1054 5.29289 13.2929L5.70711 13.7071C5.89464 13.8946 6.149 14 6.41421 14H9C9.55228 14 10 14.4477 10 15V19C10 19.5523 9.55228 20 9 20H3C2.44772 20 2 19.5523 2 19V14Z" fill="#222222"/>
<path fill-rule="evenodd" clip-rule="evenodd" d="M7 7L5 5.5V6.50001C4.77048 6.50015 4.57038 6.50157 4.40249 6.51528C4.20481 6.53144 4.0082 6.56709 3.81902 6.66349C3.53677 6.8073 3.3073 7.03677 3.16349 7.31901C3.06709 7.5082 3.03144 7.70481 3.01529 7.90249C2.99998 8.08977 2.99999 8.31714 3 8.58071V8.58073V8.6V12H4V8.6C4 8.31172 4.00039 8.12559 4.01196 7.98392C4.02306 7.84809 4.0419 7.79773 4.0545 7.773C4.10243 7.67892 4.17892 7.60243 4.27301 7.5545C4.29773 7.5419 4.34809 7.52306 4.48392 7.51196C4.60849 7.50179 4.76745 7.50026 5 7.50004V8.5L7 7ZM17 7L19 5.5V6.50001C19.2295 6.50015 19.4296 6.50157 19.5975 6.51528C19.7952 6.53144 19.9918 6.56709 20.181 6.66349C20.4632 6.8073 20.6927 7.03677 20.8365 7.31901C20.9329 7.5082 20.9686 7.70481 20.9847 7.90249C21 8.08977 21 8.31715 21 8.58072V8.6V12H20V8.6C20 8.31172 19.9996 8.12559 19.988 7.98392C19.9769 7.84809 19.9581 7.79773 19.9455 7.773C19.8976 7.67892 19.8211 7.60243 19.727 7.5545C19.7023 7.5419 19.6519 7.52306 19.5161 7.51196C19.3915 7.50179 19.2326 7.50026 19 7.50004V8.5L17 7Z" fill="#222222"/>
</svg>
