<svg width="24" height="24" viewBox="0 0 24 24" fill="none" xmlns="http://www.w3.org/2000/svg">
<path d="M5.5 3V6.9C5.5 7.46005 5.5 7.74008 5.60899 7.95399C5.70487 8.14215 5.85785 8.29513 6.04601 8.39101C6.25992 8.5 6.53995 8.5 7.1 8.5H11.5M5.5 5V16.9C5.5 17.4601 5.5 17.7401 5.60899 17.954C5.70487 18.1422 5.85785 18.2951 6.04601 18.391C6.25992 18.5 6.53995 18.5 7.1 18.5H11.5" stroke="#222222"/>
<path d="M11 6.6C11 6.03995 11 5.75992 11.109 5.54601C11.2049 5.35785 11.3578 5.20487 11.546 5.10899C11.7599 5 12.0399 5 12.6 5H13.3373C13.5818 5 13.7041 5 13.8192 5.02763C13.9213 5.05213 14.0188 5.09253 14.1083 5.14736C14.2092 5.2092 14.2957 5.29568 14.4686 5.46863L14.5314 5.53137C14.7043 5.70432 14.7908 5.7908 14.8917 5.85264C14.9812 5.90747 15.0787 5.94787 15.1808 5.97237C15.2959 6 15.4182 6 15.6627 6H17.4C17.9601 6 18.2401 6 18.454 6.10899C18.6422 6.20487 18.7951 6.35785 18.891 6.54601C19 6.75992 19 7.03995 19 7.6V10.4C19 10.9601 19 11.2401 18.891 11.454C18.7951 11.6422 18.6422 11.7951 18.454 11.891C18.2401 12 17.9601 12 17.4 12H12.6C12.0399 12 11.7599 12 11.546 11.891C11.3578 11.7951 11.2049 11.6422 11.109 11.454C11 11.2401 11 10.9601 11 10.4V6.6Z" fill="#222222"/>
<path d="M11 16.6C11 16.0399 11 15.7599 11.109 15.546C11.2049 15.3578 11.3578 15.2049 11.546 15.109C11.7599 15 12.0399 15 12.6 15H13.3373C13.5818 15 13.7041 15 13.8192 15.0276C13.9213 15.0521 14.0188 15.0925 14.1083 15.1474C14.2092 15.2092 14.2957 15.2957 14.4686 15.4686L14.5314 15.5314C14.7043 15.7043 14.7908 15.7908 14.8917 15.8526C14.9812 15.9075 15.0787 15.9479 15.1808 15.9724C15.2959 16 15.4182 16 15.6627 16H17.4C17.9601 16 18.2401 16 18.454 16.109C18.6422 16.2049 18.7951 16.3578 18.891 16.546C19 16.7599 19 17.0399 19 17.6V20.4C19 20.9601 19 21.2401 18.891 21.454C18.7951 21.6422 18.6422 21.7951 18.454 21.891C18.2401 22 17.9601 22 17.4 22H12.6C12.0399 22 11.7599 22 11.546 21.891C11.3578 21.7951 11.2049 21.6422 11.109 21.454C11 21.2401 11 20.9601 11 20.4V16.6Z" fill="#222222"/>
</svg>
