<svg width="24" height="24" viewBox="0 0 24 24" fill="none" xmlns="http://www.w3.org/2000/svg">
<rect x="5.5" y="3.5" width="13" height="9" rx="1.5" fill="#2A4157" fill-opacity="0.24" stroke="#33363F"/>
<path d="M3 10H17C18.8856 10 19.8284 10 20.4142 10.5858C21 11.1716 21 12.1144 21 14V17C21 18.8856 21 19.8284 20.4142 20.4142C19.8284 21 18.8856 21 17 21H7C5.11438 21 4.17157 21 3.58579 20.4142C3 19.8284 3 18.8856 3 17V10Z" fill="#33363F"/>
<path d="M3 10C3 9.06812 3 8.60218 3.15224 8.23463C3.35523 7.74458 3.74458 7.35523 4.23463 7.15224C4.60218 7 5.06812 7 6 7H8.34315C9.16065 7 9.5694 7 9.93694 7.15224C10.3045 7.30448 10.5935 7.59351 11.1716 8.17157L13 10H3Z" fill="#33363F"/>
</svg>
