<svg width="24" height="24" viewBox="0 0 24 24" fill="none" xmlns="http://www.w3.org/2000/svg">
<path d="M20.5 13.5V12.5C20.5 10.6144 20.5 9.67157 19.9142 9.08579C19.3284 8.5 18.3856 8.5 16.5 8.5H15.1569C14.3394 8.5 13.9306 8.5 13.5631 8.34776C13.1955 8.19552 12.9065 7.90649 12.3284 7.32843L11.6716 6.67157C11.0935 6.09351 10.8045 5.80448 10.4369 5.65224C10.0694 5.5 9.66065 5.5 8.84315 5.5H8.5C6.61438 5.5 5.67157 5.5 5.08579 6.08579C4.5 6.67157 4.5 7.61438 4.5 9.5V9.5M4.5 12.5V14.5C4.5 16.3856 4.5 17.3284 5.08579 17.9142C5.67157 18.5 6.61438 18.5 8.5 18.5H18.5C19.6046 18.5 20.5 17.6046 20.5 16.5V16.5" stroke="#222222" stroke-linecap="round"/>
<path d="M12 15.5L12 11M12 11L10 13M12 11L14 13" stroke="#222222" stroke-linecap="round"/>
</svg>
