<svg viewBox="0 0 24 24" fill="none" xmlns="http://www.w3.org/2000/svg">
<path d="M2 7C2 6.06812 2 5.60218 2.15224 5.23463C2.35523 4.74458 2.74458 4.35523 3.23463 4.15224C3.60218 4 4.06812 4 5 4H7.34315C8.16065 4 8.5694 4 8.93694 4.15224C9.30448 4.30448 9.59351 4.59351 10.1716 5.17157L12 7H2Z" fill="#33363F"/>
<path d="M2.5 7.5H17.5C19.3856 7.5 20.3284 7.5 20.9142 8.08579C21.5 8.67157 21.5 9.61438 21.5 11.5V15.5C21.5 17.3856 21.5 18.3284 20.9142 18.9142C20.3284 19.5 19.3856 19.5 17.5 19.5H6.5C4.61438 19.5 3.67157 19.5 3.08579 18.9142C2.5 18.3284 2.5 17.3856 2.5 15.5V7.5Z" fill="#2A4157" fill-opacity="0.24" stroke="#33363F"/>
</svg>
