<svg width="24" height="24" viewBox="0 0 24 24" fill="none" xmlns="http://www.w3.org/2000/svg">
<path fill-rule="evenodd" clip-rule="evenodd" d="M18.7845 14.0777L20.4117 5.94175C20.6915 4.5423 19.4577 3.30846 18.0583 3.58835L9.92233 5.21554C7.54716 5.69057 5.69057 7.54716 5.21554 9.92233L3.58835 18.0583C3.30846 19.4577 4.5423 20.6915 5.94175 20.4117L14.0777 18.7845C16.4528 18.3094 18.3094 16.4528 18.7845 14.0777ZM14.0001 11.9996C14.0001 13.1041 13.1046 13.9996 12.0001 13.9996C10.8955 13.9996 10.0001 13.1041 10.0001 11.9996C10.0001 10.895 10.8955 9.99957 12.0001 9.99957C13.1046 9.99957 14.0001 10.895 14.0001 11.9996ZM16.0001 11.9996C16.0001 14.2087 14.2092 15.9996 12.0001 15.9996C9.79092 15.9996 8.00006 14.2087 8.00006 11.9996C8.00006 9.79043 9.79092 7.99957 12.0001 7.99957C14.2092 7.99957 16.0001 9.79043 16.0001 11.9996Z" fill="#222222"/>
</svg>
