<svg width="24" height="24" viewBox="0 0 24 24" fill="none" xmlns="http://www.w3.org/2000/svg">
<path fill-rule="evenodd" clip-rule="evenodd" d="M12 22C17.5228 22 22 17.5228 22 12C22 6.47715 17.5228 2 12 2C6.47715 2 2 6.47715 2 12C2 17.5228 6.47715 22 12 22ZM9.33421 9.33457L10.0686 12.5169L12.5165 10.0689L9.33421 9.33457ZM14.6659 14.6662L11.4823 13.9316L13.9312 11.4827L14.6659 14.6662ZM7.04364 8.30322C6.86916 7.54714 7.54677 6.86952 8.30285 7.044L14.6944 8.51899C15.0857 8.60927 15.3912 8.91476 15.4815 9.306L16.9564 15.6976C17.1309 16.4537 16.4533 17.1313 15.6972 16.9568L9.30563 15.4818C8.9144 15.3915 8.60891 15.086 8.51862 14.6948L7.04364 8.30322Z" fill="#222222"/>
</svg>
