<svg width="24" height="24" viewBox="0 0 24 24" fill="none" xmlns="http://www.w3.org/2000/svg">
<path fill-rule="evenodd" clip-rule="evenodd" d="M3.32698 4.63803C3 5.27976 3 6.11984 3 7.8V16.2C3 17.8802 3 18.7202 3.32698 19.362C3.6146 19.9265 4.07354 20.3854 4.63803 20.673C5.27976 21 6.11984 21 7.8 21H16.2C17.8802 21 18.7202 21 19.362 20.673C19.9265 20.3854 20.3854 19.9265 20.673 19.362C21 18.7202 21 17.8802 21 16.2V7.8C21 6.11984 21 5.27976 20.673 4.63803C20.3854 4.07354 19.9265 3.6146 19.362 3.32698C18.7202 3 17.8802 3 16.2 3H7.8C6.11984 3 5.27976 3 4.63803 3.32698C4.07354 3.6146 3.6146 4.07354 3.32698 4.63803ZM8.8 7.6C9.13137 7.15817 9.04183 6.53137 8.6 6.2C8.15817 5.86863 7.53137 5.95817 7.2 6.4L5.7 8.4L5.25 9L5.7 9.6L7.2 11.6C7.53137 12.0418 8.15817 12.1314 8.6 11.8C9.04183 11.4686 9.13137 10.8418 8.8 10.4L8.5 10H9.00002C10.1046 10 11 10.8954 11 12V17C11 17.5523 11.4477 18 12 18C12.5523 18 13 17.5523 13 17V12C13 10.8954 13.8954 10 15 10H15.5L15.2 10.4C14.8686 10.8418 14.9582 11.4686 15.4 11.8C15.8418 12.1314 16.4686 12.0418 16.8 11.6L18.3 9.6L18.75 9L18.3 8.4L16.8 6.4C16.4686 5.95817 15.8418 5.86863 15.4 6.2C14.9582 6.53137 14.8686 7.15817 15.2 7.6L15.5 8H15C13.8053 8 12.7329 8.52375 12 9.35417C11.2671 8.52375 10.1947 8 9.00002 8H8.5L8.8 7.6Z" fill="#222222"/>
</svg>
