<svg width="24" height="24" viewBox="0 0 24 24" fill="none" xmlns="http://www.w3.org/2000/svg">
<path d="M3 7.8C3 6.11984 3 5.27976 3.32698 4.63803C3.6146 4.07354 4.07354 3.6146 4.63803 3.32698C5.27976 3 6.11984 3 7.8 3H16.2C17.8802 3 18.7202 3 19.362 3.32698C19.9265 3.6146 20.3854 4.07354 20.673 4.63803C21 5.27976 21 6.11984 21 7.8V16.2C21 17.8802 21 18.7202 20.673 19.362C20.3854 19.9265 19.9265 20.3854 19.362 20.673C18.7202 21 17.8802 21 16.2 21H7.8C6.11984 21 5.27976 21 4.63803 20.673C4.07354 20.3854 3.6146 19.9265 3.32698 19.362C3 18.7202 3 17.8802 3 16.2V7.8Z" fill="#7E869E" fill-opacity="0.25"/>
<path d="M7 8L11.1213 12.1213C11.6839 12.6839 12 13.447 12 14.2426M7 8H10M7 8V11M12 14.2426V18M12 14.2426C12 13.447 12.3161 12.6839 12.8787 12.1213L17 8M17 8H14M17 8V11" stroke="#222222" stroke-width="2" stroke-linecap="round"/>
</svg>
