<svg width="24" height="24" viewBox="0 0 24 24" fill="none" xmlns="http://www.w3.org/2000/svg">
<path d="M2 8.8C2 7.11984 2 6.27976 2.32698 5.63803C2.6146 5.07354 3.07354 4.6146 3.63803 4.32698C4.27976 4 5.11984 4 6.8 4H17.2C18.8802 4 19.7202 4 20.362 4.32698C20.9265 4.6146 21.3854 5.07354 21.673 5.63803C22 6.27976 22 7.11984 22 8.8V15.2C22 16.8802 22 17.7202 21.673 18.362C21.3854 18.9265 20.9265 19.3854 20.362 19.673C19.7202 20 18.8802 20 17.2 20H6.8C5.11984 20 4.27976 20 3.63803 19.673C3.07354 19.3854 2.6146 18.9265 2.32698 18.362C2 17.7202 2 16.8802 2 15.2V8.8Z" fill="#7E869E" fill-opacity="0.25"/>
<path d="M16 14L12.8787 17.1213C12.3161 17.6839 12 18.447 12 19.2426M16 14L17 13M16 14L17 15V13M16 14L15 13H17M12 19.2426V20L12 10M12 19.2426C12 18.447 11.6839 17.6839 11.1213 17.1213L8 14M8 14L7 13M8 14L9 13H7M8 14L7 15V13M12 10V8.5M12 10H13.5L12 8.5M12 10H10.5L12 8.5" stroke="#222222" stroke-width="2" stroke-linecap="round" stroke-linejoin="round"/>
</svg>
