<svg width="24" height="24" viewBox="0 0 24 24" fill="none" xmlns="http://www.w3.org/2000/svg">
<path fill-rule="evenodd" clip-rule="evenodd" d="M3.32698 4.63803C3 5.27976 3 6.11984 3 7.8V16.2C3 17.8802 3 18.7202 3.32698 19.362C3.6146 19.9265 4.07354 20.3854 4.63803 20.673C5.27976 21 6.11984 21 7.8 21H16.2C17.8802 21 18.7202 21 19.362 20.673C19.9265 20.3854 20.3854 19.9265 20.673 19.362C21 18.7202 21 17.8802 21 16.2V7.8C21 6.11984 21 5.27976 20.673 4.63803C20.3854 4.07354 19.9265 3.6146 19.362 3.32698C18.7202 3 17.8802 3 16.2 3H7.8C6.11984 3 5.27976 3 4.63803 3.32698C4.07354 3.6146 3.6146 4.07354 3.32698 4.63803ZM7 7H6V8V11C6 11.5523 6.44772 12 7 12C7.55228 12 8 11.5523 8 11V10.4142L10.4142 12.8284C10.7893 13.2035 11 13.7122 11 14.2426V18C11 18.5523 11.4477 19 12 19C12.5523 19 13 18.5523 13 18V14.2426C13 13.7122 13.2107 13.2035 13.5858 12.8284L16 10.4142V11C16 11.5523 16.4477 12 17 12C17.5523 12 18 11.5523 18 11V8V7H17H14C13.4477 7 13 7.44772 13 8C13 8.55228 13.4477 9 14 9H14.5858L12.1716 11.4142C12.1123 11.4735 12.0551 11.5344 12 11.5969C11.9449 11.5344 11.8877 11.4735 11.8284 11.4142L9.41422 9H10C10.5523 9 11 8.55228 11 8C11 7.44772 10.5523 7 10 7H7Z" fill="#222222"/>
</svg>
