<svg width="24" height="24" viewBox="0 0 24 24" fill="none" xmlns="http://www.w3.org/2000/svg">
<path fill-rule="evenodd" clip-rule="evenodd" d="M2.32698 5.63803C2 6.27976 2 7.11984 2 8.8V15.2C2 16.8802 2 17.7202 2.32698 18.362C2.6146 18.9265 3.07354 19.3854 3.63803 19.673C4.27976 20 5.11984 20 6.8 20L11 20L11 15.2426C11 14.7122 10.7893 14.2035 10.4142 13.8284L9.15302 12.5672L8 11.4142V12C8 12.5523 7.55228 13 7 13C6.44772 13 6 12.5523 6 12V9V8H7H10C10.5523 8 11 8.44772 11 9C11 9.55228 10.5523 10 10 10H9.41422L11.8284 12.4142C11.8877 12.4735 11.9449 12.5344 12 12.5969C12.0551 12.5344 12.1123 12.4735 12.1716 12.4142L14.5858 10H14C13.4477 10 13 9.55228 13 9C13 8.44772 13.4477 8 14 8H17H18V9V12C18 12.5523 17.5523 13 17 13C16.4477 13 16 12.5523 16 12V11.4142L13.5858 13.8284C13.2107 14.2035 13 14.7122 13 15.2426V15.2427V17L13 17.0056L13 20L17.2 20C18.8802 20 19.7202 20 20.362 19.673C20.9265 19.3854 21.3854 18.9265 21.673 18.362C22 17.7202 22 16.8802 22 15.2V8.8C22 7.11984 22 6.27976 21.673 5.63803C21.3854 5.07354 20.9265 4.6146 20.362 4.32698C19.7202 4 18.8802 4 17.2 4H6.8C5.11984 4 4.27976 4 3.63803 4.32698C3.07354 4.6146 2.6146 5.07354 2.32698 5.63803Z" fill="#222222"/>
</svg>
