<svg width="24" height="24" viewBox="0 0 24 24" fill="none" xmlns="http://www.w3.org/2000/svg">
<path fill-rule="evenodd" clip-rule="evenodd" d="M2.32698 5.63803C2 6.27976 2 7.11984 2 8.8V15.2C2 16.8802 2 17.7202 2.32698 18.362C2.6146 18.9265 3.07354 19.3854 3.63803 19.673C4.27976 20 5.11984 20 6.8 20L11 20V19.2426C11 18.7122 10.7893 18.2035 10.4142 17.8284L8 15.4142L7.70711 15.7071C7.42111 15.9931 6.99099 16.0787 6.61732 15.9239C6.24364 15.7691 6 15.4045 6 15V13C6 12.4477 6.44772 12 7 12H9C9.40446 12 9.7691 12.2436 9.92388 12.6173C10.0787 12.991 9.9931 13.4211 9.70711 13.7071L9.41422 14L11 15.5858L11 11H10.5C10.0955 11 9.7309 10.7564 9.57612 10.3827C9.42134 10.009 9.5069 9.57889 9.7929 9.29289L11.2929 7.79289C11.4805 7.60535 11.7348 7.5 12 7.5C12.2652 7.5 12.5196 7.60536 12.7071 7.7929L14.2071 9.2929C14.4931 9.5789 14.5787 10.009 14.4239 10.3827C14.2691 10.7564 13.9045 11 13.5 11H13L13 15.5858L14.5858 14L14.2929 13.7071C14.0069 13.4211 13.9213 12.991 14.0761 12.6173C14.2309 12.2436 14.5955 12 15 12H17C17.5523 12 18 12.4477 18 13V15C18 15.4045 17.7564 15.7691 17.3827 15.9239C17.009 16.0787 16.5789 15.9931 16.2929 15.7071L16 15.4142L13.5858 17.8284C13.2115 18.2027 13.0009 18.7099 13 19.2391L13 19.2426V20L17.2 20C18.8802 20 19.7202 20 20.362 19.673C20.9265 19.3854 21.3854 18.9265 21.673 18.362C22 17.7202 22 16.8802 22 15.2V8.8C22 7.11984 22 6.27976 21.673 5.63803C21.3854 5.07354 20.9265 4.6146 20.362 4.32698C19.7202 4 18.8802 4 17.2 4H6.8C5.11984 4 4.27976 4 3.63803 4.32698C3.07354 4.6146 2.6146 5.07354 2.32698 5.63803Z" fill="#222222"/>
</svg>
