<svg width="24" height="24" viewBox="0 0 24 24" fill="none" xmlns="http://www.w3.org/2000/svg">
<path d="M20 11.5C20 16.5681 14.0282 19.9702 12.4037 20.8018C12.1468 20.9334 11.8532 20.9334 11.5963 20.8018C9.97178 19.9702 4 16.5681 4 11.5C4 7 7.87627 4 12 4C16.2667 4 20 7 20 11.5Z" fill="#7E869E" fill-opacity="0.25"/>
<path d="M8.28603 11.786L11.7429 15.2429C11.8641 15.3641 11.9247 15.4247 12 15.4247C12.0753 15.4247 12.1359 15.3641 12.2571 15.2429L15.714 11.786C16.4617 11.0383 16.5778 9.86663 15.9912 8.98673C15.0763 7.61452 13.0373 7.68475 12.2191 9.11664L12.078 9.36358C12.0435 9.4239 11.9565 9.4239 11.922 9.36358L11.7809 9.11664C10.9627 7.68475 8.92365 7.61452 8.00885 8.98673C7.42225 9.86663 7.53826 11.0383 8.28603 11.786Z" fill="#222222"/>
</svg>
