<svg width="24" height="24" viewBox="0 0 24 24" fill="none" xmlns="http://www.w3.org/2000/svg">
<path d="M3 6.2C3 5.07989 3 4.51984 3.21799 4.09202C3.40973 3.71569 3.71569 3.40973 4.09202 3.21799C4.51984 3 5.0799 3 6.2 3H17.8C18.9201 3 19.4802 3 19.908 3.21799C20.2843 3.40973 20.5903 3.71569 20.782 4.09202C21 4.51984 21 5.0799 21 6.2V17.8C21 18.9201 21 19.4802 20.782 19.908C20.5903 20.2843 20.2843 20.5903 19.908 20.782C19.4802 21 18.9201 21 17.8 21H6.2C5.07989 21 4.51984 21 4.09202 20.782C3.71569 20.5903 3.40973 20.2843 3.21799 19.908C3 19.4802 3 18.9201 3 17.8V6.2Z" stroke="#33363F" stroke-width="2" stroke-linecap="round"/>
<path d="M19 21L15 6.5" stroke="#33363F" stroke-width="2"/>
<path d="M21 6L3 8" stroke="#33363F" stroke-width="2"/>
<path d="M13 14.0882C13 15.9272 11.2611 17.2334 10.4311 17.7521C10.1647 17.9186 9.83526 17.9186 9.56892 17.7521C8.7389 17.2334 7 15.9272 7 14.0882C7 12.2353 8.4536 11 10 11C11.6 11 13 12.2353 13 14.0882Z" stroke="#33363F" stroke-width="2"/>
</svg>
