<svg width="24" height="24" viewBox="0 0 24 24" fill="none" xmlns="http://www.w3.org/2000/svg">
<path d="M12 17L12 14" stroke="#222222" stroke-width="2" stroke-linecap="round"/>
<path d="M12 4L12 7.42857L12 10" stroke="#222222" stroke-width="2" stroke-linecap="round" stroke-linejoin="round"/>
<path d="M11 3V7C11 7.55228 11.4477 8 12 8H17.7929C18.2383 8 18.4614 7.46143 18.1464 7.14645L16.1768 5.17678C16.0791 5.07915 16.0791 4.92085 16.1768 4.82322L18.1464 2.85355C18.4614 2.53857 18.2383 2 17.7929 2H12C11.4477 2 11 2.44772 11 3Z" fill="#222222"/>
<path d="M18.8 22H5.2C4.0799 22 3.51984 22 3.09202 21.782C2.71569 21.5903 2.40973 21.2843 2.21799 20.908C2 20.4802 2 19.9201 2 18.8V13.2C2 12.0799 2 11.5198 2.21799 11.092C2.40973 10.7157 2.71569 10.4097 3.09202 10.218C3.51984 10 4.0799 10 5.2 10H7.02416C7.35866 10 7.52591 10 7.64306 10.0687C7.74582 10.129 7.82367 10.224 7.86262 10.3365C7.90702 10.4649 7.87422 10.6289 7.80862 10.9569L6.38276 18.0862C6.25155 18.7422 6.18595 19.0702 6.27476 19.3269C6.35265 19.5521 6.50837 19.742 6.71388 19.8626C6.94818 20 7.28268 20 7.95169 20H16.0483C16.7173 20 17.0518 20 17.2861 19.8626C17.4916 19.742 17.6473 19.5521 17.7252 19.3269C17.814 19.0702 17.7484 18.7422 17.6172 18.0862L17.6172 18.0862L16.1914 10.9569C16.1258 10.6289 16.093 10.4649 16.1374 10.3365C16.1763 10.224 16.2542 10.129 16.3569 10.0687C16.4741 10 16.6413 10 16.9758 10H18.8C19.9201 10 20.4802 10 20.908 10.218C21.2843 10.4097 21.5903 10.7157 21.782 11.092C22 11.5198 22 12.0799 22 13.2V18.8C22 19.9201 22 20.4802 21.782 20.908C21.5903 21.2843 21.2843 21.5903 20.908 21.782C20.4802 22 19.9201 22 18.8 22Z" fill="#222222"/>
</svg>
