<svg width="24" height="24" viewBox="0 0 24 24" fill="none" xmlns="http://www.w3.org/2000/svg">
<path d="M9.15763 19.54L11.2761 15.0382C11.5072 14.5472 11.6227 14.3017 11.7814 14.2246C11.9194 14.1575 12.0806 14.1575 12.2186 14.2246C12.3773 14.3017 12.4928 14.5472 12.7239 15.0382L14.8424 19.54C15.1894 20.2774 15.3628 20.6461 15.2969 20.8379C15.24 21.0035 15.1006 21.1273 14.9294 21.1642C14.7311 21.2069 14.3856 20.991 13.6945 20.5591L12.424 19.765L12.424 19.765C12.2702 19.6689 12.1933 19.6208 12.1108 19.6021C12.0379 19.5855 11.9621 19.5855 11.8892 19.6021C11.8067 19.6208 11.7298 19.6689 11.576 19.765L11.576 19.765L10.3055 20.5591C9.61444 20.991 9.26892 21.2069 9.07064 21.1642C8.89941 21.1273 8.75997 21.0035 8.70306 20.8379C8.63715 20.6461 8.81064 20.2774 9.15763 19.54Z" fill="#222222"/>
<path d="M12 11L12 9" stroke="#222222" stroke-width="2" stroke-linecap="round"/>
<path d="M17.8 3H6.2C5.0799 3 4.51984 3 4.09202 3.21799C3.71569 3.40973 3.40973 3.71569 3.21799 4.09202C3 4.51984 3 5.0799 3 6.2V14.458C3 14.9618 3 15.2136 3.04513 15.4225C3.21094 16.1897 3.81027 16.7891 4.57755 16.9549C4.78636 17 5.03823 17 5.54196 17C5.63534 17 5.68203 17 5.72383 16.9929C5.87607 16.9668 6.00774 16.8719 6.08055 16.7357C6.10055 16.6983 6.11532 16.6541 6.14484 16.5655L9.63532 6.09404C9.76646 5.70063 9.83203 5.50392 9.95364 5.35849C10.061 5.23007 10.199 5.13066 10.3548 5.06939C10.5312 5 10.7385 5 11.1532 5H12.8468C13.2615 5 13.4688 5 13.6452 5.06939C13.801 5.13066 13.939 5.23007 14.0464 5.35849C14.168 5.50392 14.2335 5.70062 14.3647 6.09403L14.3647 6.09404L17.8552 16.5655C17.8847 16.6541 17.8994 16.6983 17.9194 16.7357C17.9923 16.8719 18.1239 16.9668 18.2762 16.9929C18.318 17 18.3647 17 18.458 17C18.9618 17 19.2136 17 19.4225 16.9549C20.1897 16.7891 20.7891 16.1897 20.9549 15.4225C21 15.2136 21 14.9618 21 14.458V6.2C21 5.0799 21 4.51984 20.782 4.09202C20.5903 3.71569 20.2843 3.40973 19.908 3.21799C19.4802 3 18.9201 3 17.8 3Z" fill="#222222"/>
</svg>
