<svg width="24" height="24" viewBox="0 0 24 24" fill="none" xmlns="http://www.w3.org/2000/svg">
<path d="M8.57385 19.3523L11.9553 12.5894C11.9737 12.5526 12.0263 12.5526 12.0447 12.5894L15.4261 19.3523C15.4483 19.3965 15.3996 19.4426 15.3566 19.4181L12.0248 17.5142C12.0094 17.5054 11.9906 17.5054 11.9752 17.5142L8.64338 19.4181C8.60043 19.4426 8.55173 19.3965 8.57385 19.3523Z" stroke="#222222" stroke-linecap="round"/>
<path fill-rule="evenodd" clip-rule="evenodd" d="M7.50822 3.99999H16.4918C16.4977 3.99988 16.5036 3.99988 16.5094 3.99999H18.3L18.3214 3.99999C18.8633 3.99998 19.3004 3.99998 19.6543 4.0289C20.0187 4.05867 20.3388 4.12158 20.635 4.27247C21.1054 4.51215 21.4878 4.8946 21.7275 5.36501C21.8784 5.66116 21.9413 5.98125 21.9711 6.34567C22 6.69961 22 7.13668 22 7.67857V7.69999V13.3V13.3214C22 13.8633 22 14.3004 21.9711 14.6543C21.9413 15.0187 21.8784 15.3388 21.7275 15.635C21.4878 16.1054 21.1054 16.4878 20.635 16.7275C20.3388 16.8784 20.0187 16.9413 19.6543 16.9711C19.3425 16.9966 18.9662 16.9996 18.5106 16.9999C18.5033 17.0001 18.4961 17.0001 18.4889 17L18.3215 17H18.3214H18.3H16C15.7239 17 15.5 16.7761 15.5 16.5C15.5 16.2238 15.7239 16 16 16H17.9098L16.0764 4.99999H7.92356L6.09023 16H8C8.27614 16 8.5 16.2238 8.5 16.5C8.5 16.7761 8.27614 17 8 17H5.7H5.67858H5.67853L5.51106 17C5.50388 17.0001 5.49668 17.0001 5.48945 16.9999C5.0338 16.9996 4.65748 16.9966 4.34569 16.9711C3.98126 16.9413 3.66117 16.8784 3.36502 16.7275C2.89462 16.4878 2.51217 16.1054 2.27248 15.635C2.12159 15.3388 2.05868 15.0187 2.02891 14.6543C1.99999 14.3004 2 13.8633 2 13.3214V13.3V7.69999V7.67858V7.67858C2 7.13669 1.99999 6.69961 2.02891 6.34567C2.05868 5.98125 2.12159 5.66116 2.27248 5.36501C2.51217 4.8946 2.89462 4.51215 3.36502 4.27247C3.66117 4.12158 3.98126 4.05867 4.34569 4.0289C4.69963 3.99998 5.1367 3.99998 5.6786 3.99999L5.7 3.99999H7.49058C7.49644 3.99988 7.50232 3.99988 7.50822 3.99999ZM18.9232 15.9981L17.0902 4.99999H18.3C18.8683 4.99999 19.2645 5.00038 19.5729 5.02557C19.8755 5.0503 20.0493 5.09638 20.181 5.16348C20.4632 5.30729 20.6927 5.53676 20.8365 5.819C20.9036 5.95068 20.9497 6.12452 20.9744 6.42711C20.9996 6.73553 21 7.13168 21 7.69999V13.3C21 13.8683 20.9996 14.2644 20.9744 14.5729C20.9497 14.8755 20.9036 15.0493 20.8365 15.181C20.6927 15.4632 20.4632 15.6927 20.181 15.8365C20.0493 15.9036 19.8755 15.9497 19.5729 15.9744C19.3921 15.9892 19.1812 15.9954 18.9232 15.9981ZM5.07676 15.9981L6.90977 4.99999H5.7C5.1317 4.99999 4.73554 5.00038 4.42712 5.02557C4.12454 5.0503 3.95069 5.09638 3.81901 5.16348C3.53677 5.30729 3.3073 5.53676 3.16349 5.819C3.0964 5.95068 3.05031 6.12452 3.02559 6.42711C3.00039 6.73553 3 7.13168 3 7.69999V13.3C3 13.8683 3.00039 14.2644 3.02559 14.5729C3.05031 14.8755 3.0964 15.0493 3.16349 15.181C3.3073 15.4632 3.53677 15.6927 3.81901 15.8365C3.95069 15.9036 4.12454 15.9497 4.42712 15.9744C4.60787 15.9892 4.81875 15.9954 5.07676 15.9981ZM12.5 6.49999C12.5 6.22384 12.2761 5.99999 12 5.99999C11.7239 5.99999 11.5 6.22384 11.5 6.49999V9.49999C11.5 9.77613 11.7239 9.99999 12 9.99999C12.2761 9.99999 12.5 9.77613 12.5 9.49999V6.49999Z" fill="#7E869E" fill-opacity="0.25"/>
</svg>
