<svg width="24" height="24" viewBox="0 0 24 24" fill="none" xmlns="http://www.w3.org/2000/svg">
<path fill-rule="evenodd" clip-rule="evenodd" d="M21 15V14C21 9.02944 16.9706 5 12 5C7.02944 5 3 9.02944 3 14V15C3 16.1046 3.89543 17 5 17H19C20.1046 17 21 16.1046 21 15ZM15.5547 9.16806C16.0142 9.47441 16.1384 10.0953 15.8321 10.5548L14.2501 12.9278C14.7158 13.4361 15 14.1135 15 14.8572C15 14.9361 14.936 15.0001 14.8571 15.0001H9.14286C9.06396 15.0001 9 14.9361 9 14.8572C9 13.2793 10.2792 12.0001 11.8571 12.0001H12.1429C12.2479 12.0001 12.3516 12.0058 12.4537 12.0168L14.1679 9.44541C14.4743 8.98588 15.0952 8.8617 15.5547 9.16806Z" fill="#222222"/>
</svg>
