<svg width="24" height="24" viewBox="0 0 24 24" fill="none" xmlns="http://www.w3.org/2000/svg">
<path fill-rule="evenodd" clip-rule="evenodd" d="M5.53086 18.257C4.32959 17.015 3.51044 15.4526 3.17294 13.7558C2.82567 12.01 3.0039 10.2004 3.68509 8.55585C4.36628 6.91131 5.51983 5.50571 6.99987 4.51677C8.47991 3.52784 10.22 3 12 3C13.78 3 15.5201 3.52784 17.0001 4.51677C18.4802 5.50571 19.6337 6.91131 20.3149 8.55585C20.9961 10.2004 21.1743 12.01 20.8271 13.7558C20.4896 15.4526 19.6704 17.015 18.4692 18.257C18.4116 18.3166 18.3165 18.3165 18.2579 18.2579L14.2274 14.2274C14.1688 14.1688 14.0741 14.1691 14.0127 14.2247C13.4804 14.7065 12.7745 15 12 15C11.2255 15 10.5196 14.7065 9.98734 14.2247C9.92592 14.1691 9.83119 14.1688 9.77262 14.2274L5.74211 18.2579C5.68353 18.3165 5.58845 18.3166 5.53086 18.257ZM17.5145 9.85749C17.9881 9.57334 18.1416 8.95908 17.8575 8.4855C17.5733 8.01192 16.9591 7.85836 16.4855 8.14251L11.4855 11.1425C11.0119 11.4267 10.8584 12.0409 11.1425 12.5145C11.4267 12.9881 12.0409 13.1416 12.5145 12.8575L17.5145 9.85749Z" fill="#222222"/>
</svg>
