<svg viewBox="0 0 24 24" fill="none" xmlns="http://www.w3.org/2000/svg">
<path d="M7 5H17C17.9711 5 18.599 5.00227 19.0615 5.06445C19.4951 5.12277 19.6309 5.21686 19.707 5.29297C19.7831 5.36908 19.8772 5.50493 19.9355 5.93848C19.9977 6.40098 20 7.02892 20 8V16H4V8C4 7.02892 4.00227 6.40098 4.06445 5.93848C4.12277 5.50493 4.21686 5.36908 4.29297 5.29297C4.36908 5.21686 4.50493 5.12277 4.93848 5.06445C5.40098 5.00227 6.02892 5 7 5Z" stroke="#33363F" stroke-width="2"/>
<path d="M20.333 16C21.2535 16 22 16.7465 22 17.667C21.9998 18.9554 20.9554 19.9998 19.667 20H4.33301C3.0446 19.9998 2.00018 18.9554 2 17.667C2 16.7465 2.74652 16 3.66699 16H20.333Z" stroke="#33363F" stroke-width="2"/>
</svg>
