<svg viewBox="0 0 24 24" fill="none" xmlns="http://www.w3.org/2000/svg">
<path d="M7 4.5H17C17.9569 4.5 18.6244 4.50066 19.1279 4.56836C19.6171 4.63413 19.876 4.75494 20.0605 4.93945C20.2451 5.12396 20.3659 5.38289 20.4316 5.87207C20.4993 6.37563 20.5 7.04308 20.5 8V16.5H3.5V8C3.5 7.04308 3.50066 6.37563 3.56836 5.87207C3.63413 5.38289 3.75494 5.12396 3.93945 4.93945C4.12396 4.75494 4.38289 4.63413 4.87207 4.56836C5.37563 4.50066 6.04308 4.5 7 4.5Z" stroke="#222222"/>
<path d="M20.333 16.5C20.9773 16.5 21.5 17.0227 21.5 17.667C21.4998 18.6793 20.6793 19.4998 19.667 19.5H4.33301C3.32074 19.4998 2.50018 18.6793 2.5 17.667C2.5 17.0227 3.02266 16.5 3.66699 16.5H20.333Z" stroke="#222222"/>
</svg>
