<svg width="24" height="24" viewBox="0 0 24 24" fill="none" xmlns="http://www.w3.org/2000/svg">
<path d="M13 2.5C13.9285 2.5 14.6751 2.49943 15.2607 2.57812C15.8608 2.6588 16.3663 2.83114 16.7676 3.23242C17.1689 3.6337 17.3412 4.13919 17.4219 4.73926C17.5006 5.32489 17.5 6.07152 17.5 7V17C17.5 17.9285 17.5006 18.6751 17.4219 19.2607C17.3412 19.8608 17.1689 20.3663 16.7676 20.7676C16.3663 21.1689 15.8608 21.3412 15.2607 21.4219C14.6751 21.5006 13.9285 21.5 13 21.5H11C10.0715 21.5 9.32489 21.5006 8.73926 21.4219C8.13919 21.3412 7.6337 21.1689 7.23242 20.7676C6.83114 20.3663 6.6588 19.8608 6.57812 19.2607C6.49943 18.6751 6.5 17.9285 6.5 17V7C6.5 6.07152 6.49943 5.32489 6.57812 4.73926C6.6588 4.13919 6.83114 3.6337 7.23242 3.23242C7.6337 2.83114 8.13919 2.6588 8.73926 2.57812C9.32489 2.49943 10.0715 2.5 11 2.5H13Z" stroke="#222222"/>
<path d="M7 16H17" stroke="#2A4157" stroke-opacity="0.24"/>
</svg>
