<svg width="24" height="24" viewBox="0 0 24 24" fill="none" xmlns="http://www.w3.org/2000/svg">
<path d="M13 2C13.9145 2 14.7014 1.99777 15.3281 2.08203C15.9835 2.17018 16.6115 2.36933 17.1211 2.87891C17.6307 3.38849 17.8298 4.01647 17.918 4.67188C18.0022 5.29862 18 6.08546 18 7V17C18 17.9145 18.0022 18.7014 17.918 19.3281C17.8298 19.9835 17.6307 20.6115 17.1211 21.1211C16.6115 21.6307 15.9835 21.8298 15.3281 21.918C14.7014 22.0022 13.9145 22 13 22H11C10.0855 22 9.29862 22.0022 8.67188 21.918C8.01647 21.8298 7.38849 21.6307 6.87891 21.1211C6.36933 20.6115 6.17018 19.9835 6.08203 19.3281C5.99777 18.7014 6 17.9145 6 17V7C6 6.08546 5.99777 5.29862 6.08203 4.67188C6.17018 4.01647 6.36933 3.38849 6.87891 2.87891C7.38849 2.36933 8.01647 2.17018 8.67188 2.08203C9.29862 1.99777 10.0855 2 11 2H13Z" stroke="#33363F" stroke-width="2"/>
<path d="M7 16H17" stroke="#33363F" stroke-width="2"/>
</svg>
