<svg width="24" height="24" viewBox="0 0 24 24" fill="none" xmlns="http://www.w3.org/2000/svg">
<rect x="5.5" y="5.5" width="13" height="11" rx="2.5" stroke="#33363F"/>
<path d="M13 1.5C13.4573 1.5 13.8507 1.49888 14.1641 1.54102C14.4918 1.58509 14.8058 1.68466 15.0605 1.93945L15.1494 2.03711C15.3398 2.27243 15.4204 2.54914 15.459 2.83594C15.5011 3.14931 15.5 3.54273 15.5 4V5.5H8.5V4C8.5 3.54273 8.49888 3.14931 8.54102 2.83594C8.58509 2.50824 8.68466 2.19424 8.93945 1.93945C9.19424 1.68466 9.50824 1.58509 9.83594 1.54102C10.1493 1.49888 10.5427 1.5 11 1.5H13Z" stroke="#33363F"/>
<path d="M13 22.5C13.4573 22.5 13.8507 22.5011 14.1641 22.459C14.4918 22.4149 14.8058 22.3153 15.0605 22.0605L15.1494 21.9629C15.3398 21.7276 15.4204 21.4509 15.459 21.1641C15.5011 20.8507 15.5 20.4573 15.5 20V16.5H8.5V20C8.5 20.4573 8.49888 20.8507 8.54102 21.1641C8.58509 21.4918 8.68466 21.8058 8.93945 22.0605C9.19424 22.3153 9.50824 22.4149 9.83594 22.459C10.1493 22.5011 10.5427 22.5 11 22.5H13Z" stroke="#33363F"/>
</svg>
