<svg width="24" height="24" viewBox="0 0 24 24" fill="none" xmlns="http://www.w3.org/2000/svg">
<rect x="6.5" y="6.5" width="11" height="11" rx="2.5" stroke="#33363F"/>
<path d="M13 2.5C13.4573 2.5 13.8507 2.49888 14.1641 2.54102C14.4918 2.58509 14.8058 2.68466 15.0605 2.93945L15.1494 3.03711C15.3398 3.27243 15.4204 3.54914 15.459 3.83594C15.5011 4.14931 15.5 4.54273 15.5 5V6.5H8.5V5C8.5 4.54273 8.49888 4.14931 8.54102 3.83594C8.58509 3.50824 8.68466 3.19424 8.93945 2.93945C9.19424 2.68466 9.50824 2.58509 9.83594 2.54102C10.1493 2.49888 10.5427 2.5 11 2.5H13Z" stroke="#33363F"/>
<path d="M13 21.5C13.4573 21.5 13.8507 21.5011 14.1641 21.459C14.4918 21.4149 14.8058 21.3153 15.0605 21.0605L15.1494 20.9629C15.3398 20.7276 15.4204 20.4509 15.459 20.1641C15.5011 19.8507 15.5 19.4573 15.5 19V17.5H8.5V19C8.5 19.4573 8.49888 19.8507 8.54102 20.1641C8.58509 20.4918 8.68466 20.8058 8.93945 21.0605C9.19424 21.3153 9.50824 21.4149 9.83594 21.459C10.1493 21.5011 10.5427 21.5 11 21.5H13Z" stroke="#33363F"/>
</svg>
