<svg width="26" height="24" viewBox="0 0 26 24" fill="none" xmlns="http://www.w3.org/2000/svg">
<path d="M24.4181 4.58984C25.1338 5.30774 25.2037 6.46515 24.548 7.2666L16.174 17.501L16.0744 17.6172C15.051 18.7469 13.3373 18.9273 12.1007 18.0361L11.9787 17.9443L7.75111 14.5615C6.94258 13.9147 6.76865 12.7685 7.3185 11.917L7.43861 11.751C8.1286 10.8885 9.38664 10.7486 10.2492 11.4385L13.7052 14.2021L21.4523 4.7334C22.1518 3.87863 23.4119 3.75273 24.2667 4.45215L24.4181 4.58984Z" stroke="#222222" stroke-width="2" stroke-linecap="round"/>
<mask id="path-2-outside-1_2165_3319" maskUnits="userSpaceOnUse" x="-1.00006" y="3" width="21" height="17" fill="black">
<rect fill="white" x="-1.00006" y="3" width="21" height="17"/>
<path fill-rule="evenodd" clip-rule="evenodd" d="M12.8225 11.4628L16.774 6.63327C17.1237 6.20582 17.0607 5.5758 16.6332 5.22607C16.2058 4.87635 15.5758 4.93935 15.226 5.36679L11.286 10.1824L12.8225 11.4628ZM8.38965 16.8807L6.85315 15.6003L6.83309 15.6248L3.6 13.2C3.15817 12.8687 2.53137 12.9582 2.2 13.4C1.86863 13.8419 1.95817 14.4687 2.4 14.8L5.63309 17.2248C6.49047 17.8679 7.70234 17.7208 8.381 16.8913L8.38965 16.8807Z"/>
</mask>
<path d="M16.774 6.63327L15.226 5.36679V5.36679L16.774 6.63327ZM12.8225 11.4628L11.5421 12.9993L13.0925 14.2912L14.3704 12.7293L12.8225 11.4628ZM16.6332 5.22607L15.3668 6.77399L16.6332 5.22607ZM15.226 5.36679L16.774 6.63327L15.226 5.36679ZM11.286 10.1824L9.73808 8.91593L8.48296 10.45L10.0056 11.7188L11.286 10.1824ZM8.38965 16.8807L9.93758 18.1472L11.1927 16.6132L9.67002 15.3443L8.38965 16.8807ZM6.85315 15.6003L8.13352 14.0639L6.58316 12.7719L5.30522 14.3339L6.85315 15.6003ZM6.83309 15.6248L5.63309 17.2248L7.16692 18.3752L8.38101 16.8913L6.83309 15.6248ZM3.6 13.2L2.4 14.8L2.4 14.8L3.6 13.2ZM2.2 13.4L0.599997 12.2L2.2 13.4ZM2.4 14.8L3.6 13.2H3.6L2.4 14.8ZM5.63309 17.2248L4.43309 18.8248L4.43309 18.8248L5.63309 17.2248ZM8.381 16.8913L9.92892 18.1578L9.92893 18.1578L8.381 16.8913ZM15.226 5.36679L11.2746 10.1963L14.3704 12.7293L18.3219 7.89974L15.226 5.36679ZM15.3668 6.77399C14.9393 6.42426 14.8763 5.79424 15.226 5.36679L18.3219 7.89974C19.3711 6.61741 19.182 4.72734 17.8997 3.67816L15.3668 6.77399ZM16.774 6.63327C16.4242 7.06071 15.7942 7.12372 15.3668 6.77399L17.8997 3.67816C16.6174 2.62898 14.7273 2.81798 13.6781 4.10032L16.774 6.63327ZM12.8339 11.4489L16.774 6.63327L13.6781 4.10032L9.73808 8.91593L12.8339 11.4489ZM10.0056 11.7188L11.5421 12.9993L14.1029 9.92638L12.5664 8.64596L10.0056 11.7188ZM9.67002 15.3443L8.13352 14.0639L5.57278 17.1368L7.10929 18.4172L9.67002 15.3443ZM8.38101 16.8913L8.40108 16.8668L5.30522 14.3339L5.28516 14.3584L8.38101 16.8913ZM2.4 14.8L5.63309 17.2248L8.03309 14.0248L4.8 11.6L2.4 14.8ZM3.8 14.6C3.46863 15.0419 2.84182 15.1314 2.4 14.8L4.8 11.6C3.47451 10.6059 1.59411 10.8745 0.599997 12.2L3.8 14.6ZM3.6 13.2C4.04183 13.5314 4.13137 14.1582 3.8 14.6L0.599997 12.2C-0.394114 13.5255 -0.125486 15.4059 1.2 16.4L3.6 13.2ZM6.83309 15.6248L3.6 13.2L1.2 16.4L4.43309 18.8248L6.83309 15.6248ZM6.83309 15.6248H6.83309L4.43309 18.8248C6.14785 20.1109 8.5716 19.8167 9.92892 18.1578L6.83309 15.6248ZM6.84173 15.6143L6.83308 15.6249L9.92893 18.1578L9.93758 18.1472L6.84173 15.6143Z" fill="#222222" mask="url(#path-2-outside-1_2165_3319)"/>
</svg>
