<svg width="24" height="24" viewBox="0 0 24 24" fill="none" xmlns="http://www.w3.org/2000/svg">
<path d="M15 5.81445C15.391 5.81445 15.7047 5.98011 15.9766 6.1875C16.2345 6.38432 16.5176 6.669 16.8389 6.99023L17.0098 7.16113L17.458 7.61621C17.5939 7.75927 17.7141 7.89449 17.8125 8.02344C18.0199 8.29525 18.1855 8.60896 18.1855 9C18.1855 9.39104 18.0199 9.70475 17.8125 9.97656C17.7141 10.1055 17.5939 10.2407 17.458 10.3838L17.0098 10.8389L9.81641 18.0322C9.68725 18.1614 9.56404 18.289 9.42383 18.3936L9.27734 18.4893C9.17462 18.5474 9.06608 18.5892 8.9541 18.624L8.6084 18.7168L5.9541 19.3799C5.79316 19.4201 5.60594 19.4689 5.44824 19.4844C5.30368 19.4985 5.05623 19.4989 4.83496 19.3369L4.74219 19.2578C4.5009 19.0165 4.49947 18.7169 4.51562 18.5518C4.53105 18.3941 4.57988 18.2068 4.62012 18.0459L5.2832 15.3916L5.37598 15.0459C5.41081 14.9339 5.45258 14.8254 5.51074 14.7227L5.60645 14.5762C5.71097 14.436 5.83862 14.3127 5.96777 14.1836L13.1611 6.99023L13.6162 6.54199C13.7593 6.40612 13.8945 6.2859 14.0234 6.1875C14.2953 5.98011 14.609 5.81445 15 5.81445Z" stroke="#33363F" stroke-width="1.2"/>
<path d="M12.5 7.5L16.5 11.5" stroke="#7E869E" stroke-opacity="0.25"/>
</svg>
