<svg width="24" height="24" viewBox="0 0 24 24" fill="none" xmlns="http://www.w3.org/2000/svg">
<path d="M15.1875 5.42383C15.6118 5.46926 15.9499 5.66401 16.2188 5.86914C16.503 6.08603 16.8078 6.39374 17.1211 6.70703L17.293 6.87891L17.748 7.34082C17.8912 7.49166 18.0224 7.63911 18.1309 7.78125C18.3653 8.08862 18.5859 8.48644 18.5859 9C18.5859 9.51356 18.3653 9.91138 18.1309 10.2188C18.0224 10.3609 17.8912 10.5083 17.748 10.6592L17.293 11.1211L10.0986 18.3154C9.98087 18.4332 9.83694 18.5839 9.66113 18.7148L9.47461 18.8379C9.34266 18.9126 9.20373 18.9655 9.07129 19.0068L8.70508 19.1045L6.09668 19.7559L6.09473 19.7568L6.05078 19.7676C5.90293 19.8045 5.68156 19.8628 5.4873 19.8818C5.30652 19.8995 4.93784 19.9073 4.60156 19.6621L4.45996 19.54C4.09118 19.1713 4.09794 18.7194 4.11816 18.5127C4.13719 18.3184 4.19546 18.0971 4.23242 17.9492L4.89551 15.2949L4.99316 14.9287C5.03454 14.7963 5.0874 14.6573 5.16211 14.5254L5.28516 14.3389C5.41608 14.1631 5.5668 14.0191 5.68457 13.9014L12.8789 6.70703L13.3408 6.25195C13.4917 6.10879 13.6391 5.97759 13.7812 5.86914C14.0886 5.63466 14.4864 5.41406 15 5.41406L15.1875 5.42383Z" stroke="#33363F" stroke-width="2"/>
<path d="M12.5 7.5L15.5 5.5L18.5 8.5L16.5 11.5L12.5 7.5Z" fill="#33363F"/>
</svg>
