<svg width="24" height="24" viewBox="0 0 24 24" fill="none" xmlns="http://www.w3.org/2000/svg">
<path d="M15 5.91406C15.3604 5.91406 15.6531 6.066 15.916 6.2666C16.1673 6.45837 16.4444 6.73733 16.7676 7.06055L16.9395 7.23242L17.3857 7.68555C17.5197 7.82659 17.6376 7.9584 17.7334 8.08398C17.934 8.3469 18.0859 8.63961 18.0859 9C18.0859 9.36038 17.934 9.6531 17.7334 9.91602C17.6376 10.0416 17.5197 10.1734 17.3857 10.3145L16.9395 10.7676L9.74512 17.9619C9.61322 18.0938 9.49544 18.2146 9.36426 18.3125L9.22754 18.4023C9.13209 18.4564 9.03169 18.4961 8.9248 18.5293L8.58398 18.6191L5.92969 19.2832C5.7655 19.3242 5.587 19.3702 5.43848 19.3848C5.30302 19.398 5.086 19.3968 4.89355 19.2559L4.81348 19.1865C4.60407 18.9771 4.6001 18.7163 4.61523 18.5615C4.62976 18.413 4.67575 18.2345 4.7168 18.0703L5.38086 15.416L5.4707 15.0752C5.5039 14.9683 5.54364 14.8679 5.59766 14.7725L5.6875 14.6357C5.78536 14.5046 5.90619 14.3868 6.03809 14.2549L13.2324 7.06055L13.6855 6.61426C13.8266 6.48029 13.9584 6.36243 14.084 6.2666C14.3469 6.066 14.6396 5.91406 15 5.91406Z" stroke="#222222"/>
<path d="M12.5 7.5L15.5 5.5L18.5 8.5L16.5 11.5L12.5 7.5Z" fill="#222222"/>
</svg>
