<svg width="24" height="24" viewBox="0 0 24 24" fill="none" xmlns="http://www.w3.org/2000/svg">
<path d="M14.1361 3.36144L14.7332 3.30174L14.1361 3.36144ZM13.9838 2.54161L13.4505 2.81664V2.81664L13.9838 2.54161ZM13.4627 2.07005L13.6833 1.51208L13.6833 1.51208L13.4627 2.07005ZM10.5374 2.07001L10.758 2.628L10.758 2.628L10.5374 2.07001ZM10.0162 2.5417L9.48291 2.26673L9.48291 2.26673L10.0162 2.5417ZM9.86387 3.36131L10.4609 3.42101V3.42101L9.86387 3.36131ZM9.56907 4.81742L9.09197 4.45358V4.45358L9.56907 4.81742ZM8.64044 5.20207L8.72052 4.60743L8.64044 5.20207ZM7.4022 4.38076L7.78214 3.91639L7.78214 3.91639L7.4022 4.38076ZM6.71463 3.90872L6.8972 3.33717L6.71463 3.90872ZM6.01277 3.94373L5.77423 3.39318L5.77423 3.39318L6.01277 3.94373ZM5.37565 4.48177L4.95139 4.0575V4.0575L5.37565 4.48177ZM4.48233 5.37509L4.9066 5.79935L4.9066 5.79935L4.48233 5.37509ZM3.94413 6.01243L3.39356 5.77396L3.39356 5.77396L3.94413 6.01243ZM3.90914 6.71405L4.48071 6.53155L3.90914 6.71405ZM4.38128 7.40182L4.84565 7.02188L4.84565 7.02188L4.38128 7.40182ZM5.20287 8.64066L5.79752 8.56076V8.56076L5.20287 8.64066ZM4.81842 9.56881L4.45443 9.09182L4.45443 9.09182L4.81842 9.56881ZM3.36155 9.86384L3.42126 10.4609H3.42126L3.36155 9.86384ZM2.54152 10.0163L2.26644 9.48306L2.26644 9.48306L2.54152 10.0163ZM2.07008 10.5372L1.51213 10.3166L1.51213 10.3166L2.07008 10.5372ZM2.07005 13.4627L1.51208 13.6833H1.51208L2.07005 13.4627ZM2.54161 13.9838L2.81664 13.4505H2.81664L2.54161 13.9838ZM3.36143 14.1361L3.30173 14.7332H3.30173L3.36143 14.1361ZM4.81792 14.4311L5.18184 13.954L5.18184 13.954L4.81792 14.4311ZM5.20247 15.3594L5.79712 15.4394V15.4394L5.20247 15.3594ZM4.3811 16.5979L4.84548 16.9778H4.84548L4.3811 16.5979ZM3.90913 17.2854L4.48068 17.468H4.48068L3.90913 17.2854ZM3.94414 17.9873L4.49468 17.7487L3.94414 17.9873ZM4.48217 18.6243L4.0579 19.0486L4.0579 19.0486L4.48217 18.6243ZM5.37561 19.5178L5.79987 19.0935H5.79987L5.37561 19.5178ZM6.01272 20.0558L5.77418 20.6064H5.77418L6.01272 20.0558ZM6.71458 20.0908L6.53201 19.5193H6.53201L6.71458 20.0908ZM7.40208 19.6189L7.78202 20.0832L7.40208 19.6189ZM8.64057 18.7975L8.56059 18.2028H8.56059L8.64057 18.7975ZM9.56892 19.182L9.09189 19.5459L9.09189 19.5459L9.56892 19.182ZM9.86385 20.6385L9.26683 20.6983L9.86385 20.6385ZM10.0162 21.4584L10.5495 21.1834L10.5495 21.1834L10.0162 21.4584ZM10.5373 21.9299L10.7579 21.372L10.5373 21.9299ZM13.4628 21.9299L13.2421 21.372H13.2421L13.4628 21.9299ZM13.9837 21.4585L13.4505 21.1834L13.4505 21.1834L13.9837 21.4585ZM14.1362 20.6383L13.5391 20.5786L14.1362 20.6383ZM14.4311 19.1816L14.9081 19.5455L14.9081 19.5455L14.4311 19.1816ZM15.3595 18.7971L15.4395 18.2024L15.3595 18.7971ZM16.5979 19.6184L16.9779 19.1541H16.9779L16.5979 19.6184ZM17.2854 20.0904L17.1028 20.6619H17.1028L17.2854 20.0904ZM17.9873 20.0554L18.2258 20.6059L18.2258 20.6059L17.9873 20.0554ZM18.6243 19.5174L18.2001 19.0931L18.2001 19.0931L18.6243 19.5174ZM19.5179 18.6238L19.9422 19.048H19.9422L19.5179 18.6238ZM20.0558 17.9869L19.5053 17.7483L19.5053 17.7483L20.0558 17.9869ZM20.0908 17.2848L19.5193 17.4674V17.4674L20.0908 17.2848ZM19.619 16.5976L19.1546 16.9775L19.619 16.5976ZM18.7979 15.3596L18.2032 15.4397V15.4397L18.7979 15.3596ZM19.1825 14.4309L18.8187 13.9538L18.8187 13.9538L19.1825 14.4309ZM20.6386 14.1361L20.5789 13.5391L20.6386 14.1361ZM21.4583 13.9838L21.7333 14.5171H21.7333L21.4583 13.9838ZM21.93 13.4626L21.372 13.2421L21.372 13.2421L21.93 13.4626ZM21.9299 10.5373L22.4879 10.3167V10.3167L21.9299 10.5373ZM21.4584 10.0162L21.7334 9.483L21.7334 9.483L21.4584 10.0162ZM20.6385 9.86385L20.6982 9.26683L20.6385 9.86385ZM19.182 9.56893L18.8181 10.046L18.8181 10.046L19.182 9.56893ZM18.7975 8.64056L18.2028 8.56057V8.56057L18.7975 8.64056ZM19.6188 7.4021L19.1545 7.02216V7.02216L19.6188 7.4021ZM20.0908 6.71464L20.6623 6.89723V6.89722L20.0908 6.71464ZM20.0558 6.01275L20.6063 5.7742V5.7742L20.0558 6.01275ZM19.5178 5.37567L19.942 4.9514L19.942 4.9514L19.5178 5.37567ZM18.6243 4.4822L18.2 4.90646L18.2 4.90646L18.6243 4.4822ZM17.9872 3.94419L18.2258 3.39365L18.2258 3.39365L17.9872 3.94419ZM17.2853 3.90918L17.4679 4.48073L17.2853 3.90918ZM16.5979 4.38113L16.9778 4.8455L16.9778 4.8455L16.5979 4.38113ZM15.3595 5.20248L15.2795 4.60783L15.2795 4.60783L15.3595 5.20248ZM14.4311 4.81793L14.9081 4.45401L14.9081 4.45401L14.4311 4.81793ZM14.7332 3.30174C14.7123 3.09283 14.694 2.90695 14.6682 2.75304C14.6413 2.59322 14.6007 2.42874 14.517 2.26658L13.4505 2.81664C13.4542 2.8238 13.468 2.85239 13.4847 2.95175C13.5024 3.057 13.5166 3.19638 13.5391 3.42114L14.7332 3.30174ZM14.517 2.26658C14.3395 1.92249 14.0433 1.65443 13.6833 1.51208L13.2421 2.62802C13.3321 2.66361 13.4061 2.73062 13.4505 2.81664L14.517 2.26658ZM13.6833 1.51208C13.5136 1.44499 13.3459 1.42089 13.1842 1.41009C13.0285 1.39969 12.8417 1.4 12.6318 1.4V2.6C12.8577 2.6 12.9978 2.60031 13.1043 2.60742C13.2048 2.61414 13.2346 2.62506 13.2421 2.62802L13.6833 1.51208ZM12.6318 1.4H11.3681V2.6H12.6318V1.4ZM11.3681 1.4C11.1582 1.4 10.9715 1.39969 10.8158 1.41008C10.6542 1.42088 10.4865 1.44497 10.3169 1.51201L10.758 2.628C10.7654 2.62504 10.7953 2.61413 10.8958 2.60742C11.0022 2.60031 11.1423 2.6 11.3681 2.6V1.4ZM10.3169 1.51201C9.9567 1.65437 9.66039 1.92252 9.48291 2.26673L10.5495 2.81668C10.5938 2.73063 10.6679 2.66359 10.758 2.628L10.3169 1.51201ZM9.48291 2.26673C9.39931 2.42885 9.35866 2.59329 9.33184 2.75306C9.306 2.90693 9.28773 3.09276 9.26685 3.3016L10.4609 3.42101C10.4834 3.19631 10.4976 3.05697 10.5153 2.95175C10.5319 2.85242 10.5458 2.82384 10.5495 2.81668L9.48291 2.26673ZM9.26685 3.3016C9.22481 3.72199 9.19638 4.00182 9.15957 4.20642C9.12172 4.41674 9.08838 4.45829 9.09197 4.45358L10.0462 5.18126C10.2215 4.95139 10.2945 4.6752 10.3406 4.41892C10.3877 4.15691 10.4209 3.82126 10.4609 3.42101L9.26685 3.3016ZM9.09197 4.45358C9.0048 4.56788 8.86299 4.62662 8.72052 4.60743L8.56036 5.7967C9.13024 5.87345 9.69747 5.63849 10.0462 5.18126L9.09197 4.45358ZM8.72052 4.60743C8.72641 4.60823 8.67345 4.60243 8.49792 4.48043C8.32719 4.36177 8.10918 4.18397 7.78214 3.91639L7.02225 4.84514C7.33363 5.0999 7.59443 5.31385 7.81306 5.46581C8.0269 5.61443 8.27385 5.75811 8.56036 5.7967L8.72052 4.60743ZM7.78214 3.91639C7.61961 3.78341 7.47523 3.66488 7.34811 3.57431C7.21611 3.48027 7.07103 3.3927 6.8972 3.33717L6.53205 4.48027C6.53972 4.48272 6.56972 4.49315 6.65179 4.55163C6.73874 4.61357 6.84739 4.70207 7.02225 4.84514L7.78214 3.91639ZM6.8972 3.33717C6.52843 3.21937 6.12945 3.23927 5.77423 3.39318L6.25131 4.49427C6.34011 4.45579 6.43986 4.45082 6.53205 4.48027L6.8972 3.33717ZM5.77423 3.39318C5.6068 3.46573 5.47115 3.56728 5.34918 3.67398C5.23171 3.77675 5.09985 3.90904 4.95139 4.0575L5.79992 4.90603C5.95965 4.7463 6.05894 4.64745 6.13927 4.57717C6.2151 4.51084 6.24392 4.49747 6.25131 4.49427L5.77423 3.39318ZM4.95139 4.0575L4.05807 4.95082L4.9066 5.79935L5.79992 4.90603L4.95139 4.0575ZM4.05807 4.95082C3.90956 5.09934 3.77721 5.23124 3.67442 5.34875C3.56769 5.47077 3.4661 5.60647 3.39356 5.77396L4.4947 6.2509C4.49791 6.24351 4.51127 6.21468 4.57763 6.13883C4.64792 6.05847 4.74681 5.95914 4.9066 5.79935L4.05807 4.95082ZM3.39356 5.77396C3.23975 6.12907 3.21985 6.5279 3.33757 6.89655L4.48071 6.53155C4.45128 6.43939 4.45625 6.33968 4.4947 6.2509L3.39356 5.77396ZM3.33757 6.89655C3.39309 7.07044 3.48067 7.21557 3.57473 7.34761C3.66533 7.47477 3.78389 7.6192 3.9169 7.78176L4.84565 7.02188C4.70255 6.84697 4.61403 6.73829 4.55207 6.65133C4.49359 6.56924 4.48316 6.53922 4.48071 6.53155L3.33757 6.89655ZM3.9169 7.78176C4.1846 8.10895 4.36248 8.32705 4.48118 8.49786C4.60322 8.67346 4.609 8.72645 4.60821 8.72057L5.79752 8.56076C5.759 8.27408 5.61528 8.027 5.46659 7.81305C5.31458 7.59431 5.10053 7.33339 4.84565 7.02188L3.9169 7.78176ZM4.60821 8.72057C4.62734 8.86296 4.56864 9.00467 4.45443 9.09182L5.1824 10.0458C5.63926 9.69717 5.87405 9.13032 5.79752 8.56076L4.60821 8.72057ZM4.45443 9.09182C4.45915 9.08823 4.41759 9.1216 4.20715 9.15947C4.00245 9.19632 3.72247 9.22476 3.30185 9.26682L3.42126 10.4609C3.82173 10.4208 4.15756 10.3877 4.41971 10.3405C4.67613 10.2944 4.95246 10.2213 5.1824 10.0458L4.45443 9.09182ZM3.30185 9.26682C3.09289 9.28772 2.90697 9.306 2.75301 9.33185C2.59316 9.35869 2.42863 9.39938 2.26644 9.48306L2.81661 10.5495C2.82377 10.5458 2.85236 10.532 2.95174 10.5153C3.05702 10.4976 3.19643 10.4833 3.42126 10.4609L3.30185 9.26682ZM2.26644 9.48306C1.92247 9.66051 1.65448 9.95663 1.51213 10.3166L2.62803 10.7579C2.66362 10.6679 2.73062 10.5939 2.81661 10.5495L2.26644 9.48306ZM1.51213 10.3166C1.44501 10.4863 1.4209 10.654 1.41009 10.8158C1.39969 10.9715 1.4 11.1583 1.4 11.3683H2.6C2.6 11.1424 2.60031 11.0023 2.60743 10.8957C2.61414 10.7952 2.62507 10.7654 2.62803 10.7579L1.51213 10.3166ZM1.4 11.3683V12.6318H2.6V11.3683H1.4ZM1.4 12.6318C1.4 12.8417 1.39969 13.0285 1.41009 13.1842C1.42089 13.3459 1.44499 13.5136 1.51208 13.6833L2.62802 13.2421C2.62506 13.2346 2.61414 13.2048 2.60742 13.1042C2.60031 12.9978 2.6 12.8577 2.6 12.6318H1.4ZM1.51208 13.6833C1.65442 14.0433 1.92249 14.3395 2.26658 14.517L2.81664 13.4505C2.73062 13.4061 2.66361 13.3321 2.62802 13.2421L1.51208 13.6833ZM2.26658 14.517C2.42874 14.6007 2.59322 14.6413 2.75304 14.6682C2.90695 14.694 3.09282 14.7123 3.30173 14.7332L3.42113 13.5391C3.19637 13.5166 3.057 13.5024 2.95174 13.4847C2.85239 13.468 2.8238 13.4542 2.81664 13.4505L2.26658 14.517ZM3.30173 14.7332C3.72223 14.7752 4.00214 14.8037 4.20679 14.8405C4.41717 14.8783 4.45872 14.9117 4.45401 14.9081L5.18184 13.954C4.95193 13.7786 4.67567 13.7056 4.41932 13.6594C4.15724 13.6123 3.8215 13.5792 3.42113 13.5391L3.30173 14.7332ZM4.45401 14.9081C4.56827 14.9953 4.62699 15.137 4.60783 15.2795L5.79712 15.4394C5.87375 14.8697 5.63888 14.3027 5.18184 13.954L4.45401 14.9081ZM4.60783 15.2795C4.60862 15.2736 4.60283 15.3265 4.48083 15.5021C4.36216 15.6728 4.18434 15.8909 3.91673 16.218L4.84548 16.9778C5.10027 16.6664 5.31426 16.4056 5.46623 16.1869C5.61488 15.973 5.75856 15.726 5.79712 15.4394L4.60783 15.2795ZM3.91673 16.218C3.78378 16.3804 3.66526 16.5248 3.5747 16.6519C3.48067 16.7839 3.39311 16.929 3.33759 17.1028L4.48068 17.468C4.48313 17.4603 4.49356 17.4303 4.55202 17.3482C4.61395 17.2613 4.70243 17.1527 4.84548 16.9778L3.91673 16.218ZM3.33759 17.1028C3.21978 17.4716 3.23968 17.8706 3.3936 18.2258L4.49468 17.7487C4.4562 17.6599 4.45123 17.5602 4.48068 17.468L3.33759 17.1028ZM3.3936 18.2258C3.46614 18.3932 3.56769 18.5289 3.67439 18.6508C3.77715 18.7683 3.90944 18.9002 4.0579 19.0486L4.90643 18.2001C4.7467 18.0404 4.64785 17.9411 4.57758 17.8607C4.51125 17.7849 4.49788 17.7561 4.49468 17.7487L3.3936 18.2258ZM4.0579 19.0486L4.95134 19.9421L5.79987 19.0935L4.90643 18.2001L4.0579 19.0486ZM4.95134 19.9421C5.09981 20.0905 5.23166 20.2228 5.34913 20.3256C5.47111 20.4323 5.60675 20.5338 5.77418 20.6064L6.25126 19.5053C6.24387 19.5021 6.21506 19.4887 6.13923 19.4224C6.0589 19.3521 5.95961 19.2533 5.79987 19.0935L4.95134 19.9421ZM5.77418 20.6064C6.12941 20.7603 6.52838 20.7802 6.89716 20.6624L6.53201 19.5193C6.43981 19.5487 6.34007 19.5438 6.25126 19.5053L5.77418 20.6064ZM6.89715 20.6624C7.07097 20.6069 7.21605 20.5193 7.34804 20.4253C7.47515 20.3347 7.61952 20.2162 7.78202 20.0832L7.02213 19.1545C6.8473 19.2975 6.73866 19.386 6.65173 19.4479C6.56968 19.5064 6.53968 19.5168 6.53201 19.5193L6.89715 20.6624ZM7.78202 20.0832C8.10911 19.8156 8.32715 19.6378 8.49791 19.5191C8.67345 19.3971 8.72643 19.3913 8.72055 19.3921L8.56059 18.2028C8.27399 18.2414 8.02698 18.3851 7.81308 18.5337C7.5944 18.6857 7.33356 18.8997 7.02213 19.1545L7.78202 20.0832ZM8.72055 19.3921C8.86297 19.373 9.00472 19.4317 9.09189 19.5459L10.0459 18.8181C9.6973 18.3611 9.13028 18.1262 8.56059 18.2028L8.72055 19.3921ZM9.09189 19.5459C9.08829 19.5412 9.12165 19.5828 9.15951 19.7932C9.19634 19.9978 9.22478 20.2777 9.26683 20.6983L10.4609 20.5788C10.4208 20.1785 10.3877 19.8427 10.3405 19.5806C10.2944 19.3243 10.2213 19.048 10.0459 18.8181L9.09189 19.5459ZM9.26683 20.6983C9.28772 20.9072 9.306 21.0931 9.33184 21.247C9.35868 21.4068 9.39935 21.5713 9.48299 21.7334L10.5495 21.1834C10.5458 21.1762 10.532 21.1476 10.5153 21.0483C10.4976 20.943 10.4834 20.8036 10.4609 20.5788L9.26683 20.6983ZM9.48299 21.7334C9.66046 22.0775 9.95666 22.3456 10.3167 22.4879L10.7579 21.372C10.6679 21.3364 10.5939 21.2694 10.5495 21.1834L9.48299 21.7334ZM10.3167 22.4879C10.4864 22.555 10.6541 22.5791 10.8158 22.5899C10.9715 22.6003 11.1583 22.6 11.3682 22.6V21.4C11.1423 21.4 11.0022 21.3997 10.8957 21.3926C10.7952 21.3859 10.7654 21.3749 10.7579 21.372L10.3167 22.4879ZM11.3682 22.6H12.6316V21.4H11.3682V22.6ZM12.6316 22.6C12.8416 22.6 13.0285 22.6003 13.1842 22.5899C13.346 22.5791 13.5138 22.555 13.6835 22.4879L13.2421 21.372C13.2346 21.3749 13.2048 21.3859 13.1043 21.3926C12.9977 21.3997 12.8576 21.4 12.6316 21.4V22.6ZM13.6835 22.4879C14.0434 22.3455 14.3395 22.0775 14.5169 21.7336L13.4505 21.1834C13.4061 21.2694 13.3321 21.3364 13.2421 21.372L13.6835 22.4879ZM14.5169 21.7336C14.6006 21.5714 14.6413 21.4068 14.6682 21.247C14.694 21.093 14.7123 20.907 14.7332 20.698L13.5391 20.5786C13.5167 20.8035 13.5024 20.9429 13.4847 21.0482C13.468 21.1476 13.4542 21.1762 13.4505 21.1834L14.5169 21.7336ZM14.7332 20.698C14.7752 20.2775 14.8037 19.9975 14.8405 19.7928C14.8784 19.5824 14.9118 19.5408 14.9081 19.5455L13.9541 18.8177C13.7787 19.0476 13.7056 19.3239 13.6595 19.5803C13.6123 19.8424 13.5792 20.1782 13.5391 20.5786L14.7332 20.698ZM14.9081 19.5455C14.9953 19.4313 15.1371 19.3726 15.2795 19.3917L15.4395 18.2024C14.8698 18.1258 14.3027 18.3607 13.9541 18.8177L14.9081 19.5455ZM15.2795 19.3917C15.2736 19.3909 15.3266 19.3967 15.5021 19.5187C15.6729 19.6374 15.8909 19.8152 16.218 20.0828L16.9779 19.1541C16.6665 18.8993 16.4056 18.6853 16.187 18.5333C15.9731 18.3847 15.7261 18.241 15.4395 18.2024L15.2795 19.3917ZM16.218 20.0828C16.3805 20.2157 16.5248 20.3343 16.6519 20.4248C16.7839 20.5188 16.929 20.6064 17.1028 20.6619L17.4679 19.5188C17.4603 19.5164 17.4303 19.5059 17.3482 19.4475C17.2613 19.3856 17.1527 19.2971 16.9779 19.1541L16.218 20.0828ZM17.1028 20.6619C17.4716 20.7797 17.8706 20.7598 18.2258 20.6059L17.7487 19.5048C17.6599 19.5433 17.5601 19.5483 17.4679 19.5188L17.1028 20.6619ZM18.2258 20.6059C18.3932 20.5334 18.5289 20.4318 18.6508 20.3251C18.7683 20.2224 18.9001 20.0901 19.0486 19.9416L18.2001 19.0931C18.0403 19.2528 17.9411 19.3517 17.8607 19.4219C17.7849 19.4883 17.7561 19.5016 17.7487 19.5048L18.2258 20.6059ZM19.0486 19.9416L19.9422 19.048L19.0937 18.1995L18.2001 19.0931L19.0486 19.9416ZM19.9422 19.048C20.0906 18.8996 20.2228 18.7678 20.3256 18.6504C20.4322 18.5285 20.5337 18.3929 20.6063 18.2256L19.5053 17.7483C19.5021 17.7557 19.4887 17.7845 19.4224 17.8603C19.3521 17.9406 19.2533 18.0398 19.0937 18.1995L19.9422 19.048ZM20.6063 18.2256C20.7603 17.8702 20.7802 17.471 20.6623 17.1021L19.5193 17.4674C19.5487 17.5597 19.5438 17.6595 19.5053 17.7483L20.6063 18.2256ZM20.6623 17.1021C20.6068 16.9284 20.5193 16.7834 20.4253 16.6514C20.3347 16.5244 20.2163 16.3801 20.0834 16.2176L19.1546 16.9775C19.2976 17.1523 19.386 17.2609 19.4479 17.3478C19.5064 17.4298 19.5168 17.4598 19.5193 17.4674L20.6623 17.1021ZM20.0834 16.2176C19.8158 15.8907 19.6381 15.6727 19.5195 15.502C19.3975 15.3266 19.3917 15.2736 19.3925 15.2795L18.2032 15.4397C18.2418 15.7262 18.3855 15.9731 18.5341 16.1869C18.686 16.4055 18.8999 16.6662 19.1546 16.9775L20.0834 16.2176ZM19.3925 15.2795C19.3733 15.137 19.432 14.9952 19.5464 14.908L18.8187 13.9538C18.3614 14.3025 18.1265 14.8698 18.2032 15.4397L19.3925 15.2795ZM19.5464 14.908C19.5416 14.9116 19.5832 14.8783 19.7935 14.8404C19.9981 14.8036 20.278 14.7752 20.6983 14.7332L20.5789 13.5391C20.1787 13.5791 19.843 13.6123 19.581 13.6594C19.3248 13.7055 19.0486 13.7785 18.8187 13.9538L19.5464 14.908ZM20.6983 14.7332C20.9072 14.7123 21.093 14.694 21.2469 14.6682C21.4067 14.6413 21.5712 14.6007 21.7333 14.5171L21.1833 13.4505C21.1762 13.4542 21.1476 13.468 21.0482 13.4847C20.943 13.5024 20.8037 13.5166 20.5789 13.5391L20.6983 14.7332ZM21.7333 14.5171C22.0775 14.3396 22.3456 14.0433 22.488 13.6832L21.372 13.2421C21.3364 13.3321 21.2694 13.4062 21.1833 13.4505L21.7333 14.5171ZM22.488 13.6832C22.555 13.5135 22.5791 13.3459 22.5899 13.1842C22.6003 13.0285 22.6 12.8418 22.6 12.6319H21.4C21.4 12.8577 21.3997 12.9978 21.3926 13.1042C21.3859 13.2047 21.375 13.2346 21.372 13.2421L22.488 13.6832ZM22.6 12.6319V11.3682H21.4V12.6319H22.6ZM22.6 11.3682C22.6 11.1583 22.6003 10.9715 22.5899 10.8158C22.5791 10.6541 22.555 10.4864 22.4879 10.3167L21.372 10.7579C21.3749 10.7654 21.3859 10.7952 21.3926 10.8957C21.3997 11.0022 21.4 11.1423 21.4 11.3682H22.6ZM22.4879 10.3167C22.3456 9.95666 22.0775 9.66046 21.7334 9.483L21.1834 10.5495C21.2694 10.5939 21.3364 10.6679 21.372 10.7579L22.4879 10.3167ZM21.7334 9.483C21.5713 9.39935 21.4068 9.35868 21.247 9.33184C21.093 9.306 20.9072 9.28772 20.6982 9.26683L20.5788 10.4609C20.8036 10.4834 20.943 10.4976 21.0483 10.5153C21.1476 10.532 21.1762 10.5458 21.1834 10.5495L21.7334 9.483ZM20.6982 9.26683C20.2777 9.22478 19.9978 9.19634 19.7931 9.15951C19.5828 9.12165 19.5412 9.08829 19.5459 9.09189L18.8181 10.046C19.048 10.2214 19.3243 10.2944 19.5806 10.3405C19.8427 10.3877 20.1785 10.4208 20.5788 10.4609L20.6982 9.26683ZM19.5459 9.09189C19.4317 9.00473 19.3729 8.86297 19.3921 8.72054L18.2028 8.56057C18.1262 9.13028 18.3611 9.6973 18.8181 10.046L19.5459 9.09189ZM19.3921 8.72054C19.3913 8.72642 19.3971 8.67345 19.5191 8.49791C19.6378 8.32716 19.8156 8.10912 20.0832 7.78204L19.1545 7.02216C18.8997 7.33357 18.6857 7.59441 18.5337 7.81308C18.3851 8.02697 18.2414 8.27398 18.2028 8.56057L19.3921 8.72054ZM20.0832 7.78205C20.2161 7.61955 20.3347 7.47519 20.4252 7.34809C20.5193 7.21611 20.6068 7.07103 20.6623 6.89723L19.5192 6.53206C19.5168 6.53973 19.5064 6.56973 19.4479 6.65178C19.386 6.7387 19.2975 6.84733 19.1545 7.02216L20.0832 7.78205ZM20.6623 6.89722C20.7801 6.52844 20.7602 6.12944 20.6063 5.7742L19.5052 6.2513C19.5437 6.34011 19.5487 6.43986 19.5192 6.53206L20.6623 6.89722ZM20.6063 5.7742C20.5338 5.60678 20.4322 5.47115 20.3255 5.34918C20.2228 5.23171 20.0905 5.09986 19.942 4.9514L19.0935 5.79993C19.2532 5.95966 19.3521 6.05894 19.4223 6.13927C19.4887 6.2151 19.502 6.24391 19.5052 6.25131L20.6063 5.7742ZM19.942 4.9514L19.0486 4.05793L18.2 4.90646L19.0935 5.79993L19.942 4.9514ZM19.0486 4.05794C18.9001 3.90948 18.7683 3.7772 18.6508 3.67444C18.5288 3.56775 18.3932 3.4662 18.2258 3.39365L17.7487 4.49473C17.7561 4.49793 17.7849 4.5113 17.8607 4.57763C17.941 4.6479 18.0403 4.74674 18.2 4.90646L19.0486 4.05794ZM18.2258 3.39365C17.8705 3.23972 17.4715 3.21982 17.1027 3.33764L17.4679 4.48073C17.5601 4.45127 17.6599 4.45625 17.7487 4.49473L18.2258 3.39365ZM17.1027 3.33764C16.9289 3.39316 16.7839 3.48071 16.6519 3.57474C16.5248 3.6653 16.3804 3.78381 16.2179 3.91676L16.9778 4.8455C17.1526 4.70247 17.2613 4.61399 17.3482 4.55206C17.4302 4.49361 17.4602 4.48318 17.4679 4.48073L17.1027 3.33764ZM16.2179 3.91676C15.8909 4.18436 15.6728 4.36217 15.5021 4.48084C15.3265 4.60283 15.2736 4.60863 15.2795 4.60783L15.4394 5.79712C15.726 5.75857 15.973 5.61488 16.1869 5.46624C16.4056 5.31427 16.6664 5.10029 16.9778 4.8455L16.2179 3.91676ZM15.2795 4.60783C15.137 4.627 14.9953 4.56828 14.9081 4.45401L13.954 5.18184C14.3027 5.63889 14.8697 5.87376 15.4394 5.79712L15.2795 4.60783ZM14.9081 4.45401C14.9117 4.45873 14.8783 4.41718 14.8405 4.20679C14.8037 4.00215 14.7752 3.72224 14.7332 3.30174L13.5391 3.42114C13.5792 3.8215 13.6123 4.15725 13.6594 4.41933C13.7056 4.67567 13.7786 4.95193 13.954 5.18184L14.9081 4.45401Z" fill="#33363F"/>
<circle cx="12" cy="12" r="3.5" stroke="#7E869E" stroke-opacity="0.25"/>
</svg>
