<svg width="24" height="24" viewBox="0 0 24 24" fill="none" xmlns="http://www.w3.org/2000/svg">
<path d="M12 12L17.6384 15.9035C18.178 16.2771 18.5 16.8916 18.5 17.5479V20C18.5 20.2761 18.2761 20.5 18 20.5H6C5.72386 20.5 5.5 20.2761 5.5 20V17.5479C5.5 16.8916 5.82198 16.2771 6.36158 15.9035L12 12ZM12 12L17.6384 8.09648C18.178 7.72291 18.5 7.10838 18.5 6.45209V4C18.5 3.72386 18.2761 3.5 18 3.5H6C5.72386 3.5 5.5 3.72386 5.5 4V6.45209C5.5 7.10838 5.82198 7.72291 6.36158 8.09648L12 12Z" stroke="#33363F" stroke-linecap="round" stroke-linejoin="round"/>
<path d="M9.5 20.5L11.7682 17.7781C11.918 17.5984 12 17.3719 12 17.138V12" stroke="#33363F" stroke-linecap="round" stroke-linejoin="round"/>
<path d="M14.5 20.5L12.2318 17.7781C12.082 17.5984 12 17.3719 12 17.138V12" stroke="#33363F" stroke-linecap="round" stroke-linejoin="round"/>
<path d="M17 8.5H7" stroke="#33363F" stroke-linejoin="round"/>
</svg>
