<svg width="24" height="24" viewBox="0 0 24 24" fill="none" xmlns="http://www.w3.org/2000/svg">
<path fill-rule="evenodd" clip-rule="evenodd" d="M5 3.5V6.17729C5 6.46523 5.06197 6.74506 5.17705 7H18.823C18.938 6.74506 19 6.46523 19 6.17729V3.5C19 3.22386 18.7761 3 18.5 3H5.5C5.22386 3 5 3.22386 5 3.5ZM18.7522 7.14162L12 11L5.24784 7.14162C5.39746 7.41349 5.61043 7.6508 5.87462 7.83062L11.5866 11.7186C11.6766 11.5866 11.8282 11.5 12 11.5C12.1718 11.5 12.3234 11.5866 12.4134 11.7186L18.1254 7.83062C18.3896 7.6508 18.6025 7.41349 18.7522 7.14162ZM11.5 12.3403L5.87462 16.1694C5.32746 16.5418 5 17.1608 5 17.8227V20.5C5 20.7761 5.22386 21 5.5 21H7.15C7.06716 21 7 20.9328 7 20.85V19.2831C7 19.1075 7.09215 18.9447 7.24275 18.8543L11.5 16.3V12.3403ZM16.85 21H18.5C18.7761 21 19 20.7761 19 20.5V17.8227C19 17.1608 18.6725 16.5418 18.1254 16.1694L12.5 12.3403V16.3L16.7572 18.8543C16.9079 18.9447 17 19.1075 17 19.2831V20.85C17 20.9328 16.9328 21 16.85 21Z" fill="#33363F"/>
<path d="M12 12L18.1254 16.1694C18.6725 16.5418 19 17.1608 19 17.8227V20.5C19 20.7761 18.7761 21 18.5 21H5.5C5.22386 21 5 20.7761 5 20.5V17.8227C5 17.1608 5.32746 16.5418 5.87462 16.1694L12 12ZM12 12L18.1254 7.83062C18.6725 7.45819 19 6.83917 19 6.17729V3.5C19 3.22386 18.7761 3 18.5 3H5.5C5.22386 3 5 3.22386 5 3.5V6.17729C5 6.83917 5.32746 7.45819 5.87462 7.83062L12 12Z" stroke="#33363F" stroke-width="2" stroke-linecap="round" stroke-linejoin="round"/>
</svg>
