<svg width="24" height="24" viewBox="0 0 24 24" fill="none" xmlns="http://www.w3.org/2000/svg">
<path d="M9.18106 5.04992C10.5472 4.49581 12.0464 4.35662 13.4912 4.64974C14.936 4.94285 16.2624 5.65527 17.3046 6.69797C18.3468 7.74066 19.0586 9.06739 19.351 10.5123C19.6434 11.9573 19.5035 13.4564 18.9487 14.8223" stroke="#222222" stroke-linecap="round" stroke-linejoin="round"/>
<path d="M17.3033 17.3033C15.8968 18.7098 13.9891 19.5 12 19.5C10.0109 19.5 8.10322 18.7098 6.6967 17.3033C5.29018 15.8968 4.5 13.9891 4.5 12C4.5 10.0109 5.29018 8.10322 6.6967 6.6967" stroke="#222222"/>
<path d="M19.5 19.5L4.5 4.5" stroke="#222222" stroke-linecap="round" stroke-linejoin="round"/>
<path d="M17.9059 3.61926C18.4993 3.77827 19.0404 4.0907 19.4749 4.52513C19.9093 4.95956 20.2217 5.50069 20.3807 6.09413" stroke="#222222" stroke-linecap="round"/>
</svg>
