<svg width="24" height="24" viewBox="0 0 24 24" fill="none" xmlns="http://www.w3.org/2000/svg">
<path d="M18.15 11H17.5V13H18.15C18.6194 13 19 12.6194 19 12.15V11.85C19 11.3806 18.6194 11 18.15 11Z" fill="#33363F"/>
<path fill-rule="evenodd" clip-rule="evenodd" d="M12 19C15.866 19 19 15.866 19 12C19 8.13401 15.866 5 12 5C8.13401 5 5 8.13401 5 12C5 15.866 8.13401 19 12 19ZM11.4743 8.84189C11.387 8.57991 11.1039 8.43833 10.8419 8.52566C10.5799 8.61298 10.4383 8.89614 10.5257 9.15811L11.489 12.0481C11.5587 12.2574 11.7171 12.4253 11.9219 12.5073L14.3143 13.4646C14.5706 13.5672 14.8616 13.4426 14.9642 13.1862C15.0668 12.9298 14.9422 12.6388 14.6858 12.5362L12.401 11.6219L11.4743 8.84189Z" fill="#33363F"/>
<path fill-rule="evenodd" clip-rule="evenodd" d="M8.78618 2.71265C8.91307 2.28967 9.3024 2 9.744 2H14.2559C14.6976 2 15.0869 2.28967 15.2138 2.71265L15.9048 5.01607C14.7499 4.36894 13.418 4 12 4C10.5819 4 9.25009 4.36894 8.09515 5.01606L8.78618 2.71265ZM8.09515 18.9839L8.78618 21.2873C8.91307 21.7103 9.3024 22 9.744 22H14.2559C14.6976 22 15.0869 21.7103 15.2138 21.2873L15.9048 18.9839C14.7499 19.6311 13.418 20 12 20C10.5819 20 9.25009 19.6311 8.09515 18.9839Z" fill="#33363F"/>
</svg>
