<svg version="1.1" id="Layer_1" xmlns="http://www.w3.org/2000/svg" xmlns:xlink="http://www.w3.org/1999/xlink" x="0px" y="0px"
	 width="100%" viewBox="0 170 1050 740" enable-background="new 0 0 1080 1080" xml:space="preserve">
<path fill="#2B2B2B" opacity="0.000000" stroke="none" 
	d="
M570.000000,1081.000000 
	C380.021881,1081.000000 190.543732,1081.000000 1.032801,1081.000000 
	C1.032801,721.063416 1.032801,361.126831 1.032801,1.095114 
	C360.895050,1.095114 720.790100,1.095114 1080.842529,1.095114 
	C1080.842529,360.999939 1080.842529,720.999939 1080.842529,1081.000000 
	C910.793030,1081.000000 740.646545,1081.000000 570.000000,1081.000000 
M648.983093,515.518982 
	C643.789673,509.442627 638.994141,502.964630 633.335083,497.358337 
	C606.713135,470.984528 579.861450,444.842560 553.076782,418.633057 
	C538.567139,404.434937 522.938293,391.296692 511.211456,374.465820 
	C501.472870,360.488556 495.083923,345.424377 496.050659,327.933075 
	C496.857605,313.332886 504.949402,303.752441 519.220520,300.709808 
	C539.102661,296.470856 553.632751,307.428619 554.877625,327.629181 
	C555.010742,329.788940 554.990906,331.959930 554.992432,334.125763 
	C555.001953,347.408905 554.997192,360.692078 554.997192,374.199188 
	C601.300293,374.199188 646.378906,374.199188 690.983704,374.199188 
	C690.983704,364.759247 691.420837,355.613312 690.902893,346.521759 
	C689.257996,317.650665 684.803772,289.291504 673.892700,262.274933 
	C661.081970,230.555008 640.304077,206.286362 608.413086,192.427490 
	C590.231201,184.526184 571.136169,180.319351 551.494019,178.488617 
	C522.615234,175.796982 493.947052,176.249023 465.908264,184.953369 
	C423.906128,197.992477 396.542938,226.100739 381.495117,266.888672 
	C374.710632,285.278473 371.212158,304.354187 369.588776,323.837891 
	C367.700592,346.500092 367.488068,369.044128 372.601135,391.412018 
	C381.476776,430.239716 401.731964,462.607147 429.264282,490.663177 
	C456.105225,518.014648 483.656708,544.670166 510.421753,572.094238 
	C522.015198,583.973206 533.893860,596.026733 543.060608,609.728577 
	C563.211914,639.849487 566.019287,674.110474 561.791748,709.092346 
	C559.726318,726.182678 551.310547,733.207825 534.425781,734.600281 
	C519.478699,735.832947 508.741425,728.824402 503.884735,713.719055 
	C501.821655,707.302429 500.258820,700.427490 500.146698,693.732727 
	C499.666840,665.075378 499.812134,636.407532 499.730591,607.743530 
	C499.725494,605.951294 499.729950,604.159058 499.729950,602.135315 
	C455.701630,602.135315 412.152893,602.135315 368.169098,602.135315 
	C368.169098,604.059753 368.168518,605.691223 368.169220,607.322693 
	C368.178101,628.155151 368.014618,648.989380 368.236694,669.819580 
	C368.569580,701.046631 371.233398,731.985718 380.928406,761.938965 
	C390.092773,790.252747 404.952057,814.516663 430.330811,831.264771 
	C451.055573,844.941528 474.289368,851.562439 498.548035,854.991394 
	C524.419739,858.648254 550.391602,859.042664 576.218567,854.862488 
	C607.182556,849.850891 634.620422,837.741760 654.926331,812.720825 
	C669.880188,794.294739 678.918152,772.918457 684.912476,750.186035 
	C694.382446,714.272827 696.595276,677.651123 695.130493,640.699219 
	C693.288940,594.242798 679.201355,552.282043 648.983093,515.518982 
M337.055267,218.500031 
	C337.055267,210.074341 337.055267,201.648651 337.055267,193.274231 
	C229.672302,193.274231 122.933517,193.274231 16.204441,193.274231 
	C16.204441,425.247070 16.204441,656.944275 16.204441,888.617432 
	C123.258698,888.617432 229.986176,888.617432 337.055267,888.617432 
	C337.055267,665.382324 337.055267,442.441193 337.055267,218.500031 
M946.500061,179.829971 
	C875.593933,179.829971 804.687744,179.829971 733.751099,179.829971 
	C733.751099,222.739380 733.751099,264.942474 733.751099,307.792908 
	C760.205444,307.792908 786.251587,307.792908 812.760010,307.792908 
	C812.760010,487.321381 812.760010,666.200317 812.760010,845.130127 
	C857.301147,845.130127 901.363647,845.130127 945.796692,845.130127 
	C945.796692,755.303223 945.796692,665.845093 945.796692,576.386963 
	C945.796692,486.829071 945.796692,397.271149 945.796692,307.323364 
	C972.519775,307.323364 998.471008,307.323364 1024.623413,307.323364 
	C1024.623413,264.705505 1024.623413,222.479950 1024.623413,179.829971 
	C998.750610,179.829971 973.125366,179.829971 946.500061,179.829971 
z"/>
<path fill="currentColor" opacity="1.000000" stroke="none" 
	d="
M649.207031,515.794067 
	C679.201355,552.282043 693.288940,594.242798 695.130493,640.699219 
	C696.595276,677.651123 694.382446,714.272827 684.912476,750.186035 
	C678.918152,772.918457 669.880188,794.294739 654.926331,812.720825 
	C634.620422,837.741760 607.182556,849.850891 576.218567,854.862488 
	C550.391602,859.042664 524.419739,858.648254 498.548035,854.991394 
	C474.289368,851.562439 451.055573,844.941528 430.330811,831.264771 
	C404.952057,814.516663 390.092773,790.252747 380.928406,761.938965 
	C371.233398,731.985718 368.569580,701.046631 368.236694,669.819580 
	C368.014618,648.989380 368.178101,628.155151 368.169220,607.322693 
	C368.168518,605.691223 368.169098,604.059753 368.169098,602.135315 
	C412.152893,602.135315 455.701630,602.135315 499.729950,602.135315 
	C499.729950,604.159058 499.725494,605.951294 499.730591,607.743530 
	C499.812134,636.407532 499.666840,665.075378 500.146698,693.732727 
	C500.258820,700.427490 501.821655,707.302429 503.884735,713.719055 
	C508.741425,728.824402 519.478699,735.832947 534.425781,734.600281 
	C551.310547,733.207825 559.726318,726.182678 561.791748,709.092346 
	C566.019287,674.110474 563.211914,639.849487 543.060608,609.728577 
	C533.893860,596.026733 522.015198,583.973206 510.421753,572.094238 
	C483.656708,544.670166 456.105225,518.014648 429.264282,490.663177 
	C401.731964,462.607147 381.476776,430.239716 372.601135,391.412018 
	C367.488068,369.044128 367.700592,346.500092 369.588776,323.837891 
	C371.212158,304.354187 374.710632,285.278473 381.495117,266.888672 
	C396.542938,226.100739 423.906128,197.992477 465.908264,184.953369 
	C493.947052,176.249023 522.615234,175.796982 551.494019,178.488617 
	C571.136169,180.319351 590.231201,184.526184 608.413086,192.427490 
	C640.304077,206.286362 661.081970,230.555008 673.892700,262.274933 
	C684.803772,289.291504 689.257996,317.650665 690.902893,346.521759 
	C691.420837,355.613312 690.983704,364.759247 690.983704,374.199188 
	C646.378906,374.199188 601.300293,374.199188 554.997192,374.199188 
	C554.997192,360.692078 555.001953,347.408905 554.992432,334.125763 
	C554.990906,331.959930 555.010742,329.788940 554.877625,327.629181 
	C553.632751,307.428619 539.102661,296.470856 519.220520,300.709808 
	C504.949402,303.752441 496.857605,313.332886 496.050659,327.933075 
	C495.083923,345.424377 501.472870,360.488556 511.211456,374.465820 
	C522.938293,391.296692 538.567139,404.434937 553.076782,418.633057 
	C579.861450,444.842560 606.713135,470.984528 633.335083,497.358337 
	C638.994141,502.964630 643.789673,509.442627 649.207031,515.794067 
z"/>
<path fill="currentColor" opacity="1.000000" stroke="none" 
	d="
M337.055267,219.000031 
	C337.055267,442.441193 337.055267,665.382324 337.055267,888.617432 
	C229.986176,888.617432 123.258698,888.617432 16.204441,888.617432 
	C16.204441,656.944275 16.204441,425.247070 16.204441,193.274231 
	C122.933517,193.274231 229.672302,193.274231 337.055267,193.274231 
	C337.055267,201.648651 337.055267,210.074341 337.055267,219.000031 
M69.181999,453.147156 
	C77.830009,470.913483 93.357758,478.462799 111.787872,478.811890 
	C151.933884,479.572327 192.111115,479.494659 232.260834,478.846100 
	C248.110916,478.590057 262.875366,473.269531 273.283722,460.249420 
	C284.790161,445.855713 285.708374,429.074493 282.407684,411.829102 
	C278.986145,393.952057 267.839020,382.309875 250.745041,377.309570 
	C241.460068,374.593506 231.465454,373.332245 221.764404,373.186981 
	C189.106583,372.698120 156.436737,372.957153 123.771835,373.050659 
	C118.122086,373.066803 112.443916,373.406799 106.830536,374.048920 
	C85.998199,376.431793 71.464836,388.163483 66.433060,407.338837 
	C62.451759,422.510986 62.957062,437.681213 69.181999,453.147156 
M283.557007,682.864258 
	C283.747742,673.410522 284.795074,663.880005 283.955536,654.518677 
	C282.053375,633.308228 269.854004,618.817444 249.000885,614.234009 
	C235.766006,611.325012 222.031296,610.066650 208.458893,609.466492 
	C189.291092,608.619019 170.226288,609.820557 151.835419,616.555969 
	C131.139404,624.135681 124.873062,643.367004 127.870125,661.745422 
	C128.768082,667.251831 132.394363,672.313293 134.790878,677.623291 
	C127.569756,677.623291 119.910728,677.295593 112.296997,677.741455 
	C107.425896,678.026672 106.125008,676.552368 106.197639,671.725037 
	C106.475288,653.272461 106.309845,634.813232 106.309845,616.157471 
	C92.768257,616.157471 79.553154,616.157471 66.346840,616.157471 
	C66.346840,650.363770 66.346840,684.256287 66.346840,717.951294 
	C104.616013,717.951294 142.522568,717.951294 180.533463,717.951294 
	C180.533463,704.787903 180.533463,692.031860 180.533463,679.609375 
	C176.813873,678.805664 173.313065,678.383057 170.049622,677.266602 
	C165.015732,675.544434 162.709579,671.398743 162.987991,665.914490 
	C163.254028,660.674133 166.568939,658.291077 171.126465,657.173462 
	C173.539902,656.581665 176.040939,656.037537 178.506668,656.018311 
	C196.334503,655.879578 214.163467,655.858276 231.992004,655.874451 
	C233.625671,655.875916 235.299698,656.257202 236.884903,656.708374 
	C242.434433,658.287781 244.826263,661.350037 244.840897,666.674561 
	C244.855530,672.002136 242.392136,675.364014 237.042542,676.849060 
	C234.653641,677.512207 232.140030,678.019043 229.674240,678.059509 
	C220.907684,678.203186 212.137360,678.115601 203.197769,678.115601 
	C203.197769,693.785034 203.197769,708.363953 203.197769,723.307373 
	C214.253143,723.307373 225.053040,723.507019 235.843216,723.267883 
	C262.334015,722.680847 277.779541,709.718567 283.557007,682.864258 
M98.600868,258.992676 
	C81.988014,263.359924 70.274612,273.127197 66.481918,290.269806 
	C64.705566,298.298767 63.924999,306.802063 64.328957,315.009888 
	C65.382401,336.414825 75.946083,350.468750 95.242775,356.300537 
	C121.473419,364.227875 145.256134,360.102051 165.302124,340.300201 
	C176.318115,329.418365 187.188385,318.384369 198.379059,307.685394 
	C208.996613,297.534363 222.220398,295.855316 236.075089,297.447174 
	C241.444733,298.064087 243.853912,301.111969 244.143951,306.010345 
	C244.469193,311.503448 242.659073,314.751495 237.356140,316.120300 
	C233.232620,317.184662 228.844543,317.478210 224.559006,317.604767 
	C216.948105,317.829468 209.325775,317.667816 201.582642,317.667816 
	C201.582642,332.088654 201.582642,345.949036 201.582642,360.847198 
	C216.273819,359.878448 230.651077,359.806824 244.749039,357.786438 
	C263.837921,355.050751 277.098236,344.498474 281.731476,324.937836 
	C284.372162,313.789398 284.906372,302.496582 282.777344,291.224030 
	C280.281067,278.006897 273.285950,268.048920 260.892944,262.113647 
	C249.534790,256.673981 237.402679,255.082413 225.053131,254.403015 
	C202.734695,253.175186 182.855423,258.852722 166.801743,275.170349 
	C156.059097,286.089600 145.391022,297.082245 134.668335,308.021271 
	C129.576736,313.215576 123.908562,317.485077 116.480247,318.686279 
	C109.388748,319.833038 104.339806,316.391449 103.833954,310.145630 
	C103.271042,303.195374 106.591370,299.857361 114.431664,299.669464 
	C118.829681,299.564056 123.232315,299.650482 127.452759,299.650482 
	C127.452759,284.346313 127.452759,270.129150 127.452759,254.733002 
	C117.728012,256.150482 108.564255,257.486206 98.600868,258.992676 
M200.804932,506.765442 
	C193.539886,505.825775 186.278976,504.852783 179.009094,503.952240 
	C150.429810,500.412018 121.848701,496.886383 93.266037,493.373505 
	C84.273834,492.268311 75.274620,491.220123 66.206802,490.137268 
	C66.206802,504.080444 66.206802,517.505249 66.206802,531.125366 
	C114.115509,535.730408 161.749756,540.309143 209.384003,544.887817 
	C209.353897,545.148804 209.323792,545.409790 209.293686,545.670776 
	C161.648590,550.806274 114.003510,555.941772 66.283203,561.085388 
	C66.283203,574.875183 66.283203,588.408020 66.283203,602.139526 
	C138.324051,593.271423 209.986694,584.449890 281.712097,575.620544 
	C281.712097,555.790039 281.712097,536.387024 281.712097,516.588135 
	C254.873688,513.325012 228.288834,510.092712 200.804932,506.765442 
M280.235413,822.971497 
	C280.827789,821.357971 281.930145,819.746399 281.936462,818.130554 
	C282.039215,791.806274 282.003204,765.481384 281.998596,739.156677 
	C281.998322,737.538513 281.998566,735.920349 281.998566,734.188477 
	C267.807220,734.188477 254.084991,734.188477 239.932373,734.188477 
	C239.932373,749.199707 239.932373,763.939209 239.932373,778.634033 
	C223.287460,778.634033 207.077530,778.634033 190.533203,778.634033 
	C190.533203,765.161438 190.533203,752.052856 190.533203,738.631958 
	C176.961823,738.631958 163.728470,738.631958 149.885559,738.631958 
	C149.885559,752.158569 149.885559,765.528137 149.885559,778.715454 
	C135.511505,778.715454 121.746689,778.715454 107.552505,778.715454 
	C107.552505,764.651367 107.552505,750.889648 107.552505,737.000244 
	C93.541618,737.000244 79.968765,737.000244 66.236343,737.000244 
	C66.236343,765.709106 66.236343,794.112061 66.236343,822.981873 
	C137.414810,822.981873 208.345673,822.981873 280.235413,822.971497 
z"/>
<path fill="currentColor" opacity="1.000000" stroke="none" 
	d="
M947.000122,179.829971 
	C973.125366,179.829971 998.750610,179.829971 1024.623413,179.829971 
	C1024.623413,222.479950 1024.623413,264.705505 1024.623413,307.323364 
	C998.471008,307.323364 972.519775,307.323364 945.796692,307.323364 
	C945.796692,397.271149 945.796692,486.829071 945.796692,576.386963 
	C945.796692,665.845093 945.796692,755.303223 945.796692,845.130127 
	C901.363647,845.130127 857.301147,845.130127 812.760010,845.130127 
	C812.760010,666.200317 812.760010,487.321381 812.760010,307.792908 
	C786.251587,307.792908 760.205444,307.792908 733.751099,307.792908 
	C733.751099,264.942474 733.751099,222.739380 733.751099,179.829971 
	C804.687744,179.829971 875.593933,179.829971 947.000122,179.829971 
z"/>
<path fill="#2C2C2C" opacity="0.000000" stroke="none" 
	d="
M69.061798,452.784546 
	C62.957062,437.681213 62.451759,422.510986 66.433060,407.338837 
	C71.464836,388.163483 85.998199,376.431793 106.830536,374.048920 
	C112.443916,373.406799 118.122086,373.066803 123.771835,373.050659 
	C156.436737,372.957153 189.106583,372.698120 221.764404,373.186981 
	C231.465454,373.332245 241.460068,374.593506 250.745041,377.309570 
	C267.839020,382.309875 278.986145,393.952057 282.407684,411.829102 
	C285.708374,429.074493 284.790161,445.855713 273.283722,460.249420 
	C262.875366,473.269531 248.110916,478.590057 232.260834,478.846100 
	C192.111115,479.494659 151.933884,479.572327 111.787872,478.811890 
	C93.357758,478.462799 77.830009,470.913483 69.061798,452.784546 
M167.499969,436.903595 
	C186.654037,436.904694 205.809250,437.018616 224.961288,436.822449 
	C229.392715,436.777069 233.900162,436.023712 238.214874,434.957672 
	C242.706467,433.847931 244.353851,430.315308 244.225174,425.791870 
	C244.102356,421.473206 241.849106,418.826141 237.831711,418.037201 
	C233.449646,417.176666 228.961945,416.400116 224.517365,416.383850 
	C189.707611,416.256256 154.897110,416.298798 120.086990,416.362946 
	C117.108498,416.368439 114.074677,416.645874 111.166412,417.265625 
	C106.953102,418.163391 103.835114,420.368134 103.697380,425.277618 
	C103.566940,429.927246 105.231804,433.598999 109.800056,435.033691 
	C113.079910,436.063782 116.605919,436.755890 120.031990,436.798126 
	C135.519394,436.989075 151.010315,436.894989 167.499969,436.903595 
z"/>
<path fill="#2C2C2C" opacity="0.000000" stroke="none" 
	d="
M283.454773,683.278198 
	C277.779541,709.718567 262.334015,722.680847 235.843216,723.267883 
	C225.053040,723.507019 214.253143,723.307373 203.197769,723.307373 
	C203.197769,708.363953 203.197769,693.785034 203.197769,678.115601 
	C212.137360,678.115601 220.907684,678.203186 229.674240,678.059509 
	C232.140030,678.019043 234.653641,677.512207 237.042542,676.849060 
	C242.392136,675.364014 244.855530,672.002136 244.840897,666.674561 
	C244.826263,661.350037 242.434433,658.287781 236.884903,656.708374 
	C235.299698,656.257202 233.625671,655.875916 231.992004,655.874451 
	C214.163467,655.858276 196.334503,655.879578 178.506668,656.018311 
	C176.040939,656.037537 173.539902,656.581665 171.126465,657.173462 
	C166.568939,658.291077 163.254028,660.674133 162.987991,665.914490 
	C162.709579,671.398743 165.015732,675.544434 170.049622,677.266602 
	C173.313065,678.383057 176.813873,678.805664 180.533463,679.609375 
	C180.533463,692.031860 180.533463,704.787903 180.533463,717.951294 
	C142.522568,717.951294 104.616013,717.951294 66.346840,717.951294 
	C66.346840,684.256287 66.346840,650.363770 66.346840,616.157471 
	C79.553154,616.157471 92.768257,616.157471 106.309845,616.157471 
	C106.309845,634.813232 106.475288,653.272461 106.197639,671.725037 
	C106.125008,676.552368 107.425896,678.026672 112.296997,677.741455 
	C119.910728,677.295593 127.569756,677.623291 134.790878,677.623291 
	C132.394363,672.313293 128.768082,667.251831 127.870125,661.745422 
	C124.873062,643.367004 131.139404,624.135681 151.835419,616.555969 
	C170.226288,609.820557 189.291092,608.619019 208.458893,609.466492 
	C222.031296,610.066650 235.766006,611.325012 249.000885,614.234009 
	C269.854004,618.817444 282.053375,633.308228 283.955536,654.518677 
	C284.795074,663.880005 283.747742,673.410522 283.454773,683.278198 
z"/>
<path fill="#2C2C2C" opacity="0.000000" stroke="none" 
	d="
M99.000679,258.907288 
	C108.564255,257.486206 117.728012,256.150482 127.452759,254.733002 
	C127.452759,270.129150 127.452759,284.346313 127.452759,299.650482 
	C123.232315,299.650482 118.829681,299.564056 114.431664,299.669464 
	C106.591370,299.857361 103.271042,303.195374 103.833954,310.145630 
	C104.339806,316.391449 109.388748,319.833038 116.480247,318.686279 
	C123.908562,317.485077 129.576736,313.215576 134.668335,308.021271 
	C145.391022,297.082245 156.059097,286.089600 166.801743,275.170349 
	C182.855423,258.852722 202.734695,253.175186 225.053131,254.403015 
	C237.402679,255.082413 249.534790,256.673981 260.892944,262.113647 
	C273.285950,268.048920 280.281067,278.006897 282.777344,291.224030 
	C284.906372,302.496582 284.372162,313.789398 281.731476,324.937836 
	C277.098236,344.498474 263.837921,355.050751 244.749039,357.786438 
	C230.651077,359.806824 216.273819,359.878448 201.582642,360.847198 
	C201.582642,345.949036 201.582642,332.088654 201.582642,317.667816 
	C209.325775,317.667816 216.948105,317.829468 224.559006,317.604767 
	C228.844543,317.478210 233.232620,317.184662 237.356140,316.120300 
	C242.659073,314.751495 244.469193,311.503448 244.143951,306.010345 
	C243.853912,301.111969 241.444733,298.064087 236.075089,297.447174 
	C222.220398,295.855316 208.996613,297.534363 198.379059,307.685394 
	C187.188385,318.384369 176.318115,329.418365 165.302124,340.300201 
	C145.256134,360.102051 121.473419,364.227875 95.242775,356.300537 
	C75.946083,350.468750 65.382401,336.414825 64.328957,315.009888 
	C63.924999,306.802063 64.705566,298.298767 66.481918,290.269806 
	C70.274612,273.127197 81.988014,263.359924 99.000679,258.907288 
z"/>
<path fill="#2C2C2C" opacity="0.000000" stroke="none" 
	d="
M201.254456,506.812927 
	C228.288834,510.092712 254.873688,513.325012 281.712097,516.588135 
	C281.712097,536.387024 281.712097,555.790039 281.712097,575.620544 
	C209.986694,584.449890 138.324051,593.271423 66.283203,602.139526 
	C66.283203,588.408020 66.283203,574.875183 66.283203,561.085388 
	C114.003510,555.941772 161.648590,550.806274 209.293686,545.670776 
	C209.323792,545.409790 209.353897,545.148804 209.384003,544.887817 
	C161.749756,540.309143 114.115509,535.730408 66.206802,531.125366 
	C66.206802,517.505249 66.206802,504.080444 66.206802,490.137268 
	C75.274620,491.220123 84.273834,492.268311 93.266037,493.373505 
	C121.848701,496.886383 150.429810,500.412018 179.009094,503.952240 
	C186.278976,504.852783 193.539886,505.825775 201.254456,506.812927 
z"/>
<path fill="#2C2C2C" opacity="0.000000" stroke="none" 
	d="
M279.755981,822.976685 
	C208.345673,822.981873 137.414810,822.981873 66.236343,822.981873 
	C66.236343,794.112061 66.236343,765.709106 66.236343,737.000244 
	C79.968765,737.000244 93.541618,737.000244 107.552505,737.000244 
	C107.552505,750.889648 107.552505,764.651367 107.552505,778.715454 
	C121.746689,778.715454 135.511505,778.715454 149.885559,778.715454 
	C149.885559,765.528137 149.885559,752.158569 149.885559,738.631958 
	C163.728470,738.631958 176.961823,738.631958 190.533203,738.631958 
	C190.533203,752.052856 190.533203,765.161438 190.533203,778.634033 
	C207.077530,778.634033 223.287460,778.634033 239.932373,778.634033 
	C239.932373,763.939209 239.932373,749.199707 239.932373,734.188477 
	C254.084991,734.188477 267.807220,734.188477 281.998566,734.188477 
	C281.998566,735.920349 281.998322,737.538513 281.998596,739.156677 
	C282.003204,765.481384 282.039215,791.806274 281.936462,818.130554 
	C281.930145,819.746399 280.827789,821.357971 279.755981,822.976685 
z"/>
<path fill="currentColor" opacity="1.000000" stroke="none" 
	d="
M166.999969,436.903595 
	C151.010315,436.894989 135.519394,436.989075 120.031990,436.798126 
	C116.605919,436.755890 113.079910,436.063782 109.800056,435.033691 
	C105.231804,433.598999 103.566940,429.927246 103.697380,425.277618 
	C103.835114,420.368134 106.953102,418.163391 111.166412,417.265625 
	C114.074677,416.645874 117.108498,416.368439 120.086990,416.362946 
	C154.897110,416.298798 189.707611,416.256256 224.517365,416.383850 
	C228.961945,416.400116 233.449646,417.176666 237.831711,418.037201 
	C241.849106,418.826141 244.102356,421.473206 244.225174,425.791870 
	C244.353851,430.315308 242.706467,433.847931 238.214874,434.957672 
	C233.900162,436.023712 229.392715,436.777069 224.961288,436.822449 
	C205.809250,437.018616 186.654037,436.904694 166.999969,436.903595 
z"/>
</svg>