<svg width="24" height="24" viewBox="0 0 24 24" fill="none" xmlns="http://www.w3.org/2000/svg">
<path d="M5 10C5 7.79086 6.79086 6 9 6H15C17.2091 6 19 7.79086 19 10V17C19 19.2091 17.2091 21 15 21H9C6.79086 21 5 19.2091 5 17V10Z" stroke="#222222" stroke-width="2" stroke-linecap="round" stroke-linejoin="round"/>
<path d="M5 10V10C5 11.1046 5.89543 12 7 12H17C18.1046 12 19 11.1046 19 10V10" stroke="#222222" stroke-width="2" stroke-linecap="round" stroke-linejoin="round"/>
<path d="M17 20L16.7785 18.6712C16.6178 17.7068 15.7834 17 14.8057 17L9.19425 17C8.21658 17 7.3822 17.7068 7.22147 18.6712L7 20" stroke="#222222" stroke-width="2" stroke-linecap="round" stroke-linejoin="round"/>
<path d="M19.2857 12H20C20.5523 12 21 12.4477 21 13V17C21 17.5523 20.5523 18 20 18H19" stroke="#222222" stroke-width="2" stroke-linecap="round" stroke-linejoin="round"/>
<path d="M4.71429 12H4C3.44771 12 3 12.4477 3 13V17C3 17.5523 3.44772 18 4 18H5" stroke="#222222" stroke-width="2" stroke-linecap="round" stroke-linejoin="round"/>
<path d="M8 6V5C8 3.89543 8.89543 3 10 3H14C15.1046 3 16 3.89543 16 5V6" stroke="#222222" stroke-width="2" stroke-linecap="round" stroke-linejoin="round"/>
</svg>
