<svg width="24" height="24" viewBox="0 0 24 24" fill="none" xmlns="http://www.w3.org/2000/svg">
<path d="M13.7321 10.9999C13.7755 11.0749 13.8586 11.3146 13.9292 11.7826C13.9946 12.2166 14.0359 12.7455 14.0582 13.3127C14.0887 14.0883 14.0812 14.8992 14.0645 15.5756C13.4704 15.2518 12.7644 14.8528 12.108 14.4387C11.6279 14.1358 11.1905 13.8355 10.8473 13.5619C10.4774 13.2668 10.3114 13.0749 10.268 12.9999C10.2247 12.9248 10.1415 12.6851 10.071 12.2172C10.0056 11.7831 9.96422 11.2542 9.94194 10.687C9.91146 9.91116 9.91847 9.09983 9.93513 8.42328C10.5294 8.74713 11.2355 9.14672 11.8922 9.56105C12.3722 9.86394 12.8096 10.1642 13.1528 10.4379C13.5228 10.7329 13.6888 10.9248 13.7321 10.9999Z" stroke="#33363F" stroke-width="2"/>
<circle cx="12" cy="12" r="9" stroke="#33363F" stroke-width="2"/>
</svg>
