<svg width="24" height="24" viewBox="0 0 24 24" fill="none" xmlns="http://www.w3.org/2000/svg">
<path d="M2 11H8C9.10457 11 10 11.8954 10 13V15C10 16.6569 8.65685 18 7 18H4C2.89543 18 2 17.1046 2 16V11Z" stroke="#222222" stroke-width="2" stroke-linecap="round" stroke-linejoin="round"/>
<path d="M14 13C14 11.8954 14.8954 11 16 11H22V16C22 17.1046 21.1046 18 20 18H17C15.3431 18 14 16.6569 14 15V13Z" stroke="#222222" stroke-width="2" stroke-linecap="round" stroke-linejoin="round"/>
<path d="M2 11L4 7H6M22 11L20 7H18" stroke="#222222" stroke-width="2" stroke-linecap="round" stroke-linejoin="round"/>
<path d="M10 12H14" stroke="#222222" stroke-width="2" stroke-linecap="round" stroke-linejoin="round"/>
</svg>
