<svg width="24" height="24" viewBox="0 0 24 24" fill="none" xmlns="http://www.w3.org/2000/svg">
<circle cx="12" cy="12" r="7.5" stroke="#222222"/>
<path d="M12 4.5C12.2199 4.5 12.4896 4.61667 12.7939 4.95996C13.0978 5.30271 13.3942 5.82754 13.6533 6.51855C14.1702 7.89698 14.5 9.83494 14.5 12C14.5 14.1651 14.1702 16.103 13.6533 17.4814C13.3942 18.1725 13.0978 18.6973 12.7939 19.04C12.4896 19.3833 12.2199 19.5 12 19.5C11.7801 19.5 11.5104 19.3833 11.2061 19.04C10.9022 18.6973 10.6058 18.1725 10.3467 17.4814C9.82977 16.103 9.5 14.1651 9.5 12C9.5 9.83494 9.82977 7.89698 10.3467 6.51855C10.6058 5.82754 10.9022 5.30271 11.2061 4.95996C11.5104 4.61667 11.7801 4.5 12 4.5Z" stroke="#222222"/>
<path d="M4.5 12H19.5" stroke="#33363F" stroke-linecap="round"/>
</svg>
