<svg width="24" height="24" viewBox="0 0 24 24" fill="none" xmlns="http://www.w3.org/2000/svg">
<path fill-rule="evenodd" clip-rule="evenodd" d="M9.37483 4.63563C8.63771 6.2573 8.12886 8.48118 8.02124 11H15.9788C15.8711 8.48118 15.3623 6.2573 14.6252 4.63563C13.7509 2.71217 12.7474 2 12 2C11.2526 2 10.2491 2.71217 9.37483 4.63563ZM8.07531 2.79955C7.88573 3.12233 7.71193 3.4608 7.5541 3.80802C6.6821 5.72642 6.12807 8.24241 6.01959 11H2.04938C2.41631 7.30433 4.79525 4.20055 8.07531 2.79955ZM15.9247 2.79955C16.1143 3.12233 16.2881 3.4608 16.4459 3.80802C17.3179 5.72642 17.8719 8.24241 17.9804 11H21.9506C21.5837 7.30433 19.2048 4.20055 15.9247 2.79955ZM21.9506 13H17.9804C17.8719 15.7576 17.3179 18.2736 16.4459 20.192C16.2881 20.5392 16.1143 20.8777 15.9247 21.2004C19.2048 19.7995 21.5837 16.6957 21.9506 13ZM11.9956 22C11.9971 22 11.9985 22 12 22C12.7474 22 13.7509 21.2878 14.6252 19.3644C15.3623 17.7427 15.8711 15.5188 15.9788 13H8.02124C8.12886 15.5188 8.63771 17.7427 9.37483 19.3644C10.2474 21.2841 11.2486 21.9972 11.9956 22ZM8.07531 21.2004C4.79524 19.7994 2.41631 16.6957 2.04938 13H6.01959C6.12807 15.7576 6.6821 18.2736 7.5541 20.192C7.71192 20.5392 7.88573 20.8777 8.07531 21.2004Z" fill="#33363F"/>
</svg>
