<svg width="24" height="24" viewBox="0 0 24 24" fill="none" xmlns="http://www.w3.org/2000/svg">
<path fill-rule="evenodd" clip-rule="evenodd" d="M7 5.87703C7 5.16956 6.28547 4.68581 5.62861 4.94855L3.62861 5.74855C3.24895 5.90042 3 6.26813 3 6.67703V18.523C3 19.2304 3.71453 19.7142 4.37139 19.4514L6.37139 18.6514C6.75105 18.4996 7 18.1319 7 17.723V5.87703ZM9 17.4692C9 17.9281 9.3123 18.3281 9.75746 18.4394L13.7575 19.4394C14.3886 19.5971 15 19.1198 15 18.4692V6.53077C15 6.07191 14.6877 5.67192 14.2425 5.56063L10.2425 4.56063C9.61139 4.40284 9 4.8802 9 5.53077V17.4692ZM17.6286 5.34855C17.249 5.50042 17 5.86813 17 6.27703V18.123C17 18.8304 17.7145 19.3142 18.3714 19.0514L20.3714 18.2514C20.751 18.0996 21 17.7319 21 17.323V5.47703C21 4.76956 20.2855 4.28581 19.6286 4.54855L17.6286 5.34855Z" fill="#33363F"/>
</svg>
