<svg viewBox="0 0 24 24" fill="none" xmlns="http://www.w3.org/2000/svg">
<path d="M3 4C3 2.89543 3.89543 2 5 2H19C20.1046 2 21 2.89543 21 4V20C21 21.1046 20.1046 22 19 22H5C3.89543 22 3 21.1046 3 20V4Z" stroke="#222222" stroke-width="2" stroke-linecap="round" stroke-linejoin="round"/>
<circle cx="12" cy="11" r="5" stroke="#222222" stroke-width="2" stroke-linecap="round" stroke-linejoin="round"/>
<path d="M12 6C12.2456 6 12.7369 6.22505 13.2266 7.2041C13.6864 8.12377 14 9.46473 14 11C14 12.5353 13.6864 13.8762 13.2266 14.7959C12.7369 15.7749 12.2456 16 12 16C11.7544 16 11.2631 15.7749 10.7734 14.7959C10.3136 13.8762 10 12.5353 10 11C10 9.46473 10.3136 8.12377 10.7734 7.2041C11.2631 6.22505 11.7544 6 12 6Z" stroke="#222222" stroke-width="2" stroke-linecap="round" stroke-linejoin="round"/>
</svg>
