<svg width="24" height="24" viewBox="0 0 24 24" fill="none" xmlns="http://www.w3.org/2000/svg">
<path fill-rule="evenodd" clip-rule="evenodd" d="M5 2C3.89543 2 3 2.89543 3 4V20C3 21.1046 3.89543 22 5 22H19C20.1046 22 21 21.1046 21 20V4C21 2.89543 20.1046 2 19 2H5ZM11.5 11.5V15.8901C11.0901 15.7105 10.676 15.3067 10.3176 14.6497C9.8797 13.8468 9.57732 12.7466 9.51286 11.5H11.5ZM18 11C18 14.3137 15.3137 17 12 17C8.68629 17 6 14.3137 6 11C6 7.68629 8.68629 5 12 5C15.3137 5 18 7.68629 18 11ZM7.02469 10.5C7.19081 8.82683 8.18175 7.3963 9.58514 6.62076C9.53475 6.70251 9.48626 6.78618 9.43973 6.87149C8.91215 7.83873 8.57684 9.10854 8.51166 10.5H7.02469ZM10.3176 7.35034C9.8797 8.1532 9.57732 9.25335 9.51286 10.5H11.5V6.10988C11.0901 6.28949 10.676 6.69327 10.3176 7.35034ZM7.02469 11.5H8.51166C8.57684 12.8915 8.91215 14.1613 9.43973 15.1285C9.48626 15.2138 9.53475 15.2975 9.58514 15.3792C8.18175 14.6037 7.19081 13.1732 7.02469 11.5ZM13.6824 7.35034C13.324 6.69327 12.9099 6.28949 12.5 6.10988V10.5H14.4871C14.4227 9.25335 14.1203 8.1532 13.6824 7.35034ZM14.5603 6.87149C15.0879 7.83873 15.4232 9.10854 15.4883 10.5H16.9753C16.8092 8.82683 15.8183 7.3963 14.4149 6.62076C14.4653 6.70251 14.5137 6.78618 14.5603 6.87149ZM16.9753 11.5H15.4883C15.4232 12.8915 15.0879 14.1613 14.5603 15.1285C14.5137 15.2138 14.4653 15.2975 14.4149 15.3792C15.8183 14.6037 16.8092 13.1732 16.9753 11.5ZM13.6824 14.6497C14.1203 13.8468 14.4227 12.7466 14.4871 11.5H12.5V15.8901C12.9099 15.7105 13.324 15.3067 13.6824 14.6497Z" fill="#222222"/>
</svg>
