<svg viewBox="0 0 24 24" fill="none" xmlns="http://www.w3.org/2000/svg">
<path d="M5.5 5.5C5.5 4.94772 5.94772 4.5 6.5 4.5H17.5C18.0523 4.5 18.5 4.94772 18.5 5.5V18.5C18.5 19.0523 18.0523 19.5 17.5 19.5H6.5C5.94772 19.5 5.5 19.0523 5.5 18.5V5.5Z" stroke="#222222" stroke-linecap="round" stroke-linejoin="round"/>
<circle cx="12" cy="10" r="3.5" stroke="#222222" stroke-linecap="round" stroke-linejoin="round"/>
<path d="M12 6.5C12.2609 6.5 12.6314 6.7248 12.9668 7.39551C13.2871 8.0363 13.5 8.95632 13.5 10C13.5 11.0437 13.2871 11.9637 12.9668 12.6045C12.6314 13.2752 12.2609 13.5 12 13.5C11.7391 13.5 11.3686 13.2752 11.0332 12.6045C10.7129 11.9637 10.5 11.0437 10.5 10C10.5 8.95632 10.7129 8.0363 11.0332 7.39551C11.3686 6.7248 11.7391 6.5 12 6.5Z" stroke="#222222" stroke-linecap="round" stroke-linejoin="round"/>
</svg>
