<svg width="24" height="24" viewBox="0 0 24 24" fill="none" xmlns="http://www.w3.org/2000/svg">
<path d="M18 10H10" stroke="#222222" stroke-width="2" stroke-linecap="round" stroke-linejoin="round"/>
<path d="M18 14H10" stroke="#222222" stroke-width="2" stroke-linecap="round" stroke-linejoin="round"/>
<path d="M19 18V5.5C19 4.11929 17.8807 3 16.5 3V3C15.1193 3 14 4.11929 14 5.5V7M9 18V5.5C9 4.11929 7.88071 3 6.5 3V3C5.11929 3 4 4.11929 4 5.5V7" stroke="#222222" stroke-width="2" stroke-linecap="round" stroke-linejoin="round"/>
<path d="M3.5 18L4.30933 19.0965C4.99533 20.0259 6.39408 19.9982 7.0427 19.0423L7.07143 19C7.72212 18.0411 9.13503 18.0411 9.78571 19V19C10.4364 19.9589 11.8493 19.9589 12.5 19V19C13.1507 18.0411 14.5636 18.0411 15.2143 19V19C15.865 19.9589 17.2779 19.9589 17.9286 19L17.9573 18.9577C18.6059 18.0018 20.0047 17.9741 20.6907 18.9035L21.5 20" stroke="#222222" stroke-width="2" stroke-linecap="round" stroke-linejoin="round"/>
</svg>
