<svg width="24" height="24" viewBox="0 0 24 24" fill="none" xmlns="http://www.w3.org/2000/svg">
<path d="M6 9C6 7.89543 6.89543 7 8 7H16C17.1046 7 18 7.89543 18 9V17C18 18.1046 17.1046 19 16 19H8C6.89543 19 6 18.1046 6 17V9Z" stroke="#222222" stroke-width="2" stroke-linecap="round" stroke-linejoin="round"/>
<path d="M9 7V5C9 3.89543 9.89543 3 11 3H13C14.1046 3 15 3.89543 15 5V7" stroke="#222222" stroke-width="2" stroke-linecap="round" stroke-linejoin="round"/>
<path d="M10 11H14" stroke="#222222" stroke-width="2" stroke-linecap="round" stroke-linejoin="round"/>
<rect x="7" y="19" width="3" height="3" rx="0.5" fill="#222222"/>
<rect x="14" y="19" width="3" height="3" rx="0.5" fill="#222222"/>
</svg>
