<svg width="24" height="24" viewBox="0 0 24 24" fill="none" xmlns="http://www.w3.org/2000/svg">
<circle cx="12" cy="12" r="3" fill="#222222"/>
<path fill-rule="evenodd" clip-rule="evenodd" d="M12 18.0004C15.3137 18.0004 18 15.3141 18 12.0004C18 8.68669 15.3137 6.0004 12 6.0004C8.68632 6.0004 6.00003 8.68669 6.00003 12.0004C6.00003 15.3141 8.68632 18.0004 12 18.0004ZM12 19.0004C13.7174 19.0004 15.2903 18.382 16.5082 17.3556C16.5138 17.3617 16.5196 17.3678 16.5255 17.3737L17.9398 18.7879C18.1741 19.0222 18.554 19.0222 18.7883 18.7879C19.0226 18.5536 19.0226 18.1737 18.7883 17.9394L17.3741 16.5252C17.3681 16.5192 17.3621 16.5134 17.3559 16.5078C18.3819 15.29 19 13.7174 19 12.0004C19 10.283 18.3816 8.71013 17.3553 7.49223C17.3616 7.48638 17.3679 7.48038 17.3741 7.47421L18.7883 6.06C19.0226 5.82568 19.0226 5.44579 18.7883 5.21147C18.554 4.97716 18.1741 4.97716 17.9398 5.21147L16.5255 6.62568C16.5194 6.63187 16.5133 6.63816 16.5075 6.64455C15.2897 5.61859 13.717 5.0004 12 5.0004C10.283 5.0004 8.71042 5.61858 7.49262 6.64452C7.48677 6.63814 7.48076 6.63186 7.47458 6.62568L6.06037 5.21147C5.82605 4.97716 5.44615 4.97716 5.21184 5.21147C4.97752 5.44579 4.97752 5.82568 5.21184 6.06L6.62605 7.47421C6.63221 7.48037 6.63846 7.48636 6.64482 7.4922C5.61848 8.71011 5.00003 10.283 5.00003 12.0004C5.00003 13.7174 5.61821 15.29 6.64415 16.5078C6.63803 16.5134 6.63199 16.5192 6.62605 16.5252L5.21184 17.9394C4.97752 18.1737 4.97752 18.5536 5.21184 18.7879C5.44615 19.0222 5.82605 19.0222 6.06037 18.7879L7.47458 17.3737C7.4805 17.3678 7.48627 17.3618 7.49189 17.3557C8.7098 18.382 10.2827 19.0004 12 19.0004Z" fill="#7E869E" fill-opacity="0.25"/>
</svg>
