<svg width="24" height="24" viewBox="0 0 24 24" fill="none" xmlns="http://www.w3.org/2000/svg">
<path d="M4.35689 8.21554C4.73083 6.34584 6.37249 5 8.27922 5H15.7208C17.6275 5 19.2692 6.34584 19.6431 8.21554L20.2823 11.4116C20.6536 13.268 19.2337 15 17.3406 15H6.65941C4.76627 15 3.34639 13.268 3.71767 11.4117L4.35689 8.21554Z" stroke="#33363F" stroke-width="2" stroke-linecap="round" stroke-linejoin="round"/>
<path d="M5 18L19 18" stroke="#33363F" stroke-width="2" stroke-linecap="round" stroke-linejoin="round"/>
<rect x="11" y="8" width="2" height="2" rx="0.15" fill="#33363F"/>
<rect x="9" y="10" width="2" height="2" rx="0.15" fill="#33363F"/>
<rect x="13" y="10" width="2" height="2" rx="0.15" fill="#33363F"/>
<rect x="15" y="8" width="2" height="2" rx="0.15" fill="#33363F"/>
<rect x="7" y="8" width="2" height="2" rx="0.15" fill="#33363F"/>
</svg>
