<svg width="24" height="24" viewBox="0 0 24 24" fill="none" xmlns="http://www.w3.org/2000/svg">
<path d="M12 17V20" stroke="#33363F" stroke-width="2" stroke-linecap="round" stroke-linejoin="round"/>
<path d="M6.25528 15.3861L7.04464 16L7.04464 16L6.25528 15.3861ZM10.4444 10V9C10.1359 9 9.84455 9.14247 9.65509 9.38606L10.4444 10ZM17.7447 15.3861L16.9554 16L16.9554 16L17.7447 15.3861ZM13.5556 10L14.3449 9.38606C14.1554 9.14247 13.8641 9 13.5556 9V10ZM7.04464 16L11.2338 10.6139L9.65509 9.38606L5.46593 14.7721L7.04464 16ZM7.04464 16L7.04464 16L5.46593 14.7721C4.44415 16.0858 5.38034 18 7.04464 18V16ZM16.9554 16H7.04464V18H16.9554V16ZM16.9554 16L16.9554 16V18C18.6197 18 19.5558 16.0858 18.5341 14.7721L16.9554 16ZM12.7662 10.6139L16.9554 16L18.5341 14.7721L14.3449 9.38606L12.7662 10.6139ZM13.5556 9H10.4444V11H13.5556V9Z" fill="#33363F"/>
<path d="M7.70711 8.29289L12 4L16.2929 8.29289C16.9229 8.92286 16.4767 10 15.5858 10H8.41421C7.52331 10 7.07714 8.92286 7.70711 8.29289Z" stroke="#33363F" stroke-width="2" stroke-linecap="round" stroke-linejoin="round"/>
</svg>
