<svg width="24" height="24" viewBox="0 0 24 24" fill="none" xmlns="http://www.w3.org/2000/svg">
<path fill-rule="evenodd" clip-rule="evenodd" d="M11.5 20V15.5123C10.5459 15.5593 9.61252 15.7405 8.74991 16.0462C7.72013 16.411 6.82415 16.9414 6.12339 17.5902L5.44402 16.8564C6.25569 16.1049 7.27321 15.5084 8.41596 15.1036C9.38854 14.759 10.4353 14.559 11.5 14.5112V12.5H4V11.5H11.5V9.4888C10.3683 9.43803 9.25772 9.21526 8.23559 8.83054C7.0827 8.39661 6.06618 7.76551 5.27055 6.97754L5.97422 6.26702C6.65817 6.94438 7.5503 7.50412 8.58785 7.89464C9.494 8.2357 10.4846 8.43765 11.5 8.48769V4H12.5V8.48769C13.476 8.43959 14.4301 8.25106 15.3088 7.93279C16.3547 7.55397 17.2588 7.00408 17.9572 6.33385L18.6496 7.05535C17.8389 7.83342 16.8105 8.45246 15.6494 8.87301C14.6586 9.2319 13.5888 9.43996 12.5 9.4888V11.5H20V12.5H12.5V14.5112C13.6059 14.5608 14.6919 14.7747 15.695 15.1436C16.8302 15.5611 17.8367 16.169 18.6343 16.93L17.9441 17.6536C17.2567 16.9978 16.3719 16.4581 15.3498 16.0822C14.4604 15.755 13.4918 15.5612 12.5 15.5123V20H11.5Z" fill="#2A4157" fill-opacity="0.24"/>
<circle cx="12" cy="12" r="8" stroke="#222222"/>
</svg>
