<svg width="24" height="24" viewBox="0 0 24 24" fill="none" xmlns="http://www.w3.org/2000/svg">
<path fill-rule="evenodd" clip-rule="evenodd" d="M11 3.05511V8.94328C9.46342 8.76791 8.04833 8.19319 6.97374 7.32008C6.37674 6.83502 5.91152 6.28106 5.58308 5.68963C6.99611 4.25293 8.88792 3.28859 11 3.05511ZM13 3.05511V8.94328C14.5366 8.76791 15.9517 8.19319 17.0263 7.32008C17.6233 6.83502 18.0885 6.28106 18.4169 5.68963C17.0039 4.25294 15.1121 3.28859 13 3.05511ZM19.7168 7.36602C19.3207 7.91618 18.8406 8.4229 18.2874 8.87231C16.8355 10.0521 14.9677 10.7711 13 10.9537L13 13.0462C13.8146 13.1218 14.6157 13.2897 15.3804 13.547C16.4564 13.9091 17.4455 14.4436 18.2874 15.1277C18.837 15.5742 19.3182 16.08 19.717 16.6339C20.5315 15.2804 21 13.695 21 12.0002C21 10.3052 20.5314 8.71967 19.7168 7.36602ZM18.417 18.3107C18.0861 17.7154 17.6183 17.161 17.0263 16.6799C16.3825 16.1569 15.6078 15.7338 14.7425 15.4426C14.1847 15.2548 13.599 15.1252 13 15.0568V20.9453C15.1121 20.7118 17.004 19.7474 18.417 18.3107ZM11 20.9453L11 15.0568C10.401 15.1252 9.81528 15.2548 9.2575 15.4426C8.39222 15.7338 7.61751 16.1569 6.97374 16.6799C6.38168 17.161 5.91388 17.7154 5.58301 18.3107C6.99604 19.7474 8.88788 20.7118 11 20.9453ZM4.28297 16.6339C4.68176 16.08 5.16302 15.5742 5.71255 15.1277C6.55451 14.4436 7.54363 13.9091 8.61956 13.547C9.38428 13.2897 10.1854 13.1218 11 13.0462V10.9537C9.03233 10.7711 7.16455 10.0521 5.71255 8.87231C5.15944 8.4229 4.67933 7.91618 4.28321 7.36602C3.46856 8.71966 3 10.3052 3 12.0002C3 13.695 3.46846 15.2804 4.28297 16.6339Z" fill="#33363F"/>
</svg>
