<svg width="24" height="24" viewBox="0 0 24 24" fill="none" xmlns="http://www.w3.org/2000/svg">
<path fill-rule="evenodd" clip-rule="evenodd" d="M11.5 14.5134V20H12.5V14.5134C13.5749 14.571 14.6213 14.8138 15.5682 15.2245C16.6249 15.6828 17.5221 16.3345 18.1918 17.1184L18.9522 16.4689C18.1744 15.5585 17.1489 14.82 15.9661 14.3071C14.8902 13.8404 13.7079 13.5706 12.5 13.5121V10.4879C13.7079 10.4294 14.8902 10.1596 15.9661 9.69294C17.1489 9.17999 18.1744 8.44151 18.9522 7.53114L18.1918 6.8816C17.5221 7.66555 16.6249 8.31725 15.5682 8.77551C14.6213 9.18622 13.5749 9.42899 12.5 9.48661V4H11.5V9.48661C10.5106 9.43357 9.54338 9.22353 8.65448 8.86827C7.57876 8.43834 6.6541 7.8104 5.95155 7.04361L5.21423 7.71916C6.02747 8.60675 7.08131 9.31643 8.28335 9.79685C9.29283 10.2003 10.3864 10.434 11.5 10.4879V13.5121C10.3864 13.566 9.29283 13.7997 8.28335 14.2031C7.08131 14.6836 6.02747 15.3932 5.21423 16.2808L5.95155 16.9564C6.6541 16.1896 7.57876 15.5617 8.65448 15.1317C9.54338 14.7765 10.5106 14.5664 11.5 14.5134Z" fill="#2A4157" fill-opacity="0.24"/>
<circle cx="12" cy="12" r="8" stroke="#222222" stroke-width="1.2"/>
</svg>
