<svg width="24" height="24" viewBox="0 0 24 24" fill="none" xmlns="http://www.w3.org/2000/svg">
<path fill-rule="evenodd" clip-rule="evenodd" d="M11 3.0553V7.94802C10.3929 7.88458 9.79964 7.76365 9.2352 7.5883C8.36352 7.3175 7.58625 6.92498 6.94314 6.44264C6.52008 6.12534 6.16335 5.77553 5.87594 5.40518C7.25272 4.12616 9.0306 3.27301 11 3.0553ZM13 3.0553V7.94802C13.6071 7.88458 14.2003 7.76365 14.7648 7.5883C15.6365 7.3175 16.4137 6.92498 17.0568 6.44264C17.4799 6.12534 17.8366 5.77553 18.1241 5.40517C16.7473 4.12616 14.9694 3.273 13 3.0553ZM19.4465 6.94412C19.0976 7.34371 18.6984 7.71149 18.2568 8.04264C17.4142 8.67461 16.4277 9.166 15.3581 9.49826C14.6 9.73377 13.8065 9.88744 13 9.95701V11L20.945 11C20.78 9.50766 20.2501 8.1253 19.4465 6.94412ZM20.9451 13L13 13V14.043C13.8065 14.1126 14.6 14.2662 15.3581 14.5017C16.4277 14.834 17.4142 15.3254 18.2568 15.9574C18.6985 16.2886 19.0979 16.6565 19.4468 17.0562C20.2503 15.8749 20.7802 14.4924 20.9451 13ZM18.1244 18.5953C17.8369 18.2247 17.4801 17.8748 17.0568 17.5574C16.4137 17.075 15.6365 16.6825 14.7648 16.4117C14.2003 16.2364 13.6071 16.1154 13 16.052V20.9454C14.9695 20.7277 16.7476 19.8744 18.1244 18.5953ZM11 20.9454V16.052C10.3929 16.1154 9.79964 16.2364 9.2352 16.4117C8.36352 16.6825 7.58625 17.075 6.94314 17.5574C6.51991 17.8748 6.16308 18.2247 5.8756 18.5952C7.25243 19.8744 9.03044 20.7277 11 20.9454ZM4.55322 17.0562C4.90213 16.6565 5.30149 16.2886 5.74314 15.9574C6.58576 15.3254 7.57233 14.834 8.64185 14.5017C9.39995 14.2662 10.1935 14.1126 11 14.043V13L3.05489 13C3.2198 14.4924 3.74965 15.8749 4.55322 17.0562ZM3.05497 11L11 11V9.95701C10.1935 9.88744 9.39995 9.73377 8.64185 9.49826C7.57233 9.166 6.58576 8.67461 5.74314 8.04264C5.30161 7.71149 4.90234 7.34371 4.55351 6.94412C3.74991 8.1253 3.22 9.50766 3.05497 11Z" fill="#33363F"/>
</svg>
