<svg viewBox="0 0 24 24" fill="none" xmlns="http://www.w3.org/2000/svg">
<path d="M12 13.5V13.5C12.6543 13.5 13.2964 13.6778 13.8575 14.0145L14.3691 14.3215C16.5296 15.6178 19.2816 15.3608 21.1647 13.6869L22.5 12.5" stroke="#33363F" stroke-linecap="round"/>
<path d="M12 13.5V13.5C11.3457 13.5 10.7036 13.6778 10.1425 14.0145L9.63085 14.3215C7.47039 15.6178 4.71838 15.3608 2.83527 13.6869L1.5 12.5" stroke="#33363F" stroke-linecap="round"/>
<path fill-rule="evenodd" clip-rule="evenodd" d="M5 11C5 7.13401 8.13401 4 12 4C15.866 4 19 7.13401 19 11V13H20V11C20 6.58172 16.4183 3 12 3C7.58172 3 4 6.58172 4 11V13H5V11ZM5.00818 17H4.00624C4.12654 19.2294 5.97234 21 8.23171 21H15.7683C18.0277 21 19.8735 19.2294 19.9938 17H18.9918C18.873 18.6767 17.4752 20 15.7683 20H8.23171C6.5248 20 5.12696 18.6767 5.00818 17Z" fill="#33363F"/>
<rect x="14" y="7" width="1" height="1" rx="0.5" fill="#33363F"/>
<rect x="11" y="6" width="1" height="1" rx="0.5" fill="#33363F"/>
<rect x="16" y="9" width="1" height="1" rx="0.5" fill="#33363F"/>
</svg>
