<svg viewBox="0 0 24 24" fill="none" xmlns="http://www.w3.org/2000/svg">
<path d="M12 12.5V12.5C12.6543 12.5 13.2964 12.6778 13.8575 13.0145L14.3691 13.3215C16.5296 14.6178 19.2816 14.3608 21.1647 12.6869L22.5 11.5" stroke="#33363F" stroke-width="2" stroke-linecap="round"/>
<path d="M12 12.5V12.5C11.3457 12.5 10.7036 12.6778 10.1425 13.0145L9.63085 13.3215C7.47039 14.6178 4.71838 14.3608 2.83527 12.6869L1.5 11.5" stroke="#33363F" stroke-width="2" stroke-linecap="round"/>
<path fill-rule="evenodd" clip-rule="evenodd" d="M5.28988 10C6.15043 7.10851 8.82898 5 12 5C15.171 5 17.8496 7.10851 18.7101 10H20.777C19.8675 5.99202 16.2832 3 12 3C7.71683 3 4.13247 5.99202 3.22302 10H5.28988ZM5 16H3V16.4878C3 18.9798 5.02018 21 7.5122 21H16.4878C18.9798 21 21 18.9798 21 16.4878V16H19V16.4878C19 17.8753 17.8753 19 16.4878 19H7.5122C6.12475 19 5 17.8753 5 16.4878V16Z" fill="#33363F"/>
</svg>
