<svg viewBox="0 0 24 24" fill="none" xmlns="http://www.w3.org/2000/svg">
<path fill-rule="evenodd" clip-rule="evenodd" d="M7.00004 15C6.44775 15 5.9913 15.4511 6.0823 15.9958C6.55665 18.8356 9.02558 21 12 21C14.9745 21 17.4434 18.8356 17.9178 15.9958C18.0088 15.4511 17.5523 15 17 15H7.00004Z" fill="#222222"/>
<path d="M16.7577 11.3438L15.9653 11.9537L16.7577 11.3438ZM7.24227 11.3438L6.4498 10.7339L7.24227 11.3438ZM7 15C7 13.8522 7.38554 12.7973 8.03475 11.9537L6.4498 10.7339C5.54093 11.9149 5 13.3957 5 15H7ZM12 20C9.23858 20 7 17.7614 7 15H5C5 18.866 8.13401 22 12 22V20ZM17 15C17 17.7614 14.7614 20 12 20V22C15.866 22 19 18.866 19 15H17ZM15.9653 11.9537C16.6145 12.7973 17 13.8522 17 15H19C19 13.3957 18.4591 11.9149 17.5502 10.7339L15.9653 11.9537ZM16.0252 10H7.9748V12H16.0252V10ZM17.5502 10.7339C17.1635 10.2314 16.5786 10 16.0252 10V12C16.0299 12 16.0267 12.0012 16.0159 11.9962C16.0039 11.9907 15.9838 11.9778 15.9653 11.9537L17.5502 10.7339ZM8.03475 11.9537C8.01623 11.9778 7.99606 11.9907 7.98405 11.9962C7.97333 12.0012 7.97009 12 7.9748 12V10C7.42143 10 6.83652 10.2314 6.4498 10.7339L8.03475 11.9537Z" fill="#222222"/>
<path d="M14 11L15.7486 6.62861C15.9004 6.24895 16.2681 6 16.677 6H19" stroke="#222222" stroke-width="2" stroke-linecap="round" stroke-linejoin="round"/>
<path d="M9 11L7.5 3.5" stroke="#222222" stroke-width="2" stroke-linecap="round" stroke-linejoin="round"/>
</svg>
