<svg width="24" height="24" viewBox="0 0 24 24" fill="none" xmlns="http://www.w3.org/2000/svg">
<path d="M17 12L12.2622 20.528C12.1463 20.7367 12.0883 20.8411 12 20.8411C11.9117 20.8411 11.8537 20.7367 11.7378 20.528L7 12" stroke="#33363F" stroke-width="2" stroke-linecap="round"/>
<path d="M6.23276 11.2586L6.50275 10.2957H6.50275L6.23276 11.2586ZM17.7672 11.2586L17.4972 10.2957L17.7672 11.2586ZM17.5433 7.01256L16.6092 7.36969L16.6092 7.3697L17.5433 7.01256ZM14.2961 3.49478L14.7055 2.58243V2.58243L14.2961 3.49478ZM9.7039 3.49478L9.2945 2.58243V2.58243L9.7039 3.49478ZM7.75736 4.90381L7.02256 4.22553V4.22553L7.75736 4.90381ZM6.45672 7.01256L5.52267 6.65542L5.52267 6.65542L6.45672 7.01256ZM17.9061 7.81233L17.4339 8.69379L17.9061 7.81233ZM17.741 7.61089L18.7039 7.34092L17.741 7.61089ZM17.7885 7.73566L17.0085 8.36146L17.7885 7.73566ZM6.09386 7.81233L5.62159 6.93088L6.09386 7.81233ZM6.25899 7.61089L5.29612 7.34092L6.25899 7.61089ZM6.21154 7.73567L6.99153 8.36146L6.21154 7.73567ZM5.62159 6.93088C4.7118 7.41833 4 8.36579 4 9.56006H6C6 9.2148 6.20139 8.88921 6.56613 8.69379L5.62159 6.93088ZM4 9.56006C4 10.738 4.73297 11.8766 5.96276 12.2214L6.50275 10.2957C6.22996 10.2192 6 9.94263 6 9.56006H4ZM5.96276 12.2214C7.73588 12.7186 9.80297 13 12 13V11C9.96724 11 8.08334 10.7389 6.50275 10.2957L5.96276 12.2214ZM12 13C14.197 13 16.2641 12.7186 18.0372 12.2214L17.4972 10.2957C15.9167 10.7389 14.0328 11 12 11V13ZM18.0372 12.2214C19.267 11.8766 20 10.738 20 9.56006H18C18 9.94263 17.77 10.2192 17.4972 10.2957L18.0372 12.2214ZM20 9.56006C20 8.36579 19.2882 7.41833 18.3784 6.93088L17.4339 8.69379C17.7986 8.88921 18 9.2148 18 9.56006H20ZM18.7039 7.34092C18.6389 7.10918 18.5633 6.88039 18.4773 6.65542L16.6092 7.3697C16.6732 7.5371 16.7296 7.7077 16.7781 7.88086L18.7039 7.34092ZM18.4773 6.65542C18.1317 5.75144 17.6232 4.92514 16.9774 4.22553L15.5078 5.58209C15.9763 6.08964 16.3518 6.69644 16.6092 7.36969L18.4773 6.65542ZM16.9774 4.22553C16.3315 3.52575 15.5603 2.96599 14.7055 2.58243L13.8867 4.40714C14.4878 4.67689 15.0395 5.0747 15.5078 5.58209L16.9774 4.22553ZM14.7055 2.58243C13.8505 2.19875 12.9309 2 12 2V4C12.645 4 13.2858 4.13751 13.8867 4.40714L14.7055 2.58243ZM12 2C11.0691 2 10.1495 2.19875 9.2945 2.58243L10.1133 4.40714C10.7142 4.13751 11.355 4 12 4V2ZM9.2945 2.58243C8.43973 2.96599 7.6685 3.52575 7.02256 4.22553L8.49216 5.58209C8.96052 5.0747 9.51217 4.67689 10.1133 4.40714L9.2945 2.58243ZM7.02256 4.22553C6.37676 4.92514 5.86831 5.75144 5.52267 6.65542L7.39077 7.36969C7.64819 6.69644 8.02365 6.08964 8.49216 5.58209L7.02256 4.22553ZM5.52267 6.65542C5.43665 6.88039 5.3611 7.10918 5.29612 7.34092L7.22186 7.88086C7.27041 7.7077 7.32677 7.5371 7.39077 7.36969L5.52267 6.65542ZM18.3784 6.93088C18.3603 6.92119 18.3522 6.91681 18.3464 6.91364C18.3406 6.91043 18.3478 6.91418 18.3606 6.92225C18.3829 6.9362 18.477 6.99585 18.5685 7.10987L17.0085 8.36146C17.1191 8.49937 17.2392 8.57976 17.2991 8.61728C17.3533 8.65123 17.4131 8.68268 17.4339 8.69379L18.3784 6.93088ZM16.7781 7.88086C16.7837 7.90077 16.8015 7.96627 16.8235 8.0275C16.8492 8.0991 16.9017 8.22839 17.0085 8.36146L18.5685 7.10987C18.656 7.21905 18.6943 7.31959 18.7058 7.35159C18.7115 7.36763 18.7142 7.37705 18.7127 7.37212C18.7113 7.36714 18.7091 7.35967 18.7039 7.34092L16.7781 7.88086ZM6.56613 8.69379C6.58686 8.68268 6.6467 8.65123 6.70091 8.61728C6.76082 8.57976 6.88088 8.49937 6.99153 8.36146L5.43155 7.10987C5.52303 6.99585 5.6171 6.9362 5.63937 6.92225C5.65224 6.91419 5.65936 6.91043 5.65356 6.91364C5.64781 6.91682 5.63968 6.92119 5.62159 6.93088L6.56613 8.69379ZM5.29612 7.34092C5.29087 7.35967 5.28875 7.36714 5.28728 7.37212C5.28582 7.37705 5.28846 7.36763 5.29422 7.35159C5.30571 7.31959 5.34395 7.21905 5.43155 7.10987L6.99153 8.36146C7.09829 8.22839 7.15083 8.0991 7.17654 8.0275C7.19853 7.96627 7.21628 7.90077 7.22186 7.88086L5.29612 7.34092Z" fill="#33363F"/>
<path d="M17.7321 7.84485C16.8643 8.07198 15.5 8.5 14 8.5" stroke="#33363F" stroke-width="2" stroke-linecap="round"/>
</svg>
