<svg viewBox="0 0 24 24" fill="none" xmlns="http://www.w3.org/2000/svg">
<path d="M17 12L12.2622 20.528C12.1463 20.7367 12.0883 20.8411 12 20.8411C11.9117 20.8411 11.8537 20.7367 11.7378 20.528L7 12" stroke="#33363F" stroke-linecap="round"/>
<path d="M6.23276 11.2586L6.09776 11.74H6.09776L6.23276 11.2586ZM17.7672 11.2586L17.6322 10.7771L17.7672 11.2586ZM17.5433 7.01256L17.0763 7.19113L17.0763 7.19113L17.5433 7.01256ZM14.2961 3.49478L14.5008 3.03861L14.5008 3.03861L14.2961 3.49478ZM9.7039 3.49478L9.4992 3.03861V3.03861L9.7039 3.49478ZM7.75736 4.90381L7.38996 4.56467H7.38996L7.75736 4.90381ZM6.45672 7.01256L5.9897 6.83399L6.45672 7.01256ZM17.9061 7.81233L17.67 8.25306L17.9061 7.81233ZM17.741 7.61089L18.2224 7.47591L17.741 7.61089ZM17.7885 7.73566L17.3985 8.04856L17.7885 7.73566ZM6.09386 7.81233L6.33 8.25306L6.09386 7.81233ZM6.21154 7.73566L5.82154 7.42277L6.21154 7.73566ZM5.85773 7.37161C5.0842 7.78605 4.5 8.57805 4.5 9.56006H5.5C5.5 9.00255 5.829 8.52149 6.33 8.25306L5.85773 7.37161ZM4.5 9.56006C4.5 10.5392 5.10722 11.4622 6.09776 11.74L6.36776 10.7771C5.85571 10.6335 5.5 10.1415 5.5 9.56006H4.5ZM6.09776 11.74C7.82274 12.2237 9.84403 12.5 12 12.5V11.5C9.92617 11.5 7.99647 11.2338 6.36775 10.7771L6.09776 11.74ZM12 12.5C14.156 12.5 16.1773 12.2237 17.9022 11.74L17.6322 10.7771C16.0035 11.2338 14.0738 11.5 12 11.5V12.5ZM17.9022 11.74C18.8928 11.4622 19.5 10.5392 19.5 9.56006H18.5C18.5 10.1415 18.1443 10.6335 17.6322 10.7771L17.9022 11.74ZM19.5 9.56006C19.5 8.57805 18.9158 7.78605 18.1423 7.37161L17.67 8.25306C18.171 8.52149 18.5 9.00255 18.5 9.56006H19.5ZM18.2224 7.47591C18.1616 7.25881 18.0908 7.04457 18.0103 6.83399L17.0763 7.19113C17.1458 7.37292 17.2069 7.55807 17.2596 7.74587L18.2224 7.47591ZM18.0103 6.83399C17.6867 5.98769 17.2115 5.21626 16.61 4.56467L15.8752 5.24295C16.3881 5.79851 16.7968 6.46019 17.0763 7.19113L18.0103 6.83399ZM16.61 4.56467C16.0085 3.91299 15.2922 3.39372 14.5008 3.03861L14.0914 3.95096C14.7559 4.24916 15.3625 4.68746 15.8752 5.24295L16.61 4.56467ZM14.5008 3.03861C13.7093 2.68344 12.8594 2.5 12 2.5V3.5C12.7165 3.5 13.427 3.65282 14.0914 3.95096L14.5008 3.03861ZM12 2.5C11.1406 2.5 10.2907 2.68344 9.4992 3.03861L9.9086 3.95096C10.573 3.65282 11.2835 3.5 12 3.5V2.5ZM9.4992 3.03861C8.70784 3.39372 7.99151 3.91299 7.38996 4.56467L8.12476 5.24295C8.63752 4.68746 9.24406 4.24916 9.9086 3.95096L9.4992 3.03861ZM7.38996 4.56467C6.78848 5.21626 6.31328 5.98769 5.9897 6.83399L6.92375 7.19113C7.20322 6.46019 7.61193 5.79851 8.12476 5.24295L7.38996 4.56467ZM5.9897 6.83399C5.90918 7.04457 5.83843 7.25881 5.77756 7.47591L6.74043 7.74587C6.79308 7.55807 6.85424 7.37292 6.92375 7.19113L5.9897 6.83399ZM18.1423 7.37161C18.125 7.36236 18.1138 7.35633 18.1046 7.35125C18.0954 7.34616 18.0935 7.34492 18.0952 7.346C18.097 7.34709 18.1375 7.37173 18.1785 7.42277L17.3985 8.04856C17.4586 8.12349 17.5251 8.16887 17.5645 8.19352C17.601 8.21639 17.6432 8.23871 17.67 8.25306L18.1423 7.37161ZM17.2596 7.74587C17.2671 7.77265 17.2795 7.818 17.294 7.85852C17.3104 7.90422 17.3403 7.97606 17.3985 8.04856L18.1785 7.42277C18.2175 7.47139 18.233 7.51447 18.2352 7.52057C18.2363 7.52364 18.2358 7.52272 18.2332 7.51376C18.2305 7.50478 18.2274 7.49369 18.2224 7.47591L17.2596 7.74587ZM6.33 8.25306C6.35678 8.23871 6.39901 8.21639 6.43553 8.19352C6.47489 8.16887 6.54142 8.12349 6.60153 8.04856L5.82154 7.42277C5.8625 7.37173 5.90303 7.34709 5.90476 7.346C5.90649 7.34492 5.90461 7.34616 5.89541 7.35125C5.88623 7.35633 5.87498 7.36236 5.85773 7.37161L6.33 8.25306ZM5.77756 7.47591C5.77257 7.49369 5.76945 7.50478 5.7668 7.51376C5.76415 7.52272 5.7637 7.52364 5.7648 7.52057C5.76699 7.51446 5.78254 7.47139 5.82154 7.42277L6.60153 8.04856C6.65971 7.97606 6.68955 7.90422 6.70596 7.85852C6.72051 7.818 6.73292 7.77265 6.74043 7.74587L5.77756 7.47591Z" fill="#33363F"/>
<path d="M17.7321 7.84485C16.8643 8.07198 15.5 8.5 14 8.5" stroke="#33363F" stroke-linecap="round"/>
</svg>
