<svg viewBox="0 0 24 24" fill="none" xmlns="http://www.w3.org/2000/svg">
<circle cx="12" cy="14" r="7.5" stroke="#33363F" stroke-linecap="round"/>
<path d="M15.4951 2.50391C15.4874 2.92959 15.4639 3.42565 15.3818 3.91797C15.2775 4.54389 15.091 5.1003 14.7852 5.49023L14.6465 5.64648C14.2574 6.03561 13.6332 6.26261 12.918 6.38184C12.4257 6.46389 11.9296 6.48744 11.5039 6.49512C11.5116 6.06965 11.5362 5.57398 11.6182 5.08203C11.7225 4.4561 11.909 3.89969 12.2148 3.50977L12.3535 3.35352C12.7427 2.96439 13.3668 2.73739 14.082 2.61816C14.574 2.53617 15.0697 2.5116 15.4951 2.50391Z" stroke="#33363F" stroke-linecap="round"/>
<circle cx="9" cy="15" r="1" fill="#33363F"/>
<circle cx="14.5" cy="15.5" r="1.5" fill="#33363F"/>
<circle cx="12" cy="18" r="1" fill="#33363F"/>
</svg>
