<svg width="24" height="24" viewBox="0 0 24 24" fill="none" xmlns="http://www.w3.org/2000/svg">
<path d="M4 4V3H3V4H4ZM11.2929 12.7071C11.6834 13.0976 12.3166 13.0976 12.7071 12.7071C13.0976 12.3166 13.0976 11.6834 12.7071 11.2929L11.2929 12.7071ZM5 10V4H3V10H5ZM4 5H10V3H4V5ZM3.29289 4.70711L11.2929 12.7071L12.7071 11.2929L4.70711 3.29289L3.29289 4.70711Z" fill="#33363F"/>
<path d="M4 20V21H3V20H4ZM11.2929 11.2929C11.6834 10.9024 12.3166 10.9024 12.7071 11.2929C13.0976 11.6834 13.0976 12.3166 12.7071 12.7071L11.2929 11.2929ZM5 14V20H3V14H5ZM4 19H10V21H4V19ZM3.29289 19.2929L11.2929 11.2929L12.7071 12.7071L4.70711 20.7071L3.29289 19.2929Z" fill="#33363F"/>
<path d="M20 4V3H21V4H20ZM12.7071 12.7071C12.3166 13.0976 11.6834 13.0976 11.2929 12.7071C10.9024 12.3166 10.9024 11.6834 11.2929 11.2929L12.7071 12.7071ZM19 10V4H21V10H19ZM20 5H14V3H20V5ZM20.7071 4.70711L12.7071 12.7071L11.2929 11.2929L19.2929 3.29289L20.7071 4.70711Z" fill="#33363F"/>
<path d="M20 20V21H21V20H20ZM12.7071 11.2929C12.3166 10.9024 11.6834 10.9024 11.2929 11.2929C10.9024 11.6834 10.9024 12.3166 11.2929 12.7071L12.7071 11.2929ZM19 14V20H21V14H19ZM20 19H14V21H20V19ZM20.7071 19.2929L12.7071 11.2929L11.2929 12.7071L19.2929 20.7071L20.7071 19.2929Z" fill="#33363F"/>
</svg>
