<svg width="24" height="24" viewBox="0 0 24 24" fill="none" xmlns="http://www.w3.org/2000/svg">
<path d="M12 3L12.6247 2.21913L12 1.71938L11.3753 2.21913L12 3ZM11 9C11 9.55228 11.4477 10 12 10C12.5523 10 13 9.55228 13 9H11ZM16.6247 5.41913L12.6247 2.21913L11.3753 3.78087L15.3753 6.98087L16.6247 5.41913ZM11.3753 2.21913L7.3753 5.41913L8.6247 6.98087L12.6247 3.78087L11.3753 2.21913ZM11 3V9H13V3H11Z" fill="#33363F"/>
<path d="M21 12L21.7809 12.6247L22.2806 12L21.7809 11.3753L21 12ZM15 11C14.4477 11 14 11.4477 14 12C14 12.5523 14.4477 13 15 13L15 11ZM18.5809 16.6247L21.7809 12.6247L20.2191 11.3753L17.0191 15.3753L18.5809 16.6247ZM21.7809 11.3753L18.5809 7.3753L17.0191 8.62469L20.2191 12.6247L21.7809 11.3753ZM21 11L15 11L15 13L21 13L21 11Z" fill="#33363F"/>
<path d="M12 21L12.6247 21.7809L12 22.2806L11.3753 21.7809L12 21ZM11 15C11 14.4477 11.4477 14 12 14C12.5523 14 13 14.4477 13 15H11ZM16.6247 18.5809L12.6247 21.7809L11.3753 20.2191L15.3753 17.0191L16.6247 18.5809ZM11.3753 21.7809L7.3753 18.5809L8.6247 17.0191L12.6247 20.2191L11.3753 21.7809ZM11 21V15H13V21H11Z" fill="#33363F"/>
<path d="M3 12L2.21913 12.6247L1.71937 12L2.21913 11.3753L3 12ZM9 11C9.55228 11 10 11.4477 10 12C10 12.5523 9.55228 13 9 13L9 11ZM5.41913 16.6247L2.21913 12.6247L3.78087 11.3753L6.98087 15.3753L5.41913 16.6247ZM2.21913 11.3753L5.41913 7.37531L6.98087 8.6247L3.78087 12.6247L2.21913 11.3753ZM3 11L9 11L9 13L3 13L3 11Z" fill="#33363F"/>
</svg>
