<svg width="24" height="24" viewBox="0 0 24 24" fill="none" xmlns="http://www.w3.org/2000/svg">
<path d="M12 20L11.4 20.8L12 21.25L12.6 20.8L12 20ZM13 8C13 7.44772 12.5523 7 12 7C11.4477 7 11 7.44772 11 8H13ZM7.4 17.8L11.4 20.8L12.6 19.2L8.6 16.2L7.4 17.8ZM12.6 20.8L16.6 17.8L15.4 16.2L11.4 19.2L12.6 20.8ZM13 20V8H11V20H13Z" fill="#33363F"/>
<path d="M8 13V13C7.07003 13 6.60504 13 6.22354 12.8978C5.18827 12.6204 4.37962 11.8117 4.10222 10.7765C4 10.395 4 9.92997 4 9V8C4 6.13077 4 5.19615 4.40192 4.5C4.66523 4.04394 5.04394 3.66523 5.5 3.40192C6.19615 3 7.13077 3 9 3H15C16.8692 3 17.8038 3 18.5 3.40192C18.9561 3.66523 19.3348 4.04394 19.5981 4.5C20 5.19615 20 6.13077 20 8V9C20 9.92997 20 10.395 19.8978 10.7765C19.6204 11.8117 18.8117 12.6204 17.7765 12.8978C17.395 13 16.93 13 16 13V13" stroke="#33363F" stroke-width="2" stroke-linecap="round"/>
</svg>
