<svg width="24" height="24" viewBox="0 0 24 24" fill="none" xmlns="http://www.w3.org/2000/svg">
<path d="M8.51123 9.82257C6.94951 10.1315 5.65247 10.6567 4.98697 11.3755C4.63794 11.7525 4.44089 12.2098 4.51554 12.7078C4.58766 13.1889 4.89774 13.5968 5.31745 13.9268C6.14771 14.5797 7.55632 15.0497 9.20709 15.2982C10.8758 15.5494 12.7425 15.5666 14.4432 15.3471C16.1296 15.1294 17.5914 14.6869 18.4978 14.0626C18.9523 13.7496 19.3041 13.3652 19.4404 12.9056C19.5848 12.4186 19.4601 11.9422 19.1483 11.5355C18.8491 11.1453 18.3834 10.8211 17.8305 10.556C17.2711 10.2877 16.5879 10.0634 15.8145 9.89103C14.2687 9.54652 12.4305 9.42492 10.6596 9.54508" stroke="#33363F"/>
<path d="M4.5 16.5C4.5 17.0264 4.79171 17.4779 5.20634 17.8354C5.62165 18.1935 6.19959 18.4949 6.88208 18.7386C7.56929 18.9841 8.37387 19.175 9.24805 19.3043C10.1232 19.4338 11.058 19.5 12 19.5C12.942 19.5 13.8768 19.4338 14.752 19.3043C15.6261 19.175 16.4307 18.9841 17.1179 18.7386C17.8004 18.4949 18.3784 18.1935 18.7937 17.8354C19.2083 17.4779 19.5 17.0264 19.5 16.5" stroke="#33363F"/>
<path d="M19.5 16.5V12.5M4.5 16.5V12.5" stroke="#33363F"/>
<path d="M8.5 11.5V9.5C8.5 7.29086 10.2909 5.5 12.5 5.5H17.5C18.0523 5.5 18.5 5.94772 18.5 6.5V6.5C18.5 7.05228 18.0523 7.5 17.5 7.5H12.5C11.3954 7.5 10.5 8.39543 10.5 9.5V11.5" stroke="#33363F" stroke-linecap="round"/>
</svg>
