<svg version="1.1" id="Layer_1" xmlns="http://www.w3.org/2000/svg" xmlns:xlink="http://www.w3.org/1999/xlink" x="0px" y="0px"
	 width="100%" viewBox="0 0 584 138" enable-background="new 0 0 584 138" xml:space="preserve">
<path fill="#F1F4FB" opacity="1.000000" stroke="none" 
	d="
M388.000000,139.000000 
	C258.711273,139.000000 129.922531,139.000000 1.066900,139.000000 
	C1.066900,93.060608 1.066900,47.121090 1.066900,1.090787 
	C195.666641,1.090787 390.333313,1.090787 584.965820,1.090787 
	C584.965820,47.077400 584.965820,93.038719 584.965820,139.000000 
	C519.454468,139.000000 453.977234,139.000000 388.000000,139.000000 
M297.007538,70.172501 
	C296.584747,71.247345 296.161957,72.322189 295.777252,73.300171 
	C290.097137,63.143242 284.347321,53.072235 278.834320,42.873230 
	C277.213684,39.875057 276.314301,36.493160 274.991119,33.326077 
	C273.929504,30.784937 273.371704,27.541430 271.470825,25.931259 
	C264.662506,20.164181 249.754227,24.936483 248.013336,33.652004 
	C246.627319,40.590897 246.265366,47.850918 246.391846,54.951584 
	C246.673203,70.749741 247.392029,86.545799 248.259201,102.324768 
	C248.567123,107.927933 249.251846,113.642281 250.790482,119.011894 
	C252.635727,125.451530 257.121887,126.808479 263.345856,124.158150 
	C269.239960,121.648293 271.268341,116.498840 271.835114,110.998505 
	C272.788635,101.745476 272.947083,92.409515 273.396423,83.106339 
	C273.494934,81.066360 273.410858,79.017578 273.410858,76.972847 
	C275.748810,79.774033 276.929016,82.675278 278.169159,85.550705 
	C279.418671,88.447853 280.557892,91.410683 282.048279,94.181870 
	C284.639404,98.999794 287.076447,103.974442 290.280243,108.371811 
	C295.148224,115.053352 298.901154,114.806641 302.961212,107.720726 
	C305.674377,102.985527 307.871033,97.934235 310.039825,92.912514 
	C312.575928,87.040283 314.830475,81.046440 317.207184,75.105362 
	C318.510132,81.174904 318.294220,87.153610 319.194580,92.959221 
	C320.199249,99.437798 321.690491,105.965523 324.068329,112.042061 
	C324.955200,114.308418 328.994019,116.660973 331.501648,116.563248 
	C333.572510,116.482552 336.557709,113.166389 337.290497,110.728622 
	C339.093933,104.729126 340.470642,98.451157 340.875336,92.211014 
	C341.877502,76.758377 342.465332,61.268192 342.738708,45.784607 
	C342.837189,40.207249 341.994232,34.509026 340.773865,29.046238 
	C339.830017,24.821177 336.677002,21.808645 332.150482,21.014492 
	C322.396545,19.303207 315.914246,22.366814 310.905273,31.074060 
	C309.339233,33.796417 307.868835,36.643894 306.865601,39.607079 
	C303.512238,49.511921 300.390228,59.495094 297.007538,70.172501 
M352.781189,90.749756 
	C353.472473,97.695366 354.242859,104.634392 354.821930,111.589348 
	C355.115112,115.111343 357.099426,116.636513 360.313568,116.607826 
	C365.452789,116.561958 370.647430,116.686333 375.716766,115.993385 
	C390.306122,113.999130 403.771271,109.181984 414.238464,98.257507 
	C423.186432,88.918610 422.616486,77.369194 412.794495,68.958519 
	C409.437836,66.084175 405.455872,63.940033 402.035980,61.647541 
	C405.673615,55.377697 409.963165,49.203373 413.005096,42.465763 
	C418.030121,31.335705 414.726135,22.078203 403.603638,17.395472 
	C388.753326,11.143255 373.878387,12.049304 359.734711,20.178074 
	C356.062195,22.288786 353.958496,25.391087 353.890533,29.914217 
	C353.590363,49.881073 353.137207,69.845627 352.781189,90.749756 
M171.169983,38.737030 
	C158.625198,63.342327 162.197800,90.256340 180.341415,107.829399 
	C193.750397,120.816719 210.218185,120.223190 221.018921,104.951401 
	C236.093384,83.636719 241.084641,59.872967 233.481003,34.368755 
	C229.734756,21.803108 217.310608,13.576582 204.382507,14.927547 
	C189.269440,16.506836 179.105255,25.566874 171.169983,38.737030 
M59.764706,96.813454 
	C56.006519,102.029411 51.571053,102.560059 45.153351,98.497261 
	C40.681274,95.666168 36.340393,92.614723 31.768251,89.958946 
	C28.080215,87.816719 24.661463,89.164185 21.783707,91.856743 
	C18.643726,94.794640 17.561537,98.739273 19.739838,102.273140 
	C21.824503,105.655098 24.694553,109.399223 28.132067,110.916611 
	C34.390789,113.679321 41.220367,115.734818 48.001030,116.597176 
	C59.282101,118.031883 70.310287,116.272804 79.627029,109.042305 
	C91.361900,99.935135 91.667534,87.743362 79.688126,79.195061 
	C71.415710,73.292000 61.901703,69.155640 53.163055,63.865520 
	C49.850899,61.860435 46.559776,59.265453 44.324188,56.170082 
	C41.142235,51.764385 42.561005,46.588974 46.706345,43.960167 
	C51.749722,40.761860 56.544186,41.360027 59.780289,46.071621 
	C61.830078,49.056007 62.911156,52.716820 65.022964,55.644100 
	C66.776176,58.074318 69.096298,61.038494 71.700607,61.719780 
	C77.513748,63.240486 82.878716,61.201691 86.781845,56.389191 
	C90.484215,51.824242 90.913986,46.758404 88.598656,41.390873 
	C81.102646,24.013195 61.153545,14.248978 42.940300,19.062614 
	C25.931950,23.557806 16.145561,38.302029 20.037397,53.772549 
	C22.382025,63.092728 28.563768,69.330276 36.755547,73.857048 
	C42.244843,76.890427 47.904774,79.678635 53.107014,83.148300 
	C57.481262,86.065727 60.967697,89.985596 59.764706,96.813454 
M420.710938,111.637177 
	C420.809601,113.625511 420.379822,115.848694 421.133942,117.545761 
	C422.199493,119.943596 423.756165,123.050591 425.829742,123.775566 
	C427.447937,124.341316 430.844086,122.264267 432.267792,120.439240 
	C435.305756,116.544830 437.517303,112.014130 440.190735,107.822746 
	C441.236511,106.183075 442.319672,104.281876 443.887756,103.307983 
	C452.693390,97.838966 469.063141,101.080658 475.473907,109.304825 
	C477.005859,111.270149 478.557343,113.258263 480.350250,114.974274 
	C484.159363,118.620056 487.238800,118.188828 489.121704,113.197182 
	C490.488983,109.572578 491.475891,105.396767 491.120850,101.608376 
	C490.145172,91.196594 488.945465,80.738121 486.779358,70.521828 
	C483.713531,56.062126 480.009460,41.658367 472.014465,28.928160 
	C467.188812,21.244411 462.190155,20.754206 456.836975,28.014473 
	C452.243286,34.244625 448.243073,41.102398 445.114258,48.183586 
	C438.275238,63.661766 432.055847,79.418167 425.801971,95.147842 
	C423.790466,100.207123 422.463806,105.538673 420.710938,111.637177 
M523.258911,85.328804 
	C524.108032,93.086830 524.717590,100.881714 525.903198,108.587975 
	C526.534790,112.693848 528.852844,116.450233 533.442932,116.778664 
	C537.979187,117.103226 542.140930,115.015381 544.141235,110.801247 
	C545.960754,106.968025 547.545166,102.728378 547.910156,98.552223 
	C549.258423,83.127975 550.102600,67.658478 551.034241,52.199833 
	C551.271912,48.256462 551.807190,45.316837 556.834778,44.615467 
	C563.106873,43.740482 568.118103,40.104473 571.891418,34.941441 
	C577.972107,26.621153 575.253174,19.704853 564.951050,19.150742 
	C548.524719,18.267233 532.047424,17.918598 515.596924,18.041864 
	C504.983551,18.121389 500.344360,24.230742 500.838379,35.552746 
	C501.249969,44.985851 506.885132,50.101002 516.755249,50.000820 
	C523.630798,49.931034 524.196594,50.356049 524.082886,57.406452 
	C523.937866,66.395607 523.528015,75.380493 523.258911,85.328804 
M147.344955,56.814827 
	C148.558685,52.173615 150.287170,47.596581 150.875549,42.877403 
	C151.990143,33.937813 148.523636,28.691061 139.617950,27.129383 
	C129.876907,25.421223 119.939392,24.642435 110.052124,24.026194 
	C103.400162,23.611595 100.260132,26.752964 100.217804,32.460644 
	C100.156097,40.779957 103.460541,44.901310 110.272179,45.000626 
	C119.871094,45.140579 121.916664,47.482727 118.437057,56.427704 
	C115.084526,65.046005 110.277847,73.088570 106.671104,81.621239 
	C103.787445,88.443275 101.117722,95.480820 99.507439,102.680893 
	C97.895767,109.887154 102.057838,115.501495 109.436584,115.915581 
	C120.828575,116.554863 132.298370,116.471695 143.702744,115.965134 
	C150.047394,115.683311 153.377808,112.248833 153.986191,107.643600 
	C154.642654,102.674675 152.511261,99.603821 146.428329,96.820526 
	C142.680984,95.105904 138.770203,93.686058 135.203094,91.658348 
	C131.915268,89.789398 131.063629,87.408989 133.398651,83.465553 
	C138.369095,75.071404 142.563904,66.217979 147.344955,56.814827 
z"/>
<path fill="#020202" opacity="1.000000" stroke="none" 
	d="
M297.093567,69.810379 
	C300.390228,59.495094 303.512238,49.511921 306.865601,39.607079 
	C307.868835,36.643894 309.339233,33.796417 310.905273,31.074060 
	C315.914246,22.366814 322.396545,19.303207 332.150482,21.014492 
	C336.677002,21.808645 339.830017,24.821177 340.773865,29.046238 
	C341.994232,34.509026 342.837189,40.207249 342.738708,45.784607 
	C342.465332,61.268192 341.877502,76.758377 340.875336,92.211014 
	C340.470642,98.451157 339.093933,104.729126 337.290497,110.728622 
	C336.557709,113.166389 333.572510,116.482552 331.501648,116.563248 
	C328.994019,116.660973 324.955200,114.308418 324.068329,112.042061 
	C321.690491,105.965523 320.199249,99.437798 319.194580,92.959221 
	C318.294220,87.153610 318.510132,81.174904 317.207184,75.105362 
	C314.830475,81.046440 312.575928,87.040283 310.039825,92.912514 
	C307.871033,97.934235 305.674377,102.985527 302.961212,107.720726 
	C298.901154,114.806641 295.148224,115.053352 290.280243,108.371811 
	C287.076447,103.974442 284.639404,98.999794 282.048279,94.181870 
	C280.557892,91.410683 279.418671,88.447853 278.169159,85.550705 
	C276.929016,82.675278 275.748810,79.774033 273.410858,76.972847 
	C273.410858,79.017578 273.494934,81.066360 273.396423,83.106339 
	C272.947083,92.409515 272.788635,101.745476 271.835114,110.998505 
	C271.268341,116.498840 269.239960,121.648293 263.345856,124.158150 
	C257.121887,126.808479 252.635727,125.451530 250.790482,119.011894 
	C249.251846,113.642281 248.567123,107.927933 248.259201,102.324768 
	C247.392029,86.545799 246.673203,70.749741 246.391846,54.951584 
	C246.265366,47.850918 246.627319,40.590897 248.013336,33.652004 
	C249.754227,24.936483 264.662506,20.164181 271.470825,25.931259 
	C273.371704,27.541430 273.929504,30.784937 274.991119,33.326077 
	C276.314301,36.493160 277.213684,39.875057 278.834320,42.873230 
	C284.347321,53.072235 290.097137,63.143242 295.777252,73.300171 
	C296.161957,72.322189 296.584747,71.247345 297.093567,69.810379 
z"/>
<path fill="#020203" opacity="1.000000" stroke="none" 
	d="
M352.760315,90.280388 
	C353.137207,69.845627 353.590363,49.881073 353.890533,29.914217 
	C353.958496,25.391087 356.062195,22.288786 359.734711,20.178074 
	C373.878387,12.049304 388.753326,11.143255 403.603638,17.395472 
	C414.726135,22.078203 418.030121,31.335705 413.005096,42.465763 
	C409.963165,49.203373 405.673615,55.377697 402.035980,61.647541 
	C405.455872,63.940033 409.437836,66.084175 412.794495,68.958519 
	C422.616486,77.369194 423.186432,88.918610 414.238464,98.257507 
	C403.771271,109.181984 390.306122,113.999130 375.716766,115.993385 
	C370.647430,116.686333 365.452789,116.561958 360.313568,116.607826 
	C357.099426,116.636513 355.115112,115.111343 354.821930,111.589348 
	C354.242859,104.634392 353.472473,97.695366 352.760315,90.280388 
M376.437683,79.953751 
	C371.094879,87.025841 373.358337,95.112274 373.440826,103.279182 
	C379.617371,99.198570 385.412567,94.883850 390.866913,90.174385 
	C392.797974,88.507034 394.271759,86.037979 395.297241,83.652489 
	C397.232361,79.150864 395.089783,75.705444 390.254303,76.157234 
	C385.772583,76.575996 381.411194,78.282463 376.437683,79.953751 
M378.692963,60.025803 
	C384.021942,55.036953 389.533203,50.220490 394.539703,44.926659 
	C395.659637,43.742466 395.906128,40.262695 394.982117,38.930855 
	C393.232208,36.408638 379.970947,39.662178 379.461823,42.792721 
	C378.526001,48.547104 378.467041,54.444096 378.692963,60.025803 
z"/>
<path fill="#020203" opacity="1.000000" stroke="none" 
	d="
M171.374573,38.430420 
	C179.105255,25.566874 189.269440,16.506836 204.382507,14.927547 
	C217.310608,13.576582 229.734756,21.803108 233.481003,34.368755 
	C241.084641,59.872967 236.093384,83.636719 221.018921,104.951401 
	C210.218185,120.223190 193.750397,120.816719 180.341415,107.829399 
	C162.197800,90.256340 158.625198,63.342327 171.374573,38.430420 
M214.122086,84.521255 
	C217.455093,75.510414 219.477478,66.341400 217.028244,56.749275 
	C215.897552,52.321014 213.469254,49.018608 208.672211,47.864948 
	C203.997803,46.740780 200.579712,48.835110 197.740082,52.044575 
	C192.334488,58.154232 189.208069,65.399513 187.745331,73.399147 
	C186.502441,80.196495 186.030746,86.982742 189.021317,93.449532 
	C192.981842,102.013809 201.147156,103.370316 207.218826,96.241081 
	C209.964111,93.017609 211.718170,88.949921 214.122086,84.521255 
z"/>
<path fill="#020202" opacity="1.000000" stroke="none" 
	d="
M59.867279,96.416489 
	C60.967697,89.985596 57.481262,86.065727 53.107014,83.148300 
	C47.904774,79.678635 42.244843,76.890427 36.755547,73.857048 
	C28.563768,69.330276 22.382025,63.092728 20.037397,53.772549 
	C16.145561,38.302029 25.931950,23.557806 42.940300,19.062614 
	C61.153545,14.248978 81.102646,24.013195 88.598656,41.390873 
	C90.913986,46.758404 90.484215,51.824242 86.781845,56.389191 
	C82.878716,61.201691 77.513748,63.240486 71.700607,61.719780 
	C69.096298,61.038494 66.776176,58.074318 65.022964,55.644100 
	C62.911156,52.716820 61.830078,49.056007 59.780289,46.071621 
	C56.544186,41.360027 51.749722,40.761860 46.706345,43.960167 
	C42.561005,46.588974 41.142235,51.764385 44.324188,56.170082 
	C46.559776,59.265453 49.850899,61.860435 53.163055,63.865520 
	C61.901703,69.155640 71.415710,73.292000 79.688126,79.195061 
	C91.667534,87.743362 91.361900,99.935135 79.627029,109.042305 
	C70.310287,116.272804 59.282101,118.031883 48.001030,116.597176 
	C41.220367,115.734818 34.390789,113.679321 28.132067,110.916611 
	C24.694553,109.399223 21.824503,105.655098 19.739838,102.273140 
	C17.561537,98.739273 18.643726,94.794640 21.783707,91.856743 
	C24.661463,89.164185 28.080215,87.816719 31.768251,89.958946 
	C36.340393,92.614723 40.681274,95.666168 45.153351,98.497261 
	C51.571053,102.560059 56.006519,102.029411 59.867279,96.416489 
z"/>
<path fill="#020202" opacity="1.000000" stroke="none" 
	d="
M420.767395,111.191422 
	C422.463806,105.538673 423.790466,100.207123 425.801971,95.147842 
	C432.055847,79.418167 438.275238,63.661766 445.114258,48.183586 
	C448.243073,41.102398 452.243286,34.244625 456.836975,28.014473 
	C462.190155,20.754206 467.188812,21.244411 472.014465,28.928160 
	C480.009460,41.658367 483.713531,56.062126 486.779358,70.521828 
	C488.945465,80.738121 490.145172,91.196594 491.120850,101.608376 
	C491.475891,105.396767 490.488983,109.572578 489.121704,113.197182 
	C487.238800,118.188828 484.159363,118.620056 480.350250,114.974274 
	C478.557343,113.258263 477.005859,111.270149 475.473907,109.304825 
	C469.063141,101.080658 452.693390,97.838966 443.887756,103.307983 
	C442.319672,104.281876 441.236511,106.183075 440.190735,107.822746 
	C437.517303,112.014130 435.305756,116.544830 432.267792,120.439240 
	C430.844086,122.264267 427.447937,124.341316 425.829742,123.775566 
	C423.756165,123.050591 422.199493,119.943596 421.133942,117.545761 
	C420.379822,115.848694 420.809601,113.625511 420.767395,111.191422 
M450.246857,82.230217 
	C453.919312,84.932571 459.415527,84.565063 462.214783,81.429993 
	C465.180237,78.108833 463.820435,72.171837 457.911804,66.083542 
	C455.157104,71.466087 452.605133,76.452454 450.246857,82.230217 
z"/>
<path fill="#020202" opacity="1.000000" stroke="none" 
	d="
M523.245605,84.848007 
	C523.528015,75.380493 523.937866,66.395607 524.082886,57.406452 
	C524.196594,50.356049 523.630798,49.931034 516.755249,50.000820 
	C506.885132,50.101002 501.249969,44.985851 500.838379,35.552746 
	C500.344360,24.230742 504.983551,18.121389 515.596924,18.041864 
	C532.047424,17.918598 548.524719,18.267233 564.951050,19.150742 
	C575.253174,19.704853 577.972107,26.621153 571.891418,34.941441 
	C568.118103,40.104473 563.106873,43.740482 556.834778,44.615467 
	C551.807190,45.316837 551.271912,48.256462 551.034241,52.199833 
	C550.102600,67.658478 549.258423,83.127975 547.910156,98.552223 
	C547.545166,102.728378 545.960754,106.968025 544.141235,110.801247 
	C542.140930,115.015381 537.979187,117.103226 533.442932,116.778664 
	C528.852844,116.450233 526.534790,112.693848 525.903198,108.587975 
	C524.717590,100.881714 524.108032,93.086830 523.245605,84.848007 
z"/>
<path fill="#020203" opacity="1.000000" stroke="none" 
	d="
M147.210785,57.183807 
	C142.563904,66.217979 138.369095,75.071404 133.398651,83.465553 
	C131.063629,87.408989 131.915268,89.789398 135.203094,91.658348 
	C138.770203,93.686058 142.680984,95.105904 146.428329,96.820526 
	C152.511261,99.603821 154.642654,102.674675 153.986191,107.643600 
	C153.377808,112.248833 150.047394,115.683311 143.702744,115.965134 
	C132.298370,116.471695 120.828575,116.554863 109.436584,115.915581 
	C102.057838,115.501495 97.895767,109.887154 99.507439,102.680893 
	C101.117722,95.480820 103.787445,88.443275 106.671104,81.621239 
	C110.277847,73.088570 115.084526,65.046005 118.437057,56.427704 
	C121.916664,47.482727 119.871094,45.140579 110.272179,45.000626 
	C103.460541,44.901310 100.156097,40.779957 100.217804,32.460644 
	C100.260132,26.752964 103.400162,23.611595 110.052124,24.026194 
	C119.939392,24.642435 129.876907,25.421223 139.617950,27.129383 
	C148.523636,28.691061 151.990143,33.937813 150.875549,42.877403 
	C150.287170,47.596581 148.558685,52.173615 147.210785,57.183807 
z"/>
<path fill="#EEF1F8" opacity="1.000000" stroke="none" 
	d="
M376.717224,79.687820 
	C381.411194,78.282463 385.772583,76.575996 390.254303,76.157234 
	C395.089783,75.705444 397.232361,79.150864 395.297241,83.652489 
	C394.271759,86.037979 392.797974,88.507034 390.866913,90.174385 
	C385.412567,94.883850 379.617371,99.198570 373.440826,103.279182 
	C373.358337,95.112274 371.094879,87.025841 376.717224,79.687820 
z"/>
<path fill="#EBEEF5" opacity="1.000000" stroke="none" 
	d="
M378.367798,60.153725 
	C378.467041,54.444096 378.526001,48.547104 379.461823,42.792721 
	C379.970947,39.662178 393.232208,36.408638 394.982117,38.930855 
	C395.906128,40.262695 395.659637,43.742466 394.539703,44.926659 
	C389.533203,50.220490 384.021942,55.036953 378.367798,60.153725 
z"/>
<path fill="#EFF2FA" opacity="1.000000" stroke="none" 
	d="
M214.022003,84.893250 
	C211.718170,88.949921 209.964111,93.017609 207.218826,96.241081 
	C201.147156,103.370316 192.981842,102.013809 189.021317,93.449532 
	C186.030746,86.982742 186.502441,80.196495 187.745331,73.399147 
	C189.208069,65.399513 192.334488,58.154232 197.740082,52.044575 
	C200.579712,48.835110 203.997803,46.740780 208.672211,47.864948 
	C213.469254,49.018608 215.897552,52.321014 217.028244,56.749275 
	C219.477478,66.341400 217.455093,75.510414 214.022003,84.893250 
z"/>
<path fill="#E8EBF3" opacity="1.000000" stroke="none" 
	d="
M450.150024,81.834518 
	C452.605133,76.452454 455.157104,71.466087 457.911804,66.083542 
	C463.820435,72.171837 465.180237,78.108833 462.214783,81.429993 
	C459.415527,84.565063 453.919312,84.932571 450.150024,81.834518 
z"/>
</svg>