<svg width="24" height="24" viewBox="0 0 24 24" fill="none" xmlns="http://www.w3.org/2000/svg">
<path d="M15 3H9C6.79086 3 5 4.79086 5 7V15" stroke="#33363F" stroke-width="2"/>
<path d="M13.5 7C14.696 7 15.5096 7.00158 16.1279 7.07129C16.6514 7.13032 16.9393 7.23012 17.1377 7.35742L17.2178 7.41309C17.3219 7.49297 17.4175 7.58313 17.5039 7.68164L17.5869 7.78223C17.741 7.98307 17.8613 8.274 17.9287 8.87207C17.9984 9.49043 18 10.304 18 11.5V15.5C18 16.696 17.9984 17.5096 17.9287 18.1279C17.8697 18.6514 17.7699 18.9393 17.6426 19.1377L17.5869 19.2178C17.507 19.3219 17.4169 19.4175 17.3184 19.5039L17.2178 19.5869C17.0169 19.741 16.726 19.8613 16.1279 19.9287C15.5096 19.9984 14.696 20 13.5 20C12.304 20 11.4904 19.9984 10.8721 19.9287C10.3486 19.8697 10.0607 19.7699 9.8623 19.6426L9.78223 19.5869C9.67813 19.507 9.58245 19.4169 9.49609 19.3184L9.41309 19.2178C9.25897 19.0169 9.13873 18.726 9.07129 18.1279C9.00158 17.5096 9 16.696 9 15.5V11.5C9 10.304 9.00158 9.49043 9.07129 8.87207C9.13032 8.34856 9.23012 8.06067 9.35742 7.8623L9.41309 7.78223C9.49297 7.67813 9.58313 7.58245 9.68164 7.49609L9.78223 7.41309C9.98307 7.25897 10.274 7.13873 10.8721 7.07129C11.4904 7.00158 12.304 7 13.5 7Z" stroke="#33363F" stroke-width="2"/>
</svg>
