<svg viewBox="0 0 24 24" fill="none" xmlns="http://www.w3.org/2000/svg">
<path d="M15 3H9C6.79086 3 5 4.79086 5 7V15" stroke="#222222"/>
<path d="M13.5 6.5C14.6843 6.5 15.5307 6.50064 16.1836 6.57422C16.7461 6.63763 17.1177 6.75075 17.4043 6.93359L17.5215 7.0166C17.6515 7.1164 17.772 7.2285 17.8799 7.35156L17.9834 7.47852C18.2153 7.78089 18.3533 8.17381 18.4258 8.81641C18.4994 9.46925 18.5 10.3157 18.5 11.5V15.5C18.5 16.6843 18.4994 17.5307 18.4258 18.1836C18.3624 18.7461 18.2493 19.1177 18.0664 19.4043L17.9834 19.5215C17.8836 19.6515 17.7715 19.772 17.6484 19.8799L17.5215 19.9834C17.2191 20.2153 16.8262 20.3533 16.1836 20.4258C15.5307 20.4994 14.6843 20.5 13.5 20.5C12.3157 20.5 11.4693 20.4994 10.8164 20.4258C10.2539 20.3624 9.88231 20.2493 9.5957 20.0664L9.47852 19.9834C9.34846 19.8836 9.22802 19.7715 9.12012 19.6484L9.0166 19.5215C8.78468 19.2191 8.64666 18.8262 8.57422 18.1836C8.50064 17.5307 8.5 16.6843 8.5 15.5V11.5C8.5 10.3157 8.50064 9.46925 8.57422 8.81641C8.63763 8.25391 8.75075 7.88231 8.93359 7.5957L9.0166 7.47852C9.1164 7.34846 9.2285 7.22802 9.35156 7.12012L9.47852 7.0166C9.78089 6.78468 10.1738 6.64666 10.8164 6.57422C11.4693 6.50064 12.3157 6.5 13.5 6.5Z" stroke="#222222"/>
</svg>
