<svg width="24" height="24" viewBox="0 0 24 24" fill="none" xmlns="http://www.w3.org/2000/svg">
<path fill-rule="evenodd" clip-rule="evenodd" d="M5.25105 9.66298L3.66437 8.2526C3.25159 7.88568 2.61952 7.92286 2.2526 8.33565C1.88568 8.74843 1.92286 9.3805 2.33565 9.74742L3.74073 10.9964L3.80945 10.9353C4.31159 10.4889 4.79121 10.0625 5.25105 9.66298ZM7.54554 14.3046C7.90943 14.5953 8.25488 14.8551 8.58673 15.0819C9.70322 15.845 10.771 16.3102 12 16.3102C13.2291 16.3102 14.2968 15.845 15.4133 15.0819C16.4941 14.3432 17.7193 13.2542 19.2559 11.8883L19.2559 11.8883L19.308 11.842L21.6644 9.74742C22.0772 9.3805 22.1143 8.74843 21.7474 8.33565C21.3805 7.92286 20.7484 7.88568 20.3356 8.2526L17.9793 10.3471C16.3786 11.7699 15.2479 12.7725 14.2848 13.4307C13.3452 14.0729 12.672 14.3102 12 14.3102C11.3281 14.3102 10.6549 14.0729 9.71523 13.4307C9.51165 13.2916 9.30058 13.1371 9.07916 12.9664C8.6334 13.3441 8.12999 13.7864 7.54554 14.3046Z" fill="#33363F"/>
<path fill-rule="evenodd" clip-rule="evenodd" d="M16.4545 9.69511C16.0906 9.40439 15.7451 9.14457 15.4133 8.91777C14.2968 8.15472 13.2291 7.68945 12 7.68945C10.771 7.68945 9.70322 8.15472 8.58673 8.91777C7.50587 9.65646 6.28075 10.7455 4.74408 12.1114L4.69201 12.1577L2.33565 14.2523C1.92286 14.6192 1.88568 15.2513 2.2526 15.664C2.61952 16.0768 3.25159 16.114 3.66437 15.7471L6.02074 13.6525C7.62139 12.2297 8.75214 11.2272 9.71523 10.569C10.6549 9.9268 11.3281 9.68945 12 9.68945C12.672 9.68945 13.3452 9.9268 14.2848 10.569C14.4884 10.7081 14.6994 10.8626 14.9209 11.0333C15.3666 10.6556 15.87 10.2132 16.4545 9.69511ZM20.2593 13.0033L20.1906 13.0644L20.1905 13.0644C19.6884 13.5108 19.2088 13.9372 18.749 14.3367L20.3356 15.7471C20.7484 16.114 21.3805 16.0768 21.7474 15.664C22.1143 15.2513 22.0772 14.6192 21.6644 14.2523L20.2593 13.0033Z" fill="#33363F"/>
</svg>
