<svg width="24" height="24" viewBox="0 0 24 24" fill="none" xmlns="http://www.w3.org/2000/svg">
<path fill-rule="evenodd" clip-rule="evenodd" d="M13 15.5C13 15.9659 13 16.1989 13.0761 16.3827C13.1776 16.6277 13.3723 16.8224 13.6173 16.9239C13.8011 17 14.0341 17 14.5 17H17C19.7614 17 22 14.7614 22 12C22 9.23858 19.7614 7 17 7H14.5C14.0341 7 13.8011 7 13.6173 7.07612C13.3723 7.17761 13.1776 7.37229 13.0761 7.61732C13 7.80109 13 8.03406 13 8.5C13 8.96594 13 9.19891 13.0761 9.38268C13.1776 9.62771 13.3723 9.82239 13.6173 9.92388C13.8011 10 14.0341 10 14.5 10H17C18.1046 10 19 10.8954 19 12C19 13.1046 18.1046 14 17 14H14.5C14.0341 14 13.8011 14 13.6173 14.0761C13.3723 14.1776 13.1776 14.3723 13.0761 14.6173C13 14.8011 13 15.0341 13 15.5Z" fill="#33363F"/>
<path fill-rule="evenodd" clip-rule="evenodd" d="M11 15.5C11 15.9659 11 16.1989 10.9239 16.3827C10.8224 16.6277 10.6277 16.8224 10.3827 16.9239C10.1989 17 9.96594 17 9.5 17H7C4.23858 17 2 14.7614 2 12C2 9.23858 4.23858 7 7 7H9.5C9.96594 7 10.1989 7 10.3827 7.07612C10.6277 7.17761 10.8224 7.37229 10.9239 7.61732C11 7.80109 11 8.03406 11 8.5C11 8.96594 11 9.19891 10.9239 9.38268C10.8224 9.62771 10.6277 9.82239 10.3827 9.92388C10.1989 10 9.96594 10 9.5 10H7C5.89543 10 5 10.8954 5 12C5 13.1046 5.89543 14 7 14H9.5C9.96594 14 10.1989 14 10.3827 14.0761C10.6277 14.1776 10.8224 14.3723 10.9239 14.6173C11 14.8011 11 15.0341 11 15.5Z" fill="#33363F"/>
<path d="M17 12L7 12" stroke="#33363F" stroke-width="2" stroke-linecap="round" stroke-linejoin="round"/>
</svg>
