<svg width="24" height="24" viewBox="0 0 24 24" fill="none" xmlns="http://www.w3.org/2000/svg">
<circle cx="9" cy="9" r="3" stroke="#33363F" stroke-width="2" stroke-linecap="round"/>
<path d="M12.2679 9C12.5332 8.54063 12.97 8.20543 13.4824 8.06815C13.9947 7.93086 14.5406 8.00273 15 8.26795C15.4594 8.53317 15.7946 8.97 15.9319 9.48236C16.0691 9.99472 15.9973 10.5406 15.7321 11C15.4668 11.4594 15.03 11.7946 14.5176 11.9319C14.0053 12.0691 13.4594 11.9973 13 11.7321C12.5406 11.4668 12.2054 11.03 12.0681 10.5176C11.9309 10.0053 12.0027 9.45937 12.2679 9L12.2679 9Z" stroke="#33363F" stroke-width="2"/>
<path d="M13.8816 19L12.9013 19.1974L13.0629 20H13.8816V19ZM17.7202 17.9042L18.6627 17.5699L17.7202 17.9042ZM11.7808 15.7105L11.176 14.9142L10.0194 15.7927L11.2527 16.5597L11.7808 15.7105ZM16.8672 18H13.8816V20H16.8672V18ZM16.7777 18.2384C16.7707 18.2186 16.7642 18.181 16.7725 18.1354C16.7804 18.0921 16.7982 18.0593 16.8151 18.0383C16.8474 17.9982 16.874 18 16.8672 18V20C18.0132 20 19.1414 18.9194 18.6627 17.5699L16.7777 18.2384ZM14 16C15.6416 16 16.4027 17.1811 16.7777 18.2384L18.6627 17.5699C18.1976 16.2588 16.9485 14 14 14V16ZM12.3857 16.5069C12.7702 16.2148 13.282 16 14 16V14C12.8381 14 11.9028 14.3622 11.176 14.9142L12.3857 16.5069ZM11.2527 16.5597C12.2918 17.206 12.7271 18.3324 12.9013 19.1974L14.8619 18.8026C14.644 17.7204 14.0374 15.9364 12.309 14.8614L11.2527 16.5597Z" fill="#33363F"/>
<path d="M9 15C12.5715 15 13.5919 17.5512 13.8834 19.0089C13.9917 19.5504 13.5523 20 13 20H5C4.44772 20 4.00829 19.5504 4.11659 19.0089C4.4081 17.5512 5.42846 15 9 15Z" stroke="#33363F" stroke-width="2" stroke-linecap="round"/>
<path d="M19 3V7" stroke="#33363F" stroke-width="2" stroke-linecap="round"/>
<path d="M21 5L17 5" stroke="#33363F" stroke-width="2" stroke-linecap="round"/>
</svg>
