<svg width="24" height="24" viewBox="0 0 24 24" fill="none" xmlns="http://www.w3.org/2000/svg">
<path d="M2.5 4.5H21.5" stroke="#222222" stroke-linecap="round"/>
<path d="M5.5 4.5H18.5V15.8373C18.5 16.0818 18.5 16.2041 18.4724 16.3192C18.4479 16.4213 18.4075 16.5188 18.3526 16.6083C18.2908 16.7092 18.2043 16.7957 18.0314 16.9686L15.9686 19.0314C15.7957 19.2043 15.7092 19.2908 15.6083 19.3526C15.5188 19.4075 15.4213 19.4479 15.3192 19.4724C15.2041 19.5 15.0818 19.5 14.8373 19.5H7.9C7.05992 19.5 6.63988 19.5 6.31901 19.3365C6.03677 19.1927 5.8073 18.9632 5.66349 18.681C5.5 18.3601 5.5 17.9401 5.5 17.1V4.5Z" stroke="#222222" stroke-linecap="round"/>
<path d="M12 13.5V8" stroke="#222222" stroke-linecap="round"/>
<path d="M9.5 9.5L11.9063 7.57496C11.9611 7.53114 12.0389 7.53114 12.0937 7.57496L14.5 9.5" stroke="#222222" stroke-linecap="round"/>
<path d="M18.5 15.5H16.1C15.5399 15.5 15.2599 15.5 15.046 15.609C14.8578 15.7049 14.7049 15.8578 14.609 16.046C14.5 16.2599 14.5 16.5399 14.5 17.1V19.5" stroke="#222222"/>
</svg>
