<svg width="24" height="24" viewBox="0 0 24 24" fill="none" xmlns="http://www.w3.org/2000/svg">
<path d="M3.5 8.5C3.5 6.84315 4.84315 5.5 6.5 5.5H17.5C19.1569 5.5 20.5 6.84315 20.5 8.5V8.75C20.5 9.16421 20.1642 9.5 19.75 9.5V9.5C18.5074 9.5 17.5 10.5074 17.5 11.75V12.25C17.5 13.4926 18.5074 14.5 19.75 14.5V14.5C20.1642 14.5 20.5 14.8358 20.5 15.25V15.5C20.5 17.1569 19.1569 18.5 17.5 18.5H6.5C4.84315 18.5 3.5 17.1569 3.5 15.5V15.25C3.5 14.8358 3.83579 14.5 4.25 14.5V14.5C5.49264 14.5 6.5 13.4926 6.5 12.25V11.75C6.5 10.5074 5.49264 9.5 4.25 9.5V9.5C3.83579 9.5 3.5 9.16421 3.5 8.75V8.5Z" stroke="#7E869E" stroke-opacity="0.25"/>
<path d="M12.959 10.1592C13.0515 10.2857 13.1723 10.3882 13.3105 10.459L13.4541 10.5186L14.999 11.0254L14.0469 12.3438C13.9552 12.4708 13.8957 12.6172 13.8711 12.7705L13.8584 12.9258L13.8535 14.5508L12.3057 14.0537C12.1565 14.0058 11.9991 13.9936 11.8457 14.0176L11.6943 14.0537L10.1465 14.5508L10.1416 12.9258C10.1411 12.769 10.1044 12.6151 10.0342 12.4766L9.95312 12.3438L9.00098 11.0254L10.5459 10.5186C10.6947 10.4696 10.8295 10.3869 10.9395 10.2773L11.041 10.1592L12 8.84668L12.959 10.1592Z" stroke="#222222"/>
</svg>
