<svg viewBox="0 0 24 24" fill="none" xmlns="http://www.w3.org/2000/svg">
<path d="M6.5 7.5H9.5" stroke="#2A4157" stroke-opacity="0.24" stroke-linecap="round"/>
<path d="M18.5 15.5H16.5C16.1334 15.5 15.9454 15.4991 15.8184 15.4873L15.707 15.4707C15.1493 15.3596 14.7054 14.9442 14.5547 14.4023L14.5293 14.293C14.5029 14.1602 14.5 13.9886 14.5 13.5C14.5 13.1334 14.5009 12.9454 14.5127 12.8184L14.5293 12.707C14.6404 12.1493 15.0558 11.7054 15.5977 11.5547L15.707 11.5293C15.8398 11.5029 16.0114 11.5 16.5 11.5H18.5C18.8666 11.5 19.0546 11.5009 19.1816 11.5127L19.293 11.5293C19.8507 11.6404 20.2946 12.0558 20.4453 12.5977L20.4707 12.707C20.4971 12.8398 20.5 13.0114 20.5 13.5C20.5 13.8666 20.4991 14.0546 20.4873 14.1816L20.4707 14.293C20.3596 14.8507 19.9442 15.2946 19.4023 15.4453L19.293 15.4707C19.1602 15.4971 18.9886 15.5 18.5 15.5Z" stroke="#2A4157" stroke-opacity="0.24"/>
<path d="M9.75 4.5H14.25C15.8553 4.5 17.0084 4.50126 17.8857 4.62109C18.6403 4.72416 19.1336 4.90839 19.5039 5.21582L19.6553 5.35449C20.0426 5.74792 20.2644 6.28151 20.3809 7.16113C20.499 8.05429 20.5 9.22754 20.5 10.8574V13.1426C20.5 14.7725 20.499 15.9457 20.3809 16.8389C20.279 17.6083 20.0963 18.1127 19.793 18.4902L19.6553 18.6455C19.2691 19.0377 18.7477 19.2612 17.8857 19.3789C17.0084 19.4987 15.8553 19.5 14.25 19.5H9.75C8.14466 19.5 6.99162 19.4987 6.11426 19.3789C5.35975 19.2758 4.86637 19.0916 4.49609 18.7842L4.34473 18.6455C3.95745 18.2521 3.73556 17.7185 3.61914 16.8389C3.50099 15.9457 3.5 14.7725 3.5 13.1426V10.8574C3.5 9.22754 3.50099 8.05428 3.61914 7.16113C3.73556 6.28151 3.95745 5.74792 4.34473 5.35449C4.73089 4.96229 5.25231 4.73884 6.11426 4.62109C6.99162 4.50126 8.14466 4.5 9.75 4.5Z" stroke="#222222"/>
</svg>
