<svg width="24" height="24" viewBox="0 0 24 24" fill="none" xmlns="http://www.w3.org/2000/svg">
<path d="M20 5C20.5523 5 21 4.55228 21 4C21 3.44772 20.5523 3 20 3V5ZM5.50001 5L20 5V3L5.50001 3L5.50001 5ZM5.50001 10H13.5V8L5.50001 8V10ZM4.00001 6.5C4.00001 5.67157 4.67158 5 5.50001 5L5.50001 3C3.56701 3 2.00001 4.567 2.00001 6.5L4.00001 6.5ZM2.00001 6.5C2.00001 8.433 3.56701 10 5.50001 10V8C4.67158 8 4.00001 7.32843 4.00001 6.5L2.00001 6.5Z" fill="#222222"/>
<path d="M3 12L3 6.5" stroke="#222222" stroke-width="2"/>
<path d="M5 21.5C4.54273 21.5 4.14931 21.5011 3.83594 21.459C3.50824 21.4149 3.19424 21.3153 2.93945 21.0605L2.85059 20.9629C2.66019 20.7276 2.57959 20.4509 2.54102 20.1641C2.49888 19.8507 2.5 19.4573 2.5 19L2.5 8.5L19 8.5C19.4573 8.5 19.8507 8.49888 20.1641 8.54102C20.4918 8.58509 20.8058 8.68466 21.0605 8.93945C21.3153 9.19424 21.4149 9.50824 21.459 9.83594C21.5011 10.1493 21.5 10.5427 21.5 11V12.5H18C16.6193 12.5 15.5 13.6193 15.5 15C15.5 16.3807 16.6193 17.5 18 17.5H21.5V19C21.5 19.4573 21.5011 19.8507 21.459 20.1641C21.4149 20.4918 21.3153 20.8058 21.0605 21.0605L20.9629 21.1494C20.7276 21.3398 20.4509 21.4204 20.1641 21.459C19.8507 21.5011 19.4573 21.5 19 21.5L5 21.5Z" fill="#222222" stroke="#222222"/>
</svg>
