<svg width="24" height="24" viewBox="0 0 24 24" fill="none" xmlns="http://www.w3.org/2000/svg">
<path fill-rule="evenodd" clip-rule="evenodd" d="M16.6771 7.5H19C19.2761 7.5 19.5 7.27614 19.5 7C19.5 6.72386 19.2761 6.5 19 6.5H16.063C16.1642 6.89311 16.3819 7.23945 16.6771 7.5ZM14.2908 7.5C14.1631 7.18465 14.0745 6.84932 14.0309 6.5H5C4.72386 6.5 4.5 6.72386 4.5 7C4.5 7.27614 4.72386 7.5 5 7.5H14.2908ZM5 11.5C4.72386 11.5 4.5 11.7239 4.5 12C4.5 12.2761 4.72386 12.5 5 12.5H19C19.2761 12.5 19.5 12.2761 19.5 12C19.5 11.7239 19.2761 11.5 19 11.5H5ZM5 16.5C4.72386 16.5 4.5 16.7239 4.5 17C4.5 17.2761 4.72386 17.5 5 17.5H19C19.2761 17.5 19.5 17.2761 19.5 17C19.5 16.7239 19.2761 16.5 19 16.5H5Z" fill="#222222"/>
<circle cx="18" cy="6" r="2" fill="#222222"/>
</svg>
