<svg width="24" height="24" viewBox="0 0 24 24" fill="none" xmlns="http://www.w3.org/2000/svg">
<path fill-rule="evenodd" clip-rule="evenodd" d="M18.5231 8.29622C17.8548 7.12164 16.8784 6.1452 15.7038 5.47685C15.4471 5.69554 15.2463 5.97798 15.126 6.29968C16.2095 6.89512 17.1049 7.79048 17.7003 8.87396C18.022 8.75368 18.3045 8.55294 18.5231 8.29622ZM13.2448 5.61907C12.8419 5.54093 12.4257 5.5 12 5.5C8.41015 5.5 5.5 8.41015 5.5 12C5.5 15.5899 8.41015 18.5 12 18.5C15.5899 18.5 18.5 15.5899 18.5 12C18.5 11.5743 18.4591 11.1581 18.3809 10.7552C18.7098 10.6343 19.0184 10.4713 19.3002 10.2729C19.4309 10.8274 19.5 11.4056 19.5 12C19.5 16.1421 16.1421 19.5 12 19.5C7.85786 19.5 4.5 16.1421 4.5 12C4.5 7.85786 7.85786 4.5 12 4.5C12.5944 4.5 13.1726 4.56914 13.7271 4.69983C13.5287 4.98163 13.3657 5.2902 13.2448 5.61907Z" fill="#222222"/>
<circle cx="17" cy="7" r="2" fill="#222222"/>
</svg>
