<svg width="24" height="24" viewBox="0 0 24 24" fill="none" xmlns="http://www.w3.org/2000/svg">
<path fill-rule="evenodd" clip-rule="evenodd" d="M14.5868 6.5848C14.9487 6.22349 15.4482 6.00006 16 6.00006C17.1046 6.00006 18 6.89549 18 8.00006C18 8.55181 17.7766 9.05138 17.4153 9.41323C16.824 8.17771 15.8223 7.17607 14.5868 6.5848ZM10.2571 6.25713C10.5118 5.41674 10.9459 4.65435 11.5149 4.01453C7.32249 4.26529 4 7.74467 4 12.0001C4 16.4183 7.58172 20.0001 12 20.0001C16.2554 20.0001 19.7348 16.6776 19.9855 12.4852C19.3457 13.0541 18.5833 13.4883 17.7429 13.743C16.9962 16.2067 14.7075 18.0001 12 18.0001C8.68629 18.0001 6 15.3138 6 12.0001C6 9.29252 7.79338 7.00386 10.2571 6.25713Z" fill="#33363F"/>
<circle cx="16" cy="8" r="4" fill="#33363F"/>
</svg>
