<svg width="24" height="24" viewBox="0 0 24 24" fill="none" xmlns="http://www.w3.org/2000/svg">
<path d="M18.4379 10.8112C18.6892 11.2462 18.8149 11.4637 18.8149 12C18.8149 12.5363 18.6892 12.7538 18.4379 13.1888C17.5834 14.6675 15.6561 17 12 17C8.34394 17 6.41663 14.6675 5.56211 13.1888C5.31076 12.7538 5.18508 12.5363 5.18508 12C5.18508 11.4637 5.31076 11.2462 5.56211 10.8112C6.41663 9.33247 8.34394 7 12 7C15.6561 7 17.5834 9.33247 18.4379 10.8112Z" fill="#7E869E" fill-opacity="0.25"/>
<circle cx="12" cy="12" r="3" fill="#222222"/>
<path d="M17.5 3.5H17.7C19.4913 3.5 20.387 3.5 20.9435 4.0565C21.5 4.61299 21.5 5.50866 21.5 7.3V7.5M17.5 20.5H17.7C19.4913 20.5 20.387 20.5 20.9435 19.9435C21.5 19.387 21.5 18.4913 21.5 16.7V16.5M6.5 3.5H6.3C4.50866 3.5 3.61299 3.5 3.0565 4.0565C2.5 4.61299 2.5 5.50866 2.5 7.3V7.5M6.5 20.5H6.3C4.50866 20.5 3.61299 20.5 3.0565 19.9435C2.5 19.387 2.5 18.4913 2.5 16.7V16.5" stroke="#7E869E" stroke-opacity="0.25" stroke-linecap="round"/>
</svg>
