<svg width="24" height="24" viewBox="0 0 24 24" fill="none" xmlns="http://www.w3.org/2000/svg">
<circle cx="12" cy="12" r="1" fill="#33363F"/>
<path d="M12 3C12.1887 3 12.4695 3.09148 12.8301 3.47266C13.1928 3.85623 13.5664 4.46568 13.9004 5.30078C14.5661 6.9654 15 9.33352 15 12C15 14.6665 14.5661 17.0346 13.9004 18.6992C13.5664 19.5343 13.1928 20.1438 12.8301 20.5273C12.4695 20.9085 12.1887 21 12 21C11.8113 21 11.5305 20.9085 11.1699 20.5273C10.8072 20.1438 10.4336 19.5343 10.0996 18.6992C9.43387 17.0346 9 14.6665 9 12C9 9.33352 9.43388 6.9654 10.0996 5.30078C10.4336 4.46568 10.8072 3.85623 11.1699 3.47266C11.5305 3.09148 11.8113 3 12 3Z" stroke="#33363F" stroke-width="2"/>
<path d="M19.7943 7.50005C19.8886 7.66344 19.9498 7.95237 19.8 8.45525C19.6492 8.96118 19.3081 9.58939 18.7519 10.2962C17.6432 11.7051 15.8093 13.2649 13.5 14.5981C11.1908 15.9314 8.92299 16.7397 7.14853 16.9954C6.25829 17.1237 5.54372 17.105 5.03017 16.9826C4.51976 16.8609 4.30013 16.6634 4.2058 16.5001C4.11146 16.3367 4.05028 16.0477 4.20009 15.5449C4.3509 15.0389 4.69194 14.4107 5.24814 13.7039C6.35687 12.295 8.19079 10.7352 10.5 9.40197C12.8093 8.06873 15.0771 7.26042 16.8515 7.00466C17.7418 6.87639 18.4563 6.89515 18.9699 7.01751C19.4803 7.13921 19.6999 7.33666 19.7943 7.50005Z" stroke="#33363F" stroke-width="2"/>
<path d="M19.7943 16.4999C19.8886 16.3365 19.9498 16.0476 19.8 15.5447C19.6492 15.0388 19.3081 14.4105 18.7519 13.7037C17.6432 12.2949 15.8093 10.7351 13.5 9.40181C11.1908 8.06857 8.92299 7.26026 7.14853 7.00449C6.25829 6.87623 5.54372 6.89499 5.03017 7.01735C4.51976 7.13904 4.30013 7.3365 4.2058 7.49989C4.11146 7.66328 4.05028 7.95221 4.20009 8.45509C4.3509 8.96102 4.69194 9.58923 5.24814 10.2961C6.35687 11.7049 8.19079 13.2647 10.5 14.598C12.8093 15.9312 15.0771 16.7395 16.8515 16.9953C17.7418 17.1235 18.4563 17.1048 18.9699 16.9824C19.4803 16.8607 19.6999 16.6633 19.7943 16.4999Z" stroke="#33363F" stroke-width="2"/>
</svg>
