<svg viewBox="0 0 24 24" fill="none" xmlns="http://www.w3.org/2000/svg">
<circle cx="12" cy="12" r="1" fill="#222222"/>
<path fill-rule="evenodd" clip-rule="evenodd" d="M15.1404 17.4393C15.3384 16.8802 15.5079 16.27 15.6427 15.6184C15.2764 15.8641 14.8951 16.1019 14.5 16.33C14.1048 16.5581 13.7082 16.7695 13.3123 16.9639C13.944 17.1729 14.5572 17.3312 15.1404 17.4393ZM15.7797 18.5466C14.8629 20.662 13.5096 22 12 22C10.4903 22 9.13698 20.662 8.22019 18.5465C5.92987 18.8102 4.09451 18.3072 3.33972 16.9999C2.58493 15.6925 3.06698 13.8515 4.44054 11.9999C3.06698 10.1483 2.58493 8.30728 3.33972 6.99995C4.09451 5.69261 5.92991 5.18958 8.22027 5.45331C9.13705 3.33797 10.4904 2 12 2C13.5095 2 14.8628 3.33793 15.7796 5.45324C18.07 5.18949 19.9054 5.69251 20.6602 6.99987C21.415 8.30722 20.933 10.1483 19.5594 11.9999C20.933 13.8516 21.415 15.6926 20.6602 17C19.9054 18.3073 18.07 18.8103 15.7797 18.5466ZM14.7568 18.3837C13.8763 18.2063 12.9471 17.9273 11.9999 17.5483C11.0526 17.9272 10.1235 18.2063 9.24306 18.3836C9.28098 18.4652 9.31959 18.5453 9.35884 18.6239C10.2105 20.3272 11.2021 21 12 21C12.7978 21 13.7894 20.3272 14.6411 18.6239C14.6803 18.5454 14.7189 18.4653 14.7568 18.3837ZM10.6875 16.9639C10.0558 17.1729 9.44265 17.3312 8.85947 17.4393C8.6615 16.8802 8.49204 16.27 8.35721 15.6185C8.72352 15.8641 9.10484 16.1019 9.49998 16.3301C9.89507 16.5582 10.2916 16.7695 10.6875 16.9639ZM7.19485 14.7741C7.34033 15.7839 7.56323 16.728 7.84987 17.5792C7.76026 17.5872 7.67166 17.5938 7.5841 17.5991C5.68313 17.7132 4.60469 17.1909 4.20575 16.4999C3.80681 15.8089 3.8937 14.6138 4.943 13.0245C4.99133 12.9513 5.04136 12.8779 5.09306 12.8043C5.68688 13.4781 6.3931 14.1432 7.19485 14.7741ZM8.13191 14.2331C8.70563 14.6635 9.33015 15.0773 9.99998 15.4641C10.6698 15.8507 11.3403 16.1847 11.9999 16.4663C12.6595 16.1847 13.3301 15.8507 14 15.464C14.6698 15.0773 15.2943 14.6635 15.868 14.2331C15.9538 13.5211 16 12.7734 16 12C16 11.2265 15.9538 10.4788 15.868 9.76672C15.2943 9.33635 14.6698 8.92256 14 8.53585C13.3301 8.14912 12.6595 7.81516 11.9999 7.53349C11.3403 7.81514 10.6698 8.14907 9.99998 8.53576C9.33016 8.92248 8.70565 9.33628 8.13194 9.76666C8.04606 10.4787 7.99995 11.2265 7.99995 12C7.99995 12.7734 8.04606 13.5211 8.13191 14.2331ZM13.3123 7.03592C13.7082 7.23034 14.1048 7.44168 14.5 7.66982C14.8951 7.89794 15.2764 8.13572 15.6427 8.38136C15.5078 7.72978 15.3383 7.1196 15.1403 6.56049C14.5571 6.66858 13.944 6.8269 13.3123 7.03592ZM16.9551 10.6545C16.9847 11.0946 17 11.5437 17 12C17 12.4562 16.9847 12.9053 16.9551 13.3453C17.4519 12.9027 17.8956 12.4509 18.2808 11.9999C17.8956 11.5489 17.4519 11.0971 16.9551 10.6545ZM18.9068 11.1955C18.313 10.5217 17.6068 9.85659 16.805 9.22571C16.6595 8.2159 16.4366 7.27172 16.1499 6.42052C16.2396 6.41255 16.3282 6.40593 16.4158 6.40067C18.3168 6.28657 19.3953 6.80888 19.7942 7.49987C20.1931 8.19085 20.1063 9.38597 19.057 10.9752C19.0086 11.0484 18.9586 11.1219 18.9068 11.1955ZM18.9068 12.8043C18.313 13.4781 17.6068 14.1432 16.8051 14.7741C16.6596 15.7839 16.4367 16.7281 16.15 17.5793C16.2396 17.5873 16.3283 17.5939 16.4158 17.5991C18.3168 17.7132 19.3953 17.1909 19.7942 16.5C20.1931 15.809 20.1063 14.6139 19.057 13.0246C19.0086 12.9514 18.9586 12.8779 18.9068 12.8043ZM11.9999 6.45147C11.0527 6.0726 10.1236 5.79358 9.24313 5.61624C9.28104 5.53465 9.31962 5.4546 9.35884 5.37615C10.2105 3.67281 11.2021 3 12 3C12.7978 3 13.7894 3.67281 14.6411 5.37615C14.6803 5.45458 14.7188 5.5346 14.7567 5.61617C13.8763 5.79352 12.9471 6.07257 11.9999 6.45147ZM8.85953 6.56056C9.44269 6.66864 10.0558 6.82694 10.6875 7.03594C10.2916 7.23032 9.89507 7.44163 9.49998 7.66974C9.10485 7.89786 8.72355 8.13565 8.35725 8.3813C8.49209 7.72976 8.66155 7.11964 8.85953 6.56056ZM7.84993 6.4206C7.7603 6.41263 7.67168 6.40602 7.5841 6.40076C5.68313 6.28666 4.60469 6.80896 4.20575 7.49995C3.80681 8.19094 3.8937 9.38605 4.943 10.9753C4.99133 11.0485 5.04136 11.1219 5.09306 11.1955C5.68689 10.5217 6.39312 9.85655 7.19488 9.22565C7.34037 8.2159 7.56328 7.27176 7.84993 6.4206ZM5.71907 11.9999C6.10428 11.5489 6.54796 11.097 7.04483 10.6545C7.01523 11.0946 6.99995 11.5437 6.99995 12C6.99995 12.4562 7.01523 12.9053 7.04481 13.3453C6.54795 12.9028 6.10428 12.4509 5.71907 11.9999Z" fill="#2A4157" fill-opacity="0.24"/>
</svg>
