<svg width="24" height="24" viewBox="0 0 24 24" fill="none" xmlns="http://www.w3.org/2000/svg">
<circle cx="12" cy="12" r="10" fill="#2A4157" fill-opacity="0.24"/>
<circle cx="12" cy="12" r="1" fill="#222222"/>
<path fill-rule="evenodd" clip-rule="evenodd" d="M14.3798 16.122C14.4918 15.7866 14.5912 15.4287 14.6758 15.0515C14.4567 15.1928 14.2312 15.3305 13.9999 15.4641C13.7686 15.5976 13.5366 15.724 13.3047 15.8431C13.6737 15.9585 14.0333 16.0513 14.3798 16.122ZM15.0237 17.2373C14.2903 18.9296 13.2076 20 12 20C10.7923 20 9.70963 18.9296 8.9762 17.2373C7.14387 17.4483 5.67551 17.0459 5.07167 16C4.46784 14.9541 4.85348 13.4813 5.95233 12C4.85345 10.5187 4.46779 9.04587 5.07163 7.99999C5.67548 6.95409 7.14386 6.55168 8.97621 6.7627C9.70963 5.07039 10.7923 4 12 4C13.2076 4 14.2903 5.07038 15.0237 6.76267C16.856 6.55171 18.3243 6.95414 18.9281 7.99999C19.5319 9.04587 19.1463 10.5187 18.0474 12C19.1462 13.4813 19.5319 14.9541 18.928 16C18.3242 17.0458 16.856 17.4483 15.0237 17.2373ZM14.0045 17.0645C13.3602 16.9222 12.686 16.7132 11.9999 16.4387C11.3138 16.7132 10.6396 16.9221 9.99545 17.0645C10.0187 17.1136 10.0422 17.162 10.066 17.2096C10.7367 18.5511 11.4782 19 12 19C12.5217 19 13.2633 18.5511 13.934 17.2096C13.9578 17.162 13.9813 17.1137 14.0045 17.0645ZM10.695 15.8431C10.3261 15.9584 9.96653 16.0513 9.62015 16.1219C9.50814 15.7866 9.40877 15.4288 9.32419 15.0517C9.54324 15.1929 9.76858 15.3306 9.99983 15.4641C10.2312 15.5976 10.4631 15.724 10.695 15.8431ZM8.15592 14.2195C8.2613 14.9508 8.41744 15.6391 8.61622 16.2682C8.56204 16.2727 8.50836 16.2765 8.45519 16.2797C6.95814 16.3696 6.19857 15.9518 5.93769 15.5C5.67682 15.0481 5.69485 14.1815 6.52119 12.9299C6.55051 12.8855 6.58065 12.841 6.6116 12.7963C7.05704 13.2831 7.57515 13.7625 8.15592 14.2195ZM9.09414 13.6778C9.52735 13.9986 9.9971 14.3078 10.4998 14.5981C11.0026 14.8884 11.5053 15.1406 11.9999 15.3554C12.4944 15.1406 12.9971 14.8884 13.4999 14.5981C14.0027 14.3078 14.4725 13.9985 14.9058 13.6776C14.9671 13.142 15 12.5805 15 12C15 11.4195 14.9671 10.858 14.9058 10.3224C14.4725 10.0015 14.0027 9.69224 13.4998 9.40191C12.997 9.11163 12.4944 8.85938 11.9999 8.64462C11.5053 8.85938 11.0027 9.11163 10.4999 9.40191C9.99712 9.69218 9.52736 10.0014 9.09414 10.3222C9.03287 10.8579 8.99998 11.4194 8.99998 12C8.99998 12.5806 9.03287 13.1421 9.09414 13.6778ZM13.3047 8.15688C13.5366 8.27599 13.7685 8.40234 13.9998 8.53589C14.2312 8.66947 14.4567 8.8072 14.6758 8.94849C14.5912 8.57127 14.4918 8.21338 14.3798 7.87801C14.0333 7.94867 13.6737 8.04154 13.3047 8.15688ZM15.9806 11.2086C15.9934 11.4689 16 11.7329 16 12C16 12.2671 15.9934 12.5311 15.9806 12.7914C16.2649 12.5296 16.5251 12.2647 16.7595 12C16.5251 11.7354 16.265 11.4704 15.9806 11.2086ZM17.3881 11.2037C16.9427 10.717 16.4247 10.2377 15.8441 9.78074C15.7387 9.0493 15.5825 8.36089 15.3837 7.73177C15.4378 7.7273 15.4915 7.72346 15.5446 7.72028C17.0416 7.63042 17.8012 8.04815 18.062 8.49999C18.3229 8.95183 18.3049 9.81851 17.4786 11.0701C17.4492 11.1145 17.4191 11.159 17.3881 11.2037ZM17.3881 12.7963C16.9427 13.283 16.4247 13.7624 15.8441 14.2193C15.7387 14.9507 15.5825 15.6391 15.3837 16.2682C15.4378 16.2727 15.4914 16.2765 15.5445 16.2797C17.0416 16.3696 17.8011 15.9518 18.062 15.5C18.3229 15.0481 18.3049 14.1815 17.4785 12.9299C17.4492 12.8855 17.419 12.841 17.3881 12.7963ZM11.9999 7.56125C11.3138 7.28683 10.6396 7.07788 9.99546 6.9355C10.0187 6.88636 10.0422 6.83797 10.066 6.79036C10.7367 5.44895 11.4782 5 12 5C12.5217 5 13.2633 5.44895 13.934 6.79036C13.9578 6.83796 13.9813 6.88633 14.0045 6.93546C13.3602 7.07784 12.686 7.2868 11.9999 7.56125ZM9.62015 7.87806C9.96654 7.94871 10.3261 8.04156 10.695 8.15688C10.4631 8.27599 10.2312 8.40234 9.99987 8.53589C9.7686 8.66941 9.54325 8.80708 9.32419 8.94831C9.40877 8.57117 9.50814 8.21336 9.62015 7.87806ZM8.61623 7.73179C8.56203 7.7273 8.50833 7.72347 8.45515 7.72028C6.9581 7.63042 6.19853 8.04815 5.93766 8.49999C5.67679 8.95183 5.69481 9.81851 6.52115 11.0701C6.55049 11.1145 6.58064 11.159 6.6116 11.2037C7.05704 10.717 7.57515 10.2375 8.15592 9.78052C8.2613 9.04917 8.41744 8.36084 8.61623 7.73179ZM7.24023 12C7.47465 11.7353 7.73491 11.4703 8.01931 11.2084C8.00652 11.4688 7.99998 11.7329 7.99998 12C7.99998 12.2671 8.00652 12.5312 8.01931 12.7916C7.73491 12.5298 7.47466 12.2647 7.24023 12Z" fill="#222222"/>
</svg>
