<svg width="24" height="24" viewBox="0 0 24 24" fill="none" xmlns="http://www.w3.org/2000/svg">
<circle cx="12" cy="12" r="1.5" stroke="#222222"/>
<path d="M12 2.5C13.0892 2.5 14.2097 3.39607 15.0879 5.15234C15.9512 6.87893 16.5 9.29937 16.5 12C16.5 14.7006 15.9512 17.1211 15.0879 18.8477C14.2097 20.6039 13.0892 21.5 12 21.5C10.9108 21.5 9.79033 20.6039 8.91211 18.8477C8.04882 17.1211 7.5 14.7006 7.5 12C7.5 9.29937 8.04882 6.87893 8.91211 5.15234C9.79033 3.39607 10.9108 2.5 12 2.5Z" stroke="#222222"/>
<path d="M21.5 12C21.5 13.0892 20.6039 14.2097 18.8477 15.0879C17.1211 15.9512 14.7006 16.5 12 16.5C9.29937 16.5 6.87893 15.9512 5.15234 15.0879C3.39607 14.2097 2.5 13.0892 2.5 12C2.5 10.9108 3.39607 9.79033 5.15234 8.91211C6.87893 8.04882 9.29937 7.5 12 7.5C14.7006 7.5 17.1211 8.04882 18.8477 8.91211C20.6039 9.79033 21.5 10.9108 21.5 12Z" stroke="#222222"/>
</svg>
