<svg width="24" height="24" viewBox="0 0 24 24" fill="none" xmlns="http://www.w3.org/2000/svg">
<circle cx="12" cy="12" r="1" fill="#222222"/>
<path d="M12 2.5C13.0892 2.5 14.2097 3.39607 15.0879 5.15234C15.9512 6.87893 16.5 9.29937 16.5 12C16.5 14.7006 15.9512 17.1211 15.0879 18.8477C14.2097 20.6039 13.0892 21.5 12 21.5C10.9108 21.5 9.79033 20.6039 8.91211 18.8477C8.04882 17.1211 7.5 14.7006 7.5 12C7.5 9.29937 8.04882 6.87893 8.91211 5.15234C9.79033 3.39607 10.9108 2.5 12 2.5Z" stroke="#222222"/>
<path d="M20.2273 7.24987C20.7719 8.19317 20.5561 9.61153 19.4742 11.2502C18.4106 12.8612 16.5888 14.5467 14.25 15.897C11.9112 17.2473 9.54064 17.9822 7.61373 18.0979C5.65364 18.2155 4.3174 17.6932 3.77278 16.7499C3.22817 15.8066 3.44397 14.3882 4.52583 12.7495C5.58945 11.1386 7.41121 9.45307 9.75002 8.10275C12.0888 6.75244 14.4594 6.01751 16.3863 5.90185C18.3464 5.78427 19.6827 6.30656 20.2273 7.24987Z" stroke="#222222"/>
<path d="M20.2273 16.75C20.7719 15.8067 20.5561 14.3883 19.4742 12.7496C18.4106 11.1387 16.5888 9.45315 14.25 8.10284C11.9112 6.75252 9.54064 6.01759 7.61373 5.90193C5.65364 5.78436 4.3174 6.30665 3.77278 7.24995C3.22817 8.19325 3.44397 9.61162 4.52583 11.2503C5.58945 12.8612 7.41121 14.5467 9.75002 15.8971C12.0888 17.2474 14.4594 17.9823 16.3863 18.098C18.3464 18.2155 19.6827 17.6933 20.2273 16.75Z" stroke="#222222"/>
</svg>
