<svg width="24" height="24" viewBox="0 0 24 24" fill="none" xmlns="http://www.w3.org/2000/svg">
<circle cx="12" cy="12" r="1" fill="#33363F"/>
<path d="M12 3C13.1675 3 14.3951 3.79408 15.3848 5.44336C16.3625 7.07288 17 9.38866 17 12C17 14.6113 16.3625 16.9271 15.3848 18.5566C14.3951 20.2059 13.1675 21 12 21C10.8325 21 9.60487 20.2059 8.61523 18.5566C7.63752 16.9271 7 14.6113 7 12C7 9.38866 7.63752 7.07288 8.61523 5.44336C9.60487 3.79408 10.8325 3 12 3Z" stroke="#33363F" stroke-width="2"/>
<path d="M21 12C21 13.1675 20.2059 14.3951 18.5566 15.3848C16.9271 16.3625 14.6113 17 12 17C9.38866 17 7.07288 16.3625 5.44336 15.3848C3.79408 14.3951 3 13.1675 3 12C3 10.8325 3.79408 9.60487 5.44336 8.61523C7.07288 7.63752 9.38866 7 12 7C14.6113 7 16.9271 7.63752 18.5566 8.61523C20.2059 9.60487 21 10.8325 21 12Z" stroke="#33363F" stroke-width="2"/>
</svg>
