<svg width="24" height="24" viewBox="0 0 24 24" fill="none" xmlns="http://www.w3.org/2000/svg">
<path fill-rule="evenodd" clip-rule="evenodd" d="M5.55469 4.26165C5.20542 4.75208 5 5.35205 5 6V18C5 18.5635 5.15537 19.0908 5.42562 19.5412L8.8187 15.5311C9.10371 15.1943 9.52256 15 9.96379 15H11.4999L11.5 13.5C11.5 13.2238 11.7239 13 12 13C12.2762 13 12.5 13.2239 12.5 13.5L12.4999 15H14.0362C14.4774 15 14.8963 15.1943 15.1813 15.5311L18.5744 19.5412C18.8446 19.0907 19 18.5635 19 18V6C19 5.35209 18.7946 4.75215 18.4454 4.26174L15.1466 7.56065C14.8653 7.84196 14.4837 8 14.0859 8H9.91444C9.51662 8 9.13509 7.84197 8.85379 7.56067L5.55469 4.26165ZM17.7383 3.55463C17.2479 3.2054 16.6479 3 16 3H8C7.35212 3 6.75221 3.20537 6.26182 3.55457L9.56089 6.85356C9.65465 6.94732 9.78183 7 9.91444 7H14.0859C14.2185 7 14.3457 6.94732 14.4394 6.85355L17.7383 3.55463ZM17.9147 20.3096L14.4179 16.177C14.3229 16.0648 14.1833 16 14.0362 16L11.9998 16L9.96379 16C9.81671 16 9.6771 16.0648 9.58209 16.177L6.08533 20.3097C6.60483 20.7408 7.27215 21 8 21H16C16.7279 21 17.3952 20.7408 17.9147 20.3096Z" fill="#33363F"/>
</svg>
