<svg width="24" height="24" viewBox="0 0 24 24" fill="none" xmlns="http://www.w3.org/2000/svg">
<path d="M15.5 10.5C15.5 10.5 15.5 15.077 15.5 18.5016C15.5 20.1584 14.1569 21.5 12.5 21.5V21.5C10.8431 21.5 9.5 20.1569 9.5 18.5V10.5" stroke="#222222" stroke-linejoin="round"/>
<path d="M15.5 8.5H16.5C17.0523 8.5 17.5 8.94772 17.5 9.5V9.5C17.5 10.0523 17.0523 10.5 16.5 10.5H8.5C7.94772 10.5 7.5 10.0523 7.5 9.5V9.5C7.5 8.94772 7.94772 8.5 8.5 8.5H11.5" stroke="#222222" stroke-linecap="round" stroke-linejoin="round"/>
<path d="M13.5 18.5V15.5H11.5V18.5C11.5 19.0523 11.9477 19.5 12.5 19.5C13.0523 19.5 13.5 19.0523 13.5 18.5Z" stroke="#222222" stroke-linejoin="round"/>
<circle cx="16" cy="4" r="1.5" stroke="#222222" stroke-linejoin="round"/>
<circle cx="13.5" cy="8.5" r="0.5" fill="#222222"/>
<circle cx="9.5" cy="5.5" r="1" stroke="#222222" stroke-linejoin="round"/>
</svg>
