<svg viewBox="0 0 24 24" fill="none" xmlns="http://www.w3.org/2000/svg">
<circle cx="12" cy="12" r="4" fill="#33363F"/>
<circle cx="18" cy="19" r="1" stroke="#33363F" stroke-width="2"/>
<circle cx="19" cy="5" r="3" fill="#33363F"/>
<circle cx="5.5" cy="5.5" r="2.5" fill="#33363F"/>
<circle cx="5.5" cy="18.5" r="3.5" fill="#33363F"/>
<path fill-rule="evenodd" clip-rule="evenodd" d="M9.24256 7.82841L6.70706 5.29291L5.29285 6.70712L7.82835 9.24262C8.1999 8.68164 8.68158 8.19996 9.24256 7.82841ZM16.1716 9.24262C15.8 8.68164 15.3183 8.19996 14.7573 7.82841L16.2928 6.29291L17.7071 7.70712L16.1716 9.24262ZM14.5573 16.2974C15.1375 15.9514 15.6417 15.4913 16.0389 14.9479L18.7808 18.3753L17.2191 19.6247L14.5573 16.2974ZM7.82835 14.7574C8.1999 15.3184 8.68158 15.8001 9.24256 16.1716L7.70706 17.7071L6.29285 16.2929L7.82835 14.7574Z" fill="#33363F"/>
</svg>
