<svg width="24" height="24" viewBox="0 0 24 24" fill="none" xmlns="http://www.w3.org/2000/svg">
<path d="M18.38 12.5C18.38 12.7761 18.6039 13 18.88 13C19.1561 13 19.38 12.7761 19.38 12.5L18.38 12.5ZM18.38 9L18.38 12.5L19.38 12.5L19.38 9L18.38 9Z" fill="#33363F"/>
<path fill-rule="evenodd" clip-rule="evenodd" d="M7.3618 11.6809C7.19558 11.5978 7 11.7187 7 11.9045V15C7 15 7 18 12 18C17 18 17 15 17 15V11.9045C17 11.7187 16.8044 11.5978 16.6382 11.6809L12.4472 13.7764C12.1657 13.9171 11.8343 13.9171 11.5528 13.7764L7.3618 11.6809Z" fill="#33363F"/>
<path d="M4.89443 8.55279L11.7764 5.1118C11.9172 5.04142 12.0828 5.04142 12.2236 5.1118L19.1056 8.55279C19.4741 8.73705 19.4741 9.26295 19.1056 9.44721L12.2236 12.8882C12.0828 12.9586 11.9172 12.9586 11.7764 12.8882L4.89443 9.44721C4.5259 9.26295 4.5259 8.73705 4.89443 8.55279Z" fill="#33363F"/>
</svg>
