<svg width="24" height="24" viewBox="0 0 24 24" fill="none" xmlns="http://www.w3.org/2000/svg">
<path d="M4 6.5C4.42373 6.5 4.68433 6.83129 4.81934 7.05957C4.97406 7.32134 5.09661 7.66767 5.19238 8.05078C5.38578 8.82464 5.5 9.86711 5.5 11C5.5 12.1329 5.38578 13.1754 5.19238 13.9492C5.09661 14.3323 4.97406 14.6787 4.81934 14.9404C4.68433 15.1687 4.42373 15.5 4 15.5C3.57627 15.5 3.31567 15.1687 3.18066 14.9404C3.02594 14.6787 2.90339 14.3323 2.80762 13.9492C2.61422 13.1754 2.5 12.1329 2.5 11C2.5 9.86711 2.61422 8.82464 2.80762 8.05078C2.90339 7.66767 3.02594 7.32134 3.18066 7.05957C3.31567 6.83129 3.57627 6.5 4 6.5Z" stroke="#222222"/>
<path d="M20 15.5C20.4127 15.5 20.6723 15.1832 20.8108 14.9539C20.9675 14.6942 21.0928 14.3472 21.1922 13.9497C21.3925 13.1483 21.5 12.0878 21.5 11C21.5 9.91223 21.3925 8.8517 21.1922 8.0503C21.0928 7.65275 20.9675 7.30583 20.8108 7.04612C20.6723 6.81677 20.4127 6.5 20 6.5" stroke="#222222" stroke-linecap="round"/>
<path d="M20 6.5C20 6.5 16.5 7.5 12 7.5C7.5 7.5 4 6.5 4 6.5" stroke="#222222" stroke-linecap="round"/>
<path d="M4 15.5C4 15.5 6.5044 14.7845 10 14.5639M20 15.5C20 15.5 17.4956 14.7845 14 14.5639" stroke="#222222" stroke-linecap="round"/>
<path d="M10.5 7.5V11M13.5 7.5V11" stroke="#222222" stroke-linecap="round"/>
<circle cx="12" cy="13" r="2.5" stroke="#222222"/>
<path d="M10 14.5L7.5 16.5L9 17L10 18.5L12 15.5L14 18.5L15 17L16.5 16.5L14 14.5" stroke="#222222" stroke-linecap="round" stroke-linejoin="round"/>
</svg>
