<svg viewBox="0 0 24 24" fill="none" xmlns="http://www.w3.org/2000/svg">
<path d="M5 6C5.7099 6 6.09976 6.55148 6.25 6.80566C6.43976 7.12673 6.57667 7.52452 6.67773 7.92871C6.88372 8.75267 7 9.8383 7 11C7 12.1617 6.88372 13.2473 6.67773 14.0713C6.57667 14.4755 6.43976 14.8733 6.25 15.1943C6.09976 15.4485 5.7099 16 5 16C4.2901 16 3.90024 15.4485 3.75 15.1943C3.56024 14.8733 3.42333 14.4755 3.32227 14.0713C3.11628 13.2473 3 12.1617 3 11C3 9.8383 3.11628 8.75267 3.32227 7.92871C3.42333 7.52452 3.56024 7.12673 3.75 6.80566C3.90024 6.55148 4.2901 6 5 6Z" stroke="#33363F" stroke-width="2"/>
<path d="M19 16C19.6929 16 20.0822 15.4718 20.2388 15.2122C20.4321 14.892 20.5722 14.491 20.6772 14.071C20.8904 13.2183 21 12.1147 21 11C21 9.88534 20.8904 8.78169 20.6772 7.92904C20.5722 7.509 20.4321 7.10805 20.2388 6.78775C20.0822 6.52818 19.6929 6 19 6" stroke="#33363F" stroke-width="2" stroke-linecap="round"/>
<path d="M19 6C19 6 15.9375 7 12 7C8.0625 7 5 6 5 6" stroke="#33363F" stroke-width="2" stroke-linecap="round"/>
<path d="M5 16C5 16 6.44135 15.2356 9.5 15M19 16C19 16 17.5587 15.2356 14.5 15" stroke="#33363F" stroke-width="2" stroke-linecap="round"/>
<path d="M10 8V10M14 8V10" stroke="#33363F" stroke-width="2" stroke-linecap="round"/>
<circle cx="12" cy="13" r="3" stroke="#33363F" stroke-width="2"/>
<path d="M9.5 15L6 18L8 18.5L9.5 20L12 16L14.5 20L16 18.5L18 18L14.5 15" stroke="#33363F" stroke-width="2" stroke-linecap="round" stroke-linejoin="round"/>
</svg>
