<svg width="24" height="24" viewBox="0 0 24 24" fill="none" xmlns="http://www.w3.org/2000/svg">
<path d="M7.5 7.5C7.5 6.39543 8.39543 5.5 9.5 5.5H14.5C15.6046 5.5 16.5 6.39543 16.5 7.5V18.5C16.5 19.6046 15.6046 20.5 14.5 20.5H9.5C8.39543 20.5 7.5 19.6046 7.5 18.5V7.5Z" fill="#2A4157" fill-opacity="0.24" stroke="#33363F"/>
<rect x="9.00001" y="2" width="6" height="2" rx="1" fill="#33363F"/>
<path d="M9 8C9 7.44772 9.44772 7 10 7H14C14.5523 7 15 7.44772 15 8V18C15 18.5523 14.5523 19 14 19H10C9.44772 19 9 18.5523 9 18V8Z" fill="#33363F"/>
</svg>
