<svg width="24" height="24" viewBox="0 0 24 24" fill="none" xmlns="http://www.w3.org/2000/svg">
<path d="M7.5 6.5C7.5 5.39543 8.39543 4.5 9.5 4.5H14.5C15.6046 4.5 16.5 5.39543 16.5 6.5V19.5C16.5 20.6046 15.6046 21.5 14.5 21.5H9.5C8.39543 21.5 7.5 20.6046 7.5 19.5V6.5Z" stroke="#33363F"/>
<path d="M14.5 10.5V7.5C14.5 6.94772 14.0523 6.5 13.5 6.5L10.5 6.5C9.94772 6.5 9.5 6.94772 9.5 7.5L9.5 10.5M14.5 12.5V18.5C14.5 19.0523 14.0523 19.5 13.5 19.5H10.5C9.94772 19.5 9.5 19.0523 9.5 18.5V12.5" stroke="#33363F" stroke-linecap="round"/>
<path d="M14.5 4.5V3.5C14.5 2.94772 14.0523 2.5 13.5 2.5H10.5C9.94772 2.5 9.5 2.94772 9.5 3.5V4.5" stroke="#33363F"/>
</svg>
