<svg width="24" height="24" viewBox="0 0 24 24" fill="none" xmlns="http://www.w3.org/2000/svg">
<path d="M3.5 14.5V17.5C3.5 18.6046 4.39543 19.5 5.5 19.5H18.5C19.6046 19.5 20.5 18.6046 20.5 17.5V16.5M3.5 11.5V10.272C3.5 9.29335 4.29335 8.5 5.272 8.5V8.5C6.01065 8.5 6.67182 8.04181 6.93118 7.35019L7.51334 5.79775C7.80607 5.01715 8.55231 4.5 9.386 4.5H14.614C15.4477 4.5 16.1939 5.01715 16.4867 5.79775L17.0688 7.35019C17.3282 8.04181 17.9893 8.5 18.728 8.5V8.5C19.7066 8.5 20.5 9.29335 20.5 10.272V13.5" stroke="#222222" stroke-linecap="round"/>
<circle cx="12" cy="13" r="3.5" stroke="#222222"/>
</svg>
