<svg viewBox="0 0 24 24" fill="none" xmlns="http://www.w3.org/2000/svg">
<path d="M3 9.8541C3 8.83011 3.83011 8 4.8541 8C5.55638 8 6.19839 7.60322 6.51246 6.97508L7 6C7.43394 5.13211 7.65091 4.69817 8.01094 4.41915C8.12247 4.33272 8.24283 4.25834 8.37001 4.19724C8.78058 4 9.26574 4 10.2361 4H13.7639C14.7343 4 15.2194 4 15.63 4.19724C15.7572 4.25834 15.8775 4.33272 15.9891 4.41915C16.3491 4.69817 16.5661 5.13211 17 6L17.4875 6.97508C17.8016 7.60322 18.4436 8 19.1459 8C20.1699 8 21 8.83011 21 9.8541V16C21 17.8856 21 18.8284 20.4142 19.4142C19.8284 20 18.8856 20 17 20H7C5.11438 20 4.17157 20 3.58579 19.4142C3 18.8284 3 17.8856 3 16V9.8541Z" fill="#2A4157" fill-opacity="0.24" stroke="#33363F"/>
<circle cx="12" cy="13" r="4" fill="#33363F"/>
</svg>
