<svg width="24" height="24" viewBox="0 0 24 24" fill="none" xmlns="http://www.w3.org/2000/svg">
<path d="M2.5 9.74621C2.5 9.51756 2.5 9.40324 2.50934 9.30693C2.60167 8.35501 3.35501 7.60167 4.30693 7.50934C4.40324 7.5 4.51756 7.5 4.74621 7.5V7.5C4.9288 7.5 5.0201 7.5 5.10148 7.49334C5.89648 7.42832 6.57684 6.89712 6.83273 6.14162C6.85893 6.06429 6.88107 5.97572 6.92536 5.79857L7 5.5C7.1153 5.03882 7.17294 4.80823 7.267 4.61706C7.53685 4.0686 8.04269 3.67366 8.64021 3.54489C8.84849 3.5 9.08618 3.5 9.56155 3.5H14.4384C14.9138 3.5 15.1515 3.5 15.3598 3.54489C15.9573 3.67366 16.4631 4.0686 16.733 4.61706C16.8271 4.80823 16.8847 5.03882 17 5.5L17.0746 5.79858C17.1189 5.97572 17.1411 6.06429 17.1673 6.14162C17.4232 6.89712 18.1035 7.42832 18.8985 7.49334C18.9799 7.5 19.0712 7.5 19.2538 7.5V7.5C19.4824 7.5 19.5968 7.5 19.6931 7.50934C20.645 7.60167 21.3983 8.35501 21.4907 9.30693C21.5 9.40324 21.5 9.51756 21.5 9.74621V16.5C21.5 18.3856 21.5 19.3284 20.9142 19.9142C20.3284 20.5 19.3856 20.5 17.5 20.5H6.5C4.61438 20.5 3.67157 20.5 3.08579 19.9142C2.5 19.3284 2.5 18.3856 2.5 16.5V9.74621Z" stroke="#2A4157" stroke-opacity="0.24"/>
<circle cx="12" cy="13" r="3.4" stroke="#222222" stroke-width="1.2"/>
</svg>
