<svg width="24" height="24" viewBox="0 0 24 24" fill="none" xmlns="http://www.w3.org/2000/svg">
<path fill-rule="evenodd" clip-rule="evenodd" d="M10.6382 14.7237L10.1073 15.7855C9.6772 16.6456 9.46216 17.0757 9.6234 17.2016C9.78463 17.3275 10.1497 17.0146 10.8799 16.3887L14.9738 12.8797C15.404 12.5109 15.6191 12.3266 15.5587 12.1633C15.4983 12 15.215 12 14.6484 12H14.2071C13.6934 12 13.4365 12 13.3726 11.8457C13.3087 11.6914 13.4903 11.5098 13.8535 11.1465L13.8536 11.1465L15.1464 9.8536C15.5097 9.49034 15.6913 9.30871 15.6274 9.15438C15.5635 9.00005 15.3066 9.00005 14.7929 9.00005H13.9343C13.523 9.00005 13.3174 9.00005 13.2467 8.86801C13.176 8.73598 13.2901 8.56488 13.5182 8.2227L15.7221 4.91684C18.2657 6.25624 20 8.9256 20 12C20 16.4183 16.4183 20 12 20C7.58172 20 4 16.4183 4 12C4 8.12185 6.75958 4.8882 10.4222 4.15558L7.3618 10.2764C7.19965 10.6008 7.11857 10.7629 7.19185 10.8815C7.26512 11 7.44642 11 7.80902 11H9.79289C10.3066 11 10.5635 11 10.6274 11.1544C10.6913 11.3087 10.5097 11.4903 10.1464 11.8536L8.85355 13.1465L8.85355 13.1465C8.49029 13.5098 8.30866 13.6914 8.37258 13.8457C8.43651 14 8.69337 14 9.20711 14H10.191C10.5536 14 10.7349 14 10.8082 14.1186C10.8814 14.2372 10.8004 14.3993 10.6382 14.7237Z" fill="#33363F"/>
</svg>
