<svg viewBox="0 0 24 24" fill="none" xmlns="http://www.w3.org/2000/svg">
<path fill-rule="evenodd" clip-rule="evenodd" d="M12 20C16.4183 20 20 16.4183 20 12C20 7.58172 16.4183 4 12 4C7.58172 4 4 7.58172 4 12C4 16.4183 7.58172 20 12 20ZM12 13.6286V15.5C12 16.47 12 16.955 12.201 16.9951C12.4019 17.0353 12.5885 16.5877 12.9615 15.6923L14.011 13.1736C14.3796 12.289 14.5639 11.8466 14.4532 11.4976C14.3962 11.318 14.2896 11.1581 14.1457 11.0364C13.8662 10.8 13.387 10.8 12.4286 10.8C12.2615 10.8 12.178 10.8 12.117 10.7617C12.0852 10.7417 12.0583 10.7148 12.0383 10.683C12 10.622 12 10.5385 12 10.3714V8.5C12 7.53003 12 7.04505 11.799 7.00485C11.5981 6.96466 11.4115 7.41234 11.0385 8.30769L9.98901 10.8264C9.6204 11.711 9.43609 12.1534 9.54682 12.5024C9.6038 12.682 9.71037 12.8419 9.85426 12.9636C10.1338 13.2 10.613 13.2 11.5714 13.2C11.7385 13.2 11.822 13.2 11.883 13.2383C11.9148 13.2583 11.9417 13.2852 11.9617 13.317C12 13.378 12 13.4615 12 13.6286Z" fill="#222222"/>
</svg>
