<svg width="24" height="24" viewBox="0 0 24 24" fill="none" xmlns="http://www.w3.org/2000/svg">
<path d="M11 13.5H8.78306C7.99347 13.5 7.59868 13.5 7.45543 13.2446C7.31218 12.9892 7.51805 12.6523 7.92977 11.9785L11.5734 6.01632C11.9481 5.40316 12.1354 5.09658 12.3177 5.14787C12.5 5.19916 12.5 5.55845 12.5 6.27705V10C12.5 10.2357 12.5 10.3536 12.5732 10.4268C12.6464 10.5 12.7643 10.5 13 10.5H15.2169C16.0065 10.5 16.4013 10.5 16.5446 10.7554C16.6878 11.0108 16.482 11.3477 16.0702 12.0215L12.4266 17.9837C12.0519 18.5968 11.8646 18.9034 11.6823 18.8521C11.5 18.8008 11.5 18.4415 11.5 17.723V14C11.5 13.7643 11.5 13.6464 11.4268 13.5732C11.3536 13.5 11.2357 13.5 11 13.5Z" stroke="#222222"/>
<path d="M21.3899 10.5576C21.0265 8.19222 19.7838 6.05112 17.9102 4.5623C16.0366 3.07347 13.6701 2.34662 11.2838 2.52704C8.89749 2.70745 6.66719 3.78184 5.03872 5.53544C3.41025 7.28904 2.5036 9.59264 2.50001 11.9858C2.49642 14.3789 3.39616 16.6852 5.01936 18.4437C6.64256 20.2021 8.86963 21.2832 11.2554 21.4708C13.6411 21.6583 16.0098 20.9386 17.8879 19.4554C19.7659 17.9722 21.015 15.8348 21.3855 13.4706" stroke="#222222" stroke-linecap="round"/>
</svg>
