<svg viewBox="0 0 24 24" fill="none" xmlns="http://www.w3.org/2000/svg">
<path d="M12.0186 2.91406L12.1836 2.96387C12.5449 3.10184 12.74 3.39015 12.8301 3.5918C12.9229 3.79962 12.9544 4.01359 12.9697 4.15625C13.0014 4.45121 13 4.85227 13 5.27051V9.2002H13.8701C14.5411 9.2002 15.1589 9.19739 15.6387 9.26855C16.1043 9.33767 16.6659 9.50642 17.0469 10.0166L17.1201 10.123L17.1865 10.2344C17.4895 10.7946 17.4064 11.3755 17.2734 11.8271C17.2049 12.0598 17.1051 12.3158 16.9873 12.5898L16.5928 13.46L13.8613 19.3604C13.6856 19.74 13.5179 20.1041 13.3652 20.3584C13.2913 20.4815 13.1736 20.6629 13.002 20.8125C12.8354 20.9576 12.5371 21.1369 12.1514 21.1104L11.9814 21.0859C11.513 20.9828 11.2729 20.6386 11.1699 20.4082C11.0771 20.2004 11.0456 19.9864 11.0303 19.8438C10.9986 19.5488 11 19.1477 11 18.7295V14.7998H10.1299C9.45893 14.7998 8.84111 14.8026 8.36133 14.7314C7.8957 14.6623 7.3341 14.4936 6.95312 13.9834L6.87988 13.877C6.50039 13.2831 6.58475 12.6545 6.72656 12.1729C6.86352 11.7077 7.12542 11.1487 7.40723 10.54L10.1387 4.63965L10.3955 4.09375C10.4783 3.92341 10.5584 3.76878 10.6348 3.6416C10.7087 3.51853 10.8264 3.33713 10.998 3.1875C11.1646 3.04239 11.4629 2.86306 11.8486 2.88965L12.0186 2.91406Z" stroke="#33363F" stroke-width="2"/>
</svg>
