<svg width="24" height="24" viewBox="0 0 24 24" fill="none" xmlns="http://www.w3.org/2000/svg">
<path d="M11.8164 3.38867L11.9111 3.40234L12.0029 3.42969C12.2035 3.50613 12.3169 3.66717 12.374 3.79492C12.4342 3.92966 12.4588 4.08066 12.4727 4.20898C12.5008 4.47052 12.5 4.83862 12.5 5.27051V9.7002H13.8701C14.5575 9.7002 15.1301 9.69834 15.5645 9.7627C16.0073 9.82838 16.4357 9.98024 16.6992 10.3926L16.7842 10.5488C16.9506 10.9172 16.9045 11.31 16.7939 11.6855C16.732 11.896 16.6403 12.1314 16.5283 12.3916L16.1387 13.25L13.4072 19.1504C13.2259 19.5421 13.0719 19.8761 12.9365 20.1016C12.8701 20.2122 12.784 20.3386 12.6729 20.4355C12.5674 20.5274 12.3974 20.626 12.1836 20.6113L12.0889 20.5977C11.8303 20.5407 11.6913 20.3511 11.626 20.2051C11.5658 20.0703 11.5412 19.9193 11.5273 19.791C11.4992 19.5295 11.5 19.1614 11.5 18.7295V14.2998H10.1299C9.44253 14.2998 8.86987 14.3017 8.43555 14.2373C8.04798 14.1798 7.6717 14.0562 7.40723 13.75L7.30078 13.6074C7.03757 13.1953 7.07974 12.7437 7.20605 12.3145C7.33007 11.8932 7.5725 11.3739 7.86133 10.75L10.5928 4.84961L10.8447 4.31152C10.9227 4.15101 10.9958 4.01114 11.0635 3.89844C11.1299 3.78784 11.216 3.66136 11.3271 3.56445C11.4326 3.47264 11.6026 3.37396 11.8164 3.38867Z" stroke="#33363F"/>
</svg>
