<svg width="24" height="24" viewBox="0 0 24 24" fill="none" xmlns="http://www.w3.org/2000/svg">
<circle cx="12" cy="12" r="9.5" fill="#2A4157" fill-opacity="0.24" stroke="#33363F"/>
<path d="M11.5 13.5429H11.3244C9.83934 13.5429 9.0968 13.5429 8.80533 13.0584C8.51386 12.5739 8.86174 11.9179 9.5575 10.6059L11.0583 7.77584C11.4332 7.06879 11.6207 6.71526 11.8103 6.76244C12 6.80961 12 7.20977 12 8.01009V9.95714C12 10.1928 12 10.3107 12.0732 10.3839C12.1464 10.4571 12.2643 10.4571 12.5 10.4571H12.6756C14.1607 10.4571 14.9032 10.4571 15.1947 10.9416C15.4861 11.4261 15.1383 12.0821 14.4425 13.3941L12.9417 16.2242C12.5668 16.9312 12.3793 17.2847 12.1897 17.2376C12 17.1904 12 16.7902 12 15.9899V14.0429C12 13.8072 12 13.6893 11.9268 13.6161C11.8536 13.5429 11.7357 13.5429 11.5 13.5429Z" fill="#33363F"/>
</svg>
