<svg viewBox="0 0 24 24" fill="none" xmlns="http://www.w3.org/2000/svg">
<path d="M10.6456 18.6327L11.3278 16.1316C11.4069 15.8415 11.4464 15.6965 11.3714 15.5983C11.2963 15.5 11.146 15.5 10.8454 15.5H9.3831C8.99157 15.5 8.7958 15.5 8.724 15.3732C8.65219 15.2463 8.75291 15.0785 8.95435 14.7428L11.0457 11.2572C11.2471 10.9215 11.3478 10.7537 11.276 10.6268C11.2042 10.5 11.0084 10.5 10.6169 10.5H8.2215C7.89372 10.5 7.72984 10.5 7.65527 10.3924C7.5807 10.2848 7.63825 10.1313 7.75334 9.82444L10.3783 2.82444C10.4372 2.6675 10.4666 2.58904 10.5309 2.54452C10.5951 2.5 10.6789 2.5 10.8465 2.5H15.5892C15.9914 2.5 16.1925 2.5 16.2637 2.6297C16.3349 2.7594 16.227 2.92908 16.011 3.26844L13.489 7.23156C13.273 7.57092 13.1651 7.7406 13.2363 7.8703C13.3075 8 13.5086 8 13.9108 8H15.0284C15.4539 8 15.6667 8 15.7365 8.1356C15.8063 8.27121 15.6826 8.44435 15.4353 8.79062L14.0647 10.7094C13.8174 11.0557 13.6937 11.2288 13.7635 11.3644C13.8333 11.5 14.0461 11.5 14.4716 11.5H16.4682C16.9166 11.5 17.1408 11.5 17.2091 11.641C17.2774 11.782 17.1385 11.9579 16.8607 12.3098L11.5204 19.0741C10.9293 19.8229 10.6337 20.1973 10.4514 20.1053C10.2691 20.0134 10.3946 19.5531 10.6456 18.6327Z" fill="#2A4157" fill-opacity="0.24" stroke="#33363F"/>
<path d="M20.5 4L19 6H21L19.5 8" stroke="#7E869E" stroke-opacity="0.25" stroke-linecap="round" stroke-linejoin="round"/>
<path d="M4.5 16L3 18H5L3.5 20" stroke="#7E869E" stroke-opacity="0.25" stroke-linecap="round" stroke-linejoin="round"/>
</svg>
