<svg width="24" height="24" viewBox="0 0 24 24" fill="none" xmlns="http://www.w3.org/2000/svg">
<path d="M11.9235 13.5H8.34227C7.96663 13.5 7.77881 13.5 7.70616 13.3776C7.63351 13.2552 7.72345 13.0903 7.90332 12.7606L13.5 2.5L12.5815 8.92929C12.5436 9.19483 12.5246 9.3276 12.5994 9.4138C12.6741 9.5 12.8083 9.5 13.0765 9.5H15.7235C16.0732 9.5 16.2481 9.5 16.3219 9.61465C16.3958 9.72931 16.3234 9.8885 16.1787 10.2069L11.5 20.5L12.4185 14.0707C12.4564 13.8052 12.4754 13.6724 12.4006 13.5862C12.3259 13.5 12.1917 13.5 11.9235 13.5Z" fill="#2A4157" fill-opacity="0.24" stroke="#33363F" stroke-linecap="round" stroke-linejoin="round"/>
</svg>
