<svg viewBox="0 0 24 24" fill="none" xmlns="http://www.w3.org/2000/svg">
<path d="M7.5 8.5L6.71937 10.8419C6.61927 11.1422 6.56921 11.2924 6.64405 11.3962C6.71888 11.5 6.87716 11.5 7.19371 11.5H9.59788C9.99676 11.5 10.1962 11.5 10.2676 11.6288C10.339 11.7576 10.2333 11.9267 10.0219 12.265L8.47812 14.735C8.26671 15.0733 8.16101 15.2424 8.2324 15.3712C8.30379 15.5 8.50324 15.5 8.90212 15.5H10.8454C11.146 15.5 11.2963 15.5 11.3714 15.5983C11.4464 15.6965 11.4069 15.8415 11.3278 16.1316L10.6456 18.6327C10.3946 19.5531 10.2691 20.0134 10.4514 20.1053C10.6337 20.1973 10.9293 19.8229 11.5204 19.0741L13.9474 16M8.18522 6.44433L9.38604 2.84189C9.44104 2.67688 9.46854 2.59438 9.53401 2.54719C9.59948 2.5 9.68645 2.5 9.86038 2.5H15.6169C16.0084 2.5 16.2042 2.5 16.276 2.62683C16.3478 2.75365 16.2471 2.92152 16.0457 3.25725L13.9543 6.74275C13.7529 7.07848 13.6522 7.24635 13.724 7.37317C13.7958 7.5 13.9916 7.5 14.3831 7.5H15.5C15.9363 7.5 16.1545 7.5 16.2236 7.6382C16.2927 7.77639 16.1618 7.95093 15.9 8.3L14.1 10.7C13.8382 11.0491 13.7073 11.2236 13.7764 11.3618C13.8455 11.5 14.0637 11.5 14.5 11.5H16.4682C16.9166 11.5 17.1408 11.5 17.2091 11.641C17.2774 11.782 17.1385 11.9579 16.8607 12.3098L15.2408 14.3616" stroke="#222222" stroke-linecap="round"/>
<path d="M19.5 4L18 6H20L18.5 8" stroke="#7E869E" stroke-opacity="0.25" stroke-linecap="round" stroke-linejoin="round"/>
<path d="M6.5 16L5 18H7L5.5 20" stroke="#7E869E" stroke-opacity="0.25" stroke-linecap="round" stroke-linejoin="round"/>
</svg>
