<svg width="24" height="24" viewBox="0 0 24 24" fill="none" xmlns="http://www.w3.org/2000/svg">
<path d="M11 13.5H9.19951C8.44239 13.5 8.06383 13.5 7.91882 13.2536C7.77382 13.0071 7.95766 12.6762 8.32536 12.0144L11.5629 6.18674C11.9379 5.51174 12.1254 5.17424 12.3127 5.22277C12.5 5.27131 12.5 5.65739 12.5 6.42956V10C12.5 10.2357 12.5 10.3536 12.5732 10.4268C12.6464 10.5 12.7643 10.5 13 10.5H15.6315C16.454 10.5 16.8653 10.5 17.0066 10.7641C17.1479 11.0281 16.9198 11.3703 16.4635 12.0547L12.416 18.126C12.0421 18.6869 11.8551 18.9673 11.6776 18.9136C11.5 18.8598 11.5 18.5228 11.5 17.8486V14C11.5 13.7643 11.5 13.6464 11.4268 13.5732C11.3536 13.5 11.2357 13.5 11 13.5Z" stroke="#222222"/>
<circle cx="12" cy="12" r="9.5" stroke="#2A4157" stroke-opacity="0.24"/>
</svg>
