<svg width="24" height="24" viewBox="0 0 24 24" fill="none" xmlns="http://www.w3.org/2000/svg">
<path fill-rule="evenodd" clip-rule="evenodd" d="M22 12C22 17.5228 17.5228 22 12 22C6.47715 22 2 17.5228 2 12C2 6.47715 6.47715 2 12 2C17.5228 2 22 6.47715 22 12ZM9.05029 7.79366C8.99367 7.52559 8.82775 7.28175 8.5718 7.13398C8.40277 7.03639 8.21709 6.99375 8.03546 7.00053C7.84271 6.99351 7.64588 7.04208 7.47 7.152C7.21041 7.31425 7.05096 7.57611 7.01025 7.85707C6.34739 9.1354 6 10.5561 6 12C6 13.5798 6.41586 15.1318 7.20577 16.5C7.48191 16.9783 8.0935 17.1422 8.5718 16.866C9.05009 16.5899 9.21396 15.9783 8.93782 15.5C8.32344 14.4359 8 13.2288 8 12C8 11.4052 8.07578 10.8155 8.22366 10.2447L11.9497 16.2063C12.0063 16.4744 12.1722 16.7182 12.4282 16.866C12.5972 16.9636 12.7829 17.0062 12.9645 16.9995C13.1573 17.0065 13.3541 16.9579 13.53 16.848C13.7896 16.6858 13.949 16.4239 13.9898 16.1429C14.6526 14.8646 15 13.4439 15 12C15 10.4202 14.5841 8.86817 13.7942 7.5C13.5181 7.02171 12.9065 6.85783 12.4282 7.13398C11.9499 7.41012 11.786 8.02171 12.0622 8.5C12.6766 9.56413 13 10.7712 13 12C13 12.5948 12.9242 13.1845 12.7763 13.7553L9.05029 7.79366ZM15.6603 7C15.3841 6.52171 15.548 5.91012 16.0263 5.63397C16.5046 5.35783 17.1162 5.52171 17.3923 6C18.4455 7.82423 19 9.89356 19 12C19 14.1064 18.4455 16.1758 17.3923 18C17.1162 18.4783 16.5046 18.6422 16.0263 18.366C15.548 18.0899 15.3841 17.4783 15.6603 17C16.5379 15.4798 17 13.7554 17 12C17 10.2446 16.5379 8.52019 15.6603 7Z" fill="#222222"/>
</svg>
