<svg viewBox="0 0 24 24" fill="none" xmlns="http://www.w3.org/2000/svg">
<path d="M8 8L13 16" stroke="#222222" stroke-linecap="round"/>
<path d="M16.5263 17.5C17.4917 15.8278 18 13.9309 18 12C18 10.0691 17.4917 8.17221 16.5263 6.5" stroke="#222222" stroke-linecap="round"/>
<path d="M12.9282 16C13.6303 14.7838 14 13.4043 14 12C14 10.5957 13.6303 9.21615 12.9282 8" stroke="#222222" stroke-linecap="round"/>
<path d="M8.0718 16C7.37259 14.7889 7.00305 13.4157 7.00002 12.0173C6.99699 10.6189 7.36057 9.24415 8.05452 8.03007" stroke="#222222" stroke-linecap="round"/>
<path d="M2.61014 10.5576C2.97349 8.19222 4.21618 6.05112 6.08979 4.5623C7.9634 3.07347 10.3299 2.34662 12.7162 2.52704C15.1025 2.70745 17.3328 3.78184 18.9613 5.53544C20.5898 7.28904 21.4964 9.59264 21.5 11.9858C21.5036 14.3789 20.6038 16.6852 18.9806 18.4437C17.3574 20.2021 15.1304 21.2832 12.7446 21.4708C10.3589 21.6583 7.9902 20.9386 6.11213 19.4554C4.23406 17.9722 2.98496 15.8348 2.61451 13.4706" stroke="#222222" stroke-linecap="round"/>
</svg>
