<svg viewBox="0 0 24 24" fill="none" xmlns="http://www.w3.org/2000/svg">
<path fill-rule="evenodd" clip-rule="evenodd" d="M22 12C22 17.5228 17.5228 22 12 22C6.47715 22 2 17.5228 2 12C2 6.47715 6.47715 2 12 2C17.5228 2 22 6.47715 22 12ZM8.57096 7.97014C8.56112 7.80822 8.4728 7.65417 8.3218 7.56699C8.23174 7.51499 8.13224 7.4942 8.0358 7.50125C7.93371 7.49384 7.82844 7.5176 7.735 7.576C7.58335 7.67078 7.50005 7.83357 7.49993 8.00012C6.8441 9.22984 6.5 10.6034 6.5 12C6.5 13.4921 6.89275 14.9578 7.63878 16.25C7.77686 16.4891 8.08265 16.5711 8.3218 16.433C8.56094 16.2949 8.64288 15.9891 8.50481 15.75C7.84655 14.6099 7.5 13.3165 7.5 12C7.5 10.996 7.70155 10.0055 8.08919 9.08611L12.429 16.0299C12.4389 16.1918 12.5272 16.3458 12.6782 16.433C12.7683 16.485 12.8678 16.5058 12.9642 16.4988C13.0663 16.5062 13.1716 16.4824 13.265 16.424C13.4167 16.3292 13.5 16.1664 13.5001 15.9999C14.1559 14.7702 14.5 13.3966 14.5 12C14.5 10.5079 14.1072 9.04216 13.3612 7.75C13.2231 7.51085 12.9173 7.42892 12.6782 7.56699C12.4391 7.70506 12.3571 8.01085 12.4952 8.25C13.1535 9.39014 13.5 10.6835 13.5 12C13.5 13.004 13.2985 13.9945 12.9108 14.9139L8.57096 7.97014ZM16.0933 6.75C15.9552 6.51085 16.0371 6.20506 16.2763 6.06699C16.5154 5.92892 16.8212 6.01085 16.9593 6.25C17.9686 7.99822 18.5 9.98133 18.5 12C18.5 14.0187 17.9686 16.0018 16.9593 17.75C16.8212 17.9891 16.5154 18.0711 16.2763 17.933C16.0371 17.7949 15.9552 17.4891 16.0933 17.25C17.0148 15.6538 17.5 13.8431 17.5 12C17.5 10.1569 17.0148 8.3462 16.0933 6.75Z" fill="#222222"/>
</svg>
