<svg viewBox="0 0 24 24" fill="none" xmlns="http://www.w3.org/2000/svg">
<path d="M5.5 6.5C5.5 4.61438 5.5 3.67157 6.08579 3.08579C6.67157 2.5 7.61438 2.5 9.5 2.5H14.5C16.3856 2.5 17.3284 2.5 17.9142 3.08579C18.5 3.67157 18.5 4.61438 18.5 6.5V17.5C18.5 19.3856 18.5 20.3284 17.9142 20.9142C17.3284 21.5 16.3856 21.5 14.5 21.5H9.5C7.61438 21.5 6.67157 21.5 6.08579 20.9142C5.5 20.3284 5.5 19.3856 5.5 17.5V6.5Z" fill="#2A4157" fill-opacity="0.24" stroke="#33363F"/>
<path d="M13 4H11C10.0572 4 9.58579 4 9.29289 3.70711C9 3.41421 9 2.94281 9 2H15C15 2.94281 15 3.41421 14.7071 3.70711C14.4142 4 13.9428 4 13 4Z" fill="#33363F"/>
<path d="M12 17.9V18" stroke="#33363F" stroke-width="2" stroke-linecap="round"/>
</svg>
