<svg width="24" height="24" viewBox="0 0 24 24" fill="none" xmlns="http://www.w3.org/2000/svg">
<path d="M9.5 2.5V3.5C9.5 3.9714 9.5 4.20711 9.64645 4.35355C9.79289 4.5 10.0286 4.5 10.5 4.5H13.5C13.9714 4.5 14.2071 4.5 14.3536 4.35355C14.5 4.20711 14.5 3.9714 14.5 3.5V2.5" stroke="#33363F"/>
<path d="M17.5 14.5V6.5C17.5 4.61438 17.5 3.67157 16.9142 3.08579C16.3284 2.5 15.3856 2.5 13.5 2.5H10.5C8.61438 2.5 7.67157 2.5 7.08579 3.08579C6.5 3.67157 6.5 4.61438 6.5 6.5V14.5M17.5 16.75V17.5C17.5 19.3856 17.5 20.3284 16.9142 20.9142C16.3284 21.5 15.3856 21.5 13.5 21.5H10.5C8.61438 21.5 7.67157 21.5 7.08579 20.9142C6.5 20.3284 6.5 19.3856 6.5 17.5V16.75" stroke="#33363F" stroke-linecap="round"/>
<path d="M12 17.9V18" stroke="#33363F" stroke-width="1.33" stroke-linecap="round"/>
</svg>
