<svg viewBox="0 0 24 24" fill="none" xmlns="http://www.w3.org/2000/svg">
<path d="M13.667 3C13.6788 2.99991 13.7946 2.99559 13.9316 3.01465L14.0732 3.04297L14.2305 3.0957C14.535 3.22241 14.7776 3.465 14.9043 3.76953L14.957 3.92676L14.9854 4.06836C15.0044 4.2054 15.0001 4.32116 15 4.33301C15 4.40102 15.0053 4.5544 14.9824 4.7207L14.9492 4.88867C14.8278 5.34133 14.5029 5.70737 14.0771 5.88477L13.8887 5.94922C13.6659 6.00892 13.4236 6 13.333 6H10.667C10.599 6 10.4456 6.00525 10.2793 5.98242L10.1113 5.94922C9.65867 5.82782 9.29263 5.50294 9.11523 5.07715L9.05078 4.88867C8.99108 4.66587 9 4.42362 9 4.33301C8.99988 4.31719 8.99222 4.1163 9.04297 3.92676L9.0957 3.76953C9.24349 3.41436 9.54922 3.14413 9.92676 3.04297L10.0684 3.01465C10.2054 2.99559 10.3212 2.99991 10.333 3H13.667Z" stroke="#33363F" stroke-width="2"/>
<rect x="6" y="3" width="12" height="18" rx="2" stroke="#33363F" stroke-width="2"/>
<circle cx="12" cy="18" r="1" fill="#33363F"/>
</svg>
