<svg viewBox="0 0 24 24" fill="none" xmlns="http://www.w3.org/2000/svg">
<path d="M14.5 2.5V3C14.5 3.22154 14.5014 3.43803 14.4775 3.61523C14.455 3.78299 14.4037 3.97149 14.2695 4.1377L14.207 4.20703C14.0254 4.38864 13.8068 4.45178 13.6152 4.47754C13.438 4.50136 13.2215 4.5 13 4.5H11C10.7785 4.5 10.562 4.50136 10.3848 4.47754C10.217 4.45498 10.0285 4.40375 9.8623 4.26953L9.79297 4.20703C9.61136 4.02542 9.54822 3.80684 9.52246 3.61523C9.49864 3.43803 9.5 3.22154 9.5 3V2.5H14.5Z" stroke="#222222"/>
<rect x="6.5" y="2.5" width="11" height="19" rx="1.5" stroke="#222222"/>
<circle cx="12" cy="18" r="1" fill="#222222"/>
</svg>
