<svg viewBox="0 0 24 24" fill="none" xmlns="http://www.w3.org/2000/svg">
<path d="M11.4033 2.17871C11.8563 2.03712 12.3478 2.0613 12.7881 2.25L18.7119 4.78906L18.8604 4.85938C19.5328 5.21517 19.9461 5.92407 19.9238 6.68457L19.9121 6.84766L19.2607 12.71C19.0735 14.3947 18.2818 15.9502 17.0391 17.0918L16.7852 17.3145L13.2803 20.2344C12.585 20.8138 11.5945 20.8507 10.8623 20.3438L10.7197 20.2344L7.21484 17.3145C5.91279 16.2293 5.05221 14.711 4.78516 13.0449L4.73926 12.71L4.08789 6.84766C3.99065 5.97195 4.47825 5.13617 5.28809 4.78906L11.2119 2.25L11.4033 2.17871Z" stroke="#33363F" stroke-width="2" stroke-linecap="round"/>
</svg>
