<svg viewBox="0 0 24 24" fill="none" xmlns="http://www.w3.org/2000/svg">
<path d="M11.5527 2.65625C11.8924 2.55013 12.2607 2.56754 12.5908 2.70898L18.5146 5.24805L18.626 5.30078C19.1305 5.56751 19.4404 6.09946 19.4238 6.66992L19.415 6.79297L18.7637 12.6543C18.5899 14.2186 17.8551 15.6636 16.7012 16.7236L16.4648 16.9307L12.96 19.8506C12.4383 20.2852 11.6956 20.3122 11.1465 19.9316L11.04 19.8506L7.53516 16.9307C6.32596 15.923 5.5263 14.513 5.27832 12.9658L5.23633 12.6543L4.58496 6.79297C4.51198 6.13614 4.87792 5.50838 5.48535 5.24805L11.4092 2.70898L11.5527 2.65625Z" stroke="#222222" stroke-linecap="round"/>
</svg>
