<svg viewBox="0 0 24 24" fill="none" xmlns="http://www.w3.org/2000/svg">
<path d="M11.5225 3.56055C11.8848 3.44726 12.2777 3.46635 12.6299 3.61719L18.5449 6.15234L18.6641 6.20898C19.2079 6.49707 19.5383 7.0736 19.5127 7.68848L19.502 7.82129L18.8887 12.7246C18.6941 14.2814 17.9521 15.7147 16.8008 16.7705L16.5654 16.9766L13.0244 19.9277C12.4682 20.3912 11.6756 20.4202 11.0898 20.0146L10.9756 19.9277L7.43457 16.9766C6.22953 15.9723 5.4243 14.574 5.15723 13.0352L5.11133 12.7246L4.49805 7.82129C4.40962 7.11387 4.79989 6.43331 5.45508 6.15234L11.3701 3.61719L11.5225 3.56055Z" fill="#7E869E" fill-opacity="0.25" stroke="#222222" stroke-width="1.2" stroke-linecap="round"/>
<path d="M9 12L11.5687 14.5687C11.7918 14.7918 12.1633 14.7551 12.3383 14.4925L16 9" stroke="#222222" stroke-width="1.2" stroke-linecap="round"/>
</svg>
