<svg viewBox="0 0 24 24" fill="none" xmlns="http://www.w3.org/2000/svg">
<path d="M11.5225 2.56055C11.8848 2.44726 12.2777 2.46635 12.6299 2.61719L18.5547 5.15625L18.6729 5.21289C19.2109 5.49746 19.5412 6.06444 19.5234 6.67285L19.5146 6.80371L18.8633 12.666C18.6867 14.2543 17.9401 15.7206 16.7686 16.7969L16.5283 17.0068L13.0244 19.9277C12.4682 20.3912 11.6756 20.4202 11.0898 20.0146L10.9756 19.9277L7.47168 17.0068C6.24384 15.9836 5.43145 14.5525 5.17969 12.9814L5.13672 12.666L4.48535 6.80371C4.40751 6.10316 4.79749 5.43398 5.44531 5.15625L11.3701 2.61719L11.5225 2.56055Z" fill="#7E869E" fill-opacity="0.25" stroke="#222222" stroke-width="1.2" stroke-linecap="round"/>
</svg>
