<svg width="24" height="24" viewBox="0 0 24 24" fill="none" xmlns="http://www.w3.org/2000/svg">
<path d="M11.4033 3.17871C11.8563 3.03712 12.3478 3.0613 12.7881 3.25L18.7021 5.78418L18.8516 5.85645C19.5312 6.21665 19.9451 6.9366 19.9131 7.70508L19.8994 7.87109L19.2861 12.7744C19.0797 14.4255 18.2924 15.9456 17.0713 17.0654L16.8213 17.2842L13.2803 20.2344C12.585 20.8138 11.5945 20.8507 10.8623 20.3438L10.7197 20.2344L7.17871 17.2842C5.9005 16.219 5.04594 14.7358 4.7627 13.1035L4.71387 12.7744L4.10059 7.87109C3.99003 6.98667 4.47862 6.13528 5.29785 5.78418L11.2119 3.25L11.4033 3.17871Z" stroke="#33363F" stroke-width="2" stroke-linecap="round"/>
<path d="M9 12L11.5687 14.5687C11.7918 14.7918 12.1633 14.7551 12.3383 14.4925L16 9" stroke="#33363F" stroke-width="2" stroke-linecap="round"/>
</svg>
