<svg width="24" height="24" viewBox="0 0 24 24" fill="none" xmlns="http://www.w3.org/2000/svg">
<path d="M7.5 3.5V6.5" stroke="#222222" stroke-linecap="round"/>
<path d="M7.5 14.5V18.5" stroke="#222222" stroke-linecap="round"/>
<path d="M8.2002 6.5C8.91801 6.50011 9.49989 7.08199 9.5 7.7998V13.2002C9.49989 13.918 8.91801 14.4999 8.2002 14.5H6.7998C6.08199 14.4999 5.50011 13.918 5.5 13.2002V7.7998C5.50011 7.08199 6.08199 6.50011 6.7998 6.5H8.2002Z" stroke="#222222"/>
<path d="M16.5 6.5V11.5" stroke="#222222" stroke-linecap="round"/>
<path d="M16.5 16.5V20.5" stroke="#222222" stroke-linecap="round"/>
<path d="M17.2002 11.5C17.918 11.5001 18.4999 12.082 18.5 12.7998V15.2002C18.4999 15.918 17.918 16.4999 17.2002 16.5H15.7998C15.082 16.4999 14.5001 15.918 14.5 15.2002V12.7998C14.5001 12.082 15.082 11.5001 15.7998 11.5H17.2002Z" stroke="#222222"/>
</svg>
