<svg width="24" height="24" viewBox="0 0 24 24" fill="none" xmlns="http://www.w3.org/2000/svg">
<path fill-rule="evenodd" clip-rule="evenodd" d="M18.5207 10.1859C18.6222 10.0844 18.7884 10.0888 18.8809 10.1986C20.1908 11.7521 20.9399 13.7085 20.9966 15.7498C21.0004 15.8878 20.8881 15.9998 20.75 15.9998H16.245C16.1069 15.9998 15.9958 15.8877 15.9872 15.7499C15.9416 15.0221 15.6978 14.3235 15.2864 13.7283C15.2148 13.6247 15.2229 13.4837 15.312 13.3946L18.5207 10.1859ZM17.8009 9.1186C17.9106 9.21112 17.9151 9.37732 17.8136 9.47881L14.6048 12.6876C14.5158 12.7766 14.3748 12.7848 14.2712 12.7132C13.805 12.391 13.2753 12.1717 12.7179 12.0698C12.594 12.0472 12.5 11.9417 12.5 11.8158V7.27794C12.5 7.13441 12.6207 7.02003 12.7637 7.0322C14.6178 7.19002 16.3782 7.9192 17.8009 9.1186ZM11.5 7.27794C11.5 7.13441 11.3794 7.02003 11.2364 7.0322C9.38228 7.19002 7.62183 7.9192 6.19917 9.11862C6.08943 9.21113 6.08499 9.37733 6.18648 9.47882L9.39524 12.6876C9.48431 12.7766 9.62529 12.7848 9.72892 12.7132C10.1951 12.391 10.7247 12.1717 11.2822 12.0698C11.4061 12.0472 11.5 11.9417 11.5 11.8158V7.27794ZM8.71367 13.7283C8.7853 13.6247 8.77716 13.4837 8.68808 13.3946L5.47935 10.1859C5.37787 10.0844 5.21167 10.0889 5.11915 10.1986C3.80929 11.7521 3.06018 13.7085 3.00351 15.7498C2.99968 15.8878 3.11197 15.9998 3.25004 15.9998L7.7551 15.9998C7.89317 15.9998 8.00429 15.8877 8.01292 15.7499C8.05849 15.0221 8.30232 14.3235 8.71367 13.7283Z" fill="#7E869E" fill-opacity="0.25"/>
<path fill-rule="evenodd" clip-rule="evenodd" d="M12.5 11.8056C12.5 11.9316 12.594 12.0371 12.7179 12.0597C13.278 12.1617 13.8101 12.3821 14.2782 12.706C14.3819 12.7776 14.5229 12.7695 14.612 12.6804L18.5228 8.76961C18.6239 8.66851 18.6199 8.5031 18.5114 8.41C16.8974 7.02517 14.8828 6.19071 12.7623 6.02867C12.6198 6.01778 12.5 6.13194 12.5 6.27491V11.8056Z" fill="#222222"/>
</svg>
