<svg width="24" height="24" viewBox="0 0 24 24" fill="none" xmlns="http://www.w3.org/2000/svg">
<path fill-rule="evenodd" clip-rule="evenodd" d="M17.9062 17.2313C18.2988 17.6801 18.999 17.6894 19.3437 17.2029C19.9558 16.3389 20.4142 15.3686 20.692 14.3343C21.0117 13.1439 21.0818 11.9071 20.9056 10.7001C20.8195 10.1101 20.1915 9.80044 19.6379 10.0219L14.9933 11.8797C14.3531 12.1358 14.1581 12.9478 14.6121 13.4667L17.9062 17.2313ZM19.3454 6.79949C19.6899 7.28615 19.4487 7.94349 18.8951 8.16495L14.3714 9.97442C13.7145 10.2372 13 9.75341 13 9.04594V4.17377C13 3.57748 13.5207 3.1094 14.1006 3.24857C15.1931 3.51082 16.2331 3.97682 17.1636 4.62861C18.015 5.22503 18.7515 5.96075 19.3454 6.79949Z" fill="#33363F"/>
<path fill-rule="evenodd" clip-rule="evenodd" d="M11 3.15568C11 2.56386 10.4871 2.09743 9.90834 2.22122C8.99701 2.41615 8.11402 2.73824 7.28604 3.18081C5.83571 3.95602 4.59895 5.07696 3.68531 6.44432C2.77167 7.81168 2.20935 9.38326 2.04816 11.0198C1.88697 12.6564 2.13188 14.3075 2.76121 15.8269C3.39053 17.3462 4.38485 18.6869 5.65607 19.7301C6.92729 20.7734 8.43619 21.487 10.0491 21.8079C11.662 22.1287 13.3292 22.0468 14.9028 21.5694C15.5873 21.3618 16.245 21.0821 16.8653 20.7367C17.3823 20.4487 17.4612 19.7599 17.0715 19.3145L11.2845 12.7009C11.1011 12.4913 11 12.2222 11 11.9436V3.15568Z" fill="#33363F"/>
</svg>
