<svg viewBox="0 0 24 24" fill="none" xmlns="http://www.w3.org/2000/svg">
<mask id="mask0_2609_407" style="mask-type:alpha" maskUnits="userSpaceOnUse" x="3" y="3" width="18" height="18">
<path d="M3 12C3 9.20435 3 7.80653 3.45672 6.7039C4.06569 5.23373 5.23373 4.06569 6.7039 3.45672C7.80653 3 9.20435 3 12 3C14.7956 3 16.1935 3 17.2961 3.45672C18.7663 4.06569 19.9343 5.23373 20.5433 6.7039C21 7.80653 21 9.20435 21 12V13.8C21 16.7998 21 18.2997 20.2361 19.3511C19.9893 19.6907 19.6907 19.9893 19.3511 20.2361C18.2997 21 16.7998 21 13.8 21H10.2C7.20021 21 5.70032 21 4.64886 20.2361C4.30928 19.9893 4.01065 19.6907 3.76393 19.3511C3 18.2997 3 16.7998 3 13.8V12Z" fill="black"/>
</mask>
<g mask="url(#mask0_2609_407)">
<path fill-rule="evenodd" clip-rule="evenodd" d="M11.323 13.0796L13.0165 14.9271L13.0165 14.9271L13.0165 14.9271C13.2738 15.2078 13.4025 15.3482 13.5422 15.4265C13.8326 15.5894 14.1851 15.5971 14.4823 15.447C14.6253 15.3747 14.7599 15.2401 15.0292 14.9708C15.5471 14.4528 15.8061 14.1939 16.083 14.051C16.6583 13.7542 17.3417 13.7542 17.917 14.051C18.1939 14.1939 18.4529 14.4528 18.9708 14.9708L20.9369 16.9369C20.9773 16.9773 21.0321 17 21.0892 17C21.5838 17 21.9769 16.5845 21.9495 16.0906L21.4438 6.98767C21.2346 3.22224 21.13 1.33953 19.8952 0.234746C18.6605 -0.870035 16.7778 -0.76544 13.0123 -0.556249L10.9076 -0.439321C7.18237 -0.232363 5.31975 -0.128884 4.2177 1.08325C3.11565 2.29538 3.18979 4.16795 3.33806 7.91308C3.42769 10.177 3.50001 12.2394 3.50001 13C4.01469 13 4.59559 12.8013 5.17455 12.5062C7.2265 11.4604 8.25247 10.9374 8.91575 11.0573C9.57903 11.1771 10.1603 11.8113 11.323 13.0796ZM16.5 8.99999C17.3284 8.99999 18 8.32842 18 7.49999C18 6.67156 17.3284 5.99999 16.5 5.99999C15.6716 5.99999 15 6.67156 15 7.49999C15 8.32842 15.6716 8.99999 16.5 8.99999Z" fill="#222222"/>
</g>
<path d="M12.5 20.5H16.5C18.7091 20.5 20.5 18.7091 20.5 16.5V7.5C20.5 5.29086 18.7091 3.5 16.5 3.5H7.5C5.29086 3.5 3.5 5.29086 3.5 7.5V12.5" stroke="#222222" stroke-linecap="round"/>
<path d="M8.5 15.5V15H9V15.5H8.5ZM4.35355 20.3536C4.15829 20.5488 3.84171 20.5488 3.64645 20.3536C3.45118 20.1583 3.45118 19.8417 3.64645 19.6464L4.35355 20.3536ZM8 20V15.5H9V20H8ZM8.5 16H4V15H8.5V16ZM8.85355 15.8536L4.35355 20.3536L3.64645 19.6464L8.14645 15.1464L8.85355 15.8536Z" fill="#222222"/>
</svg>
