<svg width="24" height="24" viewBox="0 0 24 24" fill="none" xmlns="http://www.w3.org/2000/svg">
<path fill-rule="evenodd" clip-rule="evenodd" d="M3 15.5L5.30513 11.7542C6.08406 10.4884 7.92254 10.4843 8.70709 11.7466L11.3476 15.995C11.6743 16.5207 12.3952 16.6263 12.859 16.2166L15.0761 14.2579C15.874 13.553 17.0844 13.5968 17.8293 14.3576L19.3089 15.8687C19.8858 16.4578 20.636 16.8376 21.4415 16.9584C21.341 18.5635 21.0685 19.5884 20.3284 20.3285C19.1569 21.5 17.2712 21.5 13.5 21.5H10.5C6.72876 21.5 4.84315 21.5 3.67157 20.3285C2.5 19.1569 2.5 17.2713 2.5 13.5V10.5C2.5 7.66063 2.5 5.89016 3 4.68854V15.5Z" fill="#222222"/>
<path d="M12 2.5H6.5C4.29086 2.5 2.5 4.29086 2.5 6.5V17.5C2.5 19.7091 4.29086 21.5 6.5 21.5H17.5C19.7091 21.5 21.5 19.7091 21.5 17.5V12" stroke="#222222"/>
<path d="M21.5 2.5V2H22V2.5H21.5ZM16.3536 8.35355C16.1583 8.54882 15.8417 8.54882 15.6464 8.35355C15.4512 8.15829 15.4512 7.84171 15.6464 7.64645L16.3536 8.35355ZM21 8V2.5H22V8H21ZM21.5 3H16V2H21.5V3ZM21.8536 2.85355L16.3536 8.35355L15.6464 7.64645L21.1464 2.14645L21.8536 2.85355Z" fill="#222222"/>
</svg>
