<svg viewBox="0 0 24 24" fill="none" xmlns="http://www.w3.org/2000/svg">
<path fill-rule="evenodd" clip-rule="evenodd" d="M3 3.3581C2 4.54202 2 6.42266 2 10V14C2 17.7712 2 19.6569 3.17157 20.8284C4.34315 22 6.22876 22 10 22H14C17.7712 22 19.6569 22 20.8284 20.8284C22 19.6569 22 17.7712 22 14V14V10C22 6.42266 22 4.54202 21 3.3581V17C20.0396 17 19.1185 16.6185 18.4393 15.9393L17.6877 15.1877C16.9664 14.4664 16.6057 14.1057 16.1968 13.9537C15.7473 13.7867 15.2527 13.7867 14.8032 13.9537C14.3943 14.1057 14.0336 14.4664 13.3123 15.1877L13.1992 15.3008C12.6138 15.8862 12.3212 16.1788 12.0102 16.2334C11.7685 16.2758 11.5197 16.2279 11.311 16.0988C11.0425 15.9326 10.8795 15.5522 10.5534 14.7913L10.5 14.6667C9.75036 12.9175 9.37554 12.0429 8.72167 11.7151C8.39249 11.5501 8.02413 11.4792 7.6572 11.5101C6.92836 11.5716 6.25554 12.2445 4.90989 13.5901L3 15.5V3.3581ZM9.79972 2.00001H14.2003C14.1341 2 14.0674 2 14 2H10C9.93264 2 9.86589 2 9.79972 2.00001Z" fill="#222222"/>
<path d="M10 2.5H14C15.8996 2.5 17.2741 2.50071 18.3223 2.6416C19.2269 2.76322 19.8314 2.98267 20.2881 3.35547L20.4746 3.52539C20.952 4.00279 21.2194 4.64392 21.3584 5.67773C21.4993 6.7259 21.5 8.1004 21.5 10V14C21.5 15.8996 21.4993 17.2741 21.3584 18.3223C21.2194 19.3561 20.952 19.9972 20.4746 20.4746C19.9972 20.952 19.3561 21.2194 18.3223 21.3584C17.2741 21.4993 15.8996 21.5 14 21.5H10C8.1004 21.5 6.7259 21.4993 5.67773 21.3584C4.77312 21.2368 4.16861 21.0173 3.71191 20.6445L3.52539 20.4746C3.04799 19.9972 2.78059 19.3561 2.6416 18.3223C2.50071 17.2741 2.5 15.8996 2.5 14V10C2.5 8.1004 2.50071 6.7259 2.6416 5.67773C2.78059 4.64392 3.04799 4.00279 3.52539 3.52539C4.00279 3.04799 4.64392 2.78059 5.67773 2.6416C6.7259 2.50071 8.1004 2.5 10 2.5Z" stroke="#222222"/>
<circle cx="15" cy="9" r="1.5" stroke="#222222" stroke-linecap="round"/>
</svg>
