<svg width="24" height="24" viewBox="0 0 24 24" fill="none" xmlns="http://www.w3.org/2000/svg">
<path fill-rule="evenodd" clip-rule="evenodd" d="M3.17157 3.17157C2 4.34314 2 6.22876 2 9.99999V14C2 17.7712 2 19.6568 3.17157 20.8284C4.34315 22 6.22876 22 10 22H14C17.7712 22 19.6569 22 20.8284 20.8284C22 19.6569 22 17.7712 22 14V14V9.99999C22 7.16065 22 5.39017 21.5 4.18855V17C20.5396 17 19.6185 16.6185 18.9393 15.9393L18.1877 15.1877C17.4664 14.4664 17.1057 14.1057 16.6968 13.9537C16.2473 13.7867 15.7527 13.7867 15.3032 13.9537C14.8943 14.1057 14.5336 14.4664 13.8123 15.1877L13.6992 15.3008C13.1138 15.8862 12.8212 16.1788 12.5102 16.2334C12.2685 16.2758 12.0197 16.2279 11.811 16.0988C11.5425 15.9326 11.3795 15.5522 11.0534 14.7913L11 14.6667C10.2504 12.9175 9.87554 12.0429 9.22167 11.7151C8.89249 11.5501 8.52413 11.4792 8.1572 11.5101C7.42836 11.5716 6.75554 12.2445 5.40989 13.5901L3.5 15.5V2.88739C3.3844 2.97349 3.27519 3.06795 3.17157 3.17157Z" fill="#222222"/>
<path d="M10 3H14C15.9139 3 17.2487 3.00229 18.2559 3.1377C19.1119 3.2528 19.6158 3.45101 19.9756 3.74609L20.1211 3.87891C20.4901 4.24792 20.7308 4.7658 20.8623 5.74414C20.9977 6.75127 21 8.08611 21 10V14C21 15.9139 20.9977 17.2487 20.8623 18.2559C20.7308 19.2342 20.4901 19.7521 20.1211 20.1211C19.7521 20.4901 19.2342 20.7308 18.2559 20.8623C17.2487 20.9977 15.9139 21 14 21H10C8.08611 21 6.75127 20.9977 5.74414 20.8623C4.88805 20.7472 4.38417 20.549 4.02441 20.2539L3.87891 20.1211C3.50989 19.7521 3.26923 19.2342 3.1377 18.2559C3.00229 17.2487 3 15.9139 3 14V10C3 8.08611 3.00229 6.75127 3.1377 5.74414C3.26923 4.7658 3.50989 4.24792 3.87891 3.87891C4.24792 3.50989 4.7658 3.26923 5.74414 3.1377C6.75127 3.00229 8.08611 3 10 3Z" stroke="#222222" stroke-width="2"/>
<circle cx="15" cy="9" r="2" fill="#222222"/>
</svg>
