<svg width="24" height="24" viewBox="0 0 24 24" fill="none" xmlns="http://www.w3.org/2000/svg">
<mask id="mask0_2165_901" style="mask-type:alpha" maskUnits="userSpaceOnUse" x="2" y="2" width="20" height="20">
<path d="M2.5 10.5C2.5 6.72876 2.5 4.84315 3.67157 3.67157C4.84315 2.5 6.72876 2.5 10.5 2.5H13.5C17.2712 2.5 19.1569 2.5 20.3284 3.67157C21.5 4.84315 21.5 6.72876 21.5 10.5V13.5C21.5 17.2712 21.5 19.1569 20.3284 20.3284C19.1569 21.5 17.2712 21.5 13.5 21.5H10.5C6.72876 21.5 4.84315 21.5 3.67157 20.3284C2.5 19.1569 2.5 17.2712 2.5 13.5V10.5Z" fill="black"/>
</mask>
<g mask="url(#mask0_2165_901)">
<path d="M12.3721 14.2093L4.36551 5.40206C4.13272 5.14599 3.8027 5 3.45663 5C2.09987 5 1 6.09987 1 7.45663V15.501C1 19.2722 1 21.1578 2.17157 22.3294C3.34315 23.501 5.22876 23.501 9 23.501H16.8649C17.5279 23.501 17.8594 23.501 18.1475 23.4588C19.6757 23.2351 20.9386 22.1517 21.392 20.6753C21.4775 20.3969 21.5279 20.0692 21.6287 19.4139C21.6903 19.0134 21.7211 18.8132 21.732 18.6211C21.7888 17.6166 21.465 16.6277 20.8252 15.8513C20.7028 15.7028 20.5596 15.5596 20.273 15.273L20.273 15.273L18.6306 13.6306C17.8719 12.8719 17.4926 12.4926 17.0373 12.5249C16.582 12.5573 16.2602 12.9865 15.6164 13.8448L15.452 14.064L15.452 14.064C14.7797 14.9605 14.4435 15.4087 13.9731 15.4309C13.5028 15.4531 13.1259 15.0385 12.3721 14.2093Z" stroke="#2A4157" stroke-opacity="0.24" stroke-linecap="round"/>
</g>
<path d="M21.5 11V17.5C21.5 19.7091 19.7091 21.5 17.5 21.5H6.5C4.29086 21.5 2.5 19.7091 2.5 17.5V6.5C2.5 4.29086 4.29086 2.5 6.5 2.5H13" stroke="#222222"/>
<path d="M21.5 2.5V2H22V2.5H21.5ZM16.8536 7.85355C16.6583 8.04882 16.3417 8.04882 16.1464 7.85355C15.9512 7.65829 15.9512 7.34171 16.1464 7.14645L16.8536 7.85355ZM21 8V2.5H22V8H21ZM21.5 3H16V2H21.5V3ZM21.8536 2.85355L16.8536 7.85355L16.1464 7.14645L21.1464 2.14645L21.8536 2.85355Z" fill="#222222"/>
</svg>
