<svg viewBox="0 0 24 24" fill="none" xmlns="http://www.w3.org/2000/svg">
<rect width="24" height="24" fill="white"/>
<path d="M5.8055 11.1945L2.7929 14.207C2.60536 14.3945 2.5 14.6489 2.5 14.9141V17.5C2.5 19.7091 4.29086 21.5 6.5 21.5H17.5C19.7091 21.5 21.5 19.7091 21.5 17.5V15.9141C21.5 15.6489 21.3946 15.3945 21.2071 15.207L18.7798 12.7797C18.0533 12.0532 16.8944 11.9954 16.0992 12.646L13.6773 14.6275C12.7735 15.3669 11.4311 15.1781 10.7664 14.218L8.86406 11.4702C8.15379 10.4443 6.68783 10.3122 5.8055 11.1945Z" stroke="#222222"/>
<path d="M16.353 3.58519C16.8864 3.44224 17.4522 3.47998 17.962 3.6925C18.4718 3.90502 18.8968 4.28037 19.1708 4.75993C19.4447 5.2395 19.5522 5.79628 19.4763 6.34334C19.4005 6.89041 19.1456 7.39696 18.7515 7.78389C18.3574 8.17083 17.8463 8.41638 17.2979 8.48219C16.7495 8.548 16.1948 8.43037 15.7204 8.14768C15.2459 7.86498 14.8784 7.43312 14.6753 6.91954C14.4721 6.40596 14.4448 5.83957 14.5975 5.3088" stroke="#222222" stroke-linecap="round"/>
</svg>
