<svg width="24" height="24" viewBox="0 0 24 24" fill="none" xmlns="http://www.w3.org/2000/svg">
<mask id="mask0_2165_927" style="mask-type:alpha" maskUnits="userSpaceOnUse" x="3" y="3" width="18" height="18">
<path d="M3 11C3 7.22876 3 5.34315 4.17157 4.17157C5.34315 3 7.22876 3 11 3H13C16.7712 3 18.6569 3 19.8284 4.17157C21 5.34315 21 7.22876 21 11V13C21 16.7712 21 18.6569 19.8284 19.8284C18.6569 21 16.7712 21 13 21H11C7.22876 21 5.34315 21 4.17157 19.8284C3 18.6569 3 16.7712 3 13V11Z" fill="black"/>
</mask>
<g mask="url(#mask0_2165_927)">
<path fill-rule="evenodd" clip-rule="evenodd" d="M11.1143 12.852L13.0165 14.9271L13.0165 14.9271L13.0165 14.9271C13.2738 15.2078 13.4025 15.3482 13.5422 15.4265C13.8326 15.5894 14.1851 15.5971 14.4823 15.447C14.6253 15.3747 14.7599 15.2401 15.0292 14.9708C15.5471 14.4528 15.8061 14.1939 16.083 14.051C16.6583 13.7542 17.3417 13.7542 17.917 14.051C18.1939 14.1939 18.4529 14.4528 18.9708 14.9708L20.9369 16.9369C20.9773 16.9773 21.0321 17 21.0892 17C21.5838 17 21.9769 16.5845 21.9495 16.0906L21.4438 6.98767C21.2346 3.22224 21.13 1.33953 19.8952 0.234746C18.6605 -0.870035 16.7777 -0.76544 13.0123 -0.556249L10.5562 -0.419801C6.97766 -0.220991 5.18837 -0.121586 4.09419 1.03507C3 2.19173 3 3.98397 3 7.56844V13C3.67156 13 4.51225 12.6617 5.33277 12.2124C7.1256 11.2306 8.02202 10.7397 8.70333 10.8524C9.38464 10.9651 9.9612 11.594 11.1143 12.852ZM16.5 8.99999C17.3284 8.99999 18 8.32842 18 7.49999C18 6.67156 17.3284 5.99999 16.5 5.99999C15.6716 5.99999 15 6.67156 15 7.49999C15 8.32842 15.6716 8.99999 16.5 8.99999Z" fill="#222222"/>
</g>
<path d="M12 21H17C19.2091 21 21 19.2091 21 17V7C21 4.79086 19.2091 3 17 3H7C4.79086 3 3 4.79086 3 7V12" stroke="#222222" stroke-width="2" stroke-linecap="round"/>
<path d="M8 16V15H9V16H8ZM3.70711 21.7071C3.31658 22.0976 2.68342 22.0976 2.29289 21.7071C1.90237 21.3166 1.90237 20.6834 2.29289 20.2929L3.70711 21.7071ZM7 21V16H9V21H7ZM8 17H3V15H8V17ZM8.70711 16.7071L3.70711 21.7071L2.29289 20.2929L7.29289 15.2929L8.70711 16.7071Z" fill="#222222"/>
</svg>
