<svg width="24" height="24" viewBox="0 0 24 24" fill="none" xmlns="http://www.w3.org/2000/svg">
<path d="M3.5 18L5.96062 15.3157C7.2357 13.9247 7.87325 13.2292 8.64911 13.1621C8.83911 13.1457 9.0305 13.1565 9.21743 13.1943C9.98076 13.3485 10.5357 14.1116 11.6456 15.6377L11.8878 15.9707C12.2295 16.4405 12.4003 16.6754 12.6062 16.7838C12.8698 16.9226 13.1816 16.9367 13.4566 16.8221C13.6714 16.7327 13.8627 16.5141 14.2452 16.0769V16.0769C14.9457 15.2764 15.2959 14.8761 15.6971 14.6971C16.2107 14.4681 16.7969 14.4658 17.3122 14.6908C17.7148 14.8666 18.0681 15.2642 18.7749 16.0592L20.5 18" stroke="#222222"/>
<path d="M6.5 8.5V5" stroke="#222222" stroke-linecap="round"/>
<path d="M17.5 8.5V5" stroke="#222222" stroke-linecap="round"/>
<path d="M2.5 17V7M21.5 7V17" stroke="#222222" stroke-linecap="round"/>
<path d="M17.5074 4.96298C19.1476 5.27007 20.3747 5.70633 21.0117 6.20882C21.6488 6.71132 21.6628 7.25408 21.0518 7.75881C20.4409 8.26354 19.2364 8.70415 17.6123 9.0171C15.9882 9.33004 14.0283 9.49914 12.0154 9.5C10.0024 9.50085 8.0405 9.33343 6.41253 9.02187C4.78457 8.71031 3.57474 8.27073 2.95756 7.76652C2.34037 7.26231 2.34774 6.71955 2.97859 6.21651C3.60943 5.71347 4.83116 5.27617 6.46753 4.96768" stroke="#222222" stroke-linecap="round"/>
<path d="M21.5 17C21.5 17.663 20.4991 18.2989 18.7175 18.7678C16.9359 19.2366 14.5196 19.5 12 19.5C9.48044 19.5 7.06408 19.2366 5.28249 18.7678C3.50089 18.2989 2.5 17.663 2.5 17" stroke="#222222"/>
</svg>
