<svg width="24" height="24" viewBox="0 0 24 24" fill="none" xmlns="http://www.w3.org/2000/svg">
<rect width="24" height="24" fill="white"/>
<path d="M4.5 16L7.34822 12.8353C8.19896 11.89 9.70429 11.9684 10.4523 12.9969L12.2634 15.4872C12.6408 16.006 13.4022 16.0403 13.8247 15.5575L14.9793 14.238C15.7815 13.3212 17.2101 13.3284 18.0029 14.2534L19.5 16" stroke="#222222" stroke-linecap="round"/>
<path d="M6 8.49998C6 8.77612 6.22386 8.99998 6.5 8.99998C6.77614 8.99998 7 8.77612 7 8.49998H6ZM7 4.99998C7 4.72383 6.77614 4.49998 6.5 4.49998C6.22386 4.49998 6 4.72383 6 4.99998H7ZM17 8.49998C17 8.77612 17.2239 8.99998 17.5 8.99998C17.7761 8.99998 18 8.77612 18 8.49998H17ZM18 4.99998C18 4.72383 17.7761 4.49998 17.5 4.49998C17.2239 4.49998 17 4.72383 17 4.99998H18ZM2.5 17H2H2.5ZM21.5 17H22H21.5ZM17.5994 4.47149C17.328 4.42067 17.0668 4.59951 17.016 4.87093C16.9651 5.14236 17.144 5.40359 17.4154 5.45441L17.5994 4.47149ZM6.56016 5.459C6.83152 5.40784 7.01004 5.14639 6.95888 4.87503C6.90772 4.60367 6.64627 4.42515 6.3749 4.47631L6.56016 5.459ZM7 8.49998V4.99998H6V8.49998H7ZM18 8.49998V4.99998H17V8.49998H18ZM3 17V6.99998H2V17H3ZM21 6.99998V17H22V6.99998H21ZM17.4154 5.45441C19.0432 5.75919 20.1663 6.17879 20.7021 6.60137L21.3214 5.81623C20.583 5.23382 19.252 4.7809 17.5994 4.47149L17.4154 5.45441ZM20.7021 6.60137C20.9655 6.8092 20.9987 6.94657 20.9999 6.99589C21.0011 7.04043 20.9799 7.16966 20.7334 7.37331L21.3703 8.14426C21.7347 7.84317 22.012 7.44866 21.9996 6.97002C21.9874 6.49615 21.6949 6.11089 21.3214 5.81623L20.7021 6.60137ZM20.7334 7.37331C20.2262 7.79232 19.1307 8.2153 17.5177 8.52611L17.7069 9.50804C19.3422 9.19296 20.6555 8.73471 21.3703 8.14426L20.7334 7.37331ZM17.5177 8.52611C15.9305 8.83193 14.003 8.99913 12.0152 8.99997L12.0156 9.99997C14.0537 9.9991 16.0459 9.8281 17.7069 9.50804L17.5177 8.52611ZM12.0152 8.99997C10.0274 9.00082 8.09767 8.83527 6.50652 8.53076L6.31855 9.51293C7.98332 9.83154 9.97751 10.0008 12.0156 9.99997L12.0152 8.99997ZM6.50652 8.53076C4.88998 8.22139 3.78789 7.7992 3.27389 7.37928L2.64123 8.15371C3.36159 8.74221 4.67916 9.19919 6.31855 9.51293L6.50652 8.53076ZM3.27389 7.37928C3.02331 7.17457 2.9994 7.04338 3.00001 6.99783C3.00067 6.94978 3.03083 6.81433 3.29031 6.60742L2.66686 5.82555C2.29549 6.12168 2.00655 6.50913 2.00011 6.98427C1.99363 7.46191 2.27463 7.85421 2.64123 8.15371L3.27389 7.37928ZM3.29031 6.60742C3.81927 6.18563 4.93588 5.76521 6.56016 5.459L6.3749 4.47631C4.72644 4.78708 3.3996 5.24127 2.66686 5.82555L3.29031 6.60742ZM21 17C21 17.0638 20.9441 17.2581 20.5087 17.5347C20.0973 17.796 19.4572 18.0561 18.5903 18.2842L18.8448 19.2513C19.7594 19.0106 20.5105 18.7183 21.045 18.3787C21.5555 18.0544 22 17.5992 22 17H21ZM18.5903 18.2842C16.8622 18.7389 14.4912 19 12 19V20C14.548 20 17.0096 19.7342 18.8448 19.2513L18.5903 18.2842ZM12 19C9.50884 19 7.13775 18.7389 5.40973 18.2842L5.15524 19.2513C6.99041 19.7342 9.45205 20 12 20V19ZM5.40973 18.2842C4.54277 18.0561 3.90266 17.796 3.49127 17.5347C3.05594 17.2581 3 17.0638 3 17H2C2 17.5992 2.4445 18.0544 2.95502 18.3787C3.48948 18.7183 4.24061 19.0106 5.15524 19.2513L5.40973 18.2842Z" fill="#2A4157" fill-opacity="0.24"/>
</svg>
