<svg width="24" height="24" viewBox="0 0 24 24" fill="none" xmlns="http://www.w3.org/2000/svg">
<path d="M3 17L5.62572 14.2947C7.10251 12.7732 7.8409 12.0124 8.74028 12.0535C8.75557 12.0542 8.77085 12.0551 8.78613 12.0561C9.68433 12.1178 10.3312 12.9578 11.6248 14.6378L11.875 14.9627C12.2991 15.5135 12.5112 15.7888 12.7786 15.889C12.9755 15.9627 13.1907 15.9725 13.3935 15.917C13.6688 15.8416 13.905 15.5866 14.3775 15.0767V15.0767C15.2418 14.1437 15.674 13.6773 16.1871 13.5191C16.5658 13.4024 16.9707 13.4008 17.3503 13.5145C17.8646 13.6687 18.3004 14.1317 19.1721 15.0579L21 17" stroke="#222222" stroke-width="2"/>
<path d="M7 8.5V4.5" stroke="#222222" stroke-width="2" stroke-linecap="round"/>
<path d="M17 8.5V4.5" stroke="#222222" stroke-width="2" stroke-linecap="round"/>
<path d="M3 16.5V6.5M21 6.5V16.5" stroke="#222222" stroke-width="2" stroke-linecap="round"/>
<path d="M17.2176 4.46298C18.7714 4.77007 19.9339 5.20633 20.5374 5.70882C21.1409 6.21132 21.1542 6.75408 20.5754 7.25881C19.9966 7.76354 18.8556 8.20415 17.3169 8.5171C15.7783 8.83004 13.9216 8.99914 12.0146 9C10.1076 9.00085 8.24889 8.83343 6.70661 8.52187C5.16433 8.21031 4.01818 7.77073 3.43348 7.26652C2.84878 6.76231 2.85575 6.21955 3.4534 5.71651C4.05104 5.21347 5.20847 4.77617 6.75872 4.46768" stroke="#222222" stroke-width="2" stroke-linecap="round"/>
<path d="M21 16.5C21 17.163 20.0518 17.7989 18.364 18.2678C16.6761 18.7366 14.3869 19 12 19C9.61305 19 7.32387 18.7366 5.63604 18.2678C3.94821 17.7989 3 17.163 3 16.5" stroke="#222222" stroke-width="2"/>
</svg>
