<svg viewBox="0 0 24 24" fill="none" xmlns="http://www.w3.org/2000/svg">
<path fill-rule="evenodd" clip-rule="evenodd" d="M4 4C4 2.89543 4.89543 2 6 2H13V6.5L13 6.53291V6.53293C13 6.97617 13 7.35807 13.0411 7.6639C13.0851 7.99165 13.1845 8.30583 13.4393 8.56066C13.6942 8.81549 14.0083 8.91486 14.3361 8.95893C14.6419 9.00005 15.0238 9.00003 15.4671 9L15.5 9H20V20C20 21.1046 19.1046 22 18 22H6C4.89543 22 4 21.1046 4 20V4ZM14 6.5V2H14.1716C14.702 2 15.2107 2.21071 15.5858 2.58579L19.4142 6.41421C19.7893 6.78929 20 7.29799 20 7.82843V8H15.5C15.0145 8 14.7006 7.99894 14.4694 7.96785C14.2525 7.93869 14.1845 7.89162 14.1464 7.85355C14.1084 7.81549 14.0613 7.74752 14.0322 7.53065C14.0011 7.2994 14 6.98554 14 6.5ZM10 13.0629C10 12.698 10.3782 12.456 10.7095 12.6089L13.8232 14.046C14.2105 14.2248 14.2105 14.7752 13.8232 14.954L10.7095 16.3911C10.3782 16.544 10 16.302 10 15.9371V13.0629ZM11.1286 11.701C10.1347 11.2422 9 11.9682 9 13.0629V15.9371C9 17.0318 10.1347 17.7578 11.1286 17.299L14.2423 15.8619C15.4042 15.3257 15.4042 13.6743 14.2423 13.1381L11.1286 11.701Z" fill="#222222"/>
</svg>
