<svg width="24" height="24" viewBox="0 0 24 24" fill="none" xmlns="http://www.w3.org/2000/svg">
<path d="M11.9316 9.68164L12.0781 9.71191L12.2197 9.76074C12.5323 9.89067 12.7213 10.1325 12.8213 10.3379C12.9202 10.5413 12.9539 10.7464 12.9697 10.8779C13.0018 11.1438 13 11.496 13 11.8359V13.2031C13.5441 13.2055 14.0345 13.2146 14.4316 13.2734C14.922 13.3462 15.5304 13.5258 15.9141 14.0889L15.9873 14.207L16.0518 14.3301C16.3427 14.9459 16.1898 15.5609 16.0039 16.0205C15.9062 16.262 15.7715 16.5276 15.6143 16.8125L15.0889 17.7207L13.793 19.9248C13.6207 20.2177 13.4436 20.5215 13.2812 20.7344C13.2009 20.8397 13.0676 20.9997 12.8789 21.125C12.6887 21.2513 12.4035 21.3647 12.0684 21.3184L11.9219 21.2881C11.5236 21.1796 11.2929 20.8968 11.1787 20.6621C11.0798 20.4587 11.0461 20.2536 11.0303 20.1221C10.9982 19.8562 11 19.504 11 19.1641V17.7959C10.4559 17.7935 9.96547 17.7854 9.56836 17.7266C9.04525 17.649 8.38832 17.4495 8.0127 16.793C7.63735 16.1367 7.79785 15.4697 7.99609 14.9795C8.19133 14.4968 8.5348 13.9191 8.91113 13.2793L10.207 11.0752L10.4668 10.6406C10.5528 10.5014 10.6376 10.3721 10.7188 10.2656C10.7991 10.1603 10.9324 10.0003 11.1211 9.875C11.3113 9.74869 11.5965 9.63529 11.9316 9.68164Z" stroke="#33363F" stroke-width="2"/>
<path fill-rule="evenodd" clip-rule="evenodd" d="M12 2C9.55912 2 7.4608 3.45744 6.52373 5.54534C6.36893 5.89026 6.12934 6 6 6C3.79086 6 2 7.79086 2 10C2 11.8658 3.27746 13.4332 5.00545 13.8754C5.00914 13.7718 5.01531 13.6871 5.02567 13.6084C5.10739 12.9877 5.37667 12.4279 5.77516 11.9875C4.77643 11.8758 4 11.0286 4 10C4 8.89543 4.89543 8 6 8C7.15073 8 7.97904 7.1872 8.34839 6.36427C8.97472 4.96871 10.3753 4 12 4C13.6247 4 15.0253 4.96871 15.6516 6.36427C16.021 7.1872 16.8493 8 18 8C19.1046 8 20 8.89543 20 10C20 11.0286 19.2236 11.8758 18.2248 11.9875C18.6233 12.4279 18.8926 12.9877 18.9743 13.6084C18.9847 13.6871 18.9909 13.7718 18.9945 13.8754C20.7225 13.4332 22 11.8658 22 10C22 7.79086 20.2091 6 18 6C17.8707 6 17.6311 5.89026 17.4763 5.54534C16.5392 3.45744 14.4409 2 12 2Z" fill="#33363F"/>
</svg>
