<svg viewBox="0 0 24 24" fill="none" xmlns="http://www.w3.org/2000/svg">
<path d="M11.8652 10.1777L11.9473 10.1943L12.0264 10.2217C12.2014 10.2943 12.3108 10.4307 12.3721 10.5566C12.4345 10.6851 12.46 10.825 12.4736 10.9385C12.5011 11.1669 12.5 11.4813 12.5 11.8359V13.7002L13.5381 13.708C13.8488 13.7164 14.1234 13.7337 14.3584 13.7686C14.8321 13.8388 15.2939 14.001 15.5537 14.4551L15.6348 14.627C15.7882 15.029 15.697 15.4448 15.54 15.833C15.451 16.0531 15.3269 16.2985 15.1768 16.5703L14.6582 17.4678L13.3623 19.6709C13.1824 19.9767 13.0234 20.2486 12.8838 20.4316C12.8144 20.5225 12.7215 20.63 12.6025 20.709C12.4858 20.7865 12.3226 20.8485 12.1348 20.8223L12.0527 20.8057C11.8307 20.7451 11.698 20.5873 11.6279 20.4434C11.5655 20.3149 11.54 20.175 11.5264 20.0615C11.4989 19.8331 11.5 19.5187 11.5 19.1641V17.2998C10.7398 17.2998 10.1116 17.3011 9.6416 17.2314C9.16788 17.1612 8.70607 16.999 8.44629 16.5449C8.18663 16.0909 8.2805 15.6108 8.45996 15.167C8.63797 14.7269 8.95684 14.1867 9.3418 13.5322L10.6377 11.3291L10.8926 10.9033C10.9722 10.7742 11.0464 10.6599 11.1162 10.5684C11.1856 10.4775 11.2785 10.37 11.3975 10.291C11.5142 10.2135 11.6774 10.1515 11.8652 10.1777Z" stroke="#222222"/>
<path fill-rule="evenodd" clip-rule="evenodd" d="M12 2.5C9.76317 2.5 7.83928 3.83526 6.97989 5.75007C6.77146 6.21449 6.38469 6.5 6 6.5C4.067 6.5 2.5 8.067 2.5 10C2.5 11.6095 3.58644 12.9653 5.06597 13.374C5.13772 13.0369 5.2655 12.7212 5.4392 12.4369C4.32851 12.1823 3.5 11.1879 3.5 10C3.5 8.61929 4.61929 7.5 6 7.5C6.89538 7.5 7.57652 6.86297 7.89222 6.15954C8.59624 4.59089 10.1713 3.5 12 3.5C13.8287 3.5 15.4038 4.59089 16.1078 6.15954C16.4235 6.86297 17.1046 7.5 18 7.5C19.3807 7.5 20.5 8.61929 20.5 10C20.5 11.1879 19.6715 12.1823 18.5608 12.4369C18.7345 12.7212 18.8623 13.0369 18.934 13.374C20.4136 12.9653 21.5 11.6095 21.5 10C21.5 8.067 19.933 6.5 18 6.5C17.6153 6.5 17.2285 6.21449 17.0201 5.75007C16.1607 3.83526 14.2368 2.5 12 2.5Z" fill="#222222"/>
</svg>
