<svg width="24" height="24" viewBox="0 0 24 24" fill="none" xmlns="http://www.w3.org/2000/svg">
<path d="M11.8789 10.0781L11.9736 10.0977L12.0654 10.1289C12.2679 10.213 12.3929 10.3709 12.4619 10.5127C12.5316 10.656 12.5581 10.8087 12.5723 10.9258C12.6007 11.1617 12.5996 11.4842 12.5996 11.8359V13.5996C13.3129 13.5996 13.9151 13.601 14.373 13.6689C14.8567 13.7407 15.3577 13.9107 15.6406 14.4053L15.6895 14.499C15.9098 14.9649 15.8046 15.4464 15.6328 15.8711C15.5421 16.0953 15.4152 16.3439 15.2637 16.6182L14.7441 17.5186L13.4482 19.7217C13.2698 20.025 13.1071 20.3032 12.9629 20.4922C12.8914 20.5859 12.7909 20.7038 12.6582 20.792C12.5267 20.8793 12.3386 20.9523 12.1211 20.9219L12.0264 20.9023C11.7691 20.8322 11.617 20.6494 11.5381 20.4873C11.4684 20.344 11.4419 20.1913 11.4277 20.0742C11.3993 19.8383 11.4004 19.5158 11.4004 19.1641V17.3994C10.6871 17.3994 10.0849 17.399 9.62695 17.3311C9.14335 17.2593 8.64234 17.0893 8.35938 16.5947C8.07651 16.1002 8.18389 15.582 8.36719 15.1289C8.54866 14.6803 8.87266 14.1329 9.25586 13.4814L10.5518 11.2783L10.8076 10.8506C10.8885 10.7195 10.965 10.6023 11.0371 10.5078C11.1086 10.4141 11.2091 10.2962 11.3418 10.208C11.4733 10.1207 11.6614 10.0477 11.8789 10.0781Z" fill="#7E869E" fill-opacity="0.25" stroke="#222222" stroke-width="1.2"/>
<path fill-rule="evenodd" clip-rule="evenodd" d="M12 2.39999C9.72238 2.39999 7.76361 3.75969 6.88869 5.70912C6.69098 6.14964 6.33365 6.39999 6.00002 6.39999C4.0118 6.39999 2.40002 8.01177 2.40002 9.99999C2.40002 11.6582 3.52115 13.0546 5.04675 13.4724C5.11992 13.062 5.27565 12.681 5.4963 12.347C4.41267 12.1156 3.60002 11.1527 3.60002 9.99999C3.60002 8.67451 4.67454 7.59999 6.00002 7.59999C6.94648 7.59999 7.65705 6.92781 7.98348 6.20048C8.67196 4.66645 10.2121 3.59999 12 3.59999C13.7879 3.59999 15.3281 4.66645 16.0166 6.20048C16.343 6.92781 17.0536 7.59999 18 7.59999C19.3255 7.59999 20.4 8.67451 20.4 9.99999C20.4 11.1527 19.5874 12.1156 18.5037 12.347C18.7244 12.681 18.8801 13.062 18.9533 13.4724C20.4789 13.0546 21.6 11.6582 21.6 9.99999C21.6 8.01177 19.9883 6.39999 18 6.39999C17.6664 6.39999 17.3091 6.14964 17.1114 5.70912C16.2364 3.75969 14.2777 2.39999 12 2.39999Z" fill="#222222"/>
</svg>
