<svg viewBox="0 0 24 24" fill="none" xmlns="http://www.w3.org/2000/svg">
<path fill-rule="evenodd" clip-rule="evenodd" d="M12 22C17.5228 22 22 17.5228 22 12C22 6.47715 17.5228 2 12 2C6.47715 2 2 6.47715 2 12C2 17.5228 6.47715 22 12 22ZM12.7071 6.29289L12 5.58579L11.2929 6.29289L8.29289 9.29289L9.70711 10.7071L12 8.41421L14.2929 10.7071L15.7071 9.29289L12.7071 6.29289ZM9.70711 13.2929L12 15.5858L14.2929 13.2929L15.7071 14.7071L12.7071 17.7071L12 18.4142L11.2929 17.7071L8.29289 14.7071L9.70711 13.2929Z" fill="#222222"/>
</svg>
