<svg width="24" height="24" viewBox="0 0 24 24" fill="none" xmlns="http://www.w3.org/2000/svg">
<path d="M3 7H4.77985C6.93172 7 8.00766 7 8.87921 7.45631C9.25172 7.65134 9.59114 7.90388 9.88499 8.20464C10.5725 8.90832 10.8817 9.93888 11.5 12V12C12.1183 14.0611 12.4275 15.0917 13.115 15.7954C13.4089 16.0961 13.7483 16.3487 14.1208 16.5437C14.9923 17 16.0683 17 18.2202 17H21M21 17L18 14M21 17L18 20" stroke="#33363F" stroke-width="2"/>
<path fill-rule="evenodd" clip-rule="evenodd" d="M21.7071 6.29291L18.7071 3.29291L17.2929 4.70712L18.5858 6.00001H18.2202L18.1753 6.00001H18.1753C17.1374 6 16.2935 5.99999 15.6025 6.06092C14.8846 6.12422 14.2534 6.25813 13.657 6.5704C13.2113 6.80371 12.8036 7.10285 12.4474 7.45765C12.6883 7.85132 12.8778 8.25883 13.0406 8.66738C13.1539 8.95142 13.2635 9.26085 13.3726 9.59121C13.5242 9.27601 13.6695 9.0681 13.8303 8.90349C14.0507 8.67793 14.3052 8.48852 14.5846 8.34225C14.8597 8.19821 15.2022 8.10397 15.7782 8.05319C16.3711 8.00091 17.1267 8.00001 18.2202 8.00001H18.5858L17.2929 9.29291L18.7071 10.7071L21.7071 7.70712L22.4142 7.00001L21.7071 6.29291ZM10.5526 16.5424C10.3117 16.1487 10.1222 15.7412 9.95935 15.3326C9.8461 15.0486 9.73651 14.7392 9.62739 14.4088C9.4758 14.724 9.33053 14.9319 9.16971 15.0965C8.94933 15.3221 8.69476 15.5115 8.41538 15.6578C8.14027 15.8018 7.79776 15.8961 7.22182 15.9468C6.62893 15.9991 5.87329 16 4.77985 16H3V18H4.77985H4.8247H4.82472C5.86257 18 6.70648 18 7.39748 17.9391C8.11537 17.8758 8.7466 17.7419 9.34305 17.4296C9.78866 17.1963 10.1964 16.8972 10.5526 16.5424Z" fill="#33363F"/>
</svg>
