<svg width="24" height="24" viewBox="0 0 24 24" fill="none" xmlns="http://www.w3.org/2000/svg">
<path d="M10.8223 2.73145C11.5158 2.18968 12.4842 2.18968 13.1777 2.73145L13.3223 2.85547L13.6885 3.20898C14.6164 4.12091 16.0316 5.62505 17.2832 7.42383C18.6948 9.45262 20 11.9999 20 14.5713C20 18.7524 16.3364 22 12 22C7.66359 22 4 18.7524 4 14.5713C4.00005 11.9999 5.30518 9.45262 6.7168 7.42383C8.1472 5.36805 9.79176 3.69755 10.6777 2.85547L10.8223 2.73145Z" stroke="#33363F" stroke-width="2"/>
<path d="M12 18C11.4747 18 10.9546 17.8965 10.4693 17.6955C9.98396 17.4945 9.54301 17.1999 9.17157 16.8284C8.80014 16.457 8.5055 16.016 8.30448 15.5307C8.10346 15.0454 8 14.5253 8 14" stroke="#33363F" stroke-width="2" stroke-linecap="round"/>
</svg>
