<svg viewBox="0 0 24 24" fill="none" xmlns="http://www.w3.org/2000/svg">
<path d="M11.1289 3.12598C11.679 2.69589 12.4605 2.72646 12.9775 3.21777L13.3389 3.56641C14.2531 4.46495 15.6452 5.94434 16.873 7.70898C18.267 9.71237 19.5 12.1555 19.5 14.5713C19.5 18.4371 16.1012 21.5 12 21.5C7.8988 21.5 4.5 18.4371 4.5 14.5713C4.50005 12.1555 5.73301 9.71237 7.12695 7.70898C8.5303 5.69212 10.1488 4.04818 11.0225 3.21777L11.1289 3.12598Z" stroke="#222222"/>
<path d="M12 18C11.4747 18 10.9546 17.8965 10.4693 17.6955C9.98396 17.4945 9.54301 17.1999 9.17157 16.8284C8.80014 16.457 8.5055 16.016 8.30448 15.5307C8.10346 15.0454 8 14.5253 8 14" stroke="#222222" stroke-linecap="round"/>
</svg>
