<svg width="24" height="24" viewBox="0 0 24 24" fill="none" xmlns="http://www.w3.org/2000/svg">
<path fill-rule="evenodd" clip-rule="evenodd" d="M10.2178 3.07918C10.0796 3.02895 9.92642 3.04204 9.79882 3.11495L3.25193 6.85603C3.09614 6.94505 3 7.11072 3 7.29015V7.5857C3 7.79595 3.13153 7.98375 3.32913 8.0556L13.6885 11.8226C13.8266 11.8729 13.9798 11.8598 14.1074 11.7869L20.7481 7.99219C20.9039 7.90317 21 7.73749 21 7.55807V7.3502C21 7.13995 20.8685 6.95216 20.6709 6.88031L10.2178 3.07918ZM21 11.0133C21 10.6294 20.5853 10.3887 20.2519 10.5792L14.4961 13.8682C14.2409 14.0141 13.9345 14.0402 13.6583 13.9398L3.67087 10.308C3.34478 10.1894 3 10.4309 3 10.7779V12.5857C3 12.796 3.13153 12.9838 3.32913 13.0556L13.6885 16.8226C13.8266 16.8729 13.9798 16.8598 14.1074 16.7869L20.7481 12.9922C20.9039 12.9032 21 12.7375 21 12.5581V11.0133ZM3.32913 18.1197C3.13153 18.0478 3 17.86 3 17.6498V15.7779C3 15.4309 3.34478 15.1894 3.67087 15.308L13.6583 18.9398C13.9345 19.0402 14.2409 19.0141 14.4961 18.8682L20.2519 15.5792C20.5853 15.3887 21 15.6294 21 16.0133V17.7098C21 17.8893 20.9039 18.0549 20.7481 18.144L14.2012 21.885C14.0736 21.9579 13.9204 21.971 13.7822 21.9208L3.32913 18.1197Z" fill="#222222"/>
</svg>
