<svg width="24" height="24" viewBox="0 0 24 24" fill="none" xmlns="http://www.w3.org/2000/svg">
<path d="M15.2111 11.1056L10.7367 8.86833C9.93878 8.46939 9 9.04958 9 9.94164V14.0584C9 14.9504 9.93877 15.5306 10.7367 15.1317L15.2111 12.8944C15.9482 12.5259 15.9482 11.4741 15.2111 11.1056Z" stroke="#222222" stroke-linecap="round" stroke-linejoin="round"/>
<path d="M5.23852 10.1883C5.51642 9.15114 6.02917 8.19184 6.73712 7.38458C7.44507 6.57732 8.32923 5.94374 9.32122 5.53284C10.3132 5.12195 11.3864 4.94476 12.4578 5.01499C13.5292 5.08521 14.5701 5.40097 15.5 5.93782C16.4299 6.47468 17.2238 7.21825 17.8203 8.11101C18.4168 9.00377 18.8 10.0218 18.9401 11.0863C19.0803 12.1508 18.9736 13.2333 18.6285 14.2501C18.2834 15.2668 17.709 16.1905 16.9497 16.9497" stroke="#2A4157" stroke-opacity="0.24" stroke-linecap="round"/>
</svg>
